<?xml version="1.0" encoding="iso-8859-1"?>
<!-- Generator: Adobe Illustrator 19.0.0, SVG Export Plug-In . SVG Version: 6.00 Build 0)  -->
<svg version="1.1" id="Layer_1" xmlns="http://www.w3.org/2000/svg" xmlns:xlink="http://www.w3.org/1999/xlink" x="0px" y="0px"
	 viewBox="0 0 512.009 512.009" style="enable-background:new 0 0 512.009 512.009;" xml:space="preserve">
<circle style="fill:#F7B239;" cx="256.004" cy="256.004" r="256.004"/>
<path style="fill:#E09B2D;" d="M121.499,390.501C29.407,298.407,22.15,153.608,99.723,53.204
	c-8.593,6.638-16.861,13.895-24.743,21.777c-99.974,99.974-99.974,262.065,0,362.038s262.065,99.974,362.038,0
	c7.881-7.881,15.138-16.15,21.777-24.743C358.392,489.85,213.593,482.593,121.499,390.501z"/>
<g>
	<path style="fill:#4D4D4D;" d="M142.673,238.339c19.358,0,35.107-15.749,35.107-35.107s-15.749-35.107-35.107-35.107
		s-35.107,15.749-35.107,35.107S123.316,238.339,142.673,238.339z"/>
	<path style="fill:#4D4D4D;" d="M369.327,238.339c19.358,0,35.107-15.749,35.107-35.107s-15.749-35.107-35.107-35.107
		s-35.107,15.749-35.107,35.107S349.969,238.339,369.327,238.339z"/>
	<path style="fill:#4D4D4D;" d="M417.944,341.233c-8.912,0-12.905-3.944-18.949-9.914c-6.941-6.856-15.58-15.389-32.287-15.389
		c-16.706,0-25.344,8.533-32.287,15.389c-6.044,5.97-10.038,9.914-18.949,9.914c-8.914,0-12.907-3.944-18.951-9.914
		c-6.942-6.856-15.582-15.389-32.288-15.389s-25.344,8.533-32.287,15.389c-6.044,5.97-10.038,9.914-18.951,9.914
		c-8.916,0-12.908-3.945-18.955-9.914c-6.942-6.856-15.582-15.389-32.288-15.389s-25.346,8.533-32.288,15.389
		c-6.046,5.97-10.04,9.914-18.955,9.914c-5.242,0-9.489,4.248-9.489,9.489c0,5.24,4.247,9.489,9.489,9.489
		c16.706,0,25.346-8.533,32.288-15.389c6.046-5.97,10.04-9.914,18.955-9.914c8.916,0,12.908,3.945,18.955,9.914
		c6.942,6.856,15.582,15.389,32.288,15.389c16.705,0,25.344-8.533,32.287-15.389c6.044-5.97,10.038-9.914,18.951-9.914
		c8.914,0,12.907,3.944,18.951,9.914c6.942,6.856,15.582,15.389,32.288,15.389c16.704,0,25.344-8.533,32.286-15.389
		c6.044-5.97,10.038-9.914,18.951-9.914c8.913,0,12.906,3.944,18.951,9.914c6.941,6.856,15.58,15.389,32.286,15.389
		c5.242,0,9.489-4.248,9.489-9.489C427.433,345.481,423.185,341.233,417.944,341.233z"/>
</g>
<g>
</g>
<g>
</g>
<g>
</g>
<g>
</g>
<g>
</g>
<g>
</g>
<g>
</g>
<g>
</g>
<g>
</g>
<g>
</g>
<g>
</g>
<g>
</g>
<g>
</g>
<g>
</g>
<g>
</g>
</svg>
