<?xml version="1.0" encoding="iso-8859-1"?>
<!-- Generator: Adobe Illustrator 19.0.0, SVG Export Plug-In . SVG Version: 6.00 Build 0)  -->
<svg version="1.1" id="Layer_1" xmlns="http://www.w3.org/2000/svg" xmlns:xlink="http://www.w3.org/1999/xlink" x="0px" y="0px"
	 viewBox="0 0 512 512" style="enable-background:new 0 0 512 512;" xml:space="preserve">
<circle style="fill:#FF6838;" cx="256" cy="256" r="256"/>
<path style="fill:#AE4E32;" d="M512,256c0-6.843-0.276-13.621-0.802-20.328L403.726,128.2L107.5,178.667L293.58,368.96L108.678,435
	l62.643,62.643C197.829,506.932,226.32,512,256,512C397.385,512,512,397.385,512,256z"/>
<path style="fill:#FFFFFF;" d="M108.274,149.256L193.338,56.9c33.743-36.635,91.581-36.635,125.323,0l85.064,92.356H108.274z"/>
<path style="fill:#E0E0E0;" d="M318.662,56.901C301.79,38.583,278.895,29.425,256,29.425v119.832h147.726L318.662,56.901z"/>
<path style="fill:#FFECB3;" d="M382.881,444.575H129.119c-15.381,0-27.56-12.998-26.562-28.346l18.512-284.554h269.862
	l18.512,284.554C410.441,431.578,398.262,444.575,382.881,444.575z"/>
<path style="fill:#FFD863;" d="M409.443,416.229l-18.512-284.554H256v312.9h126.881
	C398.261,444.575,410.441,431.578,409.443,416.229z"/>
<path style="fill:#FFCF35;" d="M397.038,181.693H114.962c-5.942,0-10.76-4.817-10.76-10.76v-34.314c0-5.942,4.817-10.76,10.76-10.76
	h282.075c5.942,0,10.76,4.817,10.76,10.76v34.314C407.797,176.876,402.98,181.693,397.038,181.693z"/>
<path style="fill:#FFB344;" d="M397.038,125.859H256v55.833h141.038c5.942,0,10.76-4.817,10.76-10.76v-34.314
	C407.797,130.677,402.98,125.859,397.038,125.859z"/>
<path style="fill:#FF9451;" d="M262.088,315.562c19.122,0,34.624-15.502,34.624-34.624v-3.706h-3.706
	c-14.441,0-26.811,8.843-32.006,21.407v-19.434h1.088c19.122,0,34.624-15.502,34.624-34.624v-3.706h-3.706
	c-10.845,0-20.521,4.989-26.87,12.793c5.184-12.547,2.682-27.522-7.516-37.72l-2.62-2.621l-2.621,2.621
	c-10.198,10.198-12.7,25.173-7.516,37.72c-6.349-7.804-16.025-12.793-26.87-12.793h-3.706v3.706
	c0,19.122,15.502,34.624,34.624,34.624H251v19.434c-5.194-12.564-17.565-21.407-32.006-21.407h-3.706v3.706
	c0,19.122,15.502,34.624,34.624,34.624H251v19.434c-5.194-12.564-17.565-21.407-32.006-21.407h-3.706v3.706
	c0,19.122,15.502,34.624,34.624,34.624H251v54.76h10v-54.76h1.088c19.122,0,34.624-15.502,34.624-34.624v-3.706h-3.706
	c-14.441,0-26.812,8.843-32.006,21.407v-19.434L262.088,315.562L262.088,315.562z M261,262.281L261,262.281
	c0-0.001,0-0.001,0.001-0.002C261,262.28,261,262.281,261,262.281z M250.999,262.28C251,262.28,251,262.28,250.999,262.28
	l0.001,0.002C251,262.281,251,262.28,250.999,262.28z"/>
<path style="fill:#F7674F;" d="M262.088,315.562c19.122,0,34.624-15.502,34.624-34.624v-3.706h-3.706
	c-14.441,0-26.811,8.843-32.006,21.407v-19.434h1.088c19.122,0,34.624-15.502,34.624-34.624v-3.706h-3.706
	c-10.845,0-20.521,4.989-26.87,12.793c5.184-12.547,2.682-27.522-7.516-37.72l-2.62-2.621l0,0v193.352h5v-54.76h1.088
	c19.122,0,34.624-15.502,34.624-34.624v-3.706h-3.706c-14.441,0-26.812,8.843-32.006,21.407v-19.434L262.088,315.562
	L262.088,315.562z M261,262.281C261,262.28,261,262.28,261,262.281C261,262.28,261,262.281,261,262.281L261,262.281z"/>
<g>
</g>
<g>
</g>
<g>
</g>
<g>
</g>
<g>
</g>
<g>
</g>
<g>
</g>
<g>
</g>
<g>
</g>
<g>
</g>
<g>
</g>
<g>
</g>
<g>
</g>
<g>
</g>
<g>
</g>
</svg>
