<?xml version="1.0" encoding="iso-8859-1"?>
<!-- Generator: Adobe Illustrator 19.0.0, SVG Export Plug-In . SVG Version: 6.00 Build 0)  -->
<svg version="1.1" id="Capa_1" xmlns="http://www.w3.org/2000/svg" xmlns:xlink="http://www.w3.org/1999/xlink" x="0px" y="0px"
	 viewBox="0 0 496 496" style="enable-background:new 0 0 496 496;" xml:space="preserve">
<g>
	<path style="fill:#F0BC5E;" d="M272,208c0,0-64,80-184,88v80c112,0,248-168,248-168H272z"/>
	<path style="fill:#F0BC5E;" d="M285.104,347.504C255.712,374.632,236.656,385.8,216,392h128V264
		C344,264,317.088,317.984,285.104,347.504z"/>
	<path style="fill:#F0BC5E;" d="M376,136c-13.232,0-24-10.768-24-24s10.768-24,24-24s24,10.768,24,24S389.232,136,376,136z"/>
	<path style="fill:#F0BC5E;" d="M328,48c-13.232,0-24-10.768-24-24s10.768-24,24-24s24,10.768,24,24S341.232,48,328,48z"/>
	<path style="fill:#F0BC5E;" d="M256,96c-13.232,0-24-10.768-24-24s10.768-24,24-24s24,10.768,24,24S269.232,96,256,96z"/>
</g>
<path d="M320,149.576V112H112v37.576l-22.592,33.888C83.248,192.696,80,203.44,80,214.528v182.144c0,8.648,2.048,17.312,5.912,25.04
	L104,457.888V496h224v-38.112l18.088-36.176c3.864-7.728,5.912-16.392,5.912-25.04V214.528c0-11.096-3.248-21.832-9.408-31.064
	L320,149.576z M128,128h176v16H128V128z M312,480H120v-16h192V480z M315.056,448H116.944l-16.72-33.448
	c-1.048-2.096-1.848-4.304-2.512-6.552H280v-16H96V216h40v-16H98.84c1.04-2.656,2.272-5.248,3.88-7.656L124.28,160h183.44
	l21.56,32.344c1.608,2.408,2.832,5,3.88,7.656H152v16h184v176h-40v16h38.288c-0.664,2.248-1.464,4.456-2.512,6.552L315.056,448z"/>
<rect x="80" y="64" width="16" height="16"/>
<rect x="80" y="96" width="16" height="16"/>
<rect x="96" y="80" width="16" height="16"/>
<rect x="64" y="80" width="16" height="16"/>
<rect x="400" y="160" width="16" height="16"/>
<rect x="400" y="192" width="16" height="16"/>
<rect x="416" y="176" width="16" height="16"/>
<rect x="384" y="176" width="16" height="16"/>
<rect x="160" width="16" height="16"/>
<rect x="160" y="32" width="16" height="16"/>
<rect x="176" y="16" width="16" height="16"/>
<rect x="144" y="16" width="16" height="16"/>
<g>
</g>
<g>
</g>
<g>
</g>
<g>
</g>
<g>
</g>
<g>
</g>
<g>
</g>
<g>
</g>
<g>
</g>
<g>
</g>
<g>
</g>
<g>
</g>
<g>
</g>
<g>
</g>
<g>
</g>
</svg>
