<?xml version="1.0" encoding="iso-8859-1"?>
<!-- Generator: Adobe Illustrator 19.0.0, SVG Export Plug-In . SVG Version: 6.00 Build 0)  -->
<svg version="1.1" id="Capa_1" xmlns="http://www.w3.org/2000/svg" xmlns:xlink="http://www.w3.org/1999/xlink" x="0px" y="0px"
	 viewBox="0 0 512 512" style="enable-background:new 0 0 512 512;" xml:space="preserve">
<path style="fill:#F7CF9C;" d="M358.974,12.931c-8.232-3.217-17.394,1.1-20.216,9.375l-20.485,60.088l-10.691,3.656l8.972,29.491
	l15.195-5.026c11.814-3.594,14.431-14.686,14.612-14.981l21.418-62.824C370.465,24.829,366.729,15.962,358.974,12.931z"/>
<g>
	<path style="fill:#EAB883;" d="M356.79,21.722c1.061-3.113,1.106-6.376,0.311-9.377c-7.704-1.944-15.734,2.309-18.343,9.962
		l-20.485,60.088l-10.691,3.656l4.93,16.204l8.248-2.728c11.814-3.594,14.431-14.685,14.612-14.981L356.79,21.722z"/>
	<path style="fill:#EAB883;" d="M39.52,109.161c5.133-7.195,15.164-8.591,22.052-3.206l50.011,39.104l11.752-3.552l8.616,29.597
		l-16.272,4.868c-11.857,3.452-20.129-4.411-20.426-4.552l-52.288-40.885C36.406,125.407,34.685,115.94,39.52,109.161z"/>
</g>
<path style="fill:#F7CF9C;" d="M119.456,160.669c-11.857,3.452-20.129-4.411-20.426-4.551l-52.288-40.885
	c-2.703-2.113-4.568-4.968-5.508-8.063c-0.612,0.609-1.194,1.262-1.714,1.992c-4.836,6.778-3.114,16.246,3.445,21.375l52.288,40.885
	c0.297,0.14,8.569,8.003,20.426,4.551l16.272-4.867l-3.796-13.038L119.456,160.669z"/>
<path style="fill:#EAB883;" d="M221.433,82.707c-8.379,6.071-18.813,9.363-29.486,8.986l4.842,15.706
	c1.102,3.575-0.852,7.377-4.401,8.561l-7.337,2.448c6.913,9.58,21.068,14.649,33.028,11.579
	c13.122-3.369,23.78-17.045,24.055-29.752l-6.467,2.155c-4.062,1.354-8.442-0.899-9.703-4.99L221.433,82.707z"/>
<path style="fill:#E0A773;" d="M191.946,91.694l4.842,15.706c1.102,3.575-0.852,7.377-4.401,8.561l-7.337,2.448
	c3.448,4.779,8.699,8.434,14.58,10.517l4.658-1.83c7.527-2.956,11.392-11.315,8.769-18.964l-5.207-15.19l-0.414-3.291
	C202.48,91.162,197.243,91.881,191.946,91.694z"/>
<path style="fill:#F7CF9C;" d="M198.105,343.882l-10.643,120.696c-0.775,8.709,5.853,16.368,14.682,16.763
	c8.318,0.372,15.327-6.221,16.065-14.514l11.11-122.945H198.105z"/>
<path style="fill:#EAB883;" d="M202.64,464.578l10.643-120.696h-15.177l-10.643,120.696c-0.775,8.708,5.853,16.368,14.682,16.763
	c2.973,0.133,5.772-0.636,8.184-2.042C205.279,476.398,202.09,470.76,202.64,464.578z"/>
<path style="fill:#F7CF9C;" d="M298.494,343.882h-31.129l11.026,122.945c0.738,8.294,7.747,14.886,16.065,14.514
	c8.829-0.395,15.457-8.055,14.682-16.763L298.494,343.882z"/>
<path style="fill:#EAB883;" d="M293.843,466.827l-11.026-122.945h-15.453l11.026,122.945c0.738,8.294,7.747,14.886,16.065,14.514
	c2.619-0.117,5.036-0.886,7.131-2.119C297.322,476.678,294.312,472.101,293.843,466.827z"/>
<path style="fill:#666666;" d="M304.873,246.326l-113.147,8.302l-6.27,81.408c0,4.903,3.975,8.877,8.877,8.877
	c3.163,0,108.256,0,106.049,0c5.943,0,10.761-4.818,10.761-10.761L304.873,246.326L304.873,246.326z"/>
<g>
	<path style="fill:#5A5B5B;" d="M213.272,336.04l6.429-83.465l-27.974,2.053l-6.27,81.408c0,4.903,3.975,8.877,8.877,8.877
		c0.943,0,10.946,0,24.463,0C215.526,343.296,213.272,339.936,213.272,336.04z"/>
	<path style="fill:#5A5B5B;" d="M248.299,278.868c-4.267,0-7.727,3.459-7.727,7.727v58.318c5.542,0,9.93,0,15.453,0v-58.318
		C256.026,282.326,252.567,278.868,248.299,278.868z"/>
</g>
<circle style="fill:#F7CF9C;" cx="194.649" cy="47.41" r="47.41"/>
<path style="fill:#EAB883;" d="M186.282,68.173c-19.11-17.869-20.127-47.837-2.286-66.964c-8.885,2.041-17.278,6.66-23.973,13.82
	c-17.883,19.124-16.877,49.124,2.247,67.007c19.124,17.882,49.124,16.875,67.007-2.249c0.013-0.014,0.025-0.029,0.039-0.044
	C214.468,83.154,198.246,79.361,186.282,68.173z"/>
<path style="fill:#ED5A5A;" d="M168.214,173.465l-26.802,8.154c-4.768,1.451-9.81-1.239-11.261-6.007l-11.069-36.382
	c-1.451-4.768,1.239-9.81,6.007-11.261l31.977-9.728l0,0l22.847-6.951l0,0c1.844-0.561,3.828,0.278,4.697,1.998
	c6.151,12.169,19.9,19.152,33.467,15.669c14.555-3.737,23.549-17.62,21.785-31.885c-0.594-4.805,4.552-5.459,4.78-5.607
	l20.635-6.278l0.037,0.122l32.019-9.741c4.768-1.451,9.81,1.239,11.261,6.007l11.068,36.382c1.451,4.768-1.239,9.81-6.007,11.261
	l-23.797,7.24c-4.352,1.324-6.702,6.029-5.128,10.296c5.508,14.932,16.754,50.499,20.143,99.572l-113.147,8.302
	c0,0,2.199-45.254-15.472-77.848C174.697,173.906,171.34,172.514,168.214,173.465z"/>
<path style="fill:#F47D7D;" d="M222.221,161.544c-3.313,0-6.375-2.146-7.39-5.479c-1.242-4.083,1.06-8.4,5.143-9.641l8.828-2.686
	c4.086-1.244,8.399,1.059,9.641,5.142s-1.06,8.4-5.143,9.641l-8.828,2.686C223.723,161.435,222.965,161.544,222.221,161.544z"/>
<path style="fill:#ED5A5A;" d="M478.278,481.399c-50.721,0-379.543,0-444.557,0c-8.45,0-15.301,6.85-15.301,15.301
	c0,8.45,6.85,15.3,15.301,15.3c23.68,0,80.864,0,103.021,0c41.71,0,307.564,0,341.537,0c8.45,0,15.301-6.85,15.301-15.3
	C493.578,488.249,486.728,481.399,478.278,481.399z"/>
<path style="fill:#E04B4B;" d="M129.682,496.7c0-8.451,6.851-15.301,15.301-15.301c-50.622,0-92.238,0-111.262,0
	c-8.45,0-15.301,6.85-15.301,15.301c0,8.45,6.851,15.3,15.301,15.3c23.68,0,80.864,0,103.021,0c2.163,0,4.937,0,8.242,0
	C136.532,512,129.682,505.15,129.682,496.7z"/>
<path style="fill:#D14242;" d="M219.7,252.575L219.7,252.575c0,0,3.797-35.24-10.299-71.075
	c-4.501-11.442-17.401-17.109-28.888-12.727l-12.299,4.692c3.127-0.951,6.483,0.441,8.041,3.314
	c17.671,32.595,15.472,77.848,15.472,77.848L219.7,252.575z"/>
<g>
</g>
<g>
</g>
<g>
</g>
<g>
</g>
<g>
</g>
<g>
</g>
<g>
</g>
<g>
</g>
<g>
</g>
<g>
</g>
<g>
</g>
<g>
</g>
<g>
</g>
<g>
</g>
<g>
</g>
</svg>
