<?xml version="1.0" encoding="iso-8859-1"?>
<!-- Generator: Adobe Illustrator 19.0.0, SVG Export Plug-In . SVG Version: 6.00 Build 0)  -->
<svg version="1.1" id="Capa_1" xmlns="http://www.w3.org/2000/svg" xmlns:xlink="http://www.w3.org/1999/xlink" x="0px" y="0px"
	 viewBox="0 0 472.171 472.171" style="enable-background:new 0 0 472.171 472.171;" xml:space="preserve">
<g>
	<path style="fill:#277BAA;" d="M316.085,471.75c-3.2,0-6.4-2.4-8-5.6l-14.4-50.4h-131.2l-14.4,50.4c-0.8,4-5.6,7.2-9.6,5.6
		c-4-0.8-7.2-5.6-5.6-9.6c0,0,0,0,0-0.8l17.6-61.6h156l17.6,61.6c1.6,4-1.6,8.8-5.6,9.6
		C317.685,471.75,316.885,471.75,316.085,471.75z"/>
	<path style="fill:#277BAA;" d="M308.085,447.75h-160c-4.8,0-8-3.2-8-8s3.2-8,8-8h160c4.8,0,8,3.2,8,8
		S312.885,447.75,308.085,447.75z"/>
</g>
<path style="fill:#428DC5;" d="M36.085,247.75h384l0,0c0,88-72,160-160,160h-64C108.085,407.75,36.085,335.75,36.085,247.75
	L36.085,247.75z"/>
<path style="fill:#F26B32;" d="M76.085,207.75h304c22.4,0,40,17.6,40,40l0,0c0,22.4-17.6,40-40,40h-304c-22.4,0-40-17.6-40-40l0,0
	C36.085,225.35,53.685,207.75,76.085,207.75z"/>
<path style="fill:#D85021;" d="M380.085,255.75h-304c-16,0-30.4-9.6-36.8-24c-8.8,20,0,44,20.8,52.8c4.8,2.4,10.4,3.2,16,3.2h304
	c22.4,0,40-17.6,40-40c0-5.6-0.8-11.2-3.2-16C410.485,246.15,396.085,255.75,380.085,255.75z"/>
<path style="fill:#F27E55;" d="M76.085,255.75h304c16,0,30.4-9.6,36.8-24c-6.4-14.4-20.8-24-36.8-24h-304c-16,0-30.4,9.6-36.8,24
	C45.685,246.15,60.085,255.75,76.085,255.75z"/>
<g>
	<path style="fill:#277BAA;" d="M380.085,295.75h-304c-26.4,0-48-21.6-48-48s21.6-48,48-48h304c26.4,0,48,21.6,48,48
		S406.485,295.75,380.085,295.75z M76.085,215.75c-17.6,0-32,14.4-32,32s14.4,32,32,32h304c17.6,0,32-14.4,32-32s-14.4-32-32-32
		H76.085z"/>
	<path style="fill:#277BAA;" d="M75.285,295.75c-0.8,0-0.8,0-1.6,0c-4-0.8-7.2-4.8-6.4-9.6l15.2-80c0.8-4,4.8-7.2,9.6-6.4
		c4,0.8,7.2,4.8,6.4,9.6l0,0l-15.2,80C82.485,293.35,79.285,295.75,75.285,295.75z"/>
	<path style="fill:#277BAA;" d="M122.485,295.75c-0.8,0-0.8,0-1.6,0c-4-0.8-7.2-4.8-6.4-9.6l15.2-80c0.8-4,4.8-7.2,9.6-6.4
		c4,0.8,7.2,4.8,6.4,9.6l0,0l-15.2,80C129.685,293.35,126.485,295.75,122.485,295.75z"/>
	<path style="fill:#277BAA;" d="M169.685,295.75c-0.8,0-0.8,0-1.6,0c-4-0.8-7.2-4.8-6.4-9.6l15.2-80c0.8-4,4.8-7.2,9.6-6.4
		c4,0.8,7.2,4.8,6.4,9.6l0,0l-15.2,80C176.085,293.35,172.885,295.75,169.685,295.75z"/>
	<path style="fill:#277BAA;" d="M216.085,295.75c-0.8,0-0.8,0-1.6,0c-4-0.8-7.2-4.8-6.4-9.6l15.2-80c0.8-4,4.8-7.2,9.6-6.4
		c4,0.8,7.2,4.8,6.4,9.6l0,0l-15.2,80C223.285,293.35,220.085,295.75,216.085,295.75z"/>
	<path style="fill:#277BAA;" d="M263.285,295.75c-0.8,0-0.8,0-1.6,0c-4-0.8-7.2-4.8-6.4-9.6l15.2-80c0.8-4,4.8-7.2,9.6-6.4
		c4,0.8,7.2,4.8,6.4,9.6l0,0l-15.2,80C270.485,293.35,267.285,295.75,263.285,295.75z"/>
	<path style="fill:#277BAA;" d="M310.485,295.75c-0.8,0-0.8,0-1.6,0c-4-0.8-7.2-4.8-6.4-9.6l15.2-80c0.8-4,4.8-7.2,9.6-6.4
		c4,0.8,7.2,4.8,6.4,9.6l0,0l-15.2,80C317.685,293.35,314.485,295.75,310.485,295.75z"/>
	<path style="fill:#277BAA;" d="M357.685,295.75c-0.8,0-0.8,0-1.6,0c-4-0.8-7.2-4.8-6.4-9.6l15.2-80c0.8-4,4.8-7.2,8.8-6.4
		s7.2,4.8,6.4,8.8c0,0,0,0,0,0.8l-15.2,80C364.885,293.35,360.885,295.75,357.685,295.75z"/>
</g>
<path style="fill:#428DC5;" d="M436.085,151.75h-392c-4.8,0-8-3.2-8-8s3.2-8,8-8h392c4.8,0,8,3.2,8,8S440.885,151.75,436.085,151.75
	z"/>
<path style="fill:#89B140;" d="M324.085,111.75h32v64h-32V111.75z"/>
<circle style="fill:#5B3726;" cx="100.085" cy="143.75" r="32"/>
<circle style="fill:#DC4D41;" cx="260.085" cy="143.75" r="32"/>
<g>
	<path style="fill:#FBB540;" d="M100.085,87.75c-4.8,0-8-3.2-8-8c0-1.6,0.8-3.2,1.6-4.8l12.8-19.2l-12.8-19.2
		c-1.6-2.4-1.6-6.4,0-8.8l16-24c2.4-4,7.2-4.8,11.2-2.4s4.8,7.2,2.4,11.2l-13.6,19.2l12.8,19.2c1.6,2.4,1.6,6.4,0,8.8l-16,24
		C104.885,86.15,102.485,87.75,100.085,87.75z"/>
	<path style="fill:#FBB540;" d="M180.085,87.75c-4.8,0-8-3.2-8-8c0-1.6,0.8-3.2,1.6-4.8l12.8-19.2l-12.8-19.2
		c-1.6-2.4-1.6-6.4,0-8.8l16-24c2.4-4,7.2-4.8,11.2-2.4s4.8,7.2,2.4,11.2l-13.6,19.2l12.8,19.2c1.6,2.4,1.6,6.4,0,8.8l-16,24
		C184.885,86.15,182.485,87.75,180.085,87.75z"/>
	<path style="fill:#FBB540;" d="M260.085,87.75c-4.8,0-8-3.2-8-8c0-1.6,0.8-3.2,1.6-4.8l12.8-19.2l-12.8-19.2
		c-1.6-2.4-1.6-6.4,0-8.8l16-24c2.4-4,7.2-4.8,11.2-2.4s4.8,7.2,2.4,11.2l-13.6,19.2l12.8,19.2c1.6,2.4,1.6,6.4,0,8.8l-16,24
		C264.885,86.15,262.485,87.75,260.085,87.75z"/>
	<path style="fill:#FBB540;" d="M332.085,87.75c-4.8,0-8-3.2-8-8c0-1.6,0.8-3.2,1.6-4.8l12.8-19.2l-12.8-19.2
		c-1.6-2.4-1.6-6.4,0-8.8l16-24c2.4-4,7.2-4.8,11.2-2.4s4.8,7.2,2.4,11.2l-13.6,19.2l12.8,19.2c1.6,2.4,1.6,6.4,0,8.8l-16,24
		C336.885,86.15,334.485,87.75,332.085,87.75z"/>
	<path style="fill:#FBB540;" d="M164.085,111.75h32v64h-32V111.75z"/>
</g>
<path style="fill:#277BAA;" d="M388.085,287.75l-69.6,1.6c0,0,61.6,101.6-191.2,102.4c21.6,11.2,45.6,16.8,69.6,16h64
	c83.2,1.6,152.8-62.4,159.2-144.8L388.085,287.75z"/>
<g>
</g>
<g>
</g>
<g>
</g>
<g>
</g>
<g>
</g>
<g>
</g>
<g>
</g>
<g>
</g>
<g>
</g>
<g>
</g>
<g>
</g>
<g>
</g>
<g>
</g>
<g>
</g>
<g>
</g>
</svg>
