<?xml version="1.0" encoding="iso-8859-1"?>
<!-- Generator: Adobe Illustrator 19.0.0, SVG Export Plug-In . SVG Version: 6.00 Build 0)  -->
<svg version="1.1" id="Capa_1" xmlns="http://www.w3.org/2000/svg" xmlns:xlink="http://www.w3.org/1999/xlink" x="0px" y="0px"
	 viewBox="0 0 512 512" style="enable-background:new 0 0 512 512;" xml:space="preserve">
<path style="fill:#89B140;" d="M418.133,499.81H93.867L256,235.277L418.133,499.81z"/>
<path style="fill:#79A73A;" d="M264.533,405.944l-51.2,93.867h102.4L264.533,405.944z"/>
<path style="fill:#AAC16B;" d="M264.533,405.944l76.8,42.667l-25.6,51.2L264.533,405.944z"/>
<path style="fill:#79A73A;" d="M256,235.277L93.867,499.81h51.2L256,235.277z"/>
<g>
	<path style="fill:#533222;" d="M443.733,124.344H460.8v384h-17.067V124.344z"/>
	<path style="fill:#533222;" d="M51.2,243.81h17.067v264.533H51.2V243.81z"/>
</g>
<path style="fill:#804D35;" d="M0,491.277h512v17.067H0V491.277z"/>
<path style="fill:#B9B9B9;" d="M482.133,47.544h-5.504c-4.634-18.21-23.151-29.218-41.361-24.585
	c-11.938,3.038-21.308,12.297-24.482,24.201c0,0.128,0,0.256-0.06,0.384h-5.393c-11.785,0-21.333,9.549-21.333,21.333
	s9.549,21.333,21.333,21.333h76.8c11.785,0,21.333-9.549,21.333-21.333S493.918,47.544,482.133,47.544z"/>
<path style="fill:#DBDBDB;" d="M486.4,68.877c0-11.785-9.549-21.333-21.333-21.333h-5.504
	c-3.012-11.861-12.169-21.188-23.979-24.414h-0.102c-11.989,2.935-21.444,12.143-24.695,24.047c0,0.128,0,0.256-0.06,0.384h-5.393
	C393.549,47.561,384,57.11,384,68.894s9.549,21.333,21.333,21.333h59.733c11.785,0,21.333-9.549,21.333-21.333
	C486.4,68.886,486.4,68.886,486.4,68.877z"/>
<path style="fill:#FBB540;" d="M227.362,52.664c-2.893-13.594-1.365-27.759,4.378-40.422c-4.241-0.017-8.474,0.41-12.629,1.289
	c-33.86,7.765-55.006,41.506-47.249,75.366c6.571,34.108,39.535,56.431,73.643,49.877c19.063-4.113,34.995-17.101,42.871-34.935
	C258.543,103.232,233.148,81.933,227.362,52.664z"/>
<path style="fill:#DBDBDB;" d="M162.662,91.277h-26.641C133.589,60.745,107.401,37.628,76.8,39.01
	C43.81,39.19,17.212,66.087,17.399,99.068c0.162,29.85,22.34,54.997,51.934,58.889v0.512h93.329
	c18.56,0.299,33.843-14.507,34.133-33.067s-14.507-33.843-33.067-34.133C163.379,91.268,163.021,91.268,162.662,91.277z"/>
<path style="fill:#B9B9B9;" d="M145.596,108.344h-26.641c-2.432-30.532-28.621-53.649-59.221-52.267
	c-11.674-0.009-23.083,3.413-32.819,9.847c-18.133,27.511-10.53,64.521,16.981,82.654c7.646,5.043,16.35,8.252,25.438,9.387v0.512
	h93.329c4.693-0.009,9.327-1.007,13.611-2.927c7.561-16.887,0-36.719-16.887-44.279
	C155.051,109.325,150.349,108.327,145.596,108.344z"/>
<g>
	<path style="fill:#F4CA62;" d="M290.133,141.41H307.2v17.067h-17.067V141.41z"/>
	<path style="fill:#F4CA62;" d="M230.4,175.544h17.067v17.067H230.4V175.544z"/>
	<path style="fill:#F4CA62;" d="M136.533,175.544H153.6v17.067h-17.067V175.544z"/>
	<path style="fill:#F4CA62;" d="M375.467,132.877h17.067v17.067h-17.067V132.877z"/>
	<path style="fill:#F4CA62;" d="M332.8,167.01h17.067v17.067H332.8V167.01z"/>
</g>
<g>
	<path style="fill:#5B3726;" d="M102.4,349.743l-42.667-42.667l-42.667,42.667L5.001,337.677l48.7-48.7
		c3.337-3.328,8.73-3.328,12.066,0l48.7,48.7L102.4,349.743z"/>
	<path style="fill:#5B3726;" d="M102.4,298.543l-42.667-42.667l-42.667,42.667L5.001,286.477l48.7-48.7
		c3.337-3.328,8.73-3.328,12.066,0l48.7,48.7L102.4,298.543z"/>
	<path style="fill:#5B3726;" d="M102.4,400.943l-42.667-42.667l-42.667,42.667L5.001,388.877l48.7-48.7
		c3.337-3.328,8.73-3.328,12.066,0l48.7,48.7L102.4,400.943z"/>
	<path style="fill:#5B3726;" d="M494.933,230.277l-42.667-42.667L409.6,230.277l-12.066-12.066l48.7-48.7
		c3.328-3.328,8.738-3.328,12.066,0l48.7,48.7L494.933,230.277z"/>
	<path style="fill:#5B3726;" d="M494.933,179.077l-42.667-42.667L409.6,179.077l-12.066-12.066l48.7-48.7
		c3.328-3.328,8.738-3.328,12.066,0l48.7,48.7L494.933,179.077z"/>
	<path style="fill:#5B3726;" d="M494.933,281.477l-42.667-42.667L409.6,281.477l-12.066-12.066l48.7-48.7
		c3.328-3.328,8.738-3.328,12.066,0l48.7,48.7L494.933,281.477z"/>
	<path style="fill:#5B3726;" d="M494.933,332.677l-42.667-42.667L409.6,332.677l-12.066-12.066l48.7-48.7
		c3.328-3.328,8.738-3.328,12.066,0l48.7,48.7L494.933,332.677z"/>
</g>
<path d="M418.133,508.344H93.867c-3.089,0-5.939-1.664-7.45-4.369c-1.51-2.688-1.442-5.99,0.171-8.627l162.133-264.533
	c3.098-5.069,11.452-5.069,14.549,0l162.133,264.533c1.613,2.637,1.681,5.931,0.171,8.627
	C424.064,506.68,421.222,508.344,418.133,508.344z M109.107,491.277h293.786L256,251.601L109.107,491.277z"/>
<path d="M315.733,508.344h-102.4c-3.012,0-5.803-1.596-7.339-4.173c-1.536-2.594-1.596-5.803-0.154-8.439l51.2-93.867
	c2.995-5.487,12.006-5.487,14.985,0l51.2,93.867c1.442,2.645,1.382,5.854-0.154,8.439
	C321.536,506.757,318.746,508.344,315.733,508.344z M227.712,491.277h73.651l-36.83-67.516L227.712,491.277z"/>
<path d="M315.733,508.344c-3.115,0-5.99-1.698-7.492-4.446l-51.2-93.867c-1.818-3.337-1.22-7.467,1.476-10.138
	c2.697-2.671,6.835-3.26,10.155-1.4l76.8,42.667c4.002,2.219,5.53,7.194,3.49,11.273l-25.6,51.2
	c-1.425,2.842-4.301,4.659-7.484,4.719C315.836,508.344,315.785,508.344,315.733,508.344z M286.114,427.695l29.295,53.692
	l14.643-29.286L286.114,427.695z"/>
<path d="M145.067,508.344h-51.2c-3.089,0-5.939-1.664-7.45-4.369c-1.51-2.688-1.442-5.99,0.171-8.627l162.133-264.533
	c2.321-3.806,7.194-5.163,11.17-3.14c3.968,2.031,5.7,6.784,3.977,10.897L152.934,503.104
	C151.612,506.279,148.506,508.344,145.067,508.344z M109.107,491.277h30.285l65.621-156.484L109.107,491.277z"/>
<path d="M494.933,230.277l-42.667-42.667L409.6,230.277l-12.066-12.066l48.7-48.7c3.337-3.337,8.73-3.337,12.066,0l48.7,48.7
	L494.933,230.277z"/>
<path d="M494.933,179.077l-42.667-42.667L409.6,179.077l-12.066-12.066l48.7-48.7c3.337-3.337,8.73-3.337,12.066,0l48.7,48.7
	L494.933,179.077z"/>
<path d="M494.933,281.477l-42.667-42.667L409.6,281.477l-12.066-12.066l48.7-48.708c3.2-3.2,8.866-3.2,12.066,0L507,269.41
	L494.933,281.477z"/>
<path d="M494.933,332.677l-42.667-42.667L409.6,332.677l-12.066-12.066l48.7-48.7c3.337-3.337,8.73-3.337,12.066,0l48.7,48.7
	L494.933,332.677z"/>
<rect x="443.733" y="124.344" width="17.067" height="384"/>
<path d="M102.4,349.743l-42.667-42.667l-42.667,42.667L5.001,337.677l48.7-48.7c3.337-3.337,8.73-3.337,12.066,0l48.7,48.7
	L102.4,349.743z"/>
<path d="M102.4,298.543l-42.667-42.667l-42.667,42.667L5.001,286.477l48.7-48.708c3.2-3.2,8.866-3.2,12.066,0l48.7,48.708
	L102.4,298.543z"/>
<path d="M102.4,400.943l-42.667-42.667l-42.667,42.667L5.001,388.877l48.7-48.7c3.337-3.337,8.73-3.337,12.066,0l48.7,48.7
	L102.4,400.943z"/>
<rect x="51.2" y="243.81" width="17.067" height="264.533"/>
<rect y="491.26" width="512" height="17.067"/>
<path d="M482.133,98.744h-76.8c-16.469,0-29.867-13.397-29.867-29.867c0-16.222,13.005-29.474,29.141-29.858
	c5.188-11.972,15.693-21.052,28.561-24.329c20.497-5.214,41.395,5.495,49.545,24.32C498.918,39.318,512,52.604,512,68.877
	C512,85.338,498.603,98.744,482.133,98.744z M405.333,56.077c-7.057,0-12.8,5.743-12.8,12.8c0,7.057,5.743,12.8,12.8,12.8h76.8
	c7.057,0,12.8-5.743,12.8-12.8c0-7.057-5.743-12.8-12.8-12.8h-5.504c-3.9,0-7.305-2.645-8.269-6.426
	c-3.473-13.628-17.365-21.888-30.993-18.415c-8.815,2.244-15.787,9.037-18.253,17.783c-0.145,0.725-0.358,1.451-0.623,2.039
	c-1.374,3.055-4.429,5.018-7.774,5.018H405.333z"/>
<path d="M232.934,148.578c-13.798,0-27.264-4.156-38.878-12.143l-7.031-4.838l9.677-14.054l7.031,4.838
	c11.392,7.834,25.173,10.778,38.758,8.252c12.928-2.389,24.235-9.429,32.06-19.908c-27.571-6.007-49.954-28.066-55.561-56.465
	c-2.278-10.675-2.142-21.572,0.35-32.068c-28.177,7.33-45.739,36.036-39.159,64.734l1.911,8.32l-16.64,3.814l-1.903-8.32
	c-8.798-38.383,15.266-76.783,53.658-85.589c4.898-1.033,9.89-1.519,14.583-1.502c2.893,0.009,5.581,1.493,7.142,3.925
	s1.783,5.495,0.589,8.132c-5.018,11.076-6.34,23.228-3.806,35.123c4.992,25.284,27.204,43.921,52.838,44.442
	c2.842,0.06,5.478,1.536,7.006,3.934c1.545,2.398,1.775,5.402,0.64,8.013c-1.766,4.045-3.925,7.919-6.409,11.529
	c-10.419,15.147-26.112,25.327-44.194,28.672C241.374,148.194,237.141,148.578,232.934,148.578z"/>
<rect x="290.133" y="141.41" width="17.067" height="17.067"/>
<rect x="230.4" y="175.544" width="17.067" height="17.067"/>
<rect x="136.533" y="175.544" width="17.067" height="17.067"/>
<rect x="375.467" y="132.877" width="17.067" height="17.067"/>
<rect x="332.8" y="167.01" width="17.067" height="17.067"/>
<path d="M163.217,167.01c-0.23,0-0.461,0-0.691,0H69.333c-1.485,0-2.876-0.375-4.096-1.05c-32.171-5.692-56.192-33.92-56.371-66.842
	C8.764,80.883,15.77,63.706,28.595,50.744c12.826-12.971,29.926-20.164,48.162-20.267c32.179-1.485,60.407,20.975,66.679,52.267
	h20.403c23.27,0.367,41.865,19.575,41.498,42.812c-0.179,11.247-4.727,21.76-12.809,29.594
	C184.593,162.812,174.217,167.01,163.217,167.01z M72.252,149.944h90.411c7.177,0.35,13.175-2.398,17.98-7.057
	s7.518-10.914,7.62-17.604c0.222-13.824-10.846-25.25-24.67-25.472h-0.836c-0.034,0-0.068,0-0.102,0h-26.633
	c-4.446,0-8.158-3.422-8.508-7.859c-2.074-26.086-24.081-45.5-50.33-44.416C63.172,47.62,50.347,53.014,40.73,62.742
	S25.856,85.355,25.933,99.025c0.137,25.455,19.277,47.155,44.51,50.483C71.074,149.585,71.671,149.73,72.252,149.944z"/>
<g>
</g>
<g>
</g>
<g>
</g>
<g>
</g>
<g>
</g>
<g>
</g>
<g>
</g>
<g>
</g>
<g>
</g>
<g>
</g>
<g>
</g>
<g>
</g>
<g>
</g>
<g>
</g>
<g>
</g>
</svg>
