<?xml version="1.0" encoding="iso-8859-1"?>
<!-- Generator: Adobe Illustrator 19.0.0, SVG Export Plug-In . SVG Version: 6.00 Build 0)  -->
<svg version="1.1" id="Capa_1" xmlns="http://www.w3.org/2000/svg" xmlns:xlink="http://www.w3.org/1999/xlink" x="0px" y="0px"
	 viewBox="0 0 472 472" style="enable-background:new 0 0 472 472;" xml:space="preserve">
<path style="fill:#8FB571;" d="M382.512,262.52L320,200.384L80,408h52.688L64,448h384V224.384L382.512,262.52z"/>
<path style="fill:#366130;" d="M64,448l384-223.616V448H64z"/>
<circle style="fill:#B99471;" cx="112" cy="56" r="32"/>
<g>
	<path style="fill:#FDEBEC;" d="M433.144,95.672c-3.8-2.254-8.708-1.002-10.962,2.798c-0.002,0.003-0.004,0.007-0.006,0.01
		l-8.216,13.856c-2.253,3.802-0.998,8.711,2.804,10.964c3.802,2.253,8.711,0.998,10.964-2.804l0,0l8.216-13.864
		C438.197,102.832,436.943,97.926,433.144,95.672L433.144,95.672z"/>
	<path style="fill:#FDEBEC;" d="M434.4,142.832c2.164,3.849,7.037,5.217,10.888,3.056l14.24-8c3.805-2.246,5.068-7.152,2.822-10.956
		c-2.176-3.685-6.867-5.006-10.646-2.996l-14.24,8c-3.854,2.16-5.228,7.036-3.067,10.89
		C434.398,142.828,434.399,142.83,434.4,142.832z"/>
</g>
<path style="fill:#BF6F6E;" d="M464,160.384h-16.44c-4.418,0-8,3.582-8,8s3.582,8,8,8H464c4.418,0,8-3.582,8-8
	S468.418,160.384,464,160.384z"/>
<path style="fill:#B5DEF3;" d="M216,359.992c-4.418,0-8-3.582-8-8V208.384c0-4.418,3.582-8,8-8s8,3.582,8,8v143.608
	C224,356.41,220.418,359.992,216,359.992z"/>
<path style="fill:#527592;" d="M24,80.384c13.255,0,24,10.745,24,24v120l0,0c-26.51,0-48-21.49-48-48v-72
	C0,91.129,10.745,80.384,24,80.384z"/>
<circle style="fill:#9C1C1F;" cx="392" cy="168.384" r="24"/>
<path id="SVGCleanerId_0" style="fill:#FDEBEC;" d="M420.8,124.424c-4.418-0.036-7.971-3.646-7.935-8.065
	c0.011-1.398,0.389-2.769,1.095-3.975l8.216-13.856c2.251-3.802,7.158-5.059,10.96-2.808c3.802,2.251,5.059,7.158,2.808,10.96
	l-8.216,13.864C426.269,122.973,423.634,124.449,420.8,124.424z"/>
<g>
	<path id="SVGCleanerId_0_1_" style="fill:#FDEBEC;" d="M420.8,124.424c-4.418-0.036-7.971-3.646-7.935-8.065
		c0.011-1.398,0.389-2.769,1.095-3.975l8.216-13.856c2.251-3.802,7.158-5.059,10.96-2.808c3.802,2.251,5.059,7.158,2.808,10.96
		l-8.216,13.864C426.269,122.973,423.634,124.449,420.8,124.424z"/>
</g>
<g>
	<path style="fill:#FDEBEC;" d="M441.36,146.92c-4.418,0.002-8.002-3.578-8.004-7.996c-0.001-2.894,1.56-5.563,4.084-6.98l14.24-8
		c3.901-2.075,8.745-0.594,10.82,3.306c2.01,3.779,0.69,8.47-2.996,10.646l-14.24,8C444.073,146.569,442.728,146.922,441.36,146.92z
		"/>
	<path style="fill:#FDEBEC;" d="M464,176.384h-16.44c-4.418,0-8-3.582-8-8s3.582-8,8-8H464c4.418,0,8,3.582,8,8
		S468.418,176.384,464,176.384z"/>
	<path style="fill:#FDEBEC;" d="M336,176.384h-16.44c-4.418,0-8-3.582-8-8s3.582-8,8-8H336c4.418,0,8,3.582,8,8
		S340.418,176.384,336,176.384z"/>
	<path style="fill:#FDEBEC;" d="M342.224,144.92c-1.37-0.001-2.717-0.353-3.912-1.024l-14.232-8
		c-3.853-2.165-5.221-7.043-3.056-10.896s7.043-5.221,10.896-3.056l14.24,8c3.853,2.163,5.223,7.039,3.06,10.892
		C347.801,143.365,345.124,144.927,342.224,144.92z"/>
	<path style="fill:#FDEBEC;" d="M363.304,124.424c-2.827,0.002-5.446-1.488-6.888-3.92l-8.224-13.864
		c-2.251-3.802-0.994-8.709,2.808-10.96c3.802-2.251,8.709-0.994,10.96,2.808l8.216,13.896c2.253,3.8,0.999,8.708-2.801,10.961
		c-1.232,0.731-2.638,1.117-4.071,1.119V124.424z"/>
	<path style="fill:#FDEBEC;" d="M392.072,116.92c-4.418,0-8-3.582-8-8v-16c0-4.418,3.582-8,8-8s8,3.582,8,8v16
		C400.072,113.338,396.49,116.92,392.072,116.92z"/>
</g>
<g>
	<path style="fill:#527592;" d="M97.824,27.448c0.92-0.464,1.848-0.896,2.816-1.272C99.672,26.544,98.752,26.992,97.824,27.448z"/>
	<path style="fill:#527592;" d="M123.36,26.176c0.968,0.376,1.896,0.8,2.816,1.272C125.248,26.992,124.328,26.544,123.36,26.176z"/>
	<path style="fill:#527592;" d="M128.12,28.504c1.108,0.648,2.176,1.362,3.2,2.136C130.298,29.864,129.229,29.151,128.12,28.504z"/>
	<path style="fill:#527592;" d="M117.936,24.6c0.8,0.144,1.496,0.384,2.248,0.592C119.432,24.992,118.704,24.744,117.936,24.6z"/>
	<path style="fill:#527592;" d="M103.816,25.184c0.752-0.208,1.48-0.448,2.248-0.592C105.296,24.744,104.568,24.992,103.816,25.184z
		"/>
	<path style="fill:#527592;" d="M92.688,30.64c1.021-0.778,2.09-1.491,3.2-2.136C94.779,29.151,93.71,29.864,92.688,30.64z"/>
	<path style="fill:#527592;" d="M92,31.224c-5.332,4.287-9.139,10.178-10.856,16.8h0.064C82.95,41.429,86.726,35.55,92,31.224z"/>
	<path style="fill:#527592;" d="M142.808,48h0.064c-1.72-6.619-5.523-12.509-10.848-16.8C137.294,35.529,141.067,41.407,142.808,48
		L142.808,48z"/>
</g>
<g>
	<path style="fill:#BF6F6E;" d="M92,31.224c0.232-0.192,0.464-0.4,0.704-0.584C92.448,30.824,92.216,31.024,92,31.224z"/>
	<path style="fill:#BF6F6E;" d="M95.88,28.504c0.64-0.376,1.28-0.728,1.944-1.056C97.168,27.784,96.512,28.128,95.88,28.504z"/>
	<path style="fill:#BF6F6E;" d="M106.064,24.6c1.956-0.383,3.943-0.584,5.936-0.6C110.007,24.012,108.019,24.213,106.064,24.6z"/>
	<path style="fill:#BF6F6E;" d="M100.64,26.176c1.048-0.387,2.116-0.715,3.2-0.984C102.756,25.461,101.688,25.789,100.64,26.176z"/>
	<path style="fill:#BF6F6E;" d="M131.312,30.64c0.24,0.184,0.472,0.392,0.712,0.584C131.784,31.032,131.552,30.824,131.312,30.64z"
		/>
	<path style="fill:#BF6F6E;" d="M112,24c1.993,0.016,3.98,0.217,5.936,0.6C115.981,24.213,113.993,24.012,112,24z"/>
	<path style="fill:#BF6F6E;" d="M120.184,25.184c1.084,0.269,2.152,0.597,3.2,0.984C122.336,25.781,121.268,25.453,120.184,25.184z"
		/>
	<path style="fill:#BF6F6E;" d="M126.176,27.448c0.664,0.328,1.304,0.68,1.944,1.056C127.488,28.128,126.832,27.784,126.176,27.448z
		"/>
</g>
<g>
	<path style="fill:#527592;" d="M98.104,27.296c0.8-0.384,1.6-0.752,2.4-1.072C99.664,26.544,98.896,26.912,98.104,27.296z"/>
	<path style="fill:#527592;" d="M104,25.136c0.672-0.176,1.328-0.4,2.024-0.536C105.328,24.736,104.68,24.96,104,25.136z"/>
	<path style="fill:#527592;" d="M117.976,24.6c0.696,0.136,1.352,0.36,2.024,0.536C119.32,24.96,118.672,24.736,117.976,24.6z"/>
	<path style="fill:#527592;" d="M128.472,28.696c0.864,0.528,1.72,1.08,2.528,1.68C130.184,29.776,129.344,29.224,128.472,28.696z"
		/>
	<path style="fill:#527592;" d="M123.512,26.224c0.8,0.32,1.6,0.688,2.4,1.072C125.104,26.912,124.336,26.544,123.512,26.224z"/>
	<path style="fill:#527592;" d="M93,30.376c0.8-0.6,1.664-1.152,2.528-1.68C94.656,29.224,93.816,29.776,93,30.376z"/>
	<path style="fill:#527592;" d="M88.648,34.248c0.838-0.868,1.722-1.691,2.648-2.464C90.37,32.557,89.486,33.38,88.648,34.248z"/>
	<path style="fill:#527592;" d="M88.136,34.872c-3.34,3.761-5.742,8.26-7.008,13.128C82.409,43.138,84.809,38.642,88.136,34.872z"/>
	<path style="fill:#527592;" d="M142.872,48c-1.266-4.868-3.668-9.367-7.008-13.128C139.191,38.642,141.591,43.138,142.872,48z"/>
	<path style="fill:#527592;" d="M132.704,31.784c0.926,0.773,1.81,1.596,2.648,2.464C134.514,33.38,133.63,32.557,132.704,31.784z"
		/>
</g>
<g>
	<path style="fill:#BF6F6E;" d="M91.296,31.784c0.56-0.48,1.112-0.96,1.704-1.408C92.408,30.824,91.856,31.304,91.296,31.784z"/>
	<path style="fill:#BF6F6E;" d="M95.528,28.696c0.8-0.504,1.696-0.976,2.576-1.4C97.224,27.728,96.36,28.184,95.528,28.696z"/>
	<path style="fill:#BF6F6E;" d="M88.136,34.872c0.176-0.2,0.328-0.424,0.512-0.624C88.464,34.448,88.312,34.672,88.136,34.872z"/>
	<path style="fill:#BF6F6E;" d="M120,25.136c1.192,0.291,2.364,0.655,3.512,1.088C122.364,25.791,121.192,25.427,120,25.136z"/>
	<path style="fill:#BF6F6E;" d="M131,30.376c0.592,0.448,1.144,0.928,1.704,1.408C132.144,31.304,131.592,30.824,131,30.376z"/>
	<path style="fill:#BF6F6E;" d="M112,24c2.006,0.016,4.007,0.217,5.976,0.6C116.007,24.213,114.006,24.012,112,24z"/>
	<path style="fill:#BF6F6E;" d="M100.488,26.224c1.148-0.433,2.32-0.797,3.512-1.088C102.808,25.427,101.636,25.791,100.488,26.224z
		"/>
	<path style="fill:#BF6F6E;" d="M135.352,34.248c0.184,0.2,0.336,0.424,0.512,0.624C135.688,34.672,135.536,34.448,135.352,34.248z"
		/>
	<path style="fill:#BF6F6E;" d="M106.024,24.6c1.969-0.383,3.97-0.584,5.976-0.6C109.994,24.012,107.993,24.213,106.024,24.6z"/>
	<path style="fill:#BF6F6E;" d="M125.896,27.296c0.88,0.424,1.736,0.896,2.576,1.4C127.64,28.184,126.776,27.728,125.896,27.296z"/>
	<path style="fill:#BF6F6E;" d="M168,48h-25.128c-1.281-4.862-3.681-9.358-7.008-13.128c-0.176-0.2-0.328-0.424-0.512-0.624
		c-0.838-0.868-1.722-1.691-2.648-2.464c-0.56-0.48-1.112-0.96-1.704-1.408c-0.8-0.6-1.664-1.152-2.528-1.68s-1.696-0.976-2.576-1.4
		s-1.6-0.752-2.4-1.072c-1.142-0.433-2.31-0.796-3.496-1.088c-0.672-0.176-1.328-0.4-2.024-0.536c-3.944-0.8-8.008-0.8-11.952,0
		c-0.696,0.136-1.352,0.36-2.024,0.536c-1.192,0.291-2.364,0.655-3.512,1.088c-0.8,0.32-1.6,0.688-2.4,1.072s-1.736,0.896-2.576,1.4
		s-1.72,1.08-2.528,1.68c-0.592,0.448-1.144,0.928-1.704,1.408c-0.926,0.773-1.81,1.596-2.648,2.464
		c-0.184,0.2-0.336,0.424-0.512,0.624c-3.327,3.77-5.727,8.266-7.008,13.128c-0.714,2.608-1.093,5.296-1.128,8
		c0.034,2.704,0.413,5.392,1.128,8H168c4.418,0,8-3.582,8-8S172.418,48,168,48z"/>
</g>
<path style="fill:#D3DBE5;" d="M127.6,241.184c0.152-3.552,0.4-7.096,0.4-10.656V120.384H80v95.792
	c0.012,53.389-17.404,105.323-49.6,147.912c-6.629,11.565-2.703,26.311,8.8,33.048c11.4,6.64,26.025,2.78,32.664-8.62
	c0.046-0.078,0.091-0.157,0.136-0.236l13.064-19.04c17.743-25.929,30.335-55.028,37.088-85.712L152,298.568v29.816
	c0,8.837,7.163,16,16,16s16-7.163,16-16v-54.008L127.6,241.184z"/>
<path style="fill:#527592;" d="M80,120.384h48v104H80V120.384z"/>
<path style="fill:#B5DEF3;" d="M216,184.64c-4.418,0-8-3.582-8-8v-32.256c0-4.418,3.582-8,8-8s8,3.582,8,8v32.256
	C224,181.058,220.418,184.64,216,184.64z"/>
<path style="fill:#B99471;" d="M128,127.736l44.8,48.392h52.264c8.574,0.338,15.256,7.553,14.936,16.128
	c0.315,8.573-6.364,15.786-14.936,16.128h-59.728L128,168.064V127.736z"/>
<g>
</g>
<g>
</g>
<g>
</g>
<g>
</g>
<g>
</g>
<g>
</g>
<g>
</g>
<g>
</g>
<g>
</g>
<g>
</g>
<g>
</g>
<g>
</g>
<g>
</g>
<g>
</g>
<g>
</g>
</svg>
