<?xml version="1.0" encoding="iso-8859-1"?>
<!-- Generator: Adobe Illustrator 19.0.0, SVG Export Plug-In . SVG Version: 6.00 Build 0)  -->
<svg version="1.1" id="Capa_1" xmlns="http://www.w3.org/2000/svg" xmlns:xlink="http://www.w3.org/1999/xlink" x="0px" y="0px"
	 viewBox="0 0 512.005 512.005" style="enable-background:new 0 0 512.005 512.005;" xml:space="preserve">
<path style="fill:#ABABAB;" d="M499.82,509.48L465.35,475.01c-6.239-5.946-16.046-5.946-22.284,0l-17.235,17.235
	c-12.883,12.883-33.771,12.883-46.654,0s-12.883-33.771,0-46.654l0,0l17.235-17.235c6.144-6.161,6.144-16.123,0-22.284
	l-47.895-47.887l12.194-12.194l47.887,47.895c12.883,12.874,12.892,33.754,0.017,46.637c-0.009,0.009-0.009,0.009-0.017,0.017
	l-17.235,17.235c-6.024,6.282-5.808,16.261,0.483,22.284c6.092,5.843,15.709,5.843,21.802,0l17.235-17.235
	c12.892-12.866,33.763-12.866,46.654,0l34.469,34.469L499.82,509.48z"/>
<path style="fill:#FFBD49;" d="M178.453,89.754c0.026-22.862-9.065-44.784-25.249-60.925l-17.838,17.838l-17.235,17.235
	l-86.777,86.777c16.14,16.183,38.063,25.275,60.925,25.249c5.791,0,11.564-0.577,17.235-1.723l0.862,0.862l65.837-65.837
	C177.703,102.844,178.453,96.312,178.453,89.754z"/>
<path style="fill:#FFCB5A;" d="M135.366,46.667l17.838-17.838C120.139-5.399,65.583-6.346,31.355,26.71s-35.185,87.613-2.12,121.849
	c0.689,0.715,1.396,1.422,2.12,2.12l86.777-86.777L135.366,46.667z"/>
<polygon style="fill:#5B5B5B;" points="178.453,106.989 176.212,109.229 110.376,175.066 109.514,175.928 342.182,399.979 
	402.504,339.658 "/>
<g>
	
		<rect x="251.707" y="239.483" transform="matrix(-0.7071 0.7071 -0.7071 -0.7071 626.668 255.9551)" style="fill:#EBEBEB;" width="17.235" height="36.563"/>
	
		<rect x="221.527" y="215.439" transform="matrix(-0.7071 0.7071 -0.7071 -0.7071 553.8358 225.8422)" style="fill:#EBEBEB;" width="17.235" height="24.37"/>
	
		<rect x="195.673" y="189.593" transform="matrix(-0.7071 0.7071 -0.7071 -0.7071 491.4232 200.0024)" style="fill:#EBEBEB;" width="17.235" height="24.37"/>
</g>
<path style="fill:#FFBD49;" d="M190.922,502.525l-7.704-15.425l12.469-6.273v-46.379c0-3.714,2.37-7.006,5.894-8.178l51.704-17.235
	c4.516-1.508,9.393,0.939,10.901,5.455c0.293,0.879,0.439,1.801,0.439,2.723v51.704c0.017,3.283-1.827,6.291-4.765,7.756
	l-17.235,8.617l-7.704-15.425l12.469-6.273v-34.426l-34.469,11.496v45.491c0.017,3.283-1.827,6.291-4.765,7.756L190.922,502.525z"/>
<path style="fill:#62BEFF;" d="M294.33,88.893l-7.704-15.425l12.469-6.273V20.815c0-3.714,2.37-7.006,5.894-8.178l25.852-8.617
	l5.446,16.373l-19.958,6.635V72.52c0,3.266-1.844,6.256-4.765,7.713L294.33,88.893z"/>
<path style="fill:#4EBE80;" d="M445.591,262.101c-8.755,0.026-17.157-3.456-23.327-9.669c-6.161-6.136-16.123-6.136-22.284,0
	l-12.185-12.185c12.892-12.866,33.763-12.866,46.654,0c6.23,5.963,16.054,5.963,22.284,0c12.892-12.866,33.763-12.866,46.654,0
	l-12.185,12.185c-6.161-6.136-16.123-6.136-22.284,0C462.748,258.646,454.346,262.127,445.591,262.101z"/>
<g>
	<rect x="471.443" y="12.198" style="fill:#FF8030;" width="17.235" height="51.704"/>
	<rect x="454.208" y="29.433" style="fill:#FF8030;" width="51.704" height="17.235"/>
</g>
<g>
	
		<rect x="19.025" y="451.38" transform="matrix(-0.7071 0.7071 -0.7071 -0.7071 387.9016 803.0105)" style="fill:#62BEFF;" width="17.235" height="60.924"/>
	
		<rect x="-2.829" y="473.225" transform="matrix(-0.7071 0.7071 -0.7071 -0.7071 387.8869 803.0166)" style="fill:#62BEFF;" width="60.924" height="17.235"/>
</g>
<path style="fill:#FF8030;" d="M96.588,322.423c-16.657,0-30.161-13.503-30.161-30.161s13.503-30.161,30.161-30.161
	s30.161,13.503,30.161,30.161C126.749,308.919,113.245,322.423,96.588,322.423z M96.588,279.336
	c-7.135,0-12.926,5.791-12.926,12.926s5.791,12.926,12.926,12.926s12.926-5.791,12.926-12.926S103.723,279.336,96.588,279.336z"/>
<g>
</g>
<g>
</g>
<g>
</g>
<g>
</g>
<g>
</g>
<g>
</g>
<g>
</g>
<g>
</g>
<g>
</g>
<g>
</g>
<g>
</g>
<g>
</g>
<g>
</g>
<g>
</g>
<g>
</g>
</svg>
