<?xml version="1.0" encoding="iso-8859-1"?>
<!-- Generator: Adobe Illustrator 19.0.0, SVG Export Plug-In . SVG Version: 6.00 Build 0)  -->
<svg version="1.1" id="Capa_1" xmlns="http://www.w3.org/2000/svg" xmlns:xlink="http://www.w3.org/1999/xlink" x="0px" y="0px"
	 viewBox="0 0 464.022 464.022" style="enable-background:new 0 0 464.022 464.022;" xml:space="preserve">
<path style="fill:#B2D4D5;" d="M48.011,136.022h368c22.091,0,40,17.909,40,40v240c0,22.091-17.909,40-40,40h-368
	c-22.091,0-40-17.909-40-40v-240C8.011,153.931,25.92,136.022,48.011,136.022z"/>
<circle style="fill:#AACACB;" cx="128.011" cy="360.022" r="64"/>
<path style="fill:#EAC25E;" d="M56.011,184.022h352v80h-352V184.022z"/>
<path style="fill:#B9B9B9;" d="M79.211,121.078l-9.984-28.384l273.6-83.92c8.192-2.675,17.049,1.504,20.192,9.528
	c2.544,7.745-1.673,16.085-9.418,18.629c-0.261,0.086-0.525,0.164-0.79,0.235L79.211,121.078z"/>
<path style="fill:#D9D9D9;" d="M72.011,83.726c13.255,0,24,10.745,24,24c0,0,0,0,0,0v28.296l0,0h-48l0,0v-28.296
	C48.011,94.472,58.756,83.726,72.011,83.726z"/>
<g>
	<circle style="fill:#90ABAC;" cx="336.011" cy="384.022" r="40"/>
	<path style="fill:#90ABAC;" d="M128.011,288.022c-39.764,0-72,32.236-72,72s32.235,72,72,72s72-32.236,72-72l0,0
		C199.967,320.276,167.757,288.066,128.011,288.022z M77.491,384.022c-2.412-5.058-4.044-10.453-4.84-16h110.72
		c-0.796,5.547-2.428,10.942-4.84,16H77.491z M72.651,352.022c0.796-5.547,2.428-10.942,4.84-16h101.04
		c2.412,5.058,4.044,10.453,4.84,16H72.651z M167.123,320.022H88.899C110.611,298.691,145.411,298.691,167.123,320.022z
		 M88.899,400.022h78.224C145.411,421.354,110.611,421.354,88.899,400.022z"/>
</g>
<path style="fill:#EA6B65;" d="M298.39,357.679l11.314-11.314l32.001,32.001l-11.314,11.314L298.39,357.679z"/>
<g>
	<path style="fill:#90ABAC;" d="M280.011,304.022h16v16h-16V304.022z"/>
	<path style="fill:#90ABAC;" d="M312.011,304.022h16v16h-16V304.022z"/>
	<path style="fill:#90ABAC;" d="M344.011,304.022h16v16h-16V304.022z"/>
	<path style="fill:#90ABAC;" d="M376.011,304.022h16v16h-16V304.022z"/>
</g>
<g>
	<path style="fill:#DEB859;" d="M80.011,184.022h16v24h-16V184.022z"/>
	<path style="fill:#DEB859;" d="M128.011,184.022h16v24h-16V184.022z"/>
	<path style="fill:#DEB859;" d="M176.011,184.022h16v24h-16V184.022z"/>
	<path style="fill:#DEB859;" d="M224.011,184.022h16v24h-16V184.022z"/>
	<path style="fill:#DEB859;" d="M272.011,184.022h16v24h-16V184.022z"/>
	<path style="fill:#DEB859;" d="M320.011,184.022h16v24h-16V184.022z"/>
	<path style="fill:#DEB859;" d="M368.011,184.022h16v24h-16V184.022z"/>
</g>
<path style="fill:#B94137;" d="M152.011,224.022h16v40h-16V224.022z"/>
<path d="M416.011,128.022h-312v-6.184l251.144-77.016c6.17-1.863,11.322-6.146,14.28-11.872c2.739-5.365,3.147-11.621,1.128-17.296
	c-4.608-12.034-17.791-18.398-30.08-14.52L86.083,79.15c-4.363-2.214-9.18-3.386-14.072-3.424c-17.673,0-32,14.327-32,32v21.016
	c-23.066,3.919-39.957,23.883-40,47.28v240c0.026,26.499,21.501,47.974,48,48h368c26.499-0.026,47.974-21.501,48-48v-240
	C463.985,149.524,442.51,128.049,416.011,128.022z M345.171,16.422c4.091-1.39,8.566,0.58,10.304,4.536
	c0.568,1.574,0.452,3.315-0.32,4.8c-0.98,1.851-2.673,3.221-4.688,3.792l-246.712,75.632c-0.369-4.737-1.799-9.33-4.184-13.44
	L345.171,16.422z M56.011,107.726c0-8.837,7.163-16,16-16s16,7.163,16,16v20.296h-32V107.726z M448.011,416.022
	c0,17.673-14.327,32-32,32h-368c-17.673,0-32-14.327-32-32v-240c0-17.673,14.327-32,32-32h368c17.673,0,32,14.327,32,32V416.022z"/>
<path d="M128.011,288.022c-39.764,0-72,32.236-72,72s32.235,72,72,72s72-32.236,72-72l0,0
	C199.967,320.276,167.757,288.066,128.011,288.022z M77.491,384.022c-2.412-5.058-4.044-10.453-4.84-16h110.72
	c-0.796,5.547-2.428,10.942-4.84,16H77.491z M72.651,352.022c0.796-5.547,2.428-10.942,4.84-16h101.04
	c2.412,5.058,4.044,10.453,4.84,16H72.651z M167.123,320.022H88.899C110.611,298.691,145.411,298.691,167.123,320.022z
	 M88.899,400.022h78.224C145.411,421.354,110.611,421.354,88.899,400.022z"/>
<path d="M336.011,336.022c-26.51,0-48,21.49-48,48s21.49,48,48,48s48-21.49,48-48C383.985,357.524,362.51,336.049,336.011,336.022z
	 M336.011,416.022c-17.673,0-32-14.327-32-32c0.028-5.695,1.595-11.276,4.536-16.152l21.808,21.808l11.312-11.312l-21.808-21.808
	c4.876-2.941,10.457-4.508,16.152-4.536c17.673,0,32,14.327,32,32S353.684,416.022,336.011,416.022L336.011,416.022z"/>
<path d="M48.011,272.022h368v-96h-368V272.022z M64.011,192.022h16v16h16v-16h32v16h16v-16h32v16h16v-16h32v16h16v-16h32v16h16v-16
	h32v16h16v-16h32v16h16v-16h16v64h-232v-32h-16v32h-88V192.022z"/>
<path d="M280.011,304.022h16v16h-16V304.022z"/>
<path d="M312.011,304.022h16v16h-16V304.022z"/>
<path d="M344.011,304.022h16v16h-16V304.022z"/>
<path d="M376.011,304.022h16v16h-16V304.022z"/>
<g>
</g>
<g>
</g>
<g>
</g>
<g>
</g>
<g>
</g>
<g>
</g>
<g>
</g>
<g>
</g>
<g>
</g>
<g>
</g>
<g>
</g>
<g>
</g>
<g>
</g>
<g>
</g>
<g>
</g>
</svg>
