<?xml version="1.0" encoding="iso-8859-1"?>
<!-- Generator: Adobe Illustrator 19.0.0, SVG Export Plug-In . SVG Version: 6.00 Build 0)  -->
<svg version="1.1" id="Capa_1" xmlns="http://www.w3.org/2000/svg" xmlns:xlink="http://www.w3.org/1999/xlink" x="0px" y="0px"
	 viewBox="0 0 480 480" style="enable-background:new 0 0 480 480;" xml:space="preserve">
<g>
	<path style="fill:#EA9D2D;" d="M392.001,480h-16v-24h-192v24h-16v-40h224V480z"/>
	<path style="fill:#EA9D2D;" d="M56.001,392h16v88h-16V392z"/>
	<path style="fill:#EA9D2D;" d="M24.001,464h80v16h-80V464z"/>
</g>
<path style="fill:#6FBBC6;" d="M56.001,316h16v48h-16V316z"/>
<path style="fill:#3B869E;" d="M56.001,316h16v28h-16V316z"/>
<circle style="fill:#EA9D2D;" cx="40.001" cy="276" r="16"/>
<path style="fill:#6FBBC6;" d="M60.908,286.257l24.877-37.316l13.313,8.875L74.22,295.132L60.908,286.257z"/>
<path style="fill:#FBB540;" d="M320.001,120h32c66.274,0,120,53.726,120,120l0,0h-272l0,0C200.001,173.726,253.727,120,320.001,120z
	"/>
<path style="fill:#C7463B;" d="M328.001,232h16v248h-16V232z"/>
<g>
	<path style="fill:#AA3C32;" d="M328.001,232h16v32h-16V232z"/>
	<path style="fill:#AA3C32;" d="M328.001,448h16v32h-16V448z"/>
</g>
<path style="fill:#DC4D41;" d="M387.001,240v-13.336c-0.089-27.945-9.681-55.028-27.2-76.8L336.001,120l-23.8,29.864
	c-17.519,21.772-27.111,48.855-27.2,76.8V240H387.001z"/>
<g>
	<path style="fill:#FBB540;" d="M164.001,448c-11.046,0-20-8.954-20-20s8.954-20,20-20h199.72l74.136-74.144
		c7.812-7.812,20.476-7.812,28.288,0s7.812,20.476,0,28.288l-80,80c-3.743,3.763-8.836,5.871-14.144,5.856H164.001z"/>
	<path style="fill:#FBB540;" d="M372.001,456h-208c-15.464,0-28-12.536-28-28s12.536-28,28-28l0,0h196.408l71.792-71.8
		c11.08-10.579,28.52-10.579,39.6,0c10.931,10.934,10.931,28.658,0,39.592l-80,80C386.563,453.065,379.433,456.021,372.001,456
		L372.001,456z"/>
	<path style="fill:#FBB540;" d="M172.001,400h16v24h-16V400z"/>
	<path style="fill:#FBB540;" d="M204.001,400h16v24h-16V400z"/>
	<path style="fill:#FBB540;" d="M236.001,400h16v24h-16V400z"/>
	<path style="fill:#FBB540;" d="M268.001,400h16v24h-16V400z"/>
	<path style="fill:#FBB540;" d="M300.001,400h16v24h-16V400z"/>
	<path style="fill:#FBB540;" d="M380.001,392l8,8"/>
	<path style="fill:#FBB540;" d="M368.693,392.006l11.314-11.314l19.313,19.313l-11.314,11.314L368.693,392.006z"/>
	<path style="fill:#FBB540;" d="M404.001,368l8,8"/>
	<path style="fill:#FBB540;" d="M392.693,368.001l11.314-11.314l19.313,19.313l-11.314,11.314L392.693,368.001z"/>
	<path style="fill:#FBB540;" d="M428.001,344l8,8"/>
	<path style="fill:#FBB540;" d="M416.693,344.003l11.314-11.314l19.313,19.313l-11.314,11.314L416.693,344.003z"/>
</g>
<circle style="fill:#EA9D2D;" cx="104.001" cy="96" r="40"/>
<path id="SVGCleanerId_0" style="fill:#FBB540;" d="M96.001,0h16v32h-16V0z"/>
<g>
	<path id="SVGCleanerId_0_1_" style="fill:#FBB540;" d="M96.001,0h16v32h-16V0z"/>
</g>
<path style="fill:#FBB540;" d="M143.518,45.2l22.628-22.628l11.314,11.314l-22.628,22.628L143.518,45.2z"/>
<path id="SVGCleanerId_1" style="fill:#FBB540;" d="M168.001,88h32v16h-32V88z"/>
<g>
	<path id="SVGCleanerId_1_1_" style="fill:#FBB540;" d="M168.001,88h32v16h-32V88z"/>
</g>
<g>
	<path style="fill:#FBB540;" d="M143.58,146.877l11.322-11.306l22.612,22.643l-11.322,11.306L143.58,146.877z"/>
	<path style="fill:#FBB540;" d="M23.447,28.231l11.314-11.314l22.628,22.628L46.074,50.859L23.447,28.231z"/>
	<path style="fill:#FBB540;" d="M0.001,88h32v16h-32V88z"/>
	<path style="fill:#FBB540;" d="M96.001,160h16v32h-16V160z"/>
	<path style="fill:#FBB540;" d="M30.461,158.229l22.623-22.631L64.4,146.909l-22.623,22.631L30.461,158.229z"/>
</g>
<path style="fill:#8ACED8;" d="M64.001,332c-13.255,0-24-10.745-24-24v-36h48v36C88.001,321.255,77.256,332,64.001,332z"/>
<g>
	<path style="fill:#EA9D2D;" d="M172.001,400h16v24h-16V400z"/>
	<path style="fill:#EA9D2D;" d="M204.001,400h16v24h-16V400z"/>
	<path style="fill:#EA9D2D;" d="M236.001,400h16v24h-16V400z"/>
	<path style="fill:#EA9D2D;" d="M268.001,400h16v24h-16V400z"/>
	<path style="fill:#EA9D2D;" d="M300.001,400h16v24h-16V400z"/>
	<path style="fill:#EA9D2D;" d="M380.001,392l8,8"/>
	<path style="fill:#EA9D2D;" d="M368.693,392.006l11.314-11.314l19.313,19.313l-11.314,11.314L368.693,392.006z"/>
	<path style="fill:#EA9D2D;" d="M404.001,368l8,8"/>
	<path style="fill:#EA9D2D;" d="M392.693,368.001l11.314-11.314l19.313,19.313l-11.314,11.314L392.693,368.001z"/>
	<path style="fill:#EA9D2D;" d="M428.001,344l8,8"/>
	<path style="fill:#EA9D2D;" d="M416.693,344.003l11.314-11.314l19.313,19.313l-11.314,11.314L416.693,344.003z"/>
	<path style="fill:#EA9D2D;" d="M332.001,400h16v24h-16V400z"/>
</g>
<path style="fill:#DC4D41;" d="M24.001,360h80c8.837,0,16,7.163,16,16l0,0c0,8.837-7.163,16-16,16h-80c-8.837,0-16-7.163-16-16l0,0
	C8.001,367.163,15.164,360,24.001,360z"/>
<path style="fill:#D68F29;" d="M56.001,392h16v24h-16V392z"/>
<path style="fill:#C7463B;" d="M120.001,376h-112c0,8.837,7.163,16,16,16h80C112.838,392,120.001,384.837,120.001,376z"/>
<g>
</g>
<g>
</g>
<g>
</g>
<g>
</g>
<g>
</g>
<g>
</g>
<g>
</g>
<g>
</g>
<g>
</g>
<g>
</g>
<g>
</g>
<g>
</g>
<g>
</g>
<g>
</g>
<g>
</g>
</svg>
