<?xml version="1.0" encoding="iso-8859-1"?>
<!-- Generator: Adobe Illustrator 19.0.0, SVG Export Plug-In . SVG Version: 6.00 Build 0)  -->
<svg version="1.1" id="Capa_1" xmlns="http://www.w3.org/2000/svg" xmlns:xlink="http://www.w3.org/1999/xlink" x="0px" y="0px"
	 viewBox="0 0 512 512" style="enable-background:new 0 0 512 512;" xml:space="preserve">
<path style="fill:#FFC107;" d="M416,234.737c-5.891-0.016-10.68,4.746-10.696,10.637c-0.001,0.273,0.009,0.546,0.029,0.819
	c1.503,16.399,0.915,32.923-1.749,49.173c-2.446-5.028-4.583-10.2-6.4-15.488c-3.214-11.49-8.811-22.176-16.427-31.36
	c-18.588-20.213-44.066-32.74-71.424-35.115c-5.891,0.011-10.658,4.796-10.646,10.687c0.009,4.791,3.212,8.989,7.83,10.262
	c10.24,2.816,22.72,36.992,23.893,59.733c-0.832-0.789-1.771-1.749-2.859-2.901l-53.333-53.333
	c-20.312-16.168-45.594-24.806-71.552-24.448c-5.891-0.004-10.67,4.768-10.674,10.659c-0.002,2.964,1.23,5.796,3.399,7.815
	c18.454,16.693,29.705,39.899,31.381,64.725l-3.072,1.387l-78.485-61.12c-2.238-1.726-5.069-2.493-7.872-2.133
	C131.733,235.527,0,253.127,0,352.071C0,391.9,79.061,469.404,224,469.404c139.093,0,288-47.147,288-117.333
	C512,284.743,438.485,234.737,416,234.737z"/>
<path style="fill:#FFB300;" d="M234.112,426.737c-60.608,0-129.173-7.595-145.749-24.533c-4.124-4.212-4.052-10.97,0.16-15.093
	c4.212-4.124,10.97-4.052,15.093,0.16l0,0c6.187,6.4,50.795,18.133,130.496,18.133c94.293,0,186.475-31.403,195.712-39.573
	c4.337-3.867,10.941-3.671,15.04,0.448c3.996,4.06,3.996,10.575,0,14.635C429.76,396.188,328,426.737,234.112,426.737z"/>
<g>
	<path style="fill:#CFD8DC;" d="M170.155,192.071c-5.891,0.011-10.675-4.757-10.686-10.648c-0.005-2.84,1.123-5.565,3.134-7.571
		c13.056-13.056,7.701-28.885-2.133-53.653c-9.131-23.04-20.501-51.712,2.133-74.347c4.237-4.093,10.99-3.975,15.083,0.262
		c3.992,4.134,3.992,10.687,0,14.82c-12.096,12.096-6.891,27.413,2.624,51.392c9.344,23.595,20.992,52.971-2.624,76.608
		C175.69,190.937,172.981,192.064,170.155,192.071z"/>
	<path style="fill:#CFD8DC;" d="M254.976,192.071c-5.891,0.011-10.675-4.757-10.686-10.648c-0.005-2.84,1.123-5.565,3.134-7.571
		c13.056-13.056,7.701-28.885-2.133-53.653c-9.131-23.04-20.501-51.712,2.133-74.347c4.237-4.093,10.99-3.975,15.083,0.262
		c3.992,4.134,3.992,10.687,0,14.82c-12.096,12.096-6.891,27.413,2.624,51.392c9.344,23.595,20.992,52.971-2.624,76.608
		C260.511,190.937,257.803,192.064,254.976,192.071z"/>
	<path style="fill:#CFD8DC;" d="M340.309,192.071c-5.891,0.011-10.675-4.757-10.686-10.648c-0.005-2.84,1.123-5.565,3.134-7.571
		c13.056-13.056,7.701-28.885-2.133-53.653c-9.131-23.04-20.501-51.712,2.133-74.347c4.093-4.237,10.845-4.354,15.083-0.262
		c4.237,4.093,4.354,10.845,0.262,15.083c-0.086,0.089-0.173,0.176-0.262,0.262c-12.096,12.096-6.891,27.413,2.624,51.392
		c9.344,23.595,20.992,52.971-2.624,76.608C345.844,190.937,343.136,192.064,340.309,192.071z"/>
</g>
<g>
	<path style="fill:#FFD54F;" d="M137.344,234.737l102.016,79.808c5.248-4.155,8.439-10.38,8.747-17.067l0,0
		c-1.542-31.033-15.255-60.206-38.165-81.195c-1.973-1.847-4.573-2.876-7.275-2.88c-22.772,4.381-44.918,11.546-65.941,21.333
		H137.344z"/>
	<path style="fill:#FFD54F;" d="M323.328,289.073c5.461,7.531,12.8,18.645,18.795,27.733c6.308-3.627,10.105-10.434,9.877-17.707
		l0,0c0.875-21.333-12.011-77.76-39.829-85.333c-0.916-0.257-1.864-0.387-2.816-0.384c-15.6,2.058-30.317,8.426-42.496,18.389
		C286.666,249.877,305.514,269.004,323.328,289.073z"/>
	<path style="fill:#FFD54F;" d="M426.667,244.487c-0.414-5.581-5.071-9.893-10.667-9.877c-13.832,0.832-27.443,3.864-40.32,8.981
		c4.314,4.842,7.906,10.281,10.667,16.149c9.117,18.3,17.131,37.128,24,56.384c0.725-0.576,6.4-0.917,7.083-1.621
		C429.419,301.575,427.861,261.233,426.667,244.487z"/>
</g>
<g>
</g>
<g>
</g>
<g>
</g>
<g>
</g>
<g>
</g>
<g>
</g>
<g>
</g>
<g>
</g>
<g>
</g>
<g>
</g>
<g>
</g>
<g>
</g>
<g>
</g>
<g>
</g>
<g>
</g>
</svg>
