<?xml version="1.0" encoding="iso-8859-1"?>
<!-- Generator: Adobe Illustrator 19.0.0, SVG Export Plug-In . SVG Version: 6.00 Build 0)  -->
<svg version="1.1" id="Capa_1" xmlns="http://www.w3.org/2000/svg" xmlns:xlink="http://www.w3.org/1999/xlink" x="0px" y="0px"
	 viewBox="0 0 512 512" style="enable-background:new 0 0 512 512;" xml:space="preserve">
<path style="fill:#FED2A4;" d="M451.122,255.84c0,23.714-6.305,47.129-18.01,67.542H78.888
	c-11.706-20.413-18.01-43.828-18.01-67.542c0-45.93,23.714-88.555,62.74-113.472C134.725,78.13,190.559,30.699,256,30.699
	S376.375,78.13,387.782,142.068C426.507,166.383,451.122,208.71,451.122,255.84z"/>
<path style="fill:#FFBD86;" d="M451.122,255.84c0,23.714-6.305,47.129-18.01,67.542H256V30.699
	c65.441,0,120.375,47.431,131.782,111.369C426.507,166.383,451.122,208.71,451.122,255.84z"/>
<polygon style="fill:#FF3980;" points="451.122,317.078 418.702,512 93.299,512 60.878,317.078 "/>
<g>
	<polygon style="fill:#F30051;" points="451.122,317.078 418.702,512 256,512 256,317.078 	"/>
	<rect x="30.859" y="300.868" style="fill:#F30051;" width="450.281" height="30.019"/>
</g>
<rect x="180.953" y="390.924" style="fill:#FED2A4;" width="150.094" height="30.019"/>
<rect x="256" y="390.924" style="fill:#F6A96C;" width="75.047" height="30.019"/>
<rect x="256" y="300.868" style="fill:#BC0048;" width="225.141" height="30.019"/>
<path style="fill:#913F02;" d="M439.476,9.856c-19.196-15.327-47.518-12.625-63.277,7.035l-93.258,118.074l68.261,58.836
	l95.325-120.668C462.034,53.741,458.868,25.364,439.476,9.856z"/>
<path style="fill:#F6A96C;" d="M361.066,225.821h-30.019c0-41.379-33.668-75.047-75.047-75.047v-30.019
	C313.927,120.755,361.066,167.895,361.066,225.821z"/>
<g>
</g>
<g>
</g>
<g>
</g>
<g>
</g>
<g>
</g>
<g>
</g>
<g>
</g>
<g>
</g>
<g>
</g>
<g>
</g>
<g>
</g>
<g>
</g>
<g>
</g>
<g>
</g>
<g>
</g>
</svg>
