<?xml version="1.0" encoding="iso-8859-1"?>
<!-- Generator: Adobe Illustrator 19.1.0, SVG Export Plug-In . SVG Version: 6.00 Build 0)  -->
<svg version="1.1" id="Capa_1" xmlns="http://www.w3.org/2000/svg" xmlns:xlink="http://www.w3.org/1999/xlink" x="0px" y="0px"
	 viewBox="0 0 63 63" style="enable-background:new 0 0 63 63;" xml:space="preserve">
<g>
	<g id="group-61svg">
		<path id="path-1_56_" d="M46.973,60.727c-10.035,0-16.026-5.909-16.026-15.807c0-11.5,7.771-26.338,16.026-26.338
			S63,33.419,63,44.919C63,54.818,57.008,60.727,46.973,60.727z M46.973,21.581c-5.843,0-13.026,12.868-13.026,23.338
			c0,11.143,8.161,12.807,13.026,12.807C51.839,57.727,60,56.062,60,44.919C60,34.45,52.817,21.581,46.973,21.581z"/>
		<path id="path-2_56_" d="M14.737,39.582C5.508,39.582,0,34.146,0,25.044C0,14.506,7.146,0.911,14.737,0.911
			c7.59,0,14.736,13.595,14.736,24.133C29.473,34.146,23.965,39.582,14.737,39.582z M14.737,3.911C9.471,3.911,3,15.563,3,25.044
			c0,10.038,7.353,11.537,11.737,11.537c4.383,0,11.736-1.499,11.736-11.537C26.473,15.563,20.002,3.911,14.737,3.911z"/>
		<path id="path-3_56_" d="M54.323,39.582c-0.739,0-1.384-0.547-1.484-1.3c-0.801-5.947-5.458-9.48-5.505-9.515
			c-0.664-0.495-0.801-1.435-0.307-2.099c0.496-0.665,1.435-0.801,2.1-0.307c0.233,0.174,5.717,4.337,6.684,11.52
			c0.111,0.822-0.465,1.577-1.286,1.688C54.457,39.576,54.389,39.582,54.323,39.582z"/>
		<path id="path-4_49_" d="M20.187,19.769c-0.828,0-1.5-0.671-1.5-1.5c0-3.723-3.922-7.241-3.962-7.276
			c-0.619-0.549-0.677-1.496-0.13-2.116c0.546-0.621,1.494-0.68,2.115-0.134c0.203,0.178,4.977,4.438,4.977,9.526
			C21.687,19.098,21.015,19.769,20.187,19.769z"/>
		<path id="path-5_39_" d="M20.711,62.089c-4.237,0-8.763-2.273-8.763-8.653c0-6.135,4.126-13.918,8.763-13.918
			c4.636,0,8.762,7.783,8.762,13.918C29.473,59.815,24.947,62.089,20.711,62.089z M20.711,42.518c-2.276,0-5.763,5.856-5.763,10.918
			c0,4.672,3.134,5.653,5.763,5.653s5.762-0.981,5.762-5.653C26.473,48.374,22.986,42.518,20.711,42.518z"/>
		<path id="path-6_28_" d="M23.701,53.363c-0.828,0-1.5-0.672-1.5-1.5c0-1.448-1.439-3.04-1.943-3.484
			c-0.622-0.547-0.681-1.495-0.134-2.117c0.548-0.622,1.495-0.682,2.117-0.134c0.303,0.266,2.96,2.693,2.96,5.735
			C25.201,52.692,24.529,53.363,23.701,53.363z"/>
	</g>
</g>
<g>
</g>
<g>
</g>
<g>
</g>
<g>
</g>
<g>
</g>
<g>
</g>
<g>
</g>
<g>
</g>
<g>
</g>
<g>
</g>
<g>
</g>
<g>
</g>
<g>
</g>
<g>
</g>
<g>
</g>
</svg>
