<?xml version="1.0" encoding="iso-8859-1"?>
<!-- Generator: Adobe Illustrator 19.0.0, SVG Export Plug-In . SVG Version: 6.00 Build 0)  -->
<svg version="1.1" id="Capa_1" xmlns="http://www.w3.org/2000/svg" xmlns:xlink="http://www.w3.org/1999/xlink" x="0px" y="0px"
	 viewBox="0 0 511.994 511.994" style="enable-background:new 0 0 511.994 511.994;" xml:space="preserve">
<g transform="matrix(1.25 0 0 -1.25 0 45)">
	<g>
		<g>
			<path style="fill:#D5AB88;" d="M113.773-11.743c-11.378-11.378,0-22.756,0-34.133s22.756,0,22.756,0s11.366,11.378,22.744-11.378
				c11.378-22.744,45.523-11.378,34.133,11.378c-11.378,22.756-45.511,11.378-45.511,34.133S113.773-11.743,113.773-11.743"/>
			<path style="fill:#963B22;" d="M170.656,11.018c0-11.378,0-45.511-11.378-45.511c-11.378,0-11.378,11.378-22.756,22.756
				C125.145-0.36,170.656,11.018,170.656,11.018"/>
			<path style="fill:#CC9B7A;" d="M216.168-136.893c0,0-34.133-22.744-34.133-34.133c0-11.389,45.511-45.523,56.889-56.901
				c11.378-11.378,34.133-11.378,22.756,11.378C250.301-193.793,216.168-136.893,216.168-136.893"/>
			<path style="fill:#2A6797;" d="M234.762-216.776c0,0,13.346-8.977,22.323,4.38s15.531-20.15,15.531-20.15
				s-29.115-28.888-51.439-33.268c-22.335-4.369-13.357,8.977-4.38,22.323C225.784-230.134,234.762-216.776,234.762-216.776"/>
			<g>
				<path style="fill:#292F33;" d="M79.644-341.698c-31.414,0-56.889,25.464-56.889,56.889s25.475,56.889,56.889,56.889
					s56.889-25.464,56.889-56.889S111.059-341.698,79.644-341.698 M79.644-205.165C35.658-205.165,0-240.823,0-284.81
					s35.658-79.644,79.644-79.644s79.644,35.658,79.644,79.644S123.631-205.165,79.644-205.165"/>
				<path style="fill:#292F33;" d="M329.951-341.698c-31.414,0-56.889,25.464-56.889,56.889s25.475,56.889,56.889,56.889
					c31.425,0,56.889-25.464,56.889-56.889S361.376-341.698,329.951-341.698 M329.951-205.165
					c-43.975,0-79.644-35.658-79.644-79.644s35.669-79.644,79.644-79.644c43.998,0,79.644,35.658,79.644,79.644
					S373.948-205.165,329.951-205.165"/>
			</g>
			<g>
				<path style="fill:#AAB8C2;" d="M250.306-182.41c0,6.292-5.507,11.378-12.322,11.378H114.717
					c-6.804,0-12.322-5.086-12.322-11.378c0-6.292,5.518-11.378,12.322-11.378h123.267
					C244.8-193.787,250.306-188.702,250.306-182.41"/>
				<path style="fill:#AAB8C2;" d="M341.328-284.81c0,6.292-5.086,11.378-11.378,11.378H204.795c-6.28,0-11.378-5.086-11.378-11.378
					c0-6.292,5.097-11.378,11.378-11.378h125.156C336.243-296.187,341.328-291.102,341.328-284.81"/>
				<path style="fill:#AAB8C2;" d="M241.469-148.276l-47.388-132.71c-2.117-5.916,0.967-12.424,6.884-14.529
					c1.263-0.455,2.56-0.671,3.823-0.671c4.677,0,9.057,2.901,10.718,7.555l50.131,140.357L241.469-148.276L241.469-148.276z"/>
				<path style="fill:#AAB8C2;" d="M329.961-296.187c-3.755,0-7.441,1.866-9.614,5.268l-79.644,125.144
					c-3.379,5.313-1.809,12.345,3.493,15.713c5.313,3.379,12.333,1.809,15.713-3.482L339.553-278.7
					c3.379-5.302,1.809-12.333-3.493-15.713C334.159-295.607,332.055-296.187,329.961-296.187"/>
				<path style="fill:#AAB8C2;" d="M216.173-247.654l-95.425,74.228c-4.949,3.868-12.095,2.97-15.963-1.991
					c-3.857-4.972-2.958-12.117,2.003-15.974l102.4-79.644c2.071-1.615,4.529-2.401,6.975-2.401h0.012L216.173-247.654
					L216.173-247.654z"/>
				<path style="fill:#AAB8C2;" d="M79.634-296.187c-1.183,0-2.401,0.193-3.596,0.591c-5.962,1.979-9.193,8.42-7.202,14.381
					l31.539,94.629l-38.946,29.218c-5.029,3.766-6.042,10.9-2.276,15.929c3.766,5.006,10.888,6.042,15.929,2.264l52.076-39.06
					l-36.727-110.17C88.839-293.172,84.401-296.187,79.634-296.187"/>
			</g>
			<g>
				<path style="fill:#292F33;" d="M300.173-171.032c-0.341,0-0.671,0.023-1.012,0.069l-64.535,8.056
					c-4.232,0.535-7.316,4.255-7.054,8.511c0.273,4.255,3.789,7.555,8.044,7.566c0.467,0,46.285,0.205,68.141,14.779
					c2.844,1.912,6.633,1.786,9.387-0.296c2.719-2.105,3.834-5.701,2.742-8.966l-8.067-24.2
					C306.715-168.847,303.608-171.032,300.173-171.032"/>
				<path style="fill:#292F33;" d="M125.151-159.654H68.262c-6.28,0-11.378,5.097-11.378,11.378c0,6.28,5.097,11.378,11.378,11.378
					h56.889c6.28,0,11.378-5.097,11.378-11.378C136.528-154.557,131.431-159.654,125.151-159.654"/>
			</g>
			<path style="fill:#2A6797;" d="M250.294-102.76l-45.499-34.133l34.133-34.133L250.294-102.76z"/>
			<g>
				<path style="fill:#D5AB88;" d="M227.539-148.271c0,0-22.756-34.145-22.756-45.523c0-11.378,11.378-45.511,11.378-79.644
					s22.756-34.133,22.756-22.756c0,11.378,17.989,61.656,0,79.644c-11.378,11.378,22.756,45.523,22.756,45.523L227.539-148.271z"/>
				<path style="fill:#D5AB88;" d="M178.45-106.14l-31.289,8.92c-5.075-22.266-34.395-51.041-44.772-51.041
					c-11.378,0-22.756,0-22.756-11.378c0-11.378,0-11.378,22.756-11.378s45.511,22.756,56.889,34.133
					C166.674-129.487,174.183-116.904,178.45-106.14"/>
			</g>
			<path style="fill:#357BAA;" d="M250.294-102.76l-34.133-45.511l45.511-34.145c0,0,56.889,56.901,56.889,79.656
				s-34.133,34.133-34.133,34.133L250.294-102.76z"/>
			<g>
				<path style="fill:#4289C1;" d="M238.92-34.488c-34.133,11.378-63.545,4.71-79.644-11.378
					c-11.378-11.378-11.378-22.756-11.378-45.511c0-2.003-0.341-4.119-0.831-6.258l31.22-8.92
					c2.298,5.791,3.743,11.195,3.743,15.178c0,11.378,11.378,11.378,22.756,0c11.378-11.378,22.767-22.756,34.145-22.756
					c11.378,0,68.267,45.511,68.267,45.511C273.053-57.243,260.503-41.679,238.92-34.488"/>
				<path style="fill:#4289C1;" d="M216.168-284.81c0,0,11.378-11.378,22.756,0c11.378,11.378,11.378-22.756,11.378-22.756
					s-34.133-22.756-56.889-22.756s-11.378,11.378,0,22.756L216.168-284.81z"/>
				<path style="fill:#4289C1;" d="M125.145,22.395c22.756,11.378,68.267,0,45.511-22.756
					c-11.378-11.378-79.644-22.756-79.644-22.756C91.011-11.738,102.389,11.018,125.145,22.395"/>
			</g>
		</g>
	</g>
</g>
<g>
</g>
<g>
</g>
<g>
</g>
<g>
</g>
<g>
</g>
<g>
</g>
<g>
</g>
<g>
</g>
<g>
</g>
<g>
</g>
<g>
</g>
<g>
</g>
<g>
</g>
<g>
</g>
<g>
</g>
</svg>
