<?xml version="1.0" encoding="iso-8859-1"?>
<!-- Generator: Adobe Illustrator 16.0.0, SVG Export Plug-In . SVG Version: 6.00 Build 0)  -->
<!DOCTYPE svg PUBLIC "-//W3C//DTD SVG 1.1//EN" "http://www.w3.org/Graphics/SVG/1.1/DTD/svg11.dtd">
<svg version="1.1" id="Capa_1" xmlns="http://www.w3.org/2000/svg" xmlns:xlink="http://www.w3.org/1999/xlink" x="0px" y="0px"
	 width="119.944px" height="119.945px" viewBox="0 0 119.944 119.945" style="enable-background:new 0 0 119.944 119.945;"
	 xml:space="preserve">
<g>
	<g>
		<circle cx="104.452" cy="38.421" r="8.325"/>
		<path d="M117.784,61.464l-8.614-0.568l-5.752-12.212c-0.031-0.068-0.07-0.146-0.107-0.212c-0.442-0.795-1.147-1.348-1.946-1.62
			c-0.651-0.475-1.386-0.86-2.196-1.117c-1.306-0.415-2.64-0.453-3.89-0.186c-0.509-0.078-1.042-0.048-1.566,0.113l-9.78,3.012
			l-0.31,0.095c-0.253,0.079-0.494,0.205-0.711,0.382c-1.623,1.319-3.22,2.636-4.815,3.98c-0.8,0.672-1.597,1.349-2.394,2.045
			c-0.399,0.35-0.799,0.702-1.205,1.074l-0.219,0.206l-0.25-0.41c-0.791-0.536-1.845-0.624-2.729-0.124l-1.712,0.964l-0.127-0.224
			c-0.571-1.017-1.86-1.376-2.877-0.804l-6.146,2.439c-1.019,0.572-1.377,1.86-0.804,2.876l6.501,11.536
			c0.571,1.017,1.86,1.376,2.877,0.804l5.229-4.066c1.017-0.572,1.375-1.859,0.804-2.877l-0.087-0.153l1.711-0.964
			c1.142-0.643,1.599-2.023,1.134-3.21l-1.035-1.7c0.006-0.004,0.012-0.008,0.021-0.015l0.207-0.162l0.552-0.409l1.215-0.854
			c0.828-0.571,1.678-1.138,2.528-1.702c1.504-0.993,3.024-1.979,4.544-2.951l2.745-0.56L84.73,66.044
			c-0.348,1.096-0.426,2.209-0.286,3.278c-0.12,0.295-0.209,0.608-0.25,0.94l-1.261,9.795l-10.373,0.678
			c-1.238,0.08-2.258,1.066-2.34,2.339c-0.09,1.383,0.957,2.577,2.34,2.667l13.367,0.874c1.539,0.103,2.955-0.949,3.267-2.503
			l0.065-0.326l1.584-7.895c0.236,0.037,0.473,0.06,0.709,0.074l8.037,9.356L93.874,98.47c-0.506,1.178-0.045,2.578,1.104,3.203
			c1.217,0.659,2.738,0.207,3.396-1.009l7.862-14.498c0.53-0.983,0.489-2.229-0.212-3.192l-0.158-0.217l-7.463-10.254
			c0.363-0.564,0.665-1.181,0.877-1.851l3.012-9.511l2.229,4.006l0.146,0.259c0.492,0.881,1.459,1.448,2.533,1.378l10.583-0.697
			c1.143-0.074,2.081-0.986,2.156-2.16C120.025,62.652,119.061,61.548,117.784,61.464z M76.924,62.658
			c0.252,0.729-0.041,1.555-0.734,1.945l-1.711,0.963l-4.414-7.832l1.711-0.963c0.525-0.297,1.145-0.263,1.628,0.027l0.19,0.319
			l-0.084,0.087c-0.07,0.074-0.142,0.149-0.244,0.273l-0.08,0.097l-0.116,0.158c-0.022,0.028-0.12,0.176-0.177,0.286l-0.045,0.088
			l-0.043,0.089l-0.05,0.125c-0.063,0.169-0.11,0.348-0.136,0.524c-0.178,1.264,0.704,2.432,1.968,2.61
			c0.521,0.073,1.021-0.042,1.445-0.279L76.924,62.658z M76.837,60.429l-0.075,0.105c0,0.001,0,0,0,0.001l-0.002-0.004
			c0.028-0.039,0.06-0.076,0.086-0.117C76.842,60.421,76.837,60.429,76.837,60.429z M77.078,59.966l-0.047,0.113l-0.037,0.078
			l-0.033,0.066c-0.014,0.027-0.031,0.059-0.05,0.088c0.065-0.114,0.124-0.233,0.169-0.358
			C77.078,59.957,77.078,59.962,77.078,59.966z"/>
		<path d="M52.986,49.036l-7.267,4.801l-7.763-1.13c-0.941-2.046-2.789-3.516-4.955-4.022c3.101-1.631,5.209-4.806,5.209-8.446
			c0-2.926-1.365-5.547-3.51-7.312c0.172-0.348-0.098-0.813-1.063-1.438c-4.692-3.036-10.957-1.69-13.992,3
			c-3.035,4.69-1.695,10.956,2.997,13.991c0.42,0.271,0.796,0.372,1.136,0.339c1.049,0.511,2.199,0.855,3.42,0.979
			c-0.686,0.481-1.286,1.07-1.766,1.747l-7.504,4.392c-1.182-0.608-2.364-1.21-3.561-1.805c-0.863-0.428-1.73-0.852-2.62-1.268
			c-0.446-0.208-0.894-0.415-1.37-0.62c-0.24-0.103-0.48-0.205-0.762-0.312c-0.143-0.054-0.291-0.109-0.493-0.174
			c-0.11-0.034-0.208-0.067-0.431-0.114c-0.065-0.013-0.088-0.019-0.191-0.033c-0.104-0.014-0.202-0.022-0.315-0.026
			c-0.118-0.001-0.239,0.005-0.358,0.021c-0.061,0.008-0.119,0.018-0.178,0.029l-0.115,0.027c-0.074,0.02-0.148,0.043-0.223,0.072
			c-0.307,0.121-0.561,0.274-0.814,0.527c-0.322,0.317-0.567,0.825-0.62,1.26c-0.169,1.203,0.67,2.314,1.872,2.483
			c0.022,0.012,0.045,0.023,0.069,0.038l0.525,0.295c0.374,0.217,0.765,0.456,1.153,0.697c0.781,0.486,1.567,0.994,2.353,1.507
			c1.567,1.025,3.143,2.083,4.688,3.141c0.75,0.512,1.751,0.613,2.621,0.18l0.232-0.116l4.92-2.455l-3.637,19.563
			c0,0,1.873,1.334,4.889,2.898l-0.299,2.326L13.988,95.314c-0.855,0.857-0.945,2.248-0.162,3.203
			c0.836,1.021,2.339,1.17,3.359,0.334l13.284-10.887c0.479-0.394,0.834-0.951,0.966-1.605l0.051-0.258l0.324-1.61
			c2.777,0.993,5.884,1.799,9.095,2.073l0.138,0.16l-5.44,12.52c-0.482,1.121-0.044,2.455,1.052,3.047
			c1.157,0.628,2.605,0.199,3.234-0.959l7.485-13.804c0.214-0.397,0.324-0.841,0.336-1.288c2.258-0.443,4.484-1.26,6.607-2.568
			l-14.81-24.5l6.557,0.504l0.283,0.022c0.621,0.046,1.261-0.147,1.769-0.589l7.535-6.569c0.821-0.715,1.007-1.945,0.391-2.878
			C55.37,48.644,54.002,48.365,52.986,49.036z M9.635,55.352c-0.06,0.062-0.121,0.116-0.183,0.167
			c0.066-0.054,0.129-0.11,0.188-0.171C9.638,55.349,9.637,55.351,9.635,55.352z M28.247,48.878c-1.223,0-2.389-0.238-3.452-0.665
			c2.331-2.816,1.937-14.369,1.937-14.369s4.991,0.292,7.101-0.363c2.07,1.584,3.403,4.022,3.403,6.757
			c0,1.712-0.527,3.306-1.425,4.65c-0.247-0.667-1.183-1.166-2.306-1.166c-1.311,0-2.374,0.677-2.374,1.512
			c0,0.835,1.063,1.512,2.374,1.512c0.256,0,0.496-0.032,0.726-0.08c-0.985,0.849-2.163,1.493-3.466,1.859
			c-0.18,0.015-0.355,0.011-0.536,0.039c-0.377,0.06-0.738,0.156-1.091,0.269C28.845,48.862,28.548,48.878,28.247,48.878z"/>
		<path d="M13.154,30.393l1.463-3.276l0.166-0.367c0.018-0.043,0.08-0.157,0.064-0.144l0.098-0.188
			c0.035-0.087,0.129-0.26,0.137-0.308c0.018-0.067-0.037-0.047-0.176-0.055c-0.135-0.007-0.272-0.085-0.241-0.128
			c0.062-0.104,0.524,0.041,0.962,0.3c0.455,0.257,0.953,0.604,1.46,0.972c0.519,0.361,1.044,0.76,1.636,1.119
			c0.576,0.339,1.224,0.766,1.953,0.785c-0.223-0.269-0.355-0.543-0.473-0.847c-0.131-0.285-0.244-0.582-0.355-0.885
			c-0.221-0.607-0.462-1.206-0.742-1.818c-0.287-0.609-0.605-1.221-1.063-1.839c-0.217-0.313-0.489-0.617-0.824-0.925
			c-0.34-0.303-0.746-0.622-1.331-0.848c-0.566-0.234-1.357-0.346-2.103-0.191c-0.746,0.149-1.357,0.511-1.805,0.86
			c-0.467,0.376-0.77,0.686-1.096,1.12l-0.16,0.207l-0.183,0.261l-0.306,0.45c-0.78,1.196-1.346,2.373-1.884,3.494
			c-1.054,2.248-1.891,4.318-3.048,6.052c-0.581,0.873-1.248,1.66-2.115,2.381C2.325,37.308,1.249,37.908,0,38.509
			c1.27,0.542,2.717,0.703,4.18,0.46c1.465-0.242,2.892-0.933,4.08-1.859C10.65,35.223,12.066,32.679,13.154,30.393z"/>
		<polygon points="32.213,27.054 28.658,22.045 32.662,22.678 32.89,19.066 36.189,21.712 39.112,19.153 37.554,24.483 
			42.751,23.214 39.339,27.194 42.795,29.823 38.353,31.625 38.575,32.177 43.984,29.981 40.201,27.103 44.404,22.199 
			38.412,23.663 40.253,17.365 36.172,20.938 32.37,17.887 32.111,21.989 27.357,21.238 31.729,27.397 		"/>
		<rect x="59.953" y="30.392" width="29.909" height="0.783"/>
		<rect x="74.91" y="34.168" width="14.953" height="0.783"/>
		<rect x="66.046" y="39.455" width="14.953" height="0.783"/>
		<polygon points="38.373,44.885 38.229,45.874 41.163,45.798 		"/>
		<polygon points="36.881,47.905 39.393,49.425 37.537,47.149 		"/>
	</g>
</g>
<g>
</g>
<g>
</g>
<g>
</g>
<g>
</g>
<g>
</g>
<g>
</g>
<g>
</g>
<g>
</g>
<g>
</g>
<g>
</g>
<g>
</g>
<g>
</g>
<g>
</g>
<g>
</g>
<g>
</g>
</svg>
