<?xml version="1.0" encoding="iso-8859-1"?>
<!-- Generator: Adobe Illustrator 19.0.0, SVG Export Plug-In . SVG Version: 6.00 Build 0)  -->
<svg version="1.1" id="Capa_1" xmlns="http://www.w3.org/2000/svg" xmlns:xlink="http://www.w3.org/1999/xlink" x="0px" y="0px"
	 viewBox="0 0 512 512" style="enable-background:new 0 0 512 512;" xml:space="preserve">
<path style="fill:#BEE8FF;" d="M396.621,487.658H15.193C6.802,487.658,0,480.856,0,472.466V39.534
	c0-8.39,6.802-15.193,15.193-15.193h381.428c8.39,0,15.193,6.802,15.193,15.193v432.931
	C411.813,480.856,405.011,487.658,396.621,487.658z"/>
<path style="fill:#54CBFF;" d="M396.621,24.342H204.843v463.317h191.778c8.39,0,15.193-6.802,15.193-15.193V39.534
	C411.813,31.144,405.011,24.342,396.621,24.342z"/>
<g>
	<path style="fill:#18A7FC;" d="M204.843,238.961L204.843,238.961c-21.899,0-39.714-17.815-39.714-39.713v-47.733
		c0-21.898,17.815-39.714,39.713-39.714c21.899,0,39.714,17.816,39.714,39.714v47.733
		C244.556,221.146,226.74,238.961,204.843,238.961z M204.843,142.187c-5.144,0-9.328,4.185-9.328,9.328v47.733
		c0,5.143,4.184,9.327,9.327,9.327c5.144,0,9.328-4.184,9.328-9.327v-47.733C214.171,146.372,209.986,142.187,204.843,142.187z"/>
	<path style="fill:#18A7FC;" d="M110.33,238.961c-18.656,0-34.577-12.691-38.721-30.863c-1.865-8.181,3.255-16.324,11.436-18.19
		c8.177-1.867,16.324,3.254,18.19,11.436c0.955,4.19,4.78,7.232,9.094,7.232c5.144,0,9.328-4.184,9.328-9.327
		c0-4.119-0.754-5.82-15.565-11.222c-12.521-4.567-33.477-12.212-33.477-36.511c0-21.898,17.815-39.714,39.713-39.714
		c17.944,0,33.718,12.095,38.36,29.414c2.174,8.104-2.636,16.435-10.74,18.608c-8.108,2.174-16.436-2.636-18.609-10.74
		c-1.089-4.061-4.794-6.896-9.011-6.896c-5.144,0-9.328,4.185-9.328,9.328c0,1.458,0.155,1.672,1.238,2.489
		c2.572,1.941,7.5,3.737,12.266,5.476c13.292,4.848,35.538,12.963,35.538,39.768C150.044,221.146,132.228,238.961,110.33,238.961z"
		/>
	<path style="fill:#18A7FC;" d="M313.583,297.996H98.231c-8.39,0-15.193-6.802-15.193-15.193c0-8.39,6.802-15.193,15.193-15.193
		h215.352c8.39,0,15.193,6.802,15.193,15.193C328.775,291.194,321.973,297.996,313.583,297.996z"/>
	<path style="fill:#18A7FC;" d="M308.107,349.097H98.231c-8.39,0-15.193-6.802-15.193-15.193s6.802-15.193,15.193-15.193h209.877
		c8.39,0,15.193,6.802,15.193,15.193S316.498,349.097,308.107,349.097z"/>
	<path style="fill:#18A7FC;" d="M244.096,400.198H98.231c-8.39,0-15.193-6.802-15.193-15.193s6.802-15.193,15.193-15.193h145.865
		c8.39,0,15.193,6.802,15.193,15.193S252.486,400.198,244.096,400.198z"/>
</g>
<g>
	<path style="fill:#0074F0;" d="M244.096,369.813h-39.253v30.385h39.253c8.39,0,15.193-6.802,15.193-15.193
		S252.486,369.813,244.096,369.813z"/>
	<path style="fill:#0074F0;" d="M308.107,318.712H204.843v30.385h103.265c8.39,0,15.193-6.802,15.193-15.193
		S316.498,318.712,308.107,318.712z"/>
	<path style="fill:#0074F0;" d="M313.583,267.611h-108.74v30.385h108.74c8.39,0,15.193-6.802,15.193-15.193
		C328.775,274.413,321.973,267.611,313.583,267.611z"/>
</g>
<path style="fill:#FCB629;" d="M487.861,242.611c-0.01,0.01-0.01,0.01-0.02,0.02c-0.01,0.01-0.01,0.01-0.01,0.02L377.198,386.283
	c-2.168,2.826-5.267,4.791-8.751,5.56l-54.795,12.134c-1.084,0.243-2.188,0.365-3.282,0.365c-3.322,0-6.594-1.094-9.278-3.16
	c-3.555-2.745-5.723-6.928-5.905-11.425l-2.259-56.081c-0.142-3.555,0.962-7.06,3.14-9.875l110.694-143.723
	c0.041-0.051,0.081-0.111,0.122-0.162c0.03-0.041,0.061-0.081,0.091-0.111c5.155-6.523,14.595-7.708,21.189-2.623
	c0.01,0.01,0.03,0.02,0.041,0.03l56.902,44.079l0.03,0.03C491.76,226.446,492.976,235.977,487.861,242.611z"/>
<path style="fill:#E53045;" d="M406.975,179.804l13.278-17.239c8.346-10.837,20.409-17.775,33.971-19.538
	c13.572-1.762,27.002,1.874,37.84,10.209c22.364,17.228,26.547,49.447,9.318,71.811l-13.521,17.563L406.975,179.804z"/>
<g>
	<path style="fill:#0074F0;" d="M301.484,238.961c-18.656,0-34.579-12.691-38.72-30.863c-1.865-8.181,3.255-16.324,11.436-18.19
		c8.177-1.867,16.324,3.254,18.19,11.436c0.955,4.19,4.781,7.232,9.094,7.232c5.143,0,9.328-4.184,9.328-9.327
		c0-4.119-0.754-5.82-15.565-11.222c-12.52-4.567-33.477-12.211-33.477-36.511c0-21.898,17.816-39.714,39.714-39.714
		c17.944,0,33.718,12.095,38.36,29.414c2.174,8.104-2.636,16.435-10.74,18.608c-8.096,2.172-16.435-2.635-18.608-10.74
		c-1.089-4.061-4.794-6.896-9.011-6.896c-5.143,0-9.328,4.185-9.328,9.328c0,1.468,0.14,1.661,1.238,2.489
		c2.573,1.941,7.5,3.737,12.266,5.476c13.292,4.848,35.539,12.963,35.539,39.768C341.198,221.146,323.382,238.961,301.484,238.961z"
		/>
	<path style="fill:#0074F0;" d="M204.843,111.802v30.385l0,0c5.143,0,9.327,4.185,9.327,9.328v47.733
		c0,5.143-4.184,9.327-9.328,9.327v30.385l0,0c21.898,0,39.713-17.815,39.713-39.713v-47.733
		C244.556,129.618,226.74,111.803,204.843,111.802z"/>
</g>
<g>
</g>
<g>
</g>
<g>
</g>
<g>
</g>
<g>
</g>
<g>
</g>
<g>
</g>
<g>
</g>
<g>
</g>
<g>
</g>
<g>
</g>
<g>
</g>
<g>
</g>
<g>
</g>
<g>
</g>
</svg>
