<?xml version="1.0" encoding="iso-8859-1"?>
<!-- Generator: Adobe Illustrator 19.0.0, SVG Export Plug-In . SVG Version: 6.00 Build 0)  -->
<svg version="1.1" id="Capa_1" xmlns="http://www.w3.org/2000/svg" xmlns:xlink="http://www.w3.org/1999/xlink" x="0px" y="0px"
	 viewBox="0 0 512 512" style="enable-background:new 0 0 512 512;" xml:space="preserve">
<rect id="SVGCleanerId_0" x="63.94" y="112.03" style="fill:#FEDA44;" width="384.12" height="119.44"/>
<g>
	<rect id="SVGCleanerId_0_1_" x="63.94" y="112.03" style="fill:#FEDA44;" width="384.12" height="119.44"/>
</g>
<polygon style="fill:#FF5023;" points="321.654,7.5 190.346,7.5 166.963,68.022 198.326,68.022 211.346,34.323 300.654,34.323 
	313.674,68.022 345.037,68.022 "/>
<polygon style="fill:#D80029;" points="190.346,7.5 166.963,68.022 184.676,68.022 208.059,7.5 "/>
<rect x="200.58" y="152.01" style="fill:#FF5023;" width="110.83" height="39.475"/>
<rect x="172.58" y="155.89" style="fill:#D80029;" width="28" height="31.715"/>
<rect x="311.42" y="155.89" style="fill:#FF5023;" width="28" height="31.715"/>
<rect x="63.94" y="231.47" style="fill:#FEDA44;" width="384.12" height="119.44"/>
<rect x="200.58" y="271.45" style="fill:#FF5023;" width="110.83" height="39.475"/>
<rect x="172.58" y="275.33" style="fill:#D80029;" width="28" height="31.715"/>
<rect x="311.42" y="275.33" style="fill:#FF5023;" width="28" height="31.715"/>
<g>
	<rect x="63.94" y="350.9" style="fill:#FEDA44;" width="384.12" height="119.44"/>
	<rect x="74.821" y="470.34" style="fill:#FEDA44;" width="362.36" height="34.16"/>
</g>
<rect x="200.58" y="390.88" style="fill:#FF5023;" width="110.83" height="39.475"/>
<g>
	<rect x="200.58" y="152.01" style="fill:#D80029;" width="33.75" height="39.475"/>
	<rect x="200.58" y="271.45" style="fill:#D80029;" width="33.75" height="39.475"/>
	<rect x="200.58" y="390.88" style="fill:#D80029;" width="33.75" height="39.475"/>
	<rect x="172.58" y="394.76" style="fill:#D80029;" width="28" height="31.715"/>
</g>
<rect x="311.42" y="394.76" style="fill:#FF5023;" width="28" height="31.715"/>
<rect x="63.94" y="68.02" style="fill:#FEDA44;" width="384.12" height="44.01"/>
<polygon style="fill:#FF9911;" points="111.856,470.339 111.856,68.022 63.94,68.022 63.94,470.339 74.821,470.339 74.821,504.5 
	122.737,504.5 122.737,470.339 "/>
<path d="M193.083,198.985h125.833v-3.88h28.003V148.39h-28.003v-3.881H193.083v3.881H165.08v46.715h28.003L193.083,198.985
	L193.083,198.985z M331.92,163.391v16.715h-13.003v-16.715H331.92z M303.917,183.985h-95.833V159.51h95.833V183.985z
	 M180.08,180.105V163.39h13.003v16.715H180.08z"/>
<rect x="273.71" y="164.25" width="19.738" height="15"/>
<rect x="219.06" y="164.25" width="48.584" height="15"/>
<g>
	<rect x="410.61" y="127.14" style="fill:#FFFFFF;" width="18.894" height="15"/>
	<rect x="338.07" y="127.14" style="fill:#FFFFFF;" width="65.29" height="15"/>
	<rect x="412.13" y="82.53" style="fill:#FFFFFF;" width="18.894" height="15"/>
	<rect x="322.89" y="82.53" style="fill:#FFFFFF;" width="81.986" height="15"/>
</g>
<path d="M193.083,318.422h125.833v-3.88h28.003v-46.715h-28.003v-3.88H193.083v3.88H165.08v46.715h28.003L193.083,318.422
	L193.083,318.422z M331.92,282.827v16.715h-13.003v-16.715H331.92z M303.917,303.422h-95.833v-24.475h95.833V303.422z
	 M180.08,299.542v-16.715h13.003v16.715H180.08z"/>
<rect x="273.71" y="283.69" width="19.738" height="15"/>
<rect x="219.06" y="283.69" width="48.584" height="15"/>
<g>
	<rect x="410.61" y="246.57" style="fill:#FFFFFF;" width="18.894" height="15"/>
	<rect x="338.07" y="246.57" style="fill:#FFFFFF;" width="65.29" height="15"/>
</g>
<path d="M193.083,437.858h125.833v-3.88h28.003v-46.715h-28.003v-3.88H193.083v3.88H165.08v46.715h28.003L193.083,437.858
	L193.083,437.858z M331.92,402.264v16.715h-13.003v-16.715H331.92z M303.917,422.858h-95.833v-24.475h95.833V422.858z
	 M180.08,418.979v-16.715h13.003v16.715H180.08z"/>
<rect x="273.71" y="403.12" width="19.738" height="15"/>
<rect x="219.06" y="403.12" width="48.584" height="15"/>
<g>
	<rect x="410.61" y="366.01" style="fill:#FFFFFF;" width="18.894" height="15"/>
	<rect x="338.07" y="366.01" style="fill:#FFFFFF;" width="65.29" height="15"/>
</g>
<path d="M350.18,60.521L326.796,0H185.204L161.82,60.521H56.44v417.317h10.881V512h377.358v-34.161h10.881V60.521H350.18z
	 M195.489,15h121.022l17.588,45.521h-15.282l-13.02-33.699h-99.594l-13.02,33.699h-15.282L195.489,15z M302.736,60.521h-93.473
	l7.225-18.699h79.023L302.736,60.521z M429.679,497H82.321v-19.161h347.358L429.679,497L429.679,497z M440.56,410.459h-65.629v15
	h65.629v14.354h-34.758v15h34.758v8.026H133.167v-32.48h-15v32.48H96.5v-18.172h-15v18.172H71.44V428.58h31.469v-15H71.44v-21.438
	h59.81v-15H71.44v-18.739h369.12V410.459z M440.56,291.022h-65.629v15h65.629v14.354h-34.758v15h34.758v8.026H127.167v-24.451h-15
	v24.451H99.833v-44.88h-15v44.88H71.44v-70.697h59.81v-15H71.44v-18.739h369.12V291.022z M440.56,171.586h-65.629v15h65.629v14.353
	h-34.758v15h34.758v8.027H71.44v-34.259h31.469v-15H71.44v-21.438h59.81v-15H71.44V119.53h369.12V171.586z M71.44,104.529v-5.182
	h49.266v-15H71.44v-8.826h66.733v18.014h15V75.521H440.56v29.008C440.56,104.529,71.44,104.529,71.44,104.529z"/>
<g>
</g>
<g>
</g>
<g>
</g>
<g>
</g>
<g>
</g>
<g>
</g>
<g>
</g>
<g>
</g>
<g>
</g>
<g>
</g>
<g>
</g>
<g>
</g>
<g>
</g>
<g>
</g>
<g>
</g>
</svg>
