<?xml version="1.0" encoding="iso-8859-1"?>
<!-- Generator: Adobe Illustrator 19.0.0, SVG Export Plug-In . SVG Version: 6.00 Build 0)  -->
<svg version="1.1" id="Capa_1" xmlns="http://www.w3.org/2000/svg" xmlns:xlink="http://www.w3.org/1999/xlink" x="0px" y="0px"
	 viewBox="0 0 512 512" style="enable-background:new 0 0 512 512;" xml:space="preserve">
<circle style="fill:#F7F0E6;" cx="256" cy="256" r="256"/>
<path style="fill:#EEE2D4;" d="M377.224,413.806c-7.229,7.229-20.547,7.147-28.558,12.982c-8.225,5.991-12.266,18.664-21.138,23.186
	c-9.026,4.601-21.668,0.402-31.176,3.481c-9.607,3.113-17.386,13.912-27.288,15.473c-9.949,1.567-20.676-6.325-30.726-6.326
	c-10.048,0-20.776,7.892-30.724,6.324c-9.901-1.56-17.679-12.36-27.286-15.474c-9.506-3.081-22.147,1.119-31.174-3.482
	c-8.87-4.522-12.909-17.194-21.132-23.183c-8.011-5.835-21.329-5.753-28.557-12.982c-7.229-7.229-7.147-20.547-12.982-28.558
	c-5.991-8.225-18.664-12.266-23.186-21.138c-4.601-9.026-0.402-21.668-3.481-31.176c-3.113-9.607-13.912-17.386-15.473-27.288
	c-1.567-9.949,6.325-20.676,6.325-30.726c0-10.048-7.892-20.776-6.324-30.724c1.56-9.901,12.36-17.679,15.474-27.286
	c3.081-9.506-1.119-22.147,3.482-31.174c4.522-8.87,17.194-12.909,23.183-21.132c5.835-8.011,5.753-21.329,12.982-28.557
	c7.229-7.229,20.547-7.147,28.558-12.982c8.225-5.991,12.266-18.664,21.138-23.186c9.026-4.601,21.668-0.402,31.176-3.481
	c9.607-3.113,17.386-13.912,27.288-15.473c9.949-1.567,20.676,6.325,30.726,6.325c10.048,0,20.776-7.892,30.724-6.324
	c9.901,1.56,17.679,12.36,27.286,15.474c9.506,3.081,22.147-1.119,31.174,3.482c8.87,4.522,12.909,17.194,21.132,23.183
	c8.011,5.835,21.329,5.753,28.557,12.982c7.229,7.229,7.147,20.547,12.982,28.558c5.991,8.225,18.664,12.266,23.186,21.138
	c4.601,9.026,0.402,21.668,3.481,31.176c3.113,9.607,13.912,17.386,15.473,27.288c1.567,9.949-6.325,20.676-6.325,30.726
	c0,10.048,7.892,20.776,6.324,30.724c-1.56,9.901-12.36,17.679-15.474,27.286c-3.081,9.506,1.119,22.147-3.482,31.174
	c-4.522,8.87-17.194,12.909-23.183,21.132C384.371,393.26,384.452,406.578,377.224,413.806z"/>
<path style="fill:#FFC850;" d="M394.879,396.151c-7.229,7.229-20.547,7.147-28.558,12.982c-8.225,5.991-12.266,18.664-21.138,23.186
	c-9.026,4.601-21.668,0.402-31.176,3.481c-9.607,3.113-17.386,13.912-27.288,15.473c-9.949,1.567-20.676-6.325-30.726-6.326
	c-10.048,0-20.776,7.892-30.724,6.324c-9.901-1.56-17.679-12.36-27.286-15.474c-9.506-3.081-22.147,1.119-31.174-3.482
	c-8.87-4.522-12.909-17.194-21.132-23.183c-8.011-5.835-21.329-5.753-28.557-12.982c-7.229-7.229-7.147-20.547-12.982-28.558
	c-5.991-8.225-18.664-12.266-23.186-21.138c-4.601-9.026-0.402-21.668-3.481-31.176c-3.113-9.607-13.912-17.386-15.473-27.288
	c-1.567-9.949,6.325-20.676,6.325-30.726c0-10.048-7.892-20.776-6.324-30.724c1.56-9.901,12.36-17.679,15.474-27.286
	c3.081-9.506-1.119-22.147,3.482-31.174c4.522-8.87,17.194-12.909,23.183-21.132c5.835-8.011,5.753-21.329,12.982-28.557
	c7.229-7.229,20.547-7.147,28.558-12.982c8.225-5.991,12.266-18.664,21.138-23.186c9.026-4.601,21.668-0.402,31.176-3.481
	c9.607-3.113,17.386-13.912,27.288-15.473c9.949-1.567,20.676,6.325,30.726,6.325c10.048,0,20.776-7.892,30.724-6.324
	c9.901,1.56,17.679,12.36,27.286,15.474c9.506,3.081,22.147-1.119,31.174,3.482c8.87,4.522,12.909,17.194,21.132,23.183
	c8.011,5.835,21.329,5.753,28.557,12.982c7.229,7.229,7.147,20.547,12.982,28.558c5.991,8.225,18.664,12.266,23.186,21.138
	c4.601,9.026,0.402,21.668,3.481,31.176c3.113,9.607,13.912,17.386,15.473,27.288c1.567,9.949-6.325,20.676-6.325,30.726
	c0,10.048,7.892,20.776,6.324,30.724c-1.56,9.901-12.36,17.679-15.474,27.286c-3.081,9.506,1.119,22.147-3.483,31.174
	c-4.522,8.87-17.194,12.909-23.183,21.132C402.026,375.605,402.108,388.922,394.879,396.151z"/>
<g>
	<circle style="fill:#FFB45A;" cx="140.502" cy="355.112" r="30.161"/>
	<circle style="fill:#FFB45A;" cx="233.192" cy="426.472" r="35.454"/>
</g>
<g>
	<path style="fill:#FF784B;" d="M369.629,370.9c-5.914,5.914-16.811,5.847-23.365,10.622c-6.73,4.902-10.036,15.271-17.294,18.97
		c-7.385,3.765-17.728,0.328-25.507,2.849c-7.86,2.547-14.225,11.383-22.326,12.659c-8.14,1.282-16.917-5.175-25.139-5.175
		c-8.221,0-16.999,6.456-25.138,5.174c-8.102-1.277-14.465-10.113-22.325-12.66c-7.778-2.52-18.121,0.916-25.505-2.849
		c-7.257-3.7-10.562-14.068-17.29-18.968c-6.554-4.775-17.451-4.707-23.366-10.622c-5.914-5.914-5.847-16.811-10.622-23.366
		c-4.902-6.73-15.271-10.036-18.97-17.294c-3.765-7.385-0.329-17.728-2.849-25.507c-2.547-7.86-11.383-14.225-12.659-22.326
		c-1.282-8.14,5.175-16.917,5.175-25.139c0-8.221-6.456-16.999-5.174-25.138c1.277-8.102,10.113-14.465,12.66-22.325
		c2.52-7.778-0.916-18.121,2.849-25.505c3.7-7.257,14.068-10.562,18.968-17.29c4.775-6.554,4.707-17.451,10.622-23.366
		c5.914-5.914,16.811-5.847,23.366-10.622c6.73-4.902,10.036-15.271,17.294-18.97c7.385-3.765,17.728-0.329,25.507-2.849
		c7.86-2.547,14.225-11.383,22.326-12.659c8.14-1.282,16.917,5.175,25.139,5.175c8.221,0,16.999-6.456,25.138-5.174
		c8.102,1.277,14.465,10.113,22.325,12.66c7.778,2.52,18.121-0.916,25.505,2.849c7.257,3.7,10.562,14.068,17.29,18.968
		c6.554,4.775,17.451,4.707,23.365,10.622c5.914,5.914,5.847,16.811,10.622,23.366c4.901,6.73,15.271,10.036,18.97,17.294
		c3.765,7.385,0.329,17.728,2.849,25.507c2.547,7.86,11.383,14.225,12.659,22.326c1.282,8.14-5.175,16.917-5.175,25.139
		c0,8.221,6.456,16.999,5.174,25.138c-1.277,8.102-10.113,14.465-12.66,22.325c-2.52,7.778,0.916,18.121-2.849,25.505
		c-3.7,7.257-14.068,10.562-18.968,17.29C375.476,354.09,375.543,364.985,369.629,370.9z"/>
	<circle style="fill:#FF784B;" cx="377.401" cy="351.647" r="34.818"/>
</g>
<g>
	<circle style="fill:#C85A3F;" cx="182.433" cy="255.801" r="52.988"/>
	<circle style="fill:#C85A3F;" cx="272.188" cy="218.825" r="52.425"/>
	<circle style="fill:#C85A3F;" cx="314.615" cy="344.276" r="43.167"/>
</g>
<g>
	<circle style="fill:#FFB45A;" cx="326.621" cy="411.023" r="35.454"/>
	<path style="fill:#FFB45A;" d="M376.054,168.721l-7.427,17.896c-4.572,11.014,2.591,23.358,14.421,24.854l21.074,2.667
		c11.135,1.409,20.847-7.566,20.319-18.778l-0.514-10.916c-0.257-5.446-2.958-10.484-7.351-13.711l-13.131-9.647
		C393.997,154.146,380.546,157.896,376.054,168.721z"/>
</g>
<path style="fill:#FF9B4B;" d="M389.323,196.817l4.193-21.748c1.199-6.22,5.049-11.06,10.017-13.917l-0.09-0.066
	c-9.446-6.94-22.895-3.189-27.389,7.636l-7.427,17.896c-4.572,11.014,2.591,23.358,14.421,24.855l9.898,1.252
	C389.767,208.321,388.183,202.724,389.323,196.817z"/>
<path style="fill:#FFDC8C;" d="M339.528,74.612l21.086,8.052c12.977,4.956,17.557,20.344,9.221,30.986l-14.847,18.956
	c-7.844,10.016-23.276,10.771-32.284,1.578l-8.769-8.951c-4.375-4.466-6.424-10.569-5.578-16.611l2.531-18.058
	C312.708,77.576,326.773,69.741,339.528,74.612z"/>
<path style="fill:#FFC850;" d="M327.34,110.36c4.824-13.735,18.521-25.364,31.443-28.394l-19.255-7.353
	c-12.755-4.871-26.819,2.964-28.64,15.954l-2.53,18.058c-0.847,6.042,1.203,12.146,5.578,16.611l6.023,6.147L327.34,110.36z"/>
<path style="fill:#FFB45A;" d="M206.02,221.244l26.24-16.19c16.149-9.964,35.559-1.671,39.083,16.698l6.279,32.721
	c3.317,17.29-9.205,34.893-26.196,36.828l-16.544,1.884c-8.253,0.94-16.152-2.094-21.497-8.255l-15.974-18.414
	C185.92,253.269,190.148,231.037,206.02,221.244z"/>
<path style="fill:#FF9B4B;" d="M270.764,254.197l-23.513,2.677c-11.73,1.335-22.956-2.976-30.552-11.733l-16.564-19.095
	c-10.801,11.054-12.614,29.069-2.724,40.469l15.974,18.415c5.345,6.162,13.244,9.195,21.497,8.255l16.543-1.884
	c16.992-1.934,29.514-19.539,26.197-36.828l-0.344-1.793C275.148,253.308,273.017,253.94,270.764,254.197z"/>
<path style="fill:#FFDC8C;" d="M353.25,226.578l3.423,20.168c2.106,12.412,15.446,19.416,26.86,14.103l20.331-9.463
	c10.743-5.001,14.376-18.482,7.601-28.204l-6.596-9.465c-3.29-4.722-8.537-7.706-14.279-8.12l-17.158-1.239
	C361.091,203.466,351.18,214.379,353.25,226.578z"/>
<path style="fill:#FFC850;" d="M374.42,248.499l3.883-23.852c1.516-9.311,8.424-16.041,16.735-18.161
	c-1.432-0.46-2.916-0.779-4.447-0.89l-17.158-1.238c-12.341-0.892-22.253,10.022-20.182,22.221l3.423,20.168
	c1.697,9.997,10.687,16.359,20.082,15.73C374.601,258.355,373.597,253.556,374.42,248.499z"/>
<path style="fill:#FFB45A;" d="M339.804,298.791l6.685,25.811c4.114,15.885,22.216,23.5,36.448,15.332l25.352-14.548
	c13.396-7.687,16.617-25.598,6.739-37.471l-9.618-11.56c-4.798-5.767-11.943-9.059-19.444-8.96l-22.42,0.297
	C347.42,267.905,335.759,283.177,339.804,298.791z"/>
<path style="fill:#FF9B4B;" d="M377.674,318.637l-13.431-27.359c-3.842-7.825-3.627-16.332-0.543-23.588l-0.155,0.002
	c-16.127,0.213-27.786,15.486-23.743,31.099l6.685,25.811c4.115,15.885,22.216,23.5,36.448,15.334l11.908-6.834
	C387.702,330.902,381.323,326.07,377.674,318.637z"/>
<path style="fill:#FFB45A;" d="M261.579,78.315l22.212-13.33c13.67-8.203,30.808-1.432,34.509,13.633l6.593,26.837
	c3.484,14.18-6.772,28.647-21.453,30.263l-14.295,1.575c-7.132,0.786-14.094-1.689-18.95-6.735l-14.509-15.082
	C245.249,104.628,248.143,86.378,261.579,78.315z"/>
<path style="fill:#FF9B4B;" d="M285.216,114.65c-8.982-14.089-9.773-34.695-3.352-48.509L261.58,78.315
	c-13.436,8.063-16.33,26.313-5.892,37.161l14.509,15.081c4.854,5.046,11.817,7.521,18.948,6.735l9.817-1.081L285.216,114.65z"/>
<path style="fill:#FFB45A;" d="M253.373,398.249l-7.859,23.72c-4.836,14.598,5.544,29.795,20.9,30.601l27.356,1.434
	c14.454,0.758,26.097-11.705,24.355-26.076l-1.695-13.991c-0.845-6.979-4.797-13.204-10.753-16.939l-17.802-11.164
	C275.07,377.805,258.126,383.901,253.373,398.249z"/>
<path style="fill:#FF9B4B;" d="M273.098,433.127l3.333-28.367c0.953-8.114,5.448-14.702,11.565-18.847l-0.122-0.077
	c-12.804-8.031-29.748-1.934-34.503,12.414l-7.859,23.72c-4.836,14.598,5.544,29.796,20.9,30.601l12.85,0.674
	C274.759,447.882,272.192,440.834,273.098,433.127z"/>
<path style="fill:#FFB45A;" d="M144.104,362.498l-7.858,18.931c-4.835,11.651,2.74,24.708,15.255,26.293l22.293,2.822
	c11.779,1.491,22.054-8.004,21.495-19.864l-0.544-11.548c-0.271-5.761-3.129-11.091-7.777-14.505l-13.89-10.205
	C163.085,347.081,148.857,351.048,144.104,362.498z"/>
<path style="fill:#FF9B4B;" d="M158.141,392.22l4.436-23.006c1.269-6.58,5.342-11.7,10.596-14.722l-0.096-0.071
	c-9.992-7.341-24.22-3.374-28.973,8.077l-7.858,18.931c-4.835,11.651,2.74,24.71,15.255,26.293l10.471,1.325
	C158.61,404.39,156.936,398.47,158.141,392.22z"/>
<g>
	<path style="fill:#FFDC8C;" d="M173.886,287.65c-3.005-4.148-9.181-4.102-12.2,0.036c-13.011,17.836-9.309,49.764,10.371,76.924
		c19.679,27.159,48.866,40.621,69.868,33.813c4.872-1.579,6.839-7.434,3.833-11.582L173.886,287.65z"/>
	<path style="fill:#FFDC8C;" d="M218.462,354.254l19.994,21.497c12.306,13.23,33.825,11.123,43.332-4.242l16.934-27.37
		c8.948-14.462,2.686-33.496-13.101-39.821l-15.37-6.158c-7.668-3.072-16.312-2.518-23.526,1.507l-21.558,12.031
		C209.66,320.352,206.367,341.25,218.462,354.254z"/>
</g>
<g>
	<path style="fill:#FFC850;" d="M261.126,363.872L246.994,332.2c-5.516-12.363-2.532-25.879,5.768-34.969
		c-2.081,0.576-4.113,1.363-6.036,2.435l-21.558,12.032c-15.507,8.653-18.801,29.553-6.706,42.556l19.994,21.496
		c9.911,10.656,25.708,11.204,36.482,3.048C269.108,375.553,264.122,370.588,261.126,363.872z"/>
	<path style="fill:#FFC850;" d="M177.289,210.014L168.748,228c-5.256,11.07,1.462,24.105,13.527,26.248l21.492,3.817
		c11.356,2.017,21.784-6.698,21.816-18.231l0.031-11.23c0.015-5.602-2.498-10.912-6.842-14.45L205.79,203.58
		C196.451,195.975,182.454,199.134,177.289,210.014z"/>
</g>
<path style="fill:#FFB45A;" d="M189.468,239.529l5.418-22.105c1.549-6.323,5.749-11.092,10.994-13.77l-0.089-0.073
	c-9.338-7.606-23.335-4.447-28.501,6.433L168.748,228c-5.256,11.07,1.462,24.106,13.527,26.249l10.094,1.793
	C189.333,251.36,187.996,245.535,189.468,239.529z"/>
<path style="fill:#FFC850;" d="M309.783,228.193l-13.131,15.874c-8.082,9.77-4.651,24.551,6.908,29.762l20.589,9.283
	c10.879,4.905,23.552-1.19,26.511-12.751l2.881-11.256c1.438-5.615,0.263-11.58-3.197-16.231l-10.339-13.901
	C332.568,218.974,317.727,218.591,309.783,228.193z"/>
<path style="fill:#FFB45A;" d="M314.509,260.891l11.044-20.799c3.159-5.949,8.583-9.667,14.522-11.022l-0.072-0.096
	c-7.437-9.999-22.279-10.382-30.222-0.78l-13.131,15.874c-8.082,9.77-4.651,24.552,6.908,29.762l9.671,4.361
	C311.372,272.724,311.509,266.541,314.509,260.891z"/>
<path style="fill:#FFC850;" d="M260.096,146.98l4.365,25.108c2.687,15.452,19.34,24.111,33.532,17.436l25.281-11.892
	c13.358-6.283,17.817-23.096,9.327-35.174l-8.265-11.759c-4.124-5.866-10.675-9.557-17.828-10.045l-21.38-1.458
	C269.749,118.15,257.455,131.794,260.096,146.98z"/>
<path style="fill:#FFB45A;" d="M294.634,168.826l-10.673-27.105c-3.052-7.753-2.188-15.84,1.314-22.514l-0.147-0.01
	c-15.38-1.048-27.672,12.596-25.032,27.784l4.365,25.107c2.687,15.452,19.34,24.111,33.533,17.436l11.874-5.586
	C303.235,181.29,297.534,176.191,294.634,168.826z"/>
<circle style="fill:#FF4646;" cx="194.615" cy="98.637" r="22.434"/>
<path style="fill:#C83C3C;" d="M211.165,112.985c-12.391,0-22.435-10.045-22.435-22.434c0-5.457,2.026-10.391,5.265-14.28
	c-12.097,0.335-21.816,10.194-21.816,22.371c0,12.391,10.045,22.435,22.435,22.435c6.934,0,13.055-3.213,17.171-8.154
	C211.573,112.928,211.377,112.985,211.165,112.985z"/>
<circle style="fill:#FF4646;" cx="194.615" cy="412.756" r="22.434"/>
<path style="fill:#C83C3C;" d="M211.165,427.1c-12.391,0-22.435-10.045-22.435-22.434c0-5.457,2.026-10.391,5.265-14.28
	c-12.097,0.335-21.816,10.194-21.816,22.371c0,12.391,10.045,22.435,22.435,22.435c6.934,0,13.055-3.213,17.171-8.155
	C211.573,427.043,211.377,427.1,211.165,427.1z"/>
<circle style="fill:#ADDF6E;" cx="421.186" cy="254.047" r="19.466"/>
<path style="fill:#87CD6E;" d="M435.549,266.489c-10.751,0-19.466-8.715-19.466-19.465c0-4.735,1.758-9.016,4.568-12.391
	c-10.496,0.291-18.93,8.844-18.93,19.411c0,10.751,8.715,19.466,19.466,19.466c6.016,0,11.327-2.787,14.898-7.075
	C435.903,266.44,435.733,266.489,435.549,266.489z"/>
<path style="fill:#FFDC8C;" d="M245.099,77.792c-1.154-4.99-6.861-7.351-11.252-4.714c-18.926,11.368-27.939,42.22-20.38,74.897
	s29.208,56.435,51.203,58.336c5.102,0.441,9.193-4.186,8.039-9.177L245.099,77.792z"/>
<path style="fill:#FFC850;" d="M236.378,143.356c-6.08-26.279-3.507-51.517,5.333-70.042c-2.304-1.451-5.265-1.796-7.864-0.235
	c-18.926,11.368-27.939,42.22-20.38,74.897s29.208,56.436,51.203,58.336c2.676,0.231,5.015-0.969,6.524-2.847
	C255.435,190.632,242.369,169.246,236.378,143.356z"/>
<path style="fill:#FFDC8C;" d="M147.78,152.162l7.214,24.478c4.44,15.064,21.759,23.159,34.872,16.299l23.359-12.22
	c12.342-6.456,14.739-23.017,5.013-34.644l-9.47-11.321c-4.724-5.647-11.571-9.111-18.632-9.425l-21.103-0.937
	C153.854,123.719,143.416,137.356,147.78,152.162z"/>
<path style="fill:#FFC850;" d="M175.631,171.954l-0.908-31.523c-0.171-5.958,1.492-11.207,4.207-15.598l-9.897-0.439
	c-15.18-0.673-25.618,12.963-21.254,27.769l7.214,24.478c4.006,13.589,18.468,21.394,30.893,17.777
	C179.95,188.754,175.887,180.86,175.631,171.954z"/>
<circle style="fill:#ADDF6E;" cx="277.738" cy="214.874" r="19.466"/>
<path style="fill:#87CD6E;" d="M292.1,227.317c-10.751,0-19.466-8.715-19.466-19.465c0-4.735,1.758-9.016,4.568-12.391
	c-10.496,0.291-18.93,8.844-18.93,19.411c0,10.751,8.715,19.466,19.466,19.466c6.016,0,11.327-2.787,14.898-7.075
	C292.455,227.267,292.285,227.317,292.1,227.317z"/>
<path style="fill:#FFDC8C;" d="M287.663,292.77c-4.211,1.794-5.399,7.185-2.393,10.637c12.957,14.882,41.513,18.002,69.089,6.251
	c27.577-11.751,45.108-34.507,43.349-54.161c-0.408-4.559-5.119-7.436-9.33-5.642L287.663,292.77z"/>
<path style="fill:#FFC850;" d="M346.721,290.217c-22.177,9.45-44.789,11.123-62.472,6.233c-0.917,2.254-0.759,4.914,1.02,6.957
	c12.957,14.882,41.513,18.002,69.09,6.251c27.577-11.751,45.108-34.507,43.349-54.161c-0.214-2.391-1.635-4.263-3.523-5.297
	C385.353,266.072,368.57,280.907,346.721,290.217z"/>
<circle style="fill:#FF4646;" cx="279.857" cy="281.909" r="22.434"/>
<path style="fill:#C83C3C;" d="M296.404,296.256c-12.391,0-22.435-10.045-22.435-22.434c0-5.457,2.026-10.391,5.265-14.28
	c-12.097,0.335-21.816,10.194-21.816,22.371c0,12.391,10.045,22.435,22.435,22.435c6.934,0,13.055-3.213,17.171-8.154
	C296.812,296.199,296.616,296.256,296.404,296.256z"/>
<circle style="fill:#FFC850;" cx="357.109" cy="148.524" r="28.287"/>
<g>
	<path style="fill:#FFB45A;" d="M377.984,166.611c-15.622,0-28.287-12.664-28.287-28.286c0-6.88,2.555-13.101,6.638-18.005
		c-15.253,0.423-27.508,12.852-27.508,28.207c0,15.623,12.665,28.287,28.287,28.287c8.743,0,16.46-4.051,21.649-10.282
		C378.498,166.54,378.251,166.611,377.984,166.611z"/>
	<circle style="fill:#FFB45A;" cx="359.294" cy="387.608" r="18.719"/>
</g>
<path style="fill:#FF9B4B;" d="M373.098,399.575c-10.338,0-18.719-8.381-18.719-18.718c0-4.553,1.691-8.67,4.393-11.915
	c-10.093,0.28-18.202,8.505-18.202,18.666c0,10.338,8.381,18.719,18.719,18.719c5.785,0,10.892-2.68,14.326-6.804
	C373.439,399.528,373.276,399.575,373.098,399.575z"/>
<ellipse transform="matrix(-0.7244 -0.6894 0.6894 -0.7244 132.1269 324.5912)" style="fill:#FFB45A;" cx="130.947" cy="135.884" rx="31.364" ry="26.129"/>
<path style="fill:#FF9B4B;" d="M158.756,135.752c-9.949,10.453-28.185,9.246-40.733-2.696c-5.526-5.259-8.896-11.724-10.233-18.205
	c-9.374,10.529-7.194,28.23,5.138,39.967c12.547,11.943,30.784,13.149,40.733,2.696c5.567-5.849,7.229-14.11,5.529-22.345
	C159.027,135.353,158.926,135.574,158.756,135.752z"/>
<path style="fill:#FFDC8C;" d="M113.636,204.728l-17.057-15.975c-10.498-9.832-9.994-27.331,1.014-35.238l19.609-14.083
	c10.361-7.442,24.896-2.588,30.408,10.154l5.366,12.406c2.677,6.189,2.694,13.215,0.044,19.122l-7.917,17.652
	C139.406,211.464,123.955,214.391,113.636,204.728z"/>
<path style="fill:#FFC850;" d="M108.905,173.799l25.418,13.715c4.803,2.592,9.782,3.391,14.493,2.976l-3.713,8.278
	c-5.696,12.696-21.148,15.625-31.466,5.962l-17.057-15.975c-9.47-8.87-9.903-23.913-1.832-32.59
	C96.937,163.351,101.724,169.923,108.905,173.799z"/>
<g>
	
		<ellipse transform="matrix(-0.185 -0.9827 0.9827 -0.185 -133.0933 419.7423)" style="fill:#FFB45A;" cx="107.501" cy="265.059" rx="36.045" ry="30.024"/>
	<path style="fill:#FFB45A;" d="M164.794,228.05l9.753,22.882c6.003,14.082-3.041,30.016-18.209,32.082l-27.02,3.681
		c-14.278,1.945-26.855-9.459-26.313-23.858l0.527-14.019c0.263-6.994,3.669-13.495,9.27-17.692l16.739-12.544
		C141.582,209.559,158.894,214.208,164.794,228.05z"/>
</g>
<path style="fill:#FF9B4B;" d="M130.386,280.936l0.749-19.925c0.374-9.94,5.216-19.179,13.175-25.144l17.357-13.007
	c-7.537-9.633-21.763-12.044-32.126-4.277l-16.739,12.544c-5.601,4.198-9.007,10.698-9.27,17.693l-0.527,14.019
	c-0.542,14.399,12.036,25.803,26.313,23.859l1.481-0.202C130.559,284.671,130.314,282.846,130.386,280.936z"/>
<circle style="fill:#ADDF6E;" cx="116.083" cy="314.737" r="22.411"/>
<path style="fill:#87CD6E;" d="M132.619,329.062c-12.377,0-22.411-10.034-22.411-22.41c0-5.451,2.024-10.38,5.259-14.265
	c-12.084,0.335-21.793,10.183-21.793,22.348c0,12.377,10.034,22.411,22.411,22.411c6.926,0,13.042-3.21,17.152-8.146
	C133.026,329.005,132.83,329.062,132.619,329.062z"/>
<circle style="fill:#FFB45A;" cx="92.822" cy="219.564" r="25.377"/>
<path style="fill:#FF9B4B;" d="M111.541,235.793c-14.015,0-25.377-11.361-25.377-25.377c0-6.173,2.292-11.754,5.955-16.153
	c-13.684,0.38-24.678,11.53-24.678,25.306c0,14.016,11.362,25.377,25.377,25.377c7.843,0,14.767-3.635,19.422-9.224
	C112.002,235.729,111.78,235.793,111.541,235.793z"/>
<path style="fill:#FFC850;" d="M275.947,379.782l-1.509,22.217c-0.929,13.673,11.407,24.481,24.84,21.762l23.927-4.843
	c12.642-2.559,19.919-15.903,15.222-27.916l-4.573-11.697c-2.281-5.835-7.075-10.328-13.046-12.228l-17.845-5.677
	C290.127,357.315,276.86,366.344,275.947,379.782z"/>
<path style="fill:#FFB45A;" d="M300.723,405.496l-3.428-25.223c-0.981-7.214,1.433-13.899,5.791-18.836l-0.122-0.039
	c-12.835-4.084-26.102,4.943-27.016,18.382l-1.509,22.217c-0.929,13.673,11.407,24.481,24.84,21.762l11.239-2.274
	C305.436,417.862,301.655,412.349,300.723,405.496z"/>
<path style="fill:#FFC850;" d="M191.364,351.439c-15.827-21.842-23.277-46.092-22.343-66.598c-2.687-0.439-5.549,0.394-7.336,2.844
	c-13.011,17.837-9.309,49.764,10.371,76.924c19.679,27.159,48.866,40.621,69.868,33.813c2.554-0.829,4.243-2.845,4.902-5.161
	C227.315,387.575,206.957,372.959,191.364,351.439z"/>
<g>
</g>
<g>
</g>
<g>
</g>
<g>
</g>
<g>
</g>
<g>
</g>
<g>
</g>
<g>
</g>
<g>
</g>
<g>
</g>
<g>
</g>
<g>
</g>
<g>
</g>
<g>
</g>
<g>
</g>
</svg>
