<?xml version="1.0" encoding="iso-8859-1"?>
<!-- Generator: Adobe Illustrator 19.0.0, SVG Export Plug-In . SVG Version: 6.00 Build 0)  -->
<svg version="1.1" id="Capa_1" xmlns="http://www.w3.org/2000/svg" xmlns:xlink="http://www.w3.org/1999/xlink" x="0px" y="0px"
	 viewBox="0 0 512 512" style="enable-background:new 0 0 512 512;" xml:space="preserve">
<path style="fill:#A2D8F5;" d="M491.81,321.54V372c0,77.2-62.8,140-140,140H156c-77.2,0-140-62.8-140-140v-50.46H491.81z"/>
<path style="fill:#ADACB2;" d="M76,278.795H46V58.5C46,26.243,72.243,0,104.5,0S163,26.243,163,58.5V72h-30V58.5
	c0-15.715-12.785-28.5-28.5-28.5S76,42.785,76,58.5V278.795z"/>
<g>
	<rect x="133" y="158.5" style="fill:#9BFCFF;" width="30" height="30"/>
	<rect x="133" y="209.5" style="fill:#9BFCFF;" width="30" height="30"/>
	<rect x="89.5" y="158.5" style="fill:#9BFCFF;" width="30" height="30"/>
	<rect x="89.5" y="209.5" style="fill:#9BFCFF;" width="30" height="30"/>
	<rect x="177" y="158.5" style="fill:#9BFCFF;" width="30" height="30"/>
	<rect x="177" y="209.5" style="fill:#9BFCFF;" width="30" height="30"/>
</g>
<path style="fill:#7FC7F0;" d="M491.81,321.54V372c0,77.2-62.8,140-140,140h-95.24V321.54H491.81z"/>
<rect y="263.79" style="fill:#FFB44D;" width="512" height="87.75"/>
<rect x="256.57" y="263.79" style="fill:#FF9900;" width="255.43" height="87.75"/>
<path style="fill:#C7C5CC;" d="M148,58c-27.387,0-49.667,22.28-49.667,49.667v33.666h99.334v-33.666
	C197.667,80.28,175.387,58,148,58z"/>
<g>
</g>
<g>
</g>
<g>
</g>
<g>
</g>
<g>
</g>
<g>
</g>
<g>
</g>
<g>
</g>
<g>
</g>
<g>
</g>
<g>
</g>
<g>
</g>
<g>
</g>
<g>
</g>
<g>
</g>
</svg>
