<?xml version="1.0" encoding="iso-8859-1"?>
<!-- Generator: Adobe Illustrator 19.0.0, SVG Export Plug-In . SVG Version: 6.00 Build 0)  -->
<svg version="1.1" id="Capa_1" xmlns="http://www.w3.org/2000/svg" xmlns:xlink="http://www.w3.org/1999/xlink" x="0px" y="0px"
	 viewBox="0 0 512 512" style="enable-background:new 0 0 512 512;" xml:space="preserve">
<polygon style="fill:#C5C6C8;" points="311,378.5 251,378.5 301,504.5 331,504.5 "/>
<g>
	<polygon style="fill:#E2E3E3;" points="201,378.5 181,504.5 301,504.5 281,378.5 	"/>
	<path style="fill:#E2E3E3;" d="M353.5,251L256,408.5c70.416,0,127.5-57.084,127.5-127.5v-30H353.5z"/>
</g>
<path style="fill:#FFFFFF;" d="M353.5,281v-30h-225v30c0,70.416,57.084,127.5,127.5,127.5C309.848,408.5,353.5,351.416,353.5,281z"
	/>
<path style="fill:#E2E3E3;" d="M368.5,27.5V251h30c16.5,0,30-13.5,30-30V37.5L368.5,27.5z"/>
<path style="fill:#FFFFFF;" d="M398.5,221V17.5l-315,20V221c0,16.5,13.5,30,30,30h255C385,251,398.5,237.5,398.5,221z"/>
<path style="fill:#A4A6AA;" d="M398.5,7.5h-30l30,30h30C428.5,21,415,7.5,398.5,7.5z"/>
<g>
	<path style="fill:#C5C6C8;" d="M368.5,7.5h-255c-16.5,0-30,13.5-30,30h315C398.5,21,385,7.5,368.5,7.5z"/>
	<polygon style="fill:#C5C6C8;" points="368.5,281 398.5,281 398.5,251 338.5,231 	"/>
	<polygon style="fill:#C5C6C8;" points="113.5,251 113.5,281 368.5,281 368.5,231 	"/>
</g>
<path style="fill:#F76549;" d="M368.5,221h-30l30,30h30C398.5,234.431,385.069,221,368.5,221z"/>
<path style="fill:#F79E8C;" d="M338.5,221h-195c-16.569,0-30,13.431-30,30h255C368.5,234.431,355.069,221,338.5,221z"/>
<path d="M398.5,0h-285C92.822,0,76,16.822,76,37.5V221c0,18.11,12.904,33.261,30,36.745V281c0,4.143,3.357,7.5,7.5,7.5h7.712
	c2.608,47.397,29.779,88.351,68.968,110.329l-16.587,104.495c-0.344,2.167,0.278,4.377,1.703,6.046S178.806,512,181,512h150
	c2.194,0,4.279-0.961,5.704-2.63c1.425-1.669,2.047-3.879,1.703-6.046L321.82,398.829c39.189-21.978,66.359-62.932,68.968-110.329
	h7.712c4.143,0,7.5-3.357,7.5-7.5v-23.255c17.096-3.484,30-18.635,30-36.745V37.5C436,16.822,419.178,0,398.5,0z M113.5,15h285
	c9.777,0,18.114,6.271,21.21,15H92.29C95.386,21.271,103.723,15,113.5,15z M322.216,497H189.784l14.494-91.308
	C220.216,412.328,237.686,416,256,416s35.784-3.672,51.722-10.308L322.216,497z M188.5,273.5c-4.143,0-7.5,3.357-7.5,7.5
	s3.357,7.5,7.5,7.5h187.259C371.873,351.187,319.648,401,256,401s-115.873-49.813-119.759-112.5H158.5c4.143,0,7.5-3.357,7.5-7.5
	s-3.357-7.5-7.5-7.5H121v-15h270v15H188.5z M122.29,243.5c3.096-8.729,11.433-15,21.21-15h225c9.777,0,18.114,6.271,21.21,15H122.29
	z M405.024,242.532c-3.851-16.611-18.759-29.032-36.524-29.032h-225c-17.765,0-32.673,12.421-36.524,29.032
	C97.742,239.729,91,231.138,91,221V45h330v176C421,231.138,414.258,239.729,405.024,242.532z"/>
<path d="M168.5,70h-45c-4.143,0-7.5,3.357-7.5,7.5s3.357,7.5,7.5,7.5h45c4.143,0,7.5-3.357,7.5-7.5S172.643,70,168.5,70z"/>
<g>
</g>
<g>
</g>
<g>
</g>
<g>
</g>
<g>
</g>
<g>
</g>
<g>
</g>
<g>
</g>
<g>
</g>
<g>
</g>
<g>
</g>
<g>
</g>
<g>
</g>
<g>
</g>
<g>
</g>
</svg>
