<?xml version="1.0" encoding="iso-8859-1"?>
<!-- Generator: Adobe Illustrator 19.0.0, SVG Export Plug-In . SVG Version: 6.00 Build 0)  -->
<svg version="1.1" id="Capa_1" xmlns="http://www.w3.org/2000/svg" xmlns:xlink="http://www.w3.org/1999/xlink" x="0px" y="0px"
	 viewBox="0 0 512 512" style="enable-background:new 0 0 512 512;" xml:space="preserve">
<g>
	<path style="fill:#F0F0F0;" d="M14.828,94.274l-0.016,182.276h46.847c0-60.424,0.692-120.745,0.692-181.821
		c2.228-38.321,34.049-41.846,46.489-19.307c2.575-7.387,6.747-14.288,12.517-20.154c6.379-6.486,13.982-10.965,22.086-13.445
		C108.26-16.055,13.819,7.083,14.828,94.274z"/>
	<path style="fill:#D8D8E7;" d="M108.837,75.421c-6.707,19.214-2.635,41.708,12.127,57.779l76.558-77.843
		c-14.979-14.587-35.796-19.146-54.081-13.54c-6.637,2.035-12.941,5.41-18.511,10.13c-1.229,1.041-2.421,2.147-3.573,3.319
		C115.588,61.134,111.416,68.034,108.837,75.421z"/>
	<polygon style="fill:#00BAF7;" points="100.586,276.549 61.659,276.549 14.813,276.549 14.813,502 100.586,502 	"/>
	<g>
		<path style="fill:#FFD3A3;" d="M152.504,285.555c-24.395,26.832-21.348,39.793,3.753,63.703l77.166,73.504l0.214,66.548h82.878
			h82.878l0.106-66.548l77.165-73.504c25.091-23.901,28.156-36.881,3.753-63.703l-62.89-72.58
			c-10.816-12.481-23.978-16.188-34.444-13.757c1.189,3.068,1.841,6.405,1.841,9.894c0,9.147-4.481,17.247-11.369,22.223
			c8.018,9.51,13.694,21.059,16.134,33.765l44.478,51.33l-69.577,56.891c-32.085,0.044-64.171,0.044-96.257,0l-69.576-56.891
			l45.228-52.197c2.342-11.458,7.322-21.958,14.279-30.834c-8.737-4.58-14.699-13.737-14.699-24.287
			c0-3.728,0.744-7.282,2.094-10.521c-9.646-0.697-20.844,3.516-30.263,14.385L152.504,285.555z"/>
		<path style="fill:#FFD3A3;" d="M242.479,279.347c0.092,41.02,33.421,74.196,74.439,74.104c41.02-0.093,74.196-33.42,74.104-74.439
			c-0.011-4.756-0.469-9.406-1.333-13.912c-2.439-12.705-8.115-24.254-16.133-33.763c-4.508,3.257-10.047,5.177-16.033,5.177
			c-7.338,0-14.002-2.885-18.92-7.581c-4.919,4.696-11.583,7.581-18.921,7.581c-10.604,0-19.802-6.026-24.357-14.839
			c-4.555,8.813-13.752,14.839-24.357,14.839c-4.583,0-8.905-1.126-12.7-3.117c-6.959,8.877-11.939,19.376-14.281,30.835
			C242.986,269.114,242.467,274.168,242.479,279.347z"/>
	</g>
	<path style="fill:#F0F0F0;" d="M295.323,221.674c4.556,8.813,13.753,14.839,24.357,14.839c7.338,0,14.002-2.885,18.921-7.581
		c4.918,4.696,11.582,7.581,18.92,7.581c5.986,0,11.525-1.92,16.033-5.177c6.887-4.977,11.368-13.078,11.368-22.225
		c0-3.488-0.651-6.825-1.841-9.894c-3.055-7.886-9.654-14.005-17.844-16.404c0.18-15.136-12.34-27.527-27.401-27.527
		c-7.963,0-15.133,3.397-20.139,8.822c-4.973-6.923-13.094-11.433-22.269-11.433c-15.86,0-28.355,13.39-27.344,29.184
		c-10.152,1.061-18.657,7.664-22.43,16.73c-1.35,3.239-2.094,6.794-2.094,10.521c0,10.55,5.962,19.707,14.701,24.285
		c3.795,1.991,8.117,3.117,12.7,3.117C281.571,236.515,290.768,230.488,295.323,221.674z"/>
</g>
<path d="M487.897,278.916l-62.812-72.49c-10.235-11.81-23.41-18.175-36.426-17.918c-3.497-5.278-8.29-9.679-14.011-12.644
	c-1.321-7.266-4.81-13.984-10.163-19.4c-7.122-7.207-16.585-11.176-26.647-11.176c-6.85,0-13.532,1.901-19.313,5.383
	c-6.52-5.109-14.645-7.993-23.094-7.993c-10.294,0-20.233,4.302-27.271,11.804c-5.044,5.378-8.355,12.137-9.588,19.319
	c-7.927,2.761-14.567,8.082-19.009,14.941c-11.529,1.183-22.805,7.392-31.726,17.685l-62.812,72.491
	c-10.265,11.302-20.542,24.941-19.165,40.468c1.184,13.35,10.251,24.491,23.501,37.114l74.076,70.562l0.2,62.282
	c0.018,5.51,4.49,9.968,10,9.968h165.755c5.517,0,9.991-4.467,10-9.984l0.1-62.273l74.069-70.555
	c13.247-12.619,22.313-23.759,23.5-37.112C508.443,303.851,498.164,290.215,487.897,278.916z M419.87,315.201l-58.855,48.124
	c-13.393,0.017-26.862,0.025-40.336,0.026c21.103-0.963,40.796-9.651,55.795-24.717c12.711-12.768,20.818-28.893,23.527-46.361
	L419.87,315.201z M233.403,291.716c2.641,17.817,10.896,34.25,23.893,47.188c14.931,14.864,34.444,23.451,55.338,24.448
	c-13.605-0.001-27.206-0.009-40.729-0.026l-58.854-48.124L233.403,291.716z M270.965,246.515c9.127,0,17.701-3.275,24.358-8.994
	c6.657,5.719,15.23,8.994,24.357,8.994c6.737,0,13.235-1.786,18.92-5.128c5.686,3.342,12.183,5.128,18.92,5.128
	c4.607,0,9.018-0.842,13.097-2.372c6.717,10.331,10.374,22.461,10.402,34.892c0.038,17.168-6.61,33.323-18.722,45.49
	c-12.111,12.166-28.237,18.888-45.404,18.927c-17.163,0.016-33.323-6.61-45.489-18.722c-12.166-12.112-18.888-28.237-18.927-45.404
	c-0.01-4.372,0.417-8.669,1.25-12.853c0.039-0.172,0.066-0.346,0.096-0.519c1.508-7.264,4.281-14.17,8.222-20.52
	C264.908,246.134,267.892,246.515,270.965,246.515z M269.125,191.805c5.338-0.557,9.285-5.229,8.941-10.585
	c-0.312-4.87,1.351-9.506,4.681-13.057c3.318-3.538,7.822-5.486,12.682-5.486c5.59,0,10.878,2.716,14.147,7.267
	c1.753,2.441,4.511,3.964,7.511,4.147c3.002,0.184,5.922-0.991,7.961-3.2c3.335-3.614,7.877-5.604,12.789-5.604
	c4.673,0,9.084,1.859,12.419,5.234c3.267,3.306,5.036,7.629,4.981,12.174c-0.053,4.483,2.885,8.455,7.188,9.715
	c7.357,2.156,12.496,9.023,12.496,16.701c0,9.595-7.806,17.402-17.401,17.402c-4.497,0-8.764-1.71-12.014-4.813
	c-1.932-1.845-4.419-2.768-6.906-2.768c-2.486,0-4.973,0.922-6.905,2.767c-3.251,3.104-7.519,4.814-12.016,4.814
	c-6.538,0-12.467-3.614-15.474-9.431c-1.717-3.322-5.144-5.408-8.884-5.408c-3.74,0-7.166,2.087-8.883,5.409
	c-3.006,5.817-8.935,9.431-15.474,9.431c-9.595,0-17.401-7.807-17.401-17.402C253.563,200.172,260.253,192.732,269.125,191.805z
	 M487.14,317.616c-0.534,6.012-5.73,13.31-17.373,24.4l-77.166,73.504c-1.978,1.884-3.099,4.494-3.103,7.225l-0.09,56.564H243.605
	l-0.182-56.58c-0.009-2.725-1.129-5.329-3.103-7.208l-77.166-73.504c-11.645-11.092-16.84-18.389-17.374-24.398
	c-0.548-6.177,3.808-13.991,14.123-25.336c0.054-0.059,0.106-0.118,0.159-0.179l62.889-72.579c3.26-3.763,6.899-6.643,10.659-8.513
	c0.482,9.591,4.594,18.24,10.986,24.6c-4.546,7.483-7.843,15.55-9.842,24.001l-43.558,50.268c-1.769,2.042-2.637,4.713-2.406,7.405
	c0.231,2.691,1.542,5.175,3.633,6.885L262,381.062c1.783,1.458,4.014,2.255,6.316,2.259c15.972,0.022,32.058,0.033,48.143,0.033
	c16.085,0,32.17-0.011,48.142-0.033c2.303-0.004,4.534-0.801,6.316-2.258l69.577-56.892c2.091-1.71,3.402-4.194,3.633-6.885
	c0.231-2.692-0.637-5.363-2.406-7.405l-42.815-49.41c-2.282-10.01-6.393-19.545-12.117-28.113
	c5.048-6.343,8.085-14.352,8.128-23.061c5.253,1.476,10.504,4.981,15.05,10.227l62.89,72.58c0.053,0.061,0.106,0.122,0.161,0.181
	C483.335,303.622,487.69,311.434,487.14,317.616z"/>
<path d="M204.652,62.369c1.866-1.897,2.898-4.459,2.87-7.12c-0.029-2.66-1.117-5.2-3.022-7.056
	c-12.38-12.057-28.54-18.697-45.499-18.697c-3.786,0-7.513,0.35-11.159,0.999C128.988,5.159,96.999-5.839,65.993,3.039
	C48.681,7.996,33.238,18.916,22.507,33.788C10.683,50.175,4.569,71.109,4.827,94.33L4.812,502l0,0c0,5.523,4.477,10,10,10h85.774
	c5.523,0,10-4.477,10-10v-225.45c0-5.523-4.477-10-10-10H71.666c0.033-26.864,0.187-54.013,0.338-80.366
	c0.17-29.797,0.347-60.604,0.348-91.152c0.806-12.79,5.705-21.72,12.817-23.334c4.492-1.021,9.215,1.032,12.735,5.324
	c-1.417,5.389-2.176,11.006-2.198,16.751c-0.068,17.151,6.287,33.556,17.894,46.192c1.854,2.018,4.454,3.187,7.194,3.234
	c0.057,0.001,0.114,0.001,0.17,0.001c2.679,0,5.248-1.075,7.129-2.988L204.652,62.369z M90.586,492H63.148v-38.512
	c0-5.523-4.477-10-10-10s-10,4.477-10,10V492H24.813V286.55h65.773C90.586,286.55,90.586,492,90.586,492z M80.743,52.193
	C68.037,55.076,53.91,67.612,52.367,94.149c-0.011,0.193-0.017,0.387-0.017,0.58c0,30.591-0.177,61.474-0.348,91.34
	c-0.151,26.384-0.305,53.565-0.338,80.481H24.814l0.015-172.274c0-0.039,0-0.078-0.001-0.117
	C24.33,51.149,48.61,28.821,71.499,22.266c21.182-6.067,42.268-0.029,56.427,15.437c-4.962,2.836-9.575,6.358-13.698,10.55
	c-2.915,2.964-5.506,6.177-7.765,9.589C98.915,52.364,89.707,50.16,80.743,52.193z M128.487,62.279
	c8.107-8.243,18.944-12.783,30.515-12.783c8.377,0,16.492,2.365,23.589,6.783l-60.533,61.548
	C111.948,100.024,114.103,76.905,128.487,62.279z"/>
<path d="M171.918,132.087c-4.242-3.539-10.547-2.969-14.085,1.271c-3.539,4.241-2.969,10.547,1.272,14.085l7.116,5.938
	c1.871,1.561,4.142,2.322,6.401,2.322c2.863,0,5.706-1.224,7.684-3.594c3.538-4.241,2.969-10.547-1.271-14.085L171.918,132.087z"/>
<path d="M213.105,123.928l-7.115-5.938c-4.24-3.539-10.546-2.97-14.085,1.271c-3.539,4.24-2.97,10.546,1.271,14.085l7.115,5.938
	c1.87,1.561,4.143,2.323,6.402,2.323c2.863,0,5.705-1.223,7.683-3.593C217.914,133.774,217.345,127.467,213.105,123.928z"/>
<path d="M204.247,86.286c-3.538,4.241-2.969,10.547,1.271,14.085l10.414,8.689c1.87,1.561,4.142,2.322,6.401,2.322
	c2.863,0,5.706-1.224,7.684-3.594c3.538-4.241,2.969-10.547-1.271-14.085l-10.414-8.689
	C214.093,81.476,207.784,82.046,204.247,86.286z"/>
<path d="M53.147,413.572c-5.523,0-10,4.477-10,10v0.365c0,5.523,4.477,10,10,10s10-4.477,10-10v-0.365
	C63.148,418.049,58.67,413.572,53.147,413.572z"/>
<g>
</g>
<g>
</g>
<g>
</g>
<g>
</g>
<g>
</g>
<g>
</g>
<g>
</g>
<g>
</g>
<g>
</g>
<g>
</g>
<g>
</g>
<g>
</g>
<g>
</g>
<g>
</g>
<g>
</g>
</svg>
