<?xml version="1.0" encoding="iso-8859-1"?>
<!-- Generator: Adobe Illustrator 19.0.0, SVG Export Plug-In . SVG Version: 6.00 Build 0)  -->
<svg version="1.1" id="Layer_1" xmlns="http://www.w3.org/2000/svg" xmlns:xlink="http://www.w3.org/1999/xlink" x="0px" y="0px"
	 viewBox="0 0 511.992 511.992" style="enable-background:new 0 0 511.992 511.992;" xml:space="preserve">
<polygon style="fill:#FFE3AB;" points="262.996,267.121 255.996,237.997 74.999,245.996 74.999,449.993 325.995,449.993 
	332.995,300.996 "/>
<path style="fill:#ED5564;" d="M127.498,88.999c-1.5-1.5-58.999-33.5-58.999-33.5l-17.5,10.5l-17,18l8.25,37.249l52.749,34
	l160.998,78.749l20.5-31C276.496,202.997,128.998,90.499,127.498,88.999z"/>
<polygon style="fill:#E6E9ED;" points="282.996,209.997 265.496,231.497 260.996,265.496 303.995,294.996 436.493,352.993 
	476.992,356.493 489.992,337.493 "/>
<polygon style="fill:#FFEBBD;" points="433.337,241.34 332.995,241.34 327.995,455.337 438.665,449.993 "/>
<path d="M501.336,443.399h-53.343v-76.03c6.047,0.906,11.438,1.328,16.249,1.328c42.891,0,38.812-33.171,38.812-33.171
	l-55.062-34.593v-60.187c0-5.905-4.781-10.671-10.656-10.671H335.245l-60.218-37.859c0,0-135.428-109.623-180.373-137.873
	c-7.188-4.531-15.609-7.093-24.226-7.093c-14.32,0-29.179,7.077-39.773,23.937c-16.976,27-6.578,52.937,12.562,64.968
	c39.796,25.031,131.678,69.171,184.341,93.921H74.663c-5.891,0-10.664,4.766-10.664,10.671V443.4H10.664l0,0l0,0
	C4.773,443.4,0,448.181,0,454.072s4.773,10.671,10.664,10.671l0,0l0,0h319.987h170.685c5.875,0,10.656-4.78,10.656-10.671
	S507.211,443.399,501.336,443.399z M477.914,344.932c-2.953,1.547-7.797,2.438-13.672,2.438c-4.062,0-9.405-0.406-16.249-1.656
	v-19.593L477.914,344.932z M281.715,221.638l38.28,24.046v45.609c-15.781-8.891-32.468-18.766-50.038-29.672l-2.273-17.656
	L281.715,221.638z M48.718,82.53c5.734-9.125,13.242-13.938,21.711-13.938l0,0c4.461,0,8.914,1.312,12.875,3.797
	c44.507,27.984,142.178,107.389,179.99,138.482l-6,9.547C212.904,199.776,99.093,146.09,54.57,118.09
	C45.242,112.232,38.109,99.405,48.718,82.53z M85.334,251.402h21.328v21.344c0,5.875,4.781,10.656,10.671,10.656
	c5.891,0,10.664-4.781,10.664-10.656v-21.344h42.664v53.343c0,5.875,4.781,10.656,10.671,10.656c5.891,0,10.664-4.781,10.664-10.656
	v-53.343h55.132l2.961,22.969c25.844,16.25,49.062,29.905,69.905,41.343V443.4H85.334V251.402z M415.994,443.399V411.4l0,0
	c0-5.891-4.781-10.656-10.656-10.656c-5.906,0-10.688,4.766-10.688,10.656l0,0v31.999h-53.312V251.402h21.312v21.344
	c0,5.875,4.781,10.656,10.688,10.656c5.875,0,10.656-4.781,10.656-10.656v-21.344h42.656v191.997H415.994z"/>
<g>
</g>
<g>
</g>
<g>
</g>
<g>
</g>
<g>
</g>
<g>
</g>
<g>
</g>
<g>
</g>
<g>
</g>
<g>
</g>
<g>
</g>
<g>
</g>
<g>
</g>
<g>
</g>
<g>
</g>
</svg>
