<?xml version="1.0" encoding="iso-8859-1"?>
<!-- Generator: Adobe Illustrator 19.0.0, SVG Export Plug-In . SVG Version: 6.00 Build 0)  -->
<svg version="1.1" id="Capa_1" xmlns="http://www.w3.org/2000/svg" xmlns:xlink="http://www.w3.org/1999/xlink" x="0px" y="0px"
	 viewBox="0 0 441.579 441.579" style="enable-background:new 0 0 441.579 441.579;" xml:space="preserve">
<g>
	<path style="fill:#84D10F;" d="M98.379,307.132c-6.4,0-12-0.8-18.4-1.6l-4-0.8l-1.6-4c-3.2-5.6-28.8-58.4-14.4-80.8
		c0-0.8,0-0.8,0-1.6h-0.8c0,0-0.8,0-0.8,0.8c-8,12.8-5.6,36.8,7.2,68l8,18.4l-18.4-8c-12-5.6-24-12.8-35.2-20.8l-2.4-1.6l-0.8-2.4
		c-24-85.6,14.4-176.8,92.8-218.4l14.4-8l-3.2,16c-4.8,24-5.6,48-3.2,72l0.8,3.2l-1.6,2.4c-8.8,13.6-34.4,62.4-9.6,112l0.8,0.8
		c0.8,0,0.8-0.8,0.8-1.6c-16.8-33.6-8.8-68,0.8-91.2l7.2-17.6l7.2,17.6c3.2,8,8,16,14.4,22.4h0.8h1.6v-0.8v-0.8
		c-10.4-11.2-17.6-25.6-20-41.6c-4-29.6-2.4-59.2,4.8-88l0.8-4l6.4-2.4c2.4-0.8,4.8-2.4,8-3.2c48-15.2,99.2-10.4,144,12.8
		c36,18.4,64.8,48,82.4,84l2.4,5.6l-4.8,4c-4,3.2-8,6.4-12,9.6l-11.2,8l-0.8-14.4c-1.6-16.8-8-28-19.2-33.6h-0.8c0,0-0.8,0-0.8,0.8
		s0,0.8,0.8,1.6c16.8,8.8,19.2,30.4,18.4,43.2v4l-4,2.4c-10.4,6.4-21.6,12-33.6,16l-9.6,3.2l-0.8-11.2c-0.8-23.2-8-66.4-45.6-89.6
		h-0.8c0,0-0.8,0-0.8,0.8s0,0.8,0,1.6c39.2,24.8,44,72.8,44,92v7.2l-6.4,0.8c-6.4,0.8-12,1.6-18.4,1.6h-6.4l-2.4-1.6
		c-4-3.2-40-33.6-47.2-60.8c0-0.8-0.8-0.8-0.8-0.8c-0.8,0-0.8,0.8-0.8,1.6l0,0c4.8,13.6,12.8,26.4,23.2,36.8l-8.8,12.8h-0.8
		c0,0-0.8,0-0.8,0.8s-28,100-94.4,122.4C115.979,305.532,107.179,307.132,98.379,307.132z"/>
	<path style="fill:#84D10F;" d="M198.379,409.532c-17.6,0-35.2-2.4-52.8-8l-11.2-3.2l7.2-9.6c38.4-49.6,143.2-114.4,144.8-115.2
		l20.8-40.8c0-0.8,0-0.8-0.8-1.6h-0.8c0,0-0.8,0-0.8,0.8l-20,40l-1.6,1.6l-11.2,7.2l-12,8v-14.4c-0.8-19.2-5.6-33.6-13.6-40.8h-1.6
		h-0.8v0.8v0.8c13.6,12,13.6,40,12.8,51.2v4l-3.2,2.4c-8,5.6-16,11.2-25.6,17.6l-7.2,4.8l-4-6.4c-4.8-8-13.6-22.4-12-29.6v-1.6
		l0.8-1.6c0-0.8,0-0.8,0-1.6h-0.8h-0.8c-4,5.6,0,19.2,11.2,36l4,6.4l-6.4,4.8c-36.8,27.2-63.2,52-76.8,71.2l-3.2,5.6l-5.6-2.4
		c-5.6-2.4-10.4-4.8-15.2-7.2c-36-19.2-65.6-49.6-83.2-86.4l-11.2-23.2l22.4,12.8c11.2,6.4,23.2,11.2,35.2,14.4l-0.8,8l1.6-8
		c7.2,1.6,14.4,2.4,21.6,2.4c9.6,0,18.4-1.6,27.2-4c54.4-18.4,83.2-85.6,92.8-113.6l3.2-8l8,4c11.2,5.6,24,8,36.8,8
		c48,0,92.8-36.8,104.8-48l3.2-3.2l4,0.8c23.2,4,42.4,19.2,52,40.8l4,9.6l-11.2,1.6c-7.2,0.8-13.6,4-19.2,8c-9.6,8-15.2,20-16,32.8
		v0.8c-7.2,76-58.4,140-131.2,163.2h-0.8l-28.8,7.2l20.8-20c26.4-27.2,49.6-57.6,68-91.2l1.6-2.4l36-9.6c0.8,0,0.8-0.8,0.8-1.6
		c0-0.8-0.8-0.8-0.8-0.8l-34.4,8.8l9.6-16.8c14.4-26.4,23.2-45.6,24-46.4c0-0.8,0-0.8-0.8-1.6l0,0c-0.8,0-0.8,0-0.8,0.8
		c-0.8,1.6-69.6,148-134.4,180.8l-1.6,0.8h-1.6C207.979,409.532,203.179,409.532,198.379,409.532z"/>
</g>
<g>
	<path style="fill:#50AC25;" d="M406.379,167.932c-28,0-42.4,20.8-56,51.2c1.6,0,3.2,0,4,0.8c4.8,2.4,6.4,7.2,4.8,12l0,0
		c-0.8,2.4-10.4,21.6-24,47.2l16-4c4.8-1.6,9.6,1.6,11.2,6.4s-1.6,9.6-6.4,11.2l-33.6,8c-19.2,33.6-42.4,64.8-69.6,92.8
		c-1.6,1.6-1.6,3.2-0.8,3.2c18.4,16,91.2-41.6,113.6-84c11.2-23.2,19.2-48.8,21.6-74.4l1.6-4.8c1.6-17.6,5.6-17.6,16-25.6
		c8.8-6.4,19.2-10.4,29.6-12.8C431.979,187.932,419.179,165.532,406.379,167.932z"/>
	<path style="fill:#50AC25;" d="M215.179,399.132l-5.6,1.6h2.4L215.179,399.132z"/>
</g>
<g>
	<path style="fill:#A7E51F;" d="M247.179,48.732h8.8c-16-19.2-73.6-24-110.4-12c-3.2,0.8-17.6,8-20.8,9.6c-1.6,5.6,0,24-1.6,36.8
		C160.779,61.532,203.979,49.532,247.179,48.732z"/>
	<path style="fill:#A7E51F;" d="M113.579,89.532c0.8-12,2.4-24.8,4.8-36.8c-32,16.8-68.8,46.4-86.4,79.2
		c-13.6,26.4-40.8,95.2-14.4,91.2C34.379,168.732,67.979,122.332,113.579,89.532z"/>
</g>
<path style="fill:#1C1211;" d="M378.379,135.132c-42.4-89.6-145.6-134.4-240-104c-104.8,33.6-162.4,145.6-128.8,250.4
	c16,50.4,51.2,92,97.6,116c8,4,16,7.2,24,10.4l0,0c21.6,8,44.8,12,67.2,12c103.2,0,188.8-78.4,198.4-181.6l0,0
	c0-10.4,4.8-19.2,12-26.4c6.4-4.8,14.4-7.2,22.4-6.4c4.8,0.8,9.6-2.4,10.4-8c0-0.8,0-1.6,0-2.4
	C439.979,179.932,424.779,145.532,378.379,135.132z M38.379,137.532c16.8-32.8,43.2-59.2,75.2-76.8c-4.8,24.8-6.4,50.4-3.2,75.2
	c-8,13.6-36.8,66.4-10.4,120c3.2,4,8.8,4.8,12.8,2.4c3.2-2.4,4.8-6.4,3.2-10.4c-16-32.8-8-65.6,0.8-85.6c4,8.8,8.8,17.6,16,24.8
	c3.2,3.2,9.6,3.2,12.8,0s3.2-9.6,0-12.8c-9.6-10.4-15.2-23.2-17.6-37.6v-0.8c-4-28-1.6-56.8,4.8-84.8c3.2-1.6,6.4-2.4,9.6-4
	c87.2-26.4,179.2,12.8,218.4,93.6c-3.2,2.4-7.2,5.6-12,9.6c-0.8-16.8-9.6-31.2-23.2-40c-4-3.2-9.6-1.6-12.8,2.4
	c-3.2,4-1.6,9.6,2.4,12.8c0.8,0.8,1.6,0.8,2.4,0.8c13.6,7.2,14.4,27.2,14.4,35.2c-10.4,6.4-20.8,11.2-32,15.2
	c-0.8-23.2-8-70.4-48.8-96c-4-2.4-9.6-1.6-12.8,2.4c-2.4,4-1.6,9.6,2.4,12.8c36,23.2,40,68.8,40.8,85.6c-7.2,1.6-13.6,1.6-20.8,1.6
	c-12-10.4-39.2-36-44.8-56.8c-1.6-4.8-6.4-8-11.2-6.4s-8,6.4-6.4,11.2c4.8,15.2,12.8,28.8,24,40.8c-2.4-0.8-4-0.8-6.4,0
	s-4.8,3.2-5.6,6.4c0,0.8-28,96-89.6,116.8c-12.8,4-26.4,4.8-40,2.4c-11.2-22.4-24-58.4-14.4-72.8c2.4-4,1.6-9.6-3.2-12.8
	c-4-2.4-9.6-1.6-12.8,3.2l0,0c-12.8,20-2.4,53.6,7.2,75.2c-12-5.6-23.2-12-33.6-20C11.979,225.532,16.779,178.332,38.379,137.532
	L38.379,137.532z M398.379,198.332c-11.2,9.6-18.4,24-18.4,38.4l0,0c-6.4,72.8-56,134.4-125.6,156h-1.6c27.2-28,50.4-59.2,69.6-92.8
	l32.8-8.8c4.8-1.6,8-6.4,6.4-11.2s-6.4-8-11.2-6.4l0,0l-16,4c14.4-25.6,23.2-44.8,24-47.2c2.4-4.8,0-10.4-4-12c-4.8-2.4-10.4,0-12,4
	l0,0c-0.8,1.6-68,145.6-130.4,176.8c-21.6,1.6-43.2-0.8-64-6.4c36.8-48,140.8-112.8,142.4-113.6c1.6-0.8,2.4-2.4,3.2-3.2l20.8-40
	c1.6-4.8-0.8-9.6-5.6-11.2c-4-1.6-8,0-10.4,3.2l-20,37.6l-11.2,7.2c-0.8-15.2-4-36-16.8-46.4c-4-3.2-9.6-2.4-12.8,0.8
	c-3.2,4-2.4,9.6,0.8,12.8c10.4,8.8,10.4,32.8,9.6,44.8c-8,5.6-16.8,11.2-25.6,17.6c-5.6-7.2-8.8-15.2-11.2-24
	c2.4-4,1.6-9.6-3.2-12.8c-4-2.4-9.6-1.6-12.8,3.2c-7.2,11.2,2.4,30.4,11.2,44c-30.4,22.4-61.6,49.6-78.4,72.8
	c-4.8-2.4-9.6-4-14.4-6.4c-35.2-18.4-63.2-47.2-80-82.4c12,6.4,24,12,36.8,15.2h0.8c8,1.6,16,3.2,24,3.2c10.4,0,20-1.6,29.6-4.8
	c58.4-19.2,88-90.4,98.4-118.4c64.8,30.4,133.6-26.4,150.4-40.8c30.4,7.2,41.6,24.8,46.4,36
	C412.779,189.532,404.779,193.532,398.379,198.332L398.379,198.332z"/>
<g>
</g>
<g>
</g>
<g>
</g>
<g>
</g>
<g>
</g>
<g>
</g>
<g>
</g>
<g>
</g>
<g>
</g>
<g>
</g>
<g>
</g>
<g>
</g>
<g>
</g>
<g>
</g>
<g>
</g>
</svg>
