<?xml version="1.0" encoding="iso-8859-1"?>
<!-- Generator: Adobe Illustrator 19.0.0, SVG Export Plug-In . SVG Version: 6.00 Build 0)  -->
<svg version="1.1" id="Capa_1" xmlns="http://www.w3.org/2000/svg" xmlns:xlink="http://www.w3.org/1999/xlink" x="0px" y="0px"
	 viewBox="0 0 512 512" style="enable-background:new 0 0 512 512;" xml:space="preserve">
<path style="fill:#F9E8D4;" d="M76.096,325.791c-15.764-12.982-39.036-14.604-56.851-1.785
	c-18.532,13.335-24.614,38.71-14.13,58.992c6.48,12.536,17.661,20.764,30.109,23.874c4.481,1.12,7.314,5.71,6.306,10.217
	c-2.8,12.521-0.457,26.204,7.844,37.616c13.43,18.462,38.84,24.401,59.067,13.813c19.445-10.178,28.427-31.708,23.889-51.619
	c-0.838-3.676,0.717-7.477,3.925-9.457l59.537-36.747l-49.945-80.919L86.31,326.523C83.101,328.502,79.006,328.188,76.096,325.791z"
	/>
<path style="fill:#E8D0BA;" d="M195.795,370.688l-23.962-38.822l-57.606,35.54c-3.202,1.976-4.749,5.787-3.91,9.46
	c4.534,19.908-4.454,41.438-23.896,51.626c-14.803,7.755-32.389,6.65-46.024-1.761c-0.098,9.641,2.767,19.433,8.969,27.964
	c13.439,18.465,38.843,24.402,59.078,13.831c19.442-10.189,28.43-31.718,23.878-51.631c-0.839-3.673,0.726-7.48,3.928-9.456
	L195.795,370.688z"/>
<path style="fill:#FF9017;" d="M512,256.007c0-11.449-6.017-21.488-15.059-27.14c-1.03-0.644-1.317-1.999-0.63-3
	c3.525-5.14,5.593-11.358,5.593-18.061c0-5.545-1.414-10.759-3.897-15.305c-0.468-0.857-0.29-1.94,0.445-2.583
	c8.14-7.117,13.286-17.571,13.286-29.233c0-21.445-17.384-38.829-38.829-38.829c-1.636,0-3.246,0.106-4.828,0.304
	c-0.882,0.111-1.722-0.344-2.113-1.142c-5.679-11.597-16.965-19.939-30.329-21.502c-0.954-0.112-1.723-0.87-1.835-1.824
	c-2.25-19.303-18.647-34.286-38.553-34.286c-5.293,0-10.335,1.066-14.932,2.986c-1.286,0.537-2.708-0.247-2.944-1.621
	c-2.597-15.059-15.713-26.517-31.514-26.517c-14.757,0-27.178,9.993-30.871,23.581c-0.4,1.471-2.164,2.041-3.361,1.096
	c-5.448-4.305-12.329-6.877-19.812-6.877c-12.306,0-22.983,6.952-28.333,17.141c-0.43,0.819-1.366,1.246-2.27,1.054
	c-2.151-0.458-4.381-0.701-6.669-0.701c-17.668,0-31.99,14.323-31.99,31.99c0,0.004,0,0.008,0,0.012
	c0.001,0.737-0.371,1.414-0.989,1.815c-8.796,5.7-14.618,15.599-14.618,26.861c0,7.052,2.287,13.567,6.153,18.854
	c0.807,1.103,0.338,2.701-0.94,3.188c-9.203,3.51-16.366,11.143-19.23,20.645c-0.277,0.921-1.158,1.518-2.119,1.474
	c-0.535-0.025-1.073-0.038-1.614-0.038c-21.445,0-38.829,17.384-38.829,38.829c0,10.111,3.871,19.314,10.205,26.223
	c0.942,1.027,0.708,2.669-0.524,3.319c-10.158,5.36-17.084,16.024-17.084,28.309c0,1.605,0.121,3.181,0.35,4.721
	c0.131,0.878-0.293,1.761-1.078,2.177c-10.124,5.371-17.021,16.014-17.021,28.273c0,4.823,1.074,9.393,2.986,13.493
	c0.271,0.581,0.271,1.242,0,1.823c-1.912,4.101-2.986,8.67-2.986,13.493c0,15.087,10.445,27.729,24.497,31.102
	c0.8,0.192,1.416,0.802,1.616,1.6c3.486,13.892,16.055,24.178,31.028,24.178c7.926,0,15.174-2.888,20.761-7.662
	c0.821-0.702,2.04-0.662,2.818,0.087c5.75,5.53,13.56,8.932,22.168,8.932c14.051,0,25.982-9.06,30.279-21.655
	c0.523-1.534,2.559-1.91,3.599-0.666c4.687,5.607,11.256,9.583,18.74,10.956c0.852,0.156,1.532,0.833,1.688,1.685
	c2.732,14.895,15.771,26.184,31.456,26.184c13.072,0,24.304-7.844,29.267-19.078c0.34-0.77,1.127-1.246,1.968-1.222
	c0.251,0.007,0.502,0.011,0.755,0.011c9.107,0,17.325-3.806,23.151-9.914c0.846-0.887,2.242-0.887,3.088,0
	c5.826,6.108,14.044,9.914,23.151,9.914c14.786,0,27.227-10.033,30.892-23.662c0.263-0.977,1.186-1.634,2.193-1.546
	c0.906,0.079,1.822,0.121,2.748,0.121c12.885,0,23.984-7.622,29.052-18.6c0.393-0.851,1.309-1.324,2.235-1.18
	c6.705,1.043,14.307-0.639,21.895-6.995c0.155-0.13,0.297-0.285,0.413-0.451c8.468-12.146,6.403-24.823-0.817-32.698
	c-0.754-0.822-0.754-2.066,0-2.888c3.936-4.294,6.34-10.015,6.34-16.299c0-0.435-0.013-0.866-0.037-1.295
	c-0.051-0.912,0.465-1.77,1.317-2.098C503.482,281.257,512,269.63,512,256.007z"/>
<path style="fill:#EF7D0A;" d="M511.998,256.01c0,13.619-8.516,25.248-20.516,29.857c-0.856,0.33-1.371,1.186-1.32,2.103
	c0.031,0.423,0.041,0.856,0.041,1.289c0,6.289-2.402,12.011-6.34,16.299c-0.753,0.825-0.753,2.072,0,2.887
	c7.217,7.877,9.289,20.557,0.815,32.702c-0.114,0.165-0.258,0.32-0.413,0.454c-7.588,6.351-15.186,8.031-21.898,6.99
	c-0.928-0.144-1.835,0.33-2.227,1.186c-5.072,10.98-16.176,18.599-29.052,18.599c-0.928,0-1.845-0.041-2.753-0.124
	c-1.01-0.083-1.928,0.567-2.196,1.546c-3.66,13.629-16.104,23.661-30.888,23.661c-9.103,0-17.331-3.804-23.155-9.908
	c-0.845-0.887-2.237-0.887-3.083,0c-5.825,6.103-14.042,9.908-23.155,9.908c-0.247,0-0.505,0-0.753-0.01
	c-0.845-0.021-1.629,0.454-1.969,1.227c-4.959,11.227-16.196,19.073-29.269,19.073c-13.866,0-25.681-8.835-30.104-21.186
	c12.279-0.691,22.691-8.31,27.413-19.011c0.34-0.773,1.124-1.247,1.969-1.227c0.247,0.01,0.505,0.01,0.753,0.01
	c9.114,0,17.33-3.804,23.155-9.908c0.845-0.887,2.237-0.887,3.083,0c5.825,6.103,14.052,9.908,23.155,9.908
	c14.784,0,27.228-10.031,30.888-23.661c0.268-0.969,1.185-1.629,2.196-1.546c0.907,0.082,1.825,0.124,2.753,0.124
	c12.877,0,23.98-7.619,29.052-18.599c0.392-0.856,1.299-1.33,2.227-1.186c6.712,1.052,14.31-0.639,21.898-6.99
	c0.155-0.134,0.299-0.289,0.413-0.454c8.474-12.145,6.402-24.825-0.815-32.692c-0.753-0.825-0.753-2.072,0-2.897
	c3.938-4.289,6.34-10.011,6.34-16.299c0-0.433-0.01-0.866-0.041-1.289c-0.051-0.918,0.464-1.773,1.32-2.103
	c12.001-4.608,20.516-16.238,20.516-29.857c0-11.454-6.011-21.485-15.052-27.145c-1.031-0.639-1.32-1.99-0.639-3
	c3.526-5.134,5.598-11.351,5.598-18.052c0-5.547-1.412-10.763-3.897-15.31c-0.474-0.856-0.289-1.938,0.443-2.588
	c8.145-7.114,13.289-17.568,13.289-29.228c0-6.34-1.515-12.32-4.217-17.609c20.217,1.361,36.177,18.186,36.177,38.733
	c0,11.66-5.144,22.114-13.289,29.228c-0.732,0.65-0.917,1.732-0.443,2.588c2.485,4.547,3.897,9.753,3.897,15.299
	c0,6.712-2.072,12.928-5.598,18.062c-0.681,1-0.392,2.361,0.639,3C505.987,234.515,511.998,244.556,511.998,256.01z"/>
<g>
	<path style="fill:#DB6E0B;" d="M218.78,290.812c4.239-0.516,7.258-4.371,6.742-8.61c-0.515-4.238-4.363-7.253-8.61-6.742
		c-11.913,1.449-20.427,12.321-18.979,24.234c0.702,5.771,3.609,10.924,8.186,14.508c3.869,3.03,8.539,4.633,13.377,4.633
		c0.885,0,1.777-0.054,2.671-0.162c4.239-0.515,7.258-4.37,6.743-8.609s-4.367-7.254-8.609-6.743
		c-1.672,0.206-3.321-0.256-4.646-1.294s-2.167-2.53-2.37-4.2C212.865,294.378,215.33,291.231,218.78,290.812z"/>
	<path style="fill:#DB6E0B;" d="M354.603,171.659c0.168,0.011,0.335,0.016,0.501,0.016c4.045-0.001,7.447-3.145,7.709-7.238
		c0.481-7.502-1.988-14.742-6.953-20.386c-4.966-5.644-11.831-9.017-19.332-9.497c-8.496-0.538-16.346,2.758-21.877,8.39
		c-4.049-3.846-9.262-6.14-14.903-6.501c-6.379-0.408-12.523,1.69-17.317,5.907c-4.795,4.217-7.661,10.05-8.068,16.422
		c-0.273,4.262,2.96,7.938,7.222,8.211c4.261,0.262,7.938-2.962,8.21-7.222c0.144-2.251,1.156-4.31,2.849-5.799
		c1.692-1.489,3.862-2.23,6.115-2.086c2.251,0.144,4.31,1.156,5.8,2.849c1.489,1.693,2.23,3.865,2.086,6.115
		c-0.188,2.93,1.281,5.583,3.603,7.044c0.15,0.094,0.308,0.177,0.464,0.262c0.064,0.034,0.124,0.074,0.189,0.107
		c0.674,0.337,1.405,0.58,2.178,0.709c0.258,0.043,0.52,0.073,0.786,0.09c0.168,0.011,0.335,0.016,0.501,0.016
		c0.059,0,0.116-0.007,0.175-0.008c0.096-0.002,0.191-0.008,0.286-0.014c0.168-0.01,0.334-0.024,0.499-0.045
		c0.08-0.01,0.159-0.022,0.239-0.035c0.174-0.027,0.347-0.06,0.518-0.099c0.071-0.016,0.141-0.034,0.211-0.052
		c0.174-0.045,0.345-0.096,0.514-0.152c0.065-0.022,0.13-0.044,0.195-0.068c0.169-0.062,0.334-0.129,0.498-0.202
		c0.062-0.028,0.125-0.056,0.186-0.085c0.159-0.076,0.315-0.158,0.468-0.245c0.062-0.035,0.124-0.07,0.186-0.107
		c0.146-0.088,0.288-0.182,0.428-0.279c0.063-0.044,0.125-0.086,0.187-0.132c0.132-0.098,0.26-0.202,0.386-0.308
		c0.062-0.052,0.125-0.104,0.186-0.158c0.118-0.106,0.23-0.218,0.342-0.331c0.061-0.062,0.124-0.123,0.183-0.187
		c0.103-0.112,0.2-0.229,0.296-0.347c0.059-0.072,0.12-0.143,0.177-0.218c0.089-0.118,0.171-0.24,0.254-0.363
		c0.055-0.081,0.111-0.16,0.163-0.244c0.076-0.124,0.145-0.252,0.214-0.381c0.048-0.089,0.099-0.175,0.144-0.266
		c0.064-0.13,0.119-0.266,0.176-0.4c0.04-0.094,0.084-0.186,0.12-0.282c0.053-0.141,0.096-0.287,0.141-0.432
		c0.029-0.095,0.064-0.187,0.089-0.283c0.044-0.163,0.076-0.33,0.109-0.497c0.016-0.083,0.039-0.163,0.053-0.247
		c0.042-0.253,0.072-0.51,0.089-0.772c0.447-6.977,6.51-12.291,13.462-11.841c3.38,0.216,6.472,1.735,8.708,4.278
		c2.237,2.543,3.35,5.804,3.133,9.183C347.107,167.709,350.341,171.386,354.603,171.659z"/>
	<path style="fill:#DB6E0B;" d="M424.72,278.116c-4.266-0.313-7.969,2.879-8.285,7.137c-0.317,4.259,2.878,7.968,7.137,8.285
		c0.863,0.064,1.719,0.096,2.57,0.096c17.775-0.001,32.859-13.765,34.199-31.774c0.68-9.142-2.241-18.001-8.225-24.946
		s-14.313-11.144-23.453-11.824c-4.261-0.312-7.968,2.879-8.285,7.138c-0.316,4.259,2.879,7.968,7.137,8.284
		c5.022,0.374,9.599,2.68,12.886,6.495c3.287,3.816,4.891,8.683,4.517,13.705C444.148,271.08,435.084,278.888,424.72,278.116z"/>
</g>
<g>
</g>
<g>
</g>
<g>
</g>
<g>
</g>
<g>
</g>
<g>
</g>
<g>
</g>
<g>
</g>
<g>
</g>
<g>
</g>
<g>
</g>
<g>
</g>
<g>
</g>
<g>
</g>
<g>
</g>
</svg>
