<?xml version="1.0" encoding="iso-8859-1"?>
<!-- Generator: Adobe Illustrator 19.0.0, SVG Export Plug-In . SVG Version: 6.00 Build 0)  -->
<svg version="1.1" id="Capa_1" xmlns="http://www.w3.org/2000/svg" xmlns:xlink="http://www.w3.org/1999/xlink" x="0px" y="0px"
	 viewBox="0 0 512.001 512.001" style="enable-background:new 0 0 512.001 512.001;" xml:space="preserve">
<path style="fill:#FFFFFF;" d="M489.14,121.15l-28.29-28.29c-7.81-7.81-20.47-7.81-28.28,0c-5.21,5.21-6.94,12.57-5.21,19.22
	c1.68,6.42,1.08,13.2-3.62,17.9l-28.4,28.39v0.01l28.28,28.28h0.01c0,0,15.18-15.18,28.44-28.43c4.7-4.69,11.44-5.26,17.87-3.59
	c6.64,1.73,13.99-0.01,19.2-5.21C496.95,141.62,496.95,128.96,489.14,121.15z"/>
<path style="fill:#FE9A3D;" d="M395.51,257.38c13.68-23.77,25.86-50.88,28.11-70.72c1.14-9.98-0.23-18.13-5.19-23.09
	c-4.96-4.96-13.11-6.33-23.09-5.19c-30.58,3.47-78.4,30.51-104.69,50.27C279.41,206.91,267.83,206,256,206
	c-104.93,0-190,71.63-190,160c0,4.33,0.2,8.63,0.61,12.87l0.01,0.01l10.88,31h350l17.88-31l0.01-0.01
	c0.41-4.24,0.61-8.54,0.61-12.87C446,324.07,426.85,285.91,395.51,257.38z"/>
<path style="fill:#CCEEFF;" d="M502,406l-28.13,42.19c-7.41,11.13-19.9,17.81-33.28,17.81H71.41c-13.38,0-25.87-6.68-33.28-17.81
	L10,406C17.51,406,480.977,406,502,406z"/>
<path style="fill:#48BD80;" d="M456,406h-80c0-22.09,17.91-40,40-40C438.118,366,456,383.971,456,406z"/>
<path style="fill:#F25A78;" d="M376,406h-80c0-22.09,17.91-40,40-40S376,383.91,376,406z"/>
<path style="fill:#48BD80;" d="M296,406h-80c0-22.09,17.91-40,40-40S296,383.91,296,406z"/>
<path style="fill:#F25A78;" d="M216,406h-80c0-22.09,17.91-40,40-40S216,383.91,216,406z"/>
<path style="fill:#48BD80;" d="M136,406H56c0-22.029,17.882-40,40-40C118.09,366,136,383.91,136,406z"/>
<path d="M116,336c5.52,0,10-4.48,10-10s-4.48-10-10-10s-10,4.48-10,10S110.48,336,116,336z"/>
<path d="M502,396h-37.015c-1.507-7.407-4.67-14.379-9.305-20.405c0.208-3.163,0.32-6.374,0.32-9.595
	c0-40.779-16.975-79.73-47.966-110.499c9.259-16.891,21.593-42.462,25.025-64.127c4.768-4.768,15.976-15.974,26.075-26.065
	c2.176-2.169,6.13-1.551,8.285-0.992c10.252,2.672,21.284-0.319,28.793-7.815c11.724-11.724,11.725-30.696,0-42.422l-28.29-28.29
	c-11.725-11.725-30.698-11.725-42.423,0c-7.494,7.495-10.489,18.533-7.813,28.823c0.564,2.154,1.182,6.099-1.015,8.296
	l-26.037,26.027c-32.898,5.188-77.571,31.059-102.61,49.231C277.481,196.73,266.73,196,256,196
	c-53.104,0-103.104,17.478-140.79,49.212C77.028,277.364,56,320.261,56,366c0,3.223,0.112,6.434,0.321,9.597
	c-4.638,6.032-7.799,13.001-9.305,20.403H10c-3.688,0-7.077,2.03-8.817,5.281c-1.74,3.252-1.549,7.197,0.497,10.267l28.126,42.185
	C39.089,467.676,54.642,476,71.41,476h369.18c16.768,0,32.321-8.324,41.601-22.262l28.13-42.19
	c2.046-3.069,2.237-7.015,0.497-10.267C509.077,398.03,505.688,396,502,396z M438.042,385.673c2.793,3.017,4.897,6.532,6.24,10.327
	H387.72c4.128-11.639,15.243-20,28.28-20C424.349,376,432.376,379.519,438.042,385.673z M413.684,185.533
	c-1.812,15.981-11.571,40.302-26.774,66.741c-0.001,0.002-0.002,0.003-0.003,0.005c-0.022,0.038-0.042,0.075-0.064,0.113
	c0,0.001,0,0.001-0.001,0.002c-10.917,18.976-23.798,37.271-32.055,45.527c-19.537,19.545-51.161,19.551-70.708-0.003
	c-19.547-19.538-19.55-51.164,0-70.706c18.943-18.937,79.544-55.169,112.395-58.896c4.37-0.5,11.773-0.786,14.884,2.326
	C413.689,172.971,414.515,178.257,413.684,185.533z M430.812,137.051c6.76-6.76,9.028-16.784,6.226-27.488
	c-0.908-3.492,0.065-7.093,2.604-9.631c3.902-3.902,10.222-3.916,14.138,0l28.291,28.29c3.872,3.873,3.936,10.2,0.006,14.13
	c-2.545,2.541-6.138,3.516-9.622,2.609c-10.712-2.784-20.717-0.526-27.452,6.196c-4.621,4.618-9.474,9.468-13.838,13.83
	c-1.384-3.25-3.264-6.091-5.662-8.489c-2.397-2.397-5.235-4.276-8.483-5.66L430.812,137.051z M256,216
	c3.647,0,7.296,0.101,10.937,0.283c-24.287,27.465-23.358,69.429,3.001,95.776c27.353,27.365,71.635,27.372,98.994,0.002
	c7.934-7.934,18.452-22.186,28.643-38.64c23.42,24.824,36.802,55.066,38.278,86.71C429.642,357.441,422.888,356,416,356
	c-16.338,0-30.87,7.876-40,20.031C366.87,363.876,352.338,356,336,356s-30.87,7.876-40,20.031C286.87,363.876,272.338,356,256,356
	s-30.87,7.876-40,20.031C206.87,363.876,192.338,356,176,356s-30.87,7.876-40,20.031C126.87,363.876,112.338,356,96,356
	c-6.887,0-13.641,1.441-19.849,4.129C79.866,280.131,159.108,216,256,216z M364.28,396h-56.56c4.128-11.639,15.243-20,28.28-20
	S360.152,384.361,364.28,396z M284.28,396h-56.56c4.128-11.639,15.243-20,28.28-20C269.036,376,280.152,384.361,284.28,396z
	 M204.28,396h-56.56c4.128-11.639,15.243-20,28.28-20S200.152,384.361,204.28,396z M73.978,385.652
	C79.624,379.519,87.651,376,96,376c13.036,0,24.152,8.361,28.28,20H67.72C69.065,392.202,71.174,388.681,73.978,385.652z
	 M465.546,442.649C459.98,451.009,450.65,456,440.59,456H71.41c-10.061,0-19.39-4.991-24.96-13.357L28.686,416h454.628
	L465.546,442.649z"/>
<path d="M144.793,299.348c18.426-18.916,44.482-32.856,73.369-39.254c5.393-1.194,8.795-6.534,7.601-11.926
	c-1.194-5.393-6.532-8.795-11.925-7.602c-32.648,7.23-62.257,23.15-83.371,44.826c-3.854,3.956-3.771,10.287,0.186,14.141
	C134.605,303.382,140.935,303.309,144.793,299.348z"/>
<path d="M90.955,157.679c-20.171,13.441-20.227,43.164,0,56.643c4.581,3.052,10.793,1.836,13.867-2.775
	c3.063-4.596,1.82-10.805-2.776-13.867c-8.274-5.515-8.406-17.755,0-23.357c20.171-13.441,20.227-43.164,0-56.643
	c-4.596-3.062-10.804-1.819-13.867,2.775c-3.063,4.596-1.82,10.805,2.776,13.867C99.229,139.836,99.361,152.076,90.955,157.679z"/>
<path d="M210.955,117.679c-20.171,13.441-20.227,43.164,0,56.643c4.581,3.052,10.793,1.836,13.867-2.775
	c3.063-4.596,1.82-10.805-2.776-13.867c-8.274-5.515-8.406-17.755,0-23.357c20.171-13.441,20.227-43.164,0-56.643
	c-4.596-3.062-10.804-1.819-13.867,2.775c-3.063,4.596-1.82,10.805,2.776,13.867C219.229,99.836,219.361,112.076,210.955,117.679z"
	/>
<path d="M150.955,77.679c-20.171,13.441-20.227,43.164,0,56.643c4.581,3.052,10.793,1.836,13.867-2.775
	c3.063-4.596,1.82-10.805-2.776-13.867c-8.274-5.515-8.406-17.755,0-23.357c20.171-13.441,20.227-43.164,0-56.643
	c-4.595-3.062-10.804-1.818-13.867,2.775c-3.063,4.596-1.82,10.805,2.776,13.867C159.229,59.836,159.361,72.076,150.955,77.679z"/>
<g>
</g>
<g>
</g>
<g>
</g>
<g>
</g>
<g>
</g>
<g>
</g>
<g>
</g>
<g>
</g>
<g>
</g>
<g>
</g>
<g>
</g>
<g>
</g>
<g>
</g>
<g>
</g>
<g>
</g>
</svg>
