<?xml version="1.0" encoding="iso-8859-1"?>
<!-- Generator: Adobe Illustrator 19.0.0, SVG Export Plug-In . SVG Version: 6.00 Build 0)  -->
<svg version="1.1" id="Capa_1" xmlns="http://www.w3.org/2000/svg" xmlns:xlink="http://www.w3.org/1999/xlink" x="0px" y="0px"
	 viewBox="0 0 512 512" style="enable-background:new 0 0 512 512;" xml:space="preserve">
<path style="fill:#BE003B;" d="M408.991,270h-46.054c-8.291,0-15-6.709-15-15c0-8.291,6.709-15,15-15h39.843l50.902-50.902
	l-1.963-39.081c-0.41-8.276,5.962-15.308,14.238-15.732c7.91-0.498,15.308,5.947,15.732,14.238l2.285,45.731
	c0.205,4.233-1.377,8.35-4.38,11.353l-59.998,59.998C416.784,268.418,412.975,270,408.991,270z"/>
<g>
	<path style="fill:#E50048;" d="M143.302,270H97.248c-3.984,0-7.793-1.582-10.605-4.395l-59.998-59.998
		c-3.003-3.003-4.585-7.119-4.38-11.353l2.285-45.731c0.425-8.262,7.207-14.663,15.732-14.238
		c8.276,0.425,14.648,7.456,14.238,15.732l-1.963,39.081L103.458,240h39.843c8.291,0,15,6.709,15,15
		C158.301,263.29,151.593,270,143.302,270z"/>
	<rect x="53.999" y="195.004" style="fill:#E50048;" width="179.995" height="29.999"/>
</g>
<rect x="279.992" y="195.004" style="fill:#BE003B;" width="179.995" height="29.999"/>
<g>
	<path style="fill:#E50048;" d="M74.998,511.993c-8.291,0-15-6.709-15-15v-31.999c0-3.984,1.582-7.793,4.395-10.605l59.998-59.998
		c4.57-4.6,11.514-5.728,17.313-2.813l46.581,23.29l11.294-22.587c3.706-7.397,12.729-10.415,20.126-6.709
		c7.412,3.706,10.415,12.715,6.709,20.126l-18.002,36.005c-3.721,7.412-12.686,10.386-20.126,6.709l-50.331-25.165l-47.958,47.958
		v25.788C89.998,505.284,83.289,511.993,74.998,511.993z"/>
	<path style="fill:#E50048;" d="M15,449.995c-8.291,0-15-6.709-15-15v-29.999c0-3.984,1.582-7.793,4.395-10.605l59.998-59.998
		c5.859-5.859,15.352-5.859,21.21,0l20.8,20.8l29.838-22.367c6.592-4.98,16.011-3.662,20.99,3.003
		c4.98,6.621,3.633,16.025-3.003,20.99l-40.238,30.175c-5.947,4.497-14.341,3.911-19.599-1.392l-19.394-19.394l-44.999,44.999
		v23.788C29.999,443.286,23.291,449.995,15,449.995z"/>
	<path style="fill:#E50048;" d="M15,359.997c-8.291,0-15-6.709-15-15v-29.999c0-5.684,3.208-10.869,8.291-13.418l59.998-29.999
		c5.786-2.856,12.759-1.772,17.313,2.813l20.8,20.8l22.074-16.553c6.621-4.98,16.025-3.662,20.99,3.003
		c4.98,6.621,3.633,16.025-3.003,20.99l-32.475,24.359c-5.947,4.482-14.341,3.926-19.599-1.392l-22.351-22.352l-42.04,21.019v20.727
		C29.999,353.289,23.291,359.997,15,359.997z"/>
</g>
<g>
	<path style="fill:#BE003B;" d="M436.987,511.993c-8.291,0-15-6.709-15-15v-25.788l-47.958-47.958L323.7,448.413
		c-7.383,3.677-16.406,0.703-20.126-6.709l-18.002-36.005c-3.706-7.412-0.703-16.421,6.709-20.126
		c7.397-3.706,16.421-0.688,20.126,6.709l11.294,22.587l46.581-23.29c5.801-2.886,12.744-1.758,17.313,2.813l59.998,59.998
		c2.813,2.813,4.395,6.621,4.395,10.605v31.999C451.987,505.284,445.278,511.993,436.987,511.993z"/>
	<path style="fill:#BE003B;" d="M496.986,449.995c-8.291,0-15-6.709-15-15v-23.788l-44.999-44.999l-19.394,19.394
		c-5.273,5.273-13.652,5.874-19.599,1.392l-40.238-30.175c-6.636-4.966-7.983-14.37-3.003-20.99
		c4.966-6.636,14.37-7.954,20.99-3.003l29.838,22.367l20.8-20.8c5.859-5.859,15.352-5.859,21.21,0l59.998,59.998
		c2.813,2.813,4.395,6.621,4.395,10.605v29.999C511.985,443.286,505.276,449.995,496.986,449.995z"/>
	<path style="fill:#BE003B;" d="M496.986,359.997c-8.291,0-15-6.709-15-15V324.27l-42.04-21.02l-22.353,22.353
		c-5.273,5.288-13.652,5.859-19.599,1.392l-32.475-24.359c-6.636-4.966-7.983-14.37-3.003-20.99c4.966-6.65,14.37-7.983,20.99-3.003
		l22.074,16.553l20.8-20.8c4.57-4.6,11.514-5.713,17.313-2.813l59.998,29.999c5.083,2.549,8.291,7.734,8.291,13.418v29.999
		C511.985,353.289,505.276,359.997,496.986,359.997z"/>
</g>
<path style="fill:#57555C;" d="M224.994,213.781c-8.291,0-15-6.709-15-15v-33.778c0-8.291,6.709-15,15-15s15,6.709,15,15v33.778
	C239.993,207.072,233.284,213.781,224.994,213.781z"/>
<path style="fill:#3C3A41;" d="M285.992,213.781c-8.291,0-15-6.709-15-15v-33.778c0-8.291,6.709-15,15-15s15,6.709,15,15v33.778
	C300.991,207.072,294.283,213.781,285.992,213.781z"/>
<path style="fill:#FF0059;" d="M255.993,180.003c-74.397,0-135.996,60.597-135.996,134.996c0,24.299,13.5,45.898,35.098,56.698
	l94.298,46.799c2.098,0.899,4.199,1.5,6.599,1.5s4.501-0.601,6.599-1.5l93.298-46.799c21.6-10.801,35.1-32.4,35.1-56.698
	C390.989,240.599,330.39,180.003,255.993,180.003z"/>
<g>
	<path style="fill:#E50048;" d="M390.989,314.999c0,24.299-13.5,45.898-35.098,56.698l-93.298,46.799
		c-2.098,0.899-4.199,1.5-6.599,1.5V180.003C330.39,180.003,390.989,240.599,390.989,314.999z"/>
	<path style="fill:#E50048;" d="M301.291,325.497c-14.7,3.001-29.999,4.501-45.299,4.501s-31.6-1.5-46.299-4.501
		c-8.101-1.8-13.5-9.6-11.7-17.698c1.8-8.101,9.6-13.5,17.7-11.7c12.9,2.699,27.099,3.9,40.299,3.9c13.2,0,26.399-1.201,39.299-3.9
		c8.101-1.8,15.901,3.6,17.7,11.7C314.792,315.898,309.392,323.697,301.291,325.497z"/>
	<path style="fill:#E50048;" d="M490.013,148.515c29.262-29.262,29.37-76.696,0-106.066l-21.21-21.21
		C450.263,2.699,422.722-3.686,397.961,2.035c-11.712,2.706-16.221,16.983-7.721,25.482l46.748,46.747
		c5.859,5.859,5.859,15.352,0,21.21c-5.859,5.859-15.351,5.86-21.21,0l-26.152-26.152c-3.788-3.788-9.31-5.268-14.485-3.883
		c-5.175,1.385-9.226,5.424-10.611,10.6c-1.674,6.26-2.54,12.781-2.54,19.435c0,20.038,7.808,38.876,21.972,53.025
		c29.239,29.27,76.633,29.341,105.96,0.075C489.949,148.55,489.986,148.543,490.013,148.515z"/>
</g>
<path style="fill:#FD4E26;" d="M147.472,76.047c-1.385-5.18-5.429-9.228-10.608-10.615s-10.695,0.104-14.487,3.895L96.222,95.474
	c-5.859,5.859-15.351,5.86-21.21,0c-5.859-5.859-5.859-15.352,0-21.21l46.748-46.748c8.5-8.5,3.992-22.777-7.722-25.482
	C89.277-3.687,61.735,2.7,43.196,21.238l-21.21,21.21c-29.258,29.258-29.37,76.696,0,106.066c0.027,0.027,0.064,0.035,0.092,0.06
	c29.279,29.219,76.679,29.237,105.96-0.075c14.165-14.15,21.972-32.987,21.972-53.025C150.01,88.822,149.145,82.305,147.472,76.047z
	"/>
<path style="fill:#FF0059;" d="M147.472,76.047c-1.385-5.18-5.429-9.228-10.608-10.615s-10.695,0.104-14.487,3.895L96.222,95.474
	c-5.859,5.859-15.351,5.86-21.21,0c-5.859-5.859-5.859-15.352,0-21.21l46.748-46.748c8.5-8.5,3.992-22.777-7.722-25.482
	C89.277-3.687,61.735,2.7,43.196,21.238l-21.21,21.21c-29.258,29.258-29.37,76.696,0,106.066c0.027,0.027,0.064,0.035,0.092,0.06
	c29.279,29.219,76.679,29.237,105.96-0.075c14.165-14.15,21.972-32.987,21.972-53.025C150.01,88.822,149.145,82.305,147.472,76.047z
	"/>
<path style="fill:#BE003B;" d="M301.291,325.497c-14.7,3.001-29.999,4.501-45.299,4.501v-29.999c13.2,0,26.399-1.201,39.299-3.9
	c8.101-1.8,15.901,3.6,17.7,11.7C314.792,315.898,309.392,323.697,301.291,325.497z"/>
<g>
</g>
<g>
</g>
<g>
</g>
<g>
</g>
<g>
</g>
<g>
</g>
<g>
</g>
<g>
</g>
<g>
</g>
<g>
</g>
<g>
</g>
<g>
</g>
<g>
</g>
<g>
</g>
<g>
</g>
</svg>
