<?xml version="1.0" encoding="iso-8859-1"?>
<!-- Generator: Adobe Illustrator 19.0.0, SVG Export Plug-In . SVG Version: 6.00 Build 0)  -->
<svg version="1.1" id="Capa_1" xmlns="http://www.w3.org/2000/svg" xmlns:xlink="http://www.w3.org/1999/xlink" x="0px" y="0px"
	 viewBox="0 0 512.001 512.001" style="enable-background:new 0 0 512.001 512.001;" xml:space="preserve">
<g>
	<path style="fill:#92B515;" d="M174.934,196.215c-14.33,0-25.988-11.658-25.988-25.989v-14.351h14.352
		c14.33,0,25.988,11.658,25.988,25.989v14.351H174.934z"/>
	<path style="fill:#92B515;" d="M189.284,196.215v-14.351c0-14.33,11.658-25.989,25.988-25.989h14.352v14.351
		c0,14.33-11.658,25.989-25.988,25.989H189.284z"/>
</g>
<g>
	<path style="fill:#E2D9C5;" d="M424.139,202.138c-1.324-1.994-2.857-3.865-4.554-5.563c-1.698-1.7-3.57-3.231-5.562-4.554
		l-8.427-5.593l19.527-19.528c-0.431-0.36-0.815-0.709-1.162-1.056c-7.045-7.045-7.045-18.528,0.012-25.586
		c3.414-3.415,7.96-5.297,12.799-5.297c4.838,0,9.383,1.88,12.8,5.297c3.415,3.415,5.297,7.961,5.296,12.8
		c0,3.36-0.907,6.578-2.607,9.375c2.799-1.702,6.018-2.61,9.376-2.61c4.837,0,9.383,1.884,12.801,5.304
		c3.414,3.413,5.296,7.958,5.296,12.797s-1.882,9.384-5.298,12.799c-3.413,3.415-7.959,5.298-12.798,5.298
		c-4.666,0-9.059-1.749-12.43-4.937l-19.477,19.478L424.139,202.138z"/>
	<path style="fill:#E2D9C5;" d="M322.773,144.214c-1.324-1.994-2.857-3.865-4.554-5.563c-1.698-1.7-3.57-3.231-5.562-4.554
		l-8.427-5.593l19.527-19.528c-0.431-0.36-0.815-0.709-1.162-1.056c-7.045-7.045-7.045-18.528,0.012-25.586
		c3.414-3.415,7.96-5.297,12.799-5.297c4.838,0,9.383,1.88,12.8,5.297c3.415,3.415,5.297,7.961,5.296,12.8
		c0,3.36-0.907,6.578-2.607,9.375c2.799-1.701,6.018-2.61,9.376-2.61c4.837,0,9.383,1.884,12.801,5.304
		c3.414,3.413,5.296,7.958,5.296,12.797c0,4.839-1.881,9.384-5.298,12.799c-3.413,3.415-7.959,5.298-12.798,5.298
		c-4.666,0-9.059-1.749-12.43-4.937l-19.477,19.478L322.773,144.214z"/>
</g>
<path style="fill:#F2B225;" d="M220.812,196.215l3.961-11.063c1.843-5.15,4.738-9.722,8.604-13.588l33.644-33.644
	c6.934-6.935,16.155-10.754,25.965-10.754c9.808,0,19.029,3.82,25.965,10.756c6.934,6.933,10.754,16.154,10.754,25.963
	c0,9.809-3.82,19.03-10.756,25.966l-6.363,6.365h-91.774V196.215z"/>
<path style="fill:#E8BF4B;" d="M365.832,199.862l-15.061-3.086c-5.162-1.058-10.425-1.595-15.643-1.595H195.491
	c-42.775,0-77.576,34.801-77.576,77.576c0,9.549,1.733,18.9,5.149,27.792l2.039,5.307c0,0,11.649,24.014,26.491,31.423l7.415,3.955
	c11.158,5.952,23.773,9.098,36.482,9.098h53.786h13.444h72.406c20.461,0,39.777-7.925,54.388-22.317
	c14.59-14.371,22.816-33.53,23.157-53.948l0.342-20.457C403.474,206.941,365.832,199.862,365.832,199.862z"/>
<path style="fill:#EDB043;" d="M334.091,327.337h-13.443h-53.786c-12.709,0-25.325-3.146-36.482-9.098l-7.415-3.955
	c-14.842-7.409-26.491-31.423-26.491-31.423l-2.039-5.307c-3.416-8.892-5.149-18.243-5.149-27.792
	c0-21.265,8.606-40.554,22.511-54.581h-16.304c-42.775,0-77.576,34.801-77.576,77.576c0,9.549,1.733,18.9,5.149,27.792l2.039,5.307
	c0,0,11.649,24.014,26.491,31.423l7.415,3.955c11.158,5.952,23.773,9.098,36.482,9.098h53.786h13.444h72.406
	c20.461,0,39.777-7.925,54.388-22.317c0.224-0.221,0.434-0.454,0.656-0.677H334.091z"/>
<path style="fill:#ADCE24;" d="M256,345.066c-13.842,0-27.243-4.986-37.735-14.037c-10.377-8.953-17.261-21.292-19.385-34.744
	l-0.856-5.428c-0.342-2.172,1.336-4.136,3.534-4.136h108.887c2.199,0,3.878,1.964,3.534,4.136l-0.857,5.429
	c-2.125,13.451-9.008,25.789-19.385,34.743C283.244,340.08,269.842,345.066,256,345.066z"/>
<path style="fill:#EA8383;" d="M78.802,350.333c-20.644,0-37.606-16.296-38.432-36.922l-0.108-2.68
	c-0.129-3.224,2.449-5.908,5.676-5.908h109.82c3.226,0,5.806,2.684,5.676,5.908l-0.109,2.698
	c-0.826,20.617-17.78,36.906-38.414,36.906H78.802V350.333z"/>
<path style="fill:#E56E6E;" d="M83.019,313.411l-0.108-2.681c-0.129-3.224,2.449-5.908,5.676-5.908H45.938
	c-3.227,0-5.806,2.684-5.676,5.908l0.108,2.681c0.826,20.626,17.789,36.922,38.432,36.922h42.65
	C100.808,350.333,83.846,334.037,83.019,313.411z"/>
<path style="fill:#F2B225;" d="M360.708,292.158c-9.816,0-19.037-3.815-25.965-10.742c-14.316-14.318-14.316-37.613,0-51.929
	l33.644-33.644c6.934-6.934,16.155-10.754,25.965-10.754c9.808,0,19.029,3.82,25.965,10.756
	c6.934,6.933,10.754,16.154,10.754,25.963s-3.82,19.03-10.756,25.966l-33.641,33.643
	C379.746,288.342,370.525,292.158,360.708,292.158z"/>
<path style="fill:#EFE5AB;" d="M64.017,434.964c-7.065,0-12.811-5.748-12.811-12.811v-33.734h410.636v33.734
	c0,7.064-5.747,12.811-12.811,12.811L64.017,434.964L64.017,434.964z"/>
<path style="fill:#FCF7C5;" d="M32.763,402.899c-9.207,0-17.318-5.497-20.664-14.005l-11.5-29.234
	c-1.036-2.637-0.716-5.492,0.877-7.836c1.587-2.343,4.243-3.745,7.098-3.745H503.44c2.855,0,5.511,1.403,7.104,3.755
	c1.574,2.315,1.896,5.26,0.855,7.865l-11.485,29.198c-3.346,8.506-11.457,14.003-20.664,14.003L32.763,402.899L32.763,402.899z"/>
<path style="fill:#F4DE9F;" d="M91.209,378.219c-9.207,0-17.318-5.497-20.664-14.005l-6.348-16.135H8.574
	c-2.855,0-5.511,1.403-7.098,3.745c-1.594,2.345-1.914,5.2-0.877,7.836L12.1,388.894c3.346,8.509,11.457,14.005,20.664,14.005
	h446.485c9.206,0,17.317-5.497,20.664-14.003l4.201-10.678H91.209z"/>
<path style="fill:#89AD07;" d="M299.24,320.022l-33.302-33.302h-2.219H248.32h-2.774l-33.56,33.56
	c-0.713,0.713-1.252,1.532-1.629,2.405c2.343,3.013,4.981,5.817,7.909,8.342c0.744,0.641,1.505,1.257,2.278,1.857
	c0.876-0.378,1.698-0.917,2.414-1.633l25.287-25.287v34.541c0,1.538,0.453,2.969,1.226,4.174c2.161,0.246,4.339,0.386,6.532,0.386
	s4.372-0.14,6.532-0.386c0.772-1.206,1.226-2.636,1.226-4.174v-34.023l24.51,24.511c0.916,0.916,2.007,1.55,3.164,1.913
	c0.781-0.606,1.553-1.229,2.306-1.877c2.736-2.36,5.221-4.962,7.447-7.751C300.828,322.086,300.18,320.963,299.24,320.022z"/>
<g>
</g>
<g>
</g>
<g>
</g>
<g>
</g>
<g>
</g>
<g>
</g>
<g>
</g>
<g>
</g>
<g>
</g>
<g>
</g>
<g>
</g>
<g>
</g>
<g>
</g>
<g>
</g>
<g>
</g>
</svg>
