<?xml version="1.0" encoding="iso-8859-1"?>
<!-- Generator: Adobe Illustrator 19.0.0, SVG Export Plug-In . SVG Version: 6.00 Build 0)  -->
<svg version="1.1" id="Capa_1" xmlns="http://www.w3.org/2000/svg" xmlns:xlink="http://www.w3.org/1999/xlink" x="0px" y="0px"
	 viewBox="0 0 512.001 512.001" style="enable-background:new 0 0 512.001 512.001;" xml:space="preserve">
<path style="fill:#B7B39C;" d="M350.304,102.327l-8.543-13.028l-59.404-75.946C275.595,4.761,266.218,0.019,255.895,0
	c-10.238,0-19.61,4.711-26.389,13.267l-82.523,100.524l-58.061,80.313l156.328,87.8l136.977-49.723l37.978-35.797L350.304,102.327z"
	/>
<path style="fill:#A39D82;" d="M220.996,113.792l71.652-87.282l-10.291-13.157C275.595,4.761,266.218,0.019,255.895,0
	c-10.238,0-19.61,4.711-26.389,13.267l-82.523,100.525l-58.061,80.313l52.64,29.565L220.996,113.792z"/>
<path style="fill:#F7B346;" d="M364.615,149.985c-12.042,0-25.975-1.55-39.231-4.364c-38.096-8.091-74.212-12.193-107.345-12.193
	c-23.251,0-44.992,2.013-64.618,5.98l-7.947,1.608l-8.084-30.718c-1.904-7.243,2.442-14.692,9.69-16.608
	c35.915-9.484,73.08-14.293,110.467-14.293c44.169,0,89.53,6.701,134.822,19.918l0.189,0.056l0.186,0.063
	c12.782,4.374,19.817,17.945,16.014,30.897l-0.805,2.062c-0.001,0,0.006-0.021,0.016-0.048
	C403.718,144.05,389.133,149.985,364.615,149.985z"/>
<g>
	<path style="fill:#E56767;" d="M363.415,149.974l-10.106-0.084l2.076-12.093c1.157-6.755,6.974-11.661,13.831-11.661
		c0.405,0,0.813,0.018,1.223,0.054c7.301,0.636,12.811,6.645,12.811,13.98v8.659l-7.831,0.696
		c-3.394,0.302-7.031,0.454-10.809,0.454L363.415,149.974z"/>
	<path style="fill:#E56767;" d="M321.294,144.778c-7.137-1.467-14.26-2.805-21.17-3.978l-8.494-1.442l2.605-15.106
		c1.594-9.237,9.56-15.939,18.941-15.939c0.954,0,1.915,0.072,2.86,0.215c10.015,1.52,17.153,10.609,16.251,20.696l-1.559,17.494
		L321.294,144.778z"/>
</g>
<g>
	<path style="fill:#96401E;" d="M251.881,134.773c-5.554-0.428-11.163-0.76-16.669-0.985l-7.975-0.46l0.09-6.836
		c0.063-4.805,2.188-9.425,5.997-12.355c0.028-0.021,0.057-0.044,0.086-0.066c3.051-2.318,6.68-3.544,10.493-3.544
		c0.926,0,1.861,0.075,2.78,0.222c4.672,0.754,8.74,3.38,11.389,7.088c2.03,2.841,2.918,6.343,2.749,9.83l-0.387,7.975
		L251.881,134.773z"/>
	<path style="fill:#96401E;" d="M171.321,126.025c-0.772-3.859,0.073-7.738,2.381-10.926c2.311-3.191,5.735-5.204,9.643-5.674
		c0.555-0.066,1.108-0.099,1.655-0.099c6.699,0,12.469,4.773,13.723,11.347l2.473,12.992l-9.64,0.683
		c-3.511,0.249-7.028,0.555-10.456,0.907l-7.771,0.799L171.321,126.025z"/>
</g>
<path style="fill:#F7D772;" d="M255.491,224.96c-1.721,0-3.439-0.19-5.103-0.563l-131.971-29.645l-10.32-27.931
	c-2.509-6.788,0.724-14.337,7.36-17.183c15.094-6.476,48.462-17.34,102.349-17.34c33.194,0,69.462,4.129,107.799,12.271
	c6.12,1.301,22.184,4.324,39.107,4.324c0.101,0,0.202,0,0.303,0c13.976-0.03,27.456-5.178,38.078-14.261l5.858-5.009l-19.608,66.009
	l-128.773,28.77C258.909,224.773,257.201,224.96,255.491,224.96z"/>
<path style="fill:#EDC34C;" d="M389.344,195.632l4.901-16.502l-136.952,30.598c-0.579,0.129-1.186,0.195-1.801,0.195
	c-0.621,0-1.228-0.067-1.813-0.198l-141.472-31.781l6.209,16.806l131.971,29.645c1.665,0.374,3.382,0.563,5.103,0.563
	c1.71,0,3.417-0.187,5.08-0.557L389.344,195.632z"/>
<path style="fill:#D5D2BD;" d="M255.99,512c-4.544,0-8.563-2.377-10.753-6.358L83.568,211.772
	c-3.208-5.565-2.839-12.488,0.944-17.63c2.561-3.481,6.326-5.478,10.329-5.478c0.911,0,1.834,0.103,2.743,0.305l153.036,34.377
	c1.583,0.357,3.222,0.537,4.872,0.537c1.642,0,3.271-0.179,4.844-0.531l154.082-34.426c0.921-0.203,1.834-0.304,2.737-0.304
	c4.008,0,7.776,1.997,10.338,5.48c3.781,5.144,4.146,12.066,0.935,17.636L266.743,505.643C264.553,509.623,260.533,512,255.99,512z"
	/>
<path style="fill:#CEC79D;" d="M157.582,211.772c-1.746-3.031-2.425-6.462-2.077-9.791l-57.922-13.011
	c-0.909-0.202-1.832-0.305-2.743-0.305c-4.003,0-7.768,1.996-10.329,5.478c-3.782,5.142-4.152,12.064-0.944,17.63l161.668,293.87
	c2.19,3.981,6.209,6.358,10.753,6.358c4.544,0,8.563-2.377,10.753-6.357l26.254-47.723L157.582,211.772z"/>
<path id="SVGCleanerId_0" style="fill:#E7E4CD;" d="M343.631,307.172c-33.971,24.473-89.269,55.095-159.796,62.006l-12.973,1.272
	l74.374,135.193c2.19,3.981,6.209,6.358,10.753,6.358c4.544,0,8.563-2.377,10.753-6.357l134.585-244.641
	C377.502,280.32,348.486,303.674,343.631,307.172z"/>
<g>
	<path id="SVGCleanerId_0_1_" style="fill:#E7E4CD;" d="M343.631,307.172c-33.971,24.473-89.269,55.095-159.796,62.006
		l-12.973,1.272l74.374,135.193c2.19,3.981,6.209,6.358,10.753,6.358c4.544,0,8.563-2.377,10.753-6.357l134.585-244.641
		C377.502,280.32,348.486,303.674,343.631,307.172z"/>
</g>
<path style="fill:#E5DCA5;" d="M238.419,358.714c-16.962,4.865-35.194,8.565-54.585,10.464l-12.973,1.272l74.374,135.193
	c2.19,3.981,6.209,6.358,10.753,6.358s8.563-2.377,10.753-6.357l26.254-47.723L238.419,358.714z"/>
<path style="fill:#D5D2BD;" d="M324.635,223.348c1.583,0.357,3.222,0.537,4.872,0.537c1.642,0,3.271-0.179,4.844-0.531
	l96.154-21.483c-0.3-2.759-1.304-5.445-3.01-7.767c-2.561-3.482-6.33-5.48-10.338-5.48c-0.903,0-1.815,0.101-2.737,0.304
	l-121.833,27.22L324.635,223.348z"/>
<path style="fill:#E56767;" d="M182.147,159.843c-2.467-3.702-7.469-4.702-11.169-2.234c-3.702,2.468-4.702,7.468-2.234,11.169
	l4.296,6.444c1.552,2.328,4.106,3.588,6.709,3.588c1.536,0,3.088-0.438,4.46-1.354c3.702-2.468,4.702-7.468,2.234-11.169
	L182.147,159.843z"/>
<path style="fill:#96401E;" d="M226.928,179.963l-7.517,1.074c-4.404,0.629-7.464,4.709-6.834,9.112
	c0.575,4.018,4.02,6.916,7.964,6.916c0.379,0,0.762-0.027,1.149-0.082l7.517-1.074c4.404-0.629,7.464-4.709,6.834-9.112
	C235.411,182.394,231.328,179.342,226.928,179.963z"/>
<path style="fill:#7CD8D1;" d="M271.151,176.869l7.517,6.444c1.519,1.303,3.382,1.939,5.238,1.939c2.27,0,4.527-0.955,6.119-2.813
	c2.894-3.377,2.504-8.463-0.873-11.357l-7.517-6.444c-3.379-2.897-8.463-2.503-11.357,0.873
	C267.384,168.888,267.774,173.974,271.151,176.869z"/>
<path style="fill:#B2D84A;" d="M319.35,183.104h13.961c4.449,0,8.054-3.605,8.054-8.054s-3.605-8.054-8.054-8.054H319.35
	c-4.449,0-8.054,3.605-8.054,8.054S314.902,183.104,319.35,183.104z"/>
<g>
</g>
<g>
</g>
<g>
</g>
<g>
</g>
<g>
</g>
<g>
</g>
<g>
</g>
<g>
</g>
<g>
</g>
<g>
</g>
<g>
</g>
<g>
</g>
<g>
</g>
<g>
</g>
<g>
</g>
</svg>
