<?xml version="1.0" encoding="iso-8859-1"?>
<!-- Generator: Adobe Illustrator 19.0.0, SVG Export Plug-In . SVG Version: 6.00 Build 0)  -->
<svg version="1.1" id="Capa_1" xmlns="http://www.w3.org/2000/svg" xmlns:xlink="http://www.w3.org/1999/xlink" x="0px" y="0px"
	 viewBox="0 0 512 512" style="enable-background:new 0 0 512 512;" xml:space="preserve">
<path style="fill:#F46C21;" d="M154.106,44.185c-4.214,0-7.631-3.417-7.631-7.631v-8.202c0-1.505-1.224-2.729-2.729-2.729h-13.363
	c-9.92,0-17.991-8.072-17.991-17.992c0-4.214,3.417-7.631,7.631-7.631c4.214,0,7.631,3.417,7.631,7.631
	c0,1.505,1.224,2.73,2.729,2.73h13.363c9.92,0,17.991,8.071,17.991,17.991v8.202C161.737,40.768,158.321,44.185,154.106,44.185z"/>
<path style="fill:#E2D9C5;" d="M187.51,167.077c-6.452,0-11.701-5.249-11.701-11.701v-10.175c0-6.452,5.249-11.701,11.701-11.701
	c6.452,0,11.701,5.249,11.701,11.701v10.175C199.21,161.828,193.961,167.077,187.51,167.077z"/>
<path style="fill:#FF7C3B;" d="M108.855,131.168c-26.265,0-47.633-21.336-47.633-47.562s21.368-47.562,47.633-47.562h30.686v39.428
	h-32.25c-7.674,0-13.917,6.233-13.917,13.896s6.243,13.896,13.917,13.896h15.124l9.969-9.107c2.737-2.5,7.141-0.559,7.141,3.148
	v18.887l7.872,7.293c2.822,2.615,1.012,7.335-2.835,7.393l-19.577,0.292h-16.13V131.168z"/>
<path style="fill:#F46C21;" d="M138.523,75.482V36.045l40.578,0.001c7.038,0,10.119,8.885,4.593,13.242l-17.546,13.837l0.508,0.739
	c3.382,4.922-0.141,11.619-6.113,11.619H138.523z"/>
<path style="fill:#B2D84A;" d="M416.45,109.542c-6.987,0-13.451-3.776-16.869-9.854c-3.11-5.529-2.287-17.781-1.049-27.086
	c0.355-2.725,1.947-5.081,4.367-6.443c1.321-0.741,2.797-1.128,4.281-1.128c1.185,0,2.346,0.242,3.451,0.719
	c8.64,3.794,19.54,9.453,22.649,14.983c2.531,4.499,3.158,9.717,1.766,14.69c-1.392,4.971-4.637,9.104-9.137,11.636
	C423.026,108.683,419.754,109.542,416.45,109.542z"/>
<path style="fill:#92B515;" d="M418.754,97.497c-3.11-5.529-2.287-17.781-1.049-27.086c0.053-0.41,0.143-0.808,0.251-1.199
	c-2.475-1.264-4.983-2.433-7.326-3.461c-1.105-0.477-2.267-0.719-3.451-0.719c-1.483,0-2.96,0.388-4.281,1.128
	c-2.42,1.361-4.013,3.718-4.367,6.443c-1.238,9.305-2.061,21.557,1.049,27.086c3.418,6.078,9.882,9.854,16.869,9.854
	c3.304,0,6.575-0.859,9.459-2.482c0.704-0.397,1.366-0.845,2.006-1.317C424.104,104.088,420.853,101.229,418.754,97.497z"/>
<path style="fill:#B2D84A;" d="M432.971,195.897c-6.003,0-11.913-1.658-17.089-4.795c-7.553-4.575-12.873-11.819-14.979-20.397
	c-1.255-5.11-1.277-10.488-0.064-15.554l1.769-7.398c0.408-1.705,2.358-2.52,3.858-1.612l53.628,32.487
	c1.5,0.909,1.681,3.015,0.358,4.167l-5.738,4.995c-3.928,3.42-8.706,5.891-13.814,7.145
	C438.294,195.572,435.626,195.897,432.971,195.897z"/>
<path style="fill:#B5241A;" d="M255.998,94.526c4.806-16.586,5.616-36.097,2.116-50.916c-1.416-5.997,0.647-12.274,5.644-16.378
	c2.097-1.724,4.63-2.882,7.303-3.354c7.986-1.408,15.432,2.936,18.273,10.24c2.161,5.556,3.688,11.191,4.541,16.748
	c2.149,14.014-2.97,30.652-13.043,42.388c-3.951,4.603-8.406,8.22-13.242,10.751l-9.986,5.226c-2.599,1.359-5.558-1.06-4.742-3.877
	L255.998,94.526z"/>
<path style="fill:#A5100C;" d="M276.813,94.526c4.806-16.586,5.616-36.097,2.116-50.916c-1.405-5.947,0.618-12.167,5.525-16.273
	c-3.581-2.958-8.38-4.343-13.393-3.458c-2.673,0.472-5.206,1.631-7.303,3.354c-4.996,4.104-7.06,10.381-5.644,16.378
	c3.499,14.82,2.689,34.331-2.116,50.916l-3.136,10.826c-0.816,2.816,2.144,5.237,4.742,3.877l9.986-5.226
	c2.838-1.486,5.54-3.355,8.091-5.568L276.813,94.526z"/>
<path style="fill:#A6C1AD;" d="M155.459,456.038v39.396v5.661c0,6.013,4.892,10.905,10.905,10.905h133.863
	c6.013,0,10.905-4.892,10.905-10.905v-5.661v-39.396H155.459z"/>
<path style="fill:#78A883;" d="M227.818,501.095v-5.661v-39.396h-72.359v39.396v5.661c0,6.013,4.892,10.905,10.905,10.905h72.359
	C232.71,512,227.818,507.108,227.818,501.095z"/>
<path style="fill:#FCF7C5;" d="M361.497,286.121c-0.846,0-1.683,0.087-2.545,0.268l-0.005-0.151
	c-0.212-6.912-5.797-12.327-12.712-12.327c-0.985,0-1.98,0.121-2.958,0.357c-0.254-0.972-0.63-1.921-1.12-2.83l-3.559-6.593
	l-88.999-34.957l-8.797-7.708c0.084-0.608,0.125-1.163,0.125-1.685c0-7.013-5.705-12.718-12.718-12.718
	c-5.915,0-11.063,4.169-12.378,9.852c-2.379-2.393-5.6-3.747-8.989-3.747c-5.509,0-10.382,3.572-12.077,8.768
	c-1.907-1.079-4.05-1.645-6.237-1.645c-7.013,0-12.718,5.705-12.718,12.718c0,0.493,0.034,1,0.103,1.532
	c-5.666,0.18-10.574,4.189-11.93,9.64c-1.845-0.987-3.898-1.506-5.979-1.506c-7.013,0-12.718,5.705-12.718,12.718
	c0,1.25,0.19,2.499,0.567,3.717c-6.167,0.957-10.741,6.251-10.741,12.563c0,1.696,0.336,3.345,0.997,4.912
	c-2.358-2.19-5.395-3.386-8.628-3.386c-7.013,0-12.718,5.705-12.718,12.718c0,1.139,0.15,2.258,0.444,3.337
	c-2.356-2.412-5.626-3.846-9.092-3.846c-7.013,0-12.718,5.705-12.718,12.718c0,3.995,1.823,7.666,5.008,10.097l1.675,5.673h266.168
	l1.974-4.988c3.76-2.345,5.998-6.363,5.998-10.783C374.216,291.826,368.51,286.121,361.497,286.121z"/>
<path style="fill:#E5D88C;" d="M148.897,298.84c0-7.013,5.705-12.718,12.718-12.718c3.467,0,6.735,1.434,9.092,3.846
	c-0.293-1.08-0.444-2.199-0.444-3.337c0-7.013,5.705-12.718,12.718-12.718c3.234,0,6.27,1.197,8.628,3.386
	c-0.662-1.567-0.997-3.217-0.997-4.912c0-6.312,4.575-11.605,10.741-12.563c-0.376-1.218-0.567-2.466-0.567-3.717
	c0-7.013,5.705-12.718,12.718-12.718c2.081,0,4.134,0.519,5.979,1.506c1.356-5.45,6.264-9.458,11.93-9.64
	c-0.069-0.532-0.103-1.039-0.103-1.532c0-5.925,4.078-10.902,9.571-12.308c0.026-0.317,0.043-0.626,0.043-0.919
	c0-7.013-5.705-12.718-12.718-12.718c-5.915,0-11.063,4.169-12.378,9.852c-2.379-2.393-5.6-3.747-8.989-3.747
	c-5.509,0-10.382,3.572-12.077,8.768c-1.907-1.079-4.05-1.645-6.237-1.645c-7.013,0-12.718,5.705-12.718,12.718
	c0,0.493,0.034,1,0.103,1.532c-5.666,0.18-10.574,4.189-11.93,9.64c-1.845-0.987-3.898-1.506-5.979-1.506
	c-7.013,0-12.718,5.705-12.718,12.718c0,1.25,0.19,2.499,0.567,3.717c-6.167,0.957-10.741,6.251-10.741,12.563
	c0,1.696,0.336,3.345,0.997,4.912c-2.358-2.19-5.395-3.386-8.628-3.386c-7.013,0-12.718,5.705-12.718,12.718
	c0,1.139,0.15,2.258,0.444,3.337c-2.356-2.412-5.626-3.846-9.092-3.846c-7.013,0-12.718,5.705-12.718,12.718
	c0,3.995,1.823,7.666,5.008,10.097l1.675,5.673h55.504l-1.675-5.673C150.721,306.505,148.897,302.834,148.897,298.84z"/>
<path style="fill:#F4F1E6;" d="M307.571,273.912c-33.943,0-61.557-27.614-61.557-61.557v-53.926
	c0-13.745,11.183-24.928,24.928-24.928c13.745,0,24.928,11.183,24.928,24.928c0,5.891,4.792,10.683,10.683,10.683h8.14
	c5.891,0,10.683-4.792,10.683-10.683V109.59c0-12.062,9.814-21.876,21.876-21.876c12.062,0,21.876,9.814,21.876,21.876v102.765
	C369.128,246.297,341.513,273.912,307.571,273.912z"/>
<path style="fill:#EADFCE;" d="M271.303,212.355v-53.926c0-9.132,4.939-17.128,12.283-21.471c-3.71-2.194-8.032-3.457-12.645-3.457
	c-13.745,0-24.928,11.183-24.928,24.928v53.926c0,33.943,27.614,61.557,61.557,61.557c4.333,0,8.562-0.456,12.645-1.312
	C292.318,266.752,271.303,241.964,271.303,212.355z"/>
<path style="fill:#FF7900;" d="M310.624,250.51c-14.307,0-25.946-11.639-25.946-25.946c0-14.307,11.639-25.946,25.946-25.946
	c14.307,0,25.946,11.639,25.946,25.946C336.569,238.871,324.929,250.51,310.624,250.51z"/>
<path style="fill:#FF5B00;" d="M307.571,224.564c0-10.199,5.919-19.039,14.499-23.277c-3.455-1.706-7.34-2.669-11.447-2.669
	c-14.307,0-25.946,11.639-25.946,25.946c0,14.307,11.639,25.946,25.946,25.946c4.107,0,7.991-0.964,11.447-2.669
	C313.489,243.603,307.571,234.763,307.571,224.564z"/>
<path style="fill:#C2D5BF;" d="M191.796,485.546c-60.432,0-109.596-49.164-109.596-109.596v-49.91
	c0-6.863,5.584-12.447,12.447-12.447h279.331c6.863,0,12.447,5.584,12.447,12.447v49.91c0,60.432-49.164,109.596-109.596,109.596
	H191.796z"/>
<g>
	<path style="fill:#9CC495;" d="M154.56,375.95v-49.91c0-6.863,5.584-12.447,12.447-12.447h-72.36
		c-6.863,0-12.447,5.584-12.447,12.447v49.91c0,60.432,49.164,109.596,109.596,109.596h72.359
		C203.724,485.546,154.56,436.382,154.56,375.95z"/>
	<path style="fill:#9CC495;" d="M243.142,337.522H135.852v15.262h107.289c4.525,0,8.194-3.417,8.194-7.631
		C251.336,340.939,247.667,337.522,243.142,337.522z"/>
	<path style="fill:#9CC495;" d="M202.174,368.536h-66.322v7.413c0,2.639,0.1,5.255,0.284,7.849h66.038
		c4.525,0,8.194-3.417,8.194-7.631S206.699,368.536,202.174,368.536z"/>
</g>
<g>
	<path style="fill:#E2D9C5;" d="M105.094,208.793c-6.452,0-11.701-5.249-11.701-11.701v-10.175c0-6.452,5.249-11.701,11.701-11.701
		c6.452,0,11.701,5.249,11.701,11.701v10.175C116.795,203.544,111.546,208.793,105.094,208.793z"/>
	<path style="fill:#E2D9C5;" d="M410.336,273.912c-6.452,0-11.701-5.249-11.701-11.701v-10.175c0-6.452,5.249-11.701,11.701-11.701
		c6.452,0,11.701,5.249,11.701,11.701v10.175C422.037,268.662,416.788,273.912,410.336,273.912z"/>
	<path style="fill:#E2D9C5;" d="M62.36,266.789c-6.452,0-11.701-5.249-11.701-11.701v-10.175c0-6.452,5.249-11.701,11.701-11.701
		s11.701,5.249,11.701,11.701v10.175C74.061,261.54,68.812,266.789,62.36,266.789z"/>
</g>
<g>
	<path style="fill:#F46C21;" d="M101.184,36.67c-0.004,0.106-0.016,0.209-0.016,0.315v9.497c0,4.214,3.417,7.631,7.631,7.631
		c4.214,0,7.631-3.417,7.631-7.631v-9.497c0-0.318-0.025-0.632-0.064-0.94h-7.512C106.243,36.045,103.683,36.265,101.184,36.67z"/>
	<path style="fill:#F46C21;" d="M72.275,53.183l6.521,7.721c1.509,1.787,3.664,2.707,5.833,2.707c1.739,0,3.488-0.591,4.919-1.802
		c3.22-2.719,3.625-7.533,0.906-10.754l-6.653-7.877C79.443,45.882,75.549,49.265,72.275,53.183z"/>
	<path style="fill:#F46C21;" d="M81.033,85.095c0-4.214-3.417-7.631-7.631-7.631H61.756c-0.042,0-0.082,0.005-0.125,0.006
		c-0.26,2.011-0.41,4.056-0.41,6.136c0,3.12,0.311,6.167,0.888,9.12h11.292C77.616,92.726,81.033,89.31,81.033,85.095z"/>
</g>
<g>
	<path style="fill:#D3C7A1;" d="M229.475,292.318c-1.395,0-2.481-1.261-2.227-2.632c1.237-6.711,7.119-11.795,14.188-11.795
		c7.068,0,12.95,5.083,14.188,11.795c0.253,1.372-0.832,2.632-2.227,2.632H229.475z"/>
	<path style="fill:#D3C7A1;" d="M167.409,279.745c-1.395,0-2.481-1.261-2.227-2.632c1.237-6.711,7.119-11.795,14.188-11.795
		c7.068,0,12.95,5.084,14.188,11.795c0.253,1.372-0.832,2.632-2.227,2.632H167.409z"/>
</g>
<g>
</g>
<g>
</g>
<g>
</g>
<g>
</g>
<g>
</g>
<g>
</g>
<g>
</g>
<g>
</g>
<g>
</g>
<g>
</g>
<g>
</g>
<g>
</g>
<g>
</g>
<g>
</g>
<g>
</g>
</svg>
