<?xml version="1.0" encoding="iso-8859-1"?>
<!-- Generator: Adobe Illustrator 19.0.0, SVG Export Plug-In . SVG Version: 6.00 Build 0)  -->
<svg version="1.1" id="Capa_1" xmlns="http://www.w3.org/2000/svg" xmlns:xlink="http://www.w3.org/1999/xlink" x="0px" y="0px"
	 viewBox="0 0 511.998 511.998" style="enable-background:new 0 0 511.998 511.998;" xml:space="preserve">
<path style="fill:#F09221;" d="M426.657,503.461H85.33c-28.279,0-51.199-22.92-51.199-51.199v-25.6
	c0-9.429,7.637-17.066,17.066-17.066H460.79c9.429,0,17.066,7.637,17.066,17.066v25.6
	C477.856,480.541,454.936,503.461,426.657,503.461z"/>
<path style="fill:#7A0E1E;" d="M477.856,238.932v70.04c0,13.158-10.666,23.825-23.825,23.825H57.955
	c-13.158,0-23.825-10.667-23.825-23.825v-52.974L477.856,238.932z"/>
<path style="fill:#F7CE00;" d="M59.73,332.798h392.527c14.14,0,25.6,11.46,25.6,25.6v25.6c0,14.14-11.46,25.6-25.6,25.6H59.73
	c-14.139,0-25.6-11.46-25.6-25.6v-25.6C34.13,344.258,45.591,332.798,59.73,332.798z"/>
<polygon style="fill:#8EC949;" points="477.856,230.229 503.456,247.466 460.79,247.466 418.124,298.665 307.193,264.532 
	196.261,307.198 119.462,264.532 8.531,273.065 34.13,230.399 "/>
<g>
	<rect x="59.73" y="366.93" style="fill:#F09221;" width="17.066" height="17.066"/>
	<rect x="93.863" y="358.397" style="fill:#F09221;" width="17.066" height="17.066"/>
	<rect x="127.996" y="366.93" style="fill:#F09221;" width="17.066" height="17.066"/>
	<rect x="162.128" y="358.397" style="fill:#F09221;" width="17.066" height="17.066"/>
	<rect x="196.261" y="366.93" style="fill:#F09221;" width="17.066" height="17.066"/>
	<rect x="230.394" y="358.397" style="fill:#F09221;" width="17.066" height="17.066"/>
	<rect x="264.527" y="366.93" style="fill:#F09221;" width="17.066" height="17.066"/>
	<rect x="298.659" y="358.397" style="fill:#F09221;" width="17.066" height="17.066"/>
	<rect x="332.792" y="366.93" style="fill:#F09221;" width="17.066" height="17.066"/>
	<rect x="366.925" y="358.397" style="fill:#F09221;" width="17.066" height="17.066"/>
	<rect x="401.058" y="366.93" style="fill:#F09221;" width="17.066" height="17.066"/>
	<rect x="435.19" y="358.397" style="fill:#F09221;" width="17.066" height="17.066"/>
</g>
<path style="fill:#F7CE00;" d="M477.856,152.005v83.182l0,0c-145.32,39.125-298.406,39.125-443.726,0l0,0v-73.053L477.856,152.005z"
	/>
<g>
	<path style="fill:#D4B100;" d="M273.23,238.762l-0.35-17.066c39.628-0.802,79.154-4.378,118.279-10.709l2.731,16.845
		C353.971,234.29,313.652,237.943,273.23,238.762z"/>
	<path style="fill:#D4B100;" d="M420.769,223.035l-3.268-16.751c9.745-1.903,19.464-3.968,29.158-6.212l3.848,16.623
		C440.626,219.007,430.71,221.124,420.769,223.035z"/>
</g>
<path style="fill:#8EC949;" d="M34.13,119.468c-17.066,0-34.133,34.133,6.639,48.699c11.733,4.198,32.58-4.71,55.329-0.205
	c14.378,2.842,29.013,22.186,49.347,24.072c15.479,1.451,33.936-14.455,53.367-13.738c16.008,0.597,33.117,17.971,52.061,17.971
	c20.898,0,39.841-17.322,57.437-17.809c21.487-0.597,41.454,15.513,58.461,14.302c22.707-1.63,39.679-20.693,55.389-23.176
	c26.939-4.267,48.759,4.002,60.586,0.691c29.243-8.141,20.71-42.273-4.89-42.273L34.13,119.468z"/>
<path style="fill:#F09221;" d="M145.6,8.536h220.788c61.558,0,111.469,49.911,111.469,111.469v16.529l0,0H34.13l0,0v-16.529
	C34.13,58.447,84.033,8.536,145.6,8.536z"/>
<g>
	<rect x="102.396" y="59.735" style="fill:#FBD836;" width="17.066" height="17.066"/>
	<rect x="136.529" y="102.401" style="fill:#FBD836;" width="17.066" height="17.066"/>
	<rect x="162.128" y="34.136" style="fill:#FBD836;" width="17.066" height="17.066"/>
	<rect x="204.794" y="76.802" style="fill:#FBD836;" width="17.066" height="17.066"/>
	<rect x="281.593" y="42.669" style="fill:#FBD836;" width="17.066" height="17.066"/>
	<rect x="366.925" y="42.669" style="fill:#FBD836;" width="17.066" height="17.066"/>
	<rect x="418.124" y="102.401" style="fill:#FBD836;" width="17.066" height="17.066"/>
	<rect x="315.726" y="85.335" style="fill:#FBD836;" width="17.066" height="17.066"/>
	<rect x="255.993" y="102.401" style="fill:#FBD836;" width="17.066" height="17.066"/>
</g>
<path d="M272.881,221.695l0.35,17.066c40.422-0.819,80.741-4.471,120.659-10.923l-2.731-16.845
	C352.034,217.326,312.509,220.902,272.881,221.695z"/>
<path d="M417.501,206.284l3.268,16.751c9.95-1.937,19.865-4.045,29.738-6.34l-3.848-16.623
	C436.965,202.308,427.246,204.382,417.501,206.284z"/>
<path d="M8.531,281.598c0.188,0,0.375,0,0.563,0l16.503-1.118v28.492c0.034,9.344,4.13,18.218,11.221,24.303
	c-7.117,6.417-11.196,15.539-11.221,25.122v25.6c0.017,8.61,3.311,16.887,9.216,23.159c-5.811,4.813-9.19,11.964-9.216,19.507v25.6
	c0.034,32.972,26.76,59.698,59.732,59.732h341.328c32.972-0.034,59.698-26.76,59.732-59.732v-25.6
	c-0.026-7.543-3.405-14.694-9.216-19.507c5.905-6.263,9.199-14.549,9.216-23.159v-25.6c-0.026-9.583-4.104-18.705-11.221-25.122
	c7.091-6.084,11.187-14.959,11.221-24.303v-52.974h17.066c4.71,0,8.533-3.814,8.542-8.525c0-3.678-2.355-6.946-5.845-8.107
	l-19.763-6.588V179.2h-5.342c1.357-0.145,2.705-0.375,4.036-0.708c15.428-2.91,26.026-17.186,24.345-32.793
	c-1.886-12.262-10.982-22.169-23.04-25.079v-0.614C486.313,53.771,432.639,0.088,366.396,0.003H145.6
	C82.275,0.105,29.924,49.368,25.973,112.564c-9.753,4.079-16.734,12.885-18.466,23.313c-2.065,14.216,5.231,28.142,18.09,34.534
	v57.625L1.218,268.671c-2.423,4.036-1.118,9.284,2.918,11.708C5.467,281.18,6.986,281.598,8.531,281.598z M469.323,452.262
	c-0.026,23.552-19.114,42.64-42.666,42.666H85.33c-23.552-0.026-42.64-19.114-42.666-42.666v-25.6c0-4.71,3.823-8.533,8.533-8.533
	H460.79c4.71,0,8.533,3.823,8.533,8.533V452.262z M469.323,383.997c0,9.429-7.637,17.066-17.066,17.066H59.73
	c-9.429,0-17.066-7.637-17.066-17.066v-25.6c0-9.429,7.637-17.066,17.066-17.066h392.527c9.429,0,17.066,7.637,17.066,17.066
	V383.997z M469.323,308.973c-0.009,8.439-6.852,15.283-15.291,15.291H57.955c-8.439-0.009-15.283-6.844-15.291-15.291v-29.636
	l76.679-5.12l72.771,40.43c2.287,1.271,5.018,1.425,7.432,0.418L301.945,272.4l-0.29-0.691c1.126-0.06,2.253-0.102,3.413-0.171
	l-0.35,1.143l110.931,34.133c0.802,0.247,1.638,0.375,2.475,0.384c2.261,0,4.437-0.896,6.033-2.5l45.166-45.166V308.973z
	 M137.493,264.788c39.261,5.478,78.855,8.243,118.5,8.277h0.085l-59.28,24.704L137.493,264.788z M347.683,268.065
	c36.112-3.84,71.952-9.958,107.296-18.329l-39.253,39.253L347.683,268.065z M469.323,228.624
	c-139.885,36.454-286.775,36.454-426.66,0v-51.302c6.946,0.725,13.969,0.495,20.855-0.683c10.223-1.741,20.667-1.852,30.924-0.307
	c5.837,1.997,11.281,5,16.085,8.875c9.839,8.021,21.606,13.32,34.133,15.36c9.916-0.017,19.695-2.381,28.518-6.903
	c7.893-3.959,16.512-6.289,25.327-6.827c7.014,1.178,13.73,3.712,19.78,7.458c9.873,6.05,21.043,9.651,32.588,10.504
	c12.339-0.819,24.345-4.309,35.199-10.24c6.963-3.866,14.583-6.425,22.476-7.535c9.898,0.546,19.592,2.987,28.569,7.185
	c9.455,4.523,19.78,6.937,30.259,7.091c13.559-1.783,26.504-6.792,37.734-14.6c5.606-3.874,11.818-6.801,18.38-8.653
	c12.322-1.587,24.806-1.451,37.094,0.418c3.063,0.341,5.973,0.623,8.729,0.853L469.323,228.624z M42.664,120.005
	C42.723,63.183,88.777,17.138,145.6,17.069h220.796c56.823,0.068,102.868,46.113,102.927,102.936v7.996H42.664V120.005z
	 M24.326,138.778c0.256-1.297,0.683-2.56,1.271-3.746v1.502c0,4.71,3.823,8.533,8.533,8.533h443.726
	c3.883-0.034,7.236-2.714,8.124-6.494c3.524,1.971,5.948,5.453,6.562,9.438c0.853,6.451-3.627,11.699-12.04,14.046
	c-5.999,0.691-12.066,0.495-18.005-0.589c-13.807-2.048-27.835-2.159-41.668-0.316c-8.747,2.065-17.024,5.743-24.422,10.837
	c-9.003,6.357-19.345,10.556-30.233,12.254c-7.944-0.486-15.71-2.517-22.878-5.973c-11.059-5.12-23.04-7.953-35.216-8.337
	c-10.223,1.058-20.138,4.156-29.149,9.096c-8.653,4.813-18.201,7.774-28.057,8.704c-8.815-0.99-17.297-3.934-24.823-8.627
	c-8.2-5-17.391-8.166-26.931-9.293c-11.255,0.375-22.306,3.132-32.426,8.081c-6.332,3.311-13.286,5.248-20.42,5.683
	c-9.574-1.894-18.526-6.161-26.035-12.39c-6.63-5.316-14.259-9.25-22.442-11.554c-12.023-1.929-24.277-1.894-36.292,0.102
	c-5.871,1.22-11.912,1.365-17.834,0.435c-13.807-4.966-20.847-12.74-19.345-21.376L24.326,138.778L24.326,138.778z M35.692,244.377
	c20.898,5.53,41.949,10.231,63.146,14.114l-74.606,4.975L35.692,244.377z"/>
<rect x="59.73" y="366.93" width="17.066" height="17.066"/>
<rect x="93.863" y="358.397" width="17.066" height="17.066"/>
<rect x="127.996" y="366.93" width="17.066" height="17.066"/>
<rect x="162.128" y="358.397" width="17.066" height="17.066"/>
<rect x="196.261" y="366.93" width="17.066" height="17.066"/>
<rect x="230.394" y="358.397" width="17.066" height="17.066"/>
<rect x="264.527" y="366.93" width="17.066" height="17.066"/>
<rect x="298.659" y="358.397" width="17.066" height="17.066"/>
<rect x="332.792" y="366.93" width="17.066" height="17.066"/>
<rect x="366.925" y="358.397" width="17.066" height="17.066"/>
<rect x="401.058" y="366.93" width="17.066" height="17.066"/>
<rect x="435.19" y="358.397" width="17.066" height="17.066"/>
<rect x="102.396" y="59.735" width="17.066" height="17.066"/>
<rect x="136.529" y="102.401" width="17.066" height="17.066"/>
<rect x="162.128" y="34.136" width="17.066" height="17.066"/>
<rect x="204.794" y="76.802" width="17.066" height="17.066"/>
<rect x="281.593" y="42.669" width="17.066" height="17.066"/>
<rect x="366.925" y="42.669" width="17.066" height="17.066"/>
<rect x="418.124" y="102.401" width="17.066" height="17.066"/>
<rect x="315.726" y="85.335" width="17.066" height="17.066"/>
<rect x="255.993" y="102.401" width="17.066" height="17.066"/>
<g>
</g>
<g>
</g>
<g>
</g>
<g>
</g>
<g>
</g>
<g>
</g>
<g>
</g>
<g>
</g>
<g>
</g>
<g>
</g>
<g>
</g>
<g>
</g>
<g>
</g>
<g>
</g>
<g>
</g>
</svg>
