<?xml version="1.0" encoding="iso-8859-1"?>
<!-- Generator: Adobe Illustrator 19.0.0, SVG Export Plug-In . SVG Version: 6.00 Build 0)  -->
<svg version="1.1" id="Capa_1" xmlns="http://www.w3.org/2000/svg" xmlns:xlink="http://www.w3.org/1999/xlink" x="0px" y="0px"
	 viewBox="0 0 512.001 512.001" style="enable-background:new 0 0 512.001 512.001;" xml:space="preserve">
<path style="fill:#E7E4CD;" d="M101.998,462.297c-37.195,0-67.455-30.26-67.455-67.455s30.26-67.455,67.455-67.455
	s67.455,30.26,67.455,67.455S139.192,462.297,101.998,462.297z"/>
<path style="fill:#96401E;" d="M101.998,437.952c-23.772,0-43.11-19.339-43.11-43.11c0-23.772,19.339-43.11,43.11-43.11
	s43.11,19.339,43.11,43.11C145.108,418.613,125.768,437.952,101.998,437.952z"/>
<path style="fill:#541D04;" d="M107.069,400.421c-12.584,0-22.823-10.239-22.823-22.823c0-12.584,10.239-22.823,22.823-22.823
	s22.823,10.239,22.823,22.823C129.893,390.182,119.654,400.421,107.069,400.421z"/>
<path style="fill:#F4D678;" d="M256.18,504.9c-32.161,0-58.326-26.164-58.326-58.326s26.164-58.326,58.326-58.326
	s58.326,26.164,58.326,58.326S288.342,504.9,256.18,504.9z"/>
<path style="fill:#B5241A;" d="M242.672,423.563l15.029-5.866c2.895-1.13,6.158,0.301,7.288,3.196l5.866,15.029
	c1.13,2.895-0.301,6.158-3.196,7.288l-15.029,5.866c-2.895,1.13-6.158-0.301-7.288-3.196l-5.866-15.029
	C238.346,427.957,239.777,424.693,242.672,423.563z"/>
<path style="fill:#96401E;" d="M423.55,431.866c-29.924,0-54.268-24.345-54.268-54.268c0-29.924,24.345-54.268,54.268-54.268
	c29.924,0,54.268,24.345,54.268,54.268C477.818,407.521,453.473,431.866,423.55,431.866z"/>
<path style="fill:#92B515;" d="M419.771,396.34c-10.212,0-18.631-8.31-18.766-18.523c-0.085-6.531,3.146-12.589,8.92-16.26
	c2.87-1.824,6.231-2.725,9.631-2.756l0.078-0.001c6.313,0,16.144,6.587,23.284,12.113l5.064,3.918
	c1.539,1.191,1.568,3.503,0.062,4.733l-4.959,4.05c-7.049,5.757-16.771,12.638-23.06,12.722L419.771,396.34z"/>
<path style="fill:#688E16;" d="M32.188,221.284C25.432,145.063,25.381,73.25,32.039,7.842l0.296-2.912
	c0.292-2.872,2.866-4.956,5.735-4.648l2.91,0.314C90.231,5.9,150.035,8.588,218.732,8.588c91.858,0,186.986-4.804,250.549-8.419
	l2.81-0.16c2.803-0.159,5.227,1.932,5.48,4.728l0.254,2.804c5.717,63.319,5.877,132.651,0.478,206.07
	c-0.25,3.379-2.006,6.399-4.818,8.284c-1.808,1.213-3.908,1.856-6.07,1.856c-1.141,0-2.278-0.182-3.378-0.539
	c-19.256-6.284-52.577-9.337-101.879-9.337c-58.486,0-130.966,4.211-207.702,8.67c-37.951,2.206-77.178,4.487-113.819,6.13
	l-2.783,0.125c-2.783,0.125-5.171-1.965-5.418-4.74L32.188,221.284z"/>
<path style="fill:#5F7F06;" d="M438.37,155.011c-58.486,0-130.966,4.211-207.702,8.67c-37.951,2.206-77.178,4.487-113.819,6.13l0,0
	c-4.339,0.195-8.063-3.063-8.447-7.391l0,0c-4.857-54.786-6.229-107.277-4.155-156.765C81.58,4.379,60.453,2.694,40.981,0.597
	l-2.91-0.313c-2.87-0.309-5.443,1.776-5.735,4.648l-0.296,2.912c-6.657,65.408-6.608,137.221,0.149,213.442l0.245,2.775
	c0.245,2.775,2.634,4.865,5.418,4.74l2.783-0.125c36.642-1.643,75.868-3.924,113.819-6.13c76.735-4.459,149.216-8.67,207.702-8.67
	c49.302,0,82.623,3.053,101.879,9.337c1.1,0.358,2.237,0.539,3.378,0.539c2.163,0,4.262-0.643,6.07-1.856
	c2.812-1.886,4.569-4.905,4.818-8.284c1.435-19.512,2.465-38.726,3.115-57.626C468.707,155.335,454.388,155.011,438.37,155.011z"/>
<g>
	<path style="fill:#537006;" d="M147.137,223.01c2.672-0.155,5.339-0.31,7.999-0.465c2.41-0.14,4.815-0.28,7.216-0.419V7.921
		c-5.134-0.125-10.205-0.267-15.215-0.426V223.01z"/>
	<path style="fill:#537006;" d="M222.199,218.739c5.107-0.276,10.181-0.545,15.215-0.805V8.527
		c-5.077,0.033-10.15,0.051-15.215,0.056V218.739z"/>
	<path style="fill:#537006;" d="M273.932,216.176c5.126-0.225,10.197-0.436,15.215-0.633V7.762
		c-5.057,0.114-10.131,0.215-15.215,0.307V216.176z"/>
	<path style="fill:#537006;" d="M342.908,214.028c5.163-0.074,10.24-0.123,15.215-0.142V5.623
		c-5.025,0.195-10.099,0.383-15.215,0.566V214.028z"/>
	<path style="fill:#537006;" d="M396.669,214.445c5.326,0.197,10.396,0.444,15.215,0.743V3.257
		c-4.986,0.243-10.059,0.486-15.215,0.724V214.445z"/>
	<path style="fill:#537006;" d="M103.297,225.514c5.067-0.281,10.141-0.567,15.215-0.855V6.36
		c-5.148-0.245-10.218-0.513-15.215-0.799V225.514z"/>
</g>
<g>
	<path style="fill:#F9CC8C;" d="M256.233,284.378c-4.203,0-7.608-3.874-7.608-8.655v-98.658c0-4.78,3.405-8.655,7.608-8.655
		c4.202,0,7.608,3.874,7.608,8.655v98.658C263.841,280.504,260.435,284.378,256.233,284.378z"/>
	<path style="fill:#F9CC8C;" d="M377.956,284.378c-4.203,0-7.608-4.079-7.608-9.111v-103.87c0-5.032,3.405-9.111,7.608-9.111
		c4.202,0,7.608,4.079,7.608,9.111v103.87C385.564,280.299,382.158,284.378,377.956,284.378z"/>
</g>
<g>
	<path style="fill:#96401E;" d="M355.988,182.768c-3.941,0-7.697-1.493-10.579-4.204c-3.045-2.86-4.775-6.741-4.869-10.926
		l-0.678-30.469l4.051-33.428l-7.101-34.494l4.108-28.078c1.172-8.001,8.151-14.033,16.236-14.033h35.666
		c5.121,0,9.853,2.324,12.985,6.376c3.132,4.053,4.185,9.222,2.891,14.179c-0.563,2.158-0.647,4.463-0.243,6.662l8.505,46.304
		l-4.057,37.535l4.219,24.709c0.748,4.392-0.431,8.892-3.234,12.349c-2.808,3.459-6.967,5.542-11.416,5.717l-45.861,1.787
		C356.412,182.764,356.2,182.768,355.988,182.768z"/>
	<path style="fill:#96401E;" d="M234.653,182.334c-4.586,0-8.876-2.041-11.77-5.599c-2.895-3.563-4.018-8.179-3.081-12.668
		l2.265-10.878c2.638-12.664,0.84-25.981-5.062-37.495l-0.894-1.744V58.016l3.431-14.703c2.222-9.525,10.605-16.176,20.385-16.176
		h33.619c10.596,0,19.533,7.934,20.784,18.457l2.466,20.71c0.311,2.619,0.315,5.273,0.01,7.889l-4.459,38.345
		c-0.104,0.904-0.157,1.824-0.157,2.728v30.093l-4.803,24.701c-1.382,7.113-7.644,12.276-14.891,12.276h-37.844V182.334z"/>
</g>
<path style="fill:#F9CC8C;" d="M130.452,284.378c-4.202,0-7.608-4.079-7.608-9.111v-103.87c0-5.032,3.405-9.111,7.608-9.111
	c4.202,0,7.608,4.079,7.608,9.111v103.87C138.06,280.299,134.654,284.378,130.452,284.378z"/>
<path style="fill:#96401E;" d="M117.558,182.841c-7.292,0-13.957-4.501-17.392-11.745l-2.905-6.127
	c-4.54-9.575-6.321-20.333-5.154-31.111l4.308-39.746l-2.436-13.305c-2.365-12.916-0.359-26.261,5.649-37.574
	c3.835-7.221,10.585-11.531,18.054-11.531h25.05c11.054,0,20.759,7.967,24.145,19.827l0.158,0.556
	c2.883,10.091,2.789,21.18-0.265,31.218l-3.447,11.329c-1.951,6.409-2.278,13.292-0.949,19.907l3.018,14.999l3.259,28.226
	c0.796,6.909-1.261,13.692-5.645,18.612c-3.715,4.169-8.655,6.466-13.909,6.466H117.558z"/>
<g>
	<path style="fill:#6D3113;" d="M385.136,165.004c-0.2,0.008-0.412,0.012-0.624,0.012c-3.941,0-7.697-1.493-10.579-4.204
		c-3.045-2.861-4.775-6.741-4.869-10.926l-0.678-30.469l4.051-33.428l-7.101-34.494l3.563-24.36h-11.743
		c-8.084,0-15.064,6.031-16.236,14.033l-4.108,28.078l7.101,34.494l-4.051,33.428l0.678,30.469
		c0.094,4.183,1.824,8.064,4.869,10.926c2.882,2.71,6.638,4.204,10.579,4.204c0.212,0,0.424-0.004,0.624-0.012l45.861-1.787
		c4.449-0.174,8.608-2.258,11.416-5.717c2.622-3.234,3.8-7.38,3.331-11.498L385.136,165.004z"/>
	<path style="fill:#6D3113;" d="M263.175,164.582c-4.585,0-8.876-2.041-11.77-5.599c-2.895-3.563-4.018-8.179-3.081-12.668
		l2.265-10.878c2.638-12.664,0.84-25.981-5.062-37.495l-0.894-1.744V40.264l3.063-13.128h-7.771
		c-9.779,0-18.161,6.652-20.385,16.176l-3.431,14.703v55.935l0.894,1.744c5.902,11.514,7.7,24.831,5.062,37.495l-2.265,10.878
		c-0.937,4.49,0.186,9.106,3.081,12.668c2.894,3.558,7.184,5.599,11.77,5.599h37.844c7.247,0,13.508-5.163,14.891-12.276
		l1.065-5.476h-25.277V164.582z"/>
	<path style="fill:#6D3113;" d="M146.081,165.089c-7.292,0-13.957-4.501-17.392-11.745l-2.905-6.127
		c-4.54-9.575-6.321-20.333-5.154-31.111l4.308-39.746l-2.436-13.305c-1.945-10.618-0.929-21.524,2.83-31.354h-7.65
		c-7.469,0-14.218,4.31-18.054,11.531c-6.009,11.313-8.014,24.658-5.649,37.574l2.436,13.305l-4.308,39.746
		c-1.168,10.779,0.614,21.536,5.154,31.111l2.905,6.127c3.437,7.246,10.1,11.745,17.392,11.745h31.536
		c5.254,0,10.194-2.297,13.909-6.466c2.807-3.15,4.654-7.065,5.416-11.286H146.081z"/>
</g>
<g>
	<path style="fill:#541D04;" d="M377.899,82.928c-0.999,0-2.016-0.198-2.992-0.617l-7.1-3.043c-3.863-1.655-5.651-6.128-3.996-9.989
		c1.655-3.862,6.127-5.653,9.989-3.996l7.101,3.043c3.863,1.655,5.651,6.128,3.996,9.989C383.66,81.2,380.851,82.928,377.899,82.928
		z"/>
	<path style="fill:#541D04;" d="M373.846,142.774c-1.947,0-3.894-0.743-5.38-2.228c-2.971-2.972-2.971-7.788,0-10.759l4.057-4.057
		c2.972-2.97,7.788-2.97,10.759,0c2.971,2.972,2.971,7.788,0,10.759l-4.057,4.057C377.74,142.031,375.793,142.774,373.846,142.774z"
		/>
	<path style="fill:#541D04;" d="M265.31,165.089h-6.086c-4.202,0-7.608-3.405-7.608-7.608c0-4.202,3.405-7.608,7.608-7.608h6.086
		c4.203,0,7.608,3.405,7.608,7.608C272.917,161.684,269.511,165.089,265.31,165.089z"/>
	<path style="fill:#541D04;" d="M247.044,74.812c-1.451,0-2.916-0.414-4.213-1.279l-6.086-4.057
		c-3.495-2.331-4.441-7.054-2.11-10.549c2.331-3.495,7.055-4.441,10.549-2.11l6.086,4.057c3.495,2.331,4.441,7.054,2.11,10.549
		C251.915,73.623,249.503,74.812,247.044,74.812z"/>
	<path style="fill:#541D04;" d="M259.223,114.371c-4.203,0-7.608-3.405-7.608-7.608v-4.057c0-4.202,3.405-7.608,7.608-7.608
		c4.202,0,7.608,3.405,7.608,7.608v4.057C266.831,110.966,263.425,114.371,259.223,114.371z"/>
	<path style="fill:#541D04;" d="M119.242,161.032h-4.057c-4.202,0-7.608-3.405-7.608-7.608s3.405-7.608,7.608-7.608h4.057
		c4.202,0,7.608,3.405,7.608,7.608S123.443,161.032,119.242,161.032z"/>
	<path style="fill:#541D04;" d="M134.457,132.63c-4.202,0-7.608-3.405-7.608-7.608v-4.057c0-4.202,3.405-7.608,7.608-7.608
		c4.202,0,7.608,3.405,7.608,7.608v4.057C142.065,129.225,138.659,132.63,134.457,132.63z"/>
	<path style="fill:#541D04;" d="M130.397,79.883c-1.778,0-3.563-0.619-5.007-1.882l-8.115-7.101
		c-3.162-2.767-3.483-7.573-0.716-10.735c2.767-3.161,7.573-3.484,10.735-0.716l8.115,7.101c3.162,2.767,3.483,7.573,0.716,10.735
		C134.621,79.004,132.515,79.883,130.397,79.883z"/>
</g>
<g>
	<path style="fill:#537006;" d="M62.723,227.66c5.041-0.251,10.117-0.51,15.215-0.777V3.885c-5.165-0.39-10.237-0.802-15.215-1.24
		V227.66z"/>
	<path style="fill:#537006;" d="M185.682,220.779c5.098-0.292,10.171-0.58,15.215-0.864V8.52c-5.127-0.038-10.195-0.091-15.215-0.16
		V220.779z"/>
	<path style="fill:#537006;" d="M309.434,214.817c5.144-0.163,10.215-0.306,15.215-0.43V6.802
		c-5.041,0.158-10.115,0.308-15.215,0.45V214.817z"/>
	<path style="fill:#537006;" d="M438.258,2.321v215.342c5.524,0.739,10.536,1.589,15.049,2.551c0.108-0.539,0.166-1.096,0.166-1.668
		V2.321c0-0.417-0.04-0.824-0.097-1.224c-4.896,0.269-9.922,0.542-15.099,0.816C438.271,2.048,438.258,2.183,438.258,2.321z"/>
</g>
<path style="fill:#A6C1AD;" d="M101.998,469.397c-41.11,0-74.555-33.445-74.555-74.555s33.445-74.555,74.555-74.555
	s74.555,33.445,74.555,74.555S143.108,469.397,101.998,469.397z M101.998,335.502c-32.72,0-59.34,26.62-59.34,59.34
	s26.62,59.34,59.34,59.34s59.34-26.62,59.34-59.34S134.718,335.502,101.998,335.502z"/>
<path style="fill:#81B776;" d="M150.094,451.139c-7.404,0-14.526-1.216-21.196-3.431c-8.081,4.128-17.219,6.474-26.9,6.474
	c-32.72,0-59.34-26.62-59.34-59.34s26.62-59.34,59.34-59.34c0.311,0,0.618,0.019,0.927,0.023c5.294-5.186,11.43-9.514,18.191-12.743
	c-6.104-1.621-12.51-2.495-19.118-2.495c-41.11,0-74.555,33.445-74.555,74.555s33.445,74.555,74.555,74.555
	c18.66,0,35.727-6.907,48.817-18.277C150.573,451.123,150.335,451.139,150.094,451.139z"/>
<path style="fill:#A6C1AD;" d="M423.55,438.967c-33.838,0-61.369-27.531-61.369-61.369s27.531-61.369,61.369-61.369
	s61.369,27.531,61.369,61.369S457.388,438.967,423.55,438.967z M423.55,331.444c-25.449,0-46.153,20.704-46.153,46.153
	c0,25.449,20.704,46.153,46.153,46.153s46.153-20.704,46.153-46.153C469.703,352.148,448.999,331.444,423.55,331.444z"/>
<path style="fill:#81B776;" d="M466.153,413.068c-3.998,0-7.891-0.447-11.644-1.271c-8.194,7.425-19.057,11.954-30.959,11.954
	c-25.449,0-46.153-20.704-46.153-46.153c0-23.978,18.383-43.737,41.795-45.941c3.296-5.679,7.581-10.715,12.636-14.853
	c-2.709-0.367-5.468-0.574-8.276-0.574c-33.838,0-61.369,27.531-61.369,61.369s27.531,61.369,61.369,61.369
	c20.882,0,39.35-10.492,50.44-26.472C471.429,412.866,468.814,413.068,466.153,413.068z"/>
<path style="fill:#A6C1AD;" d="M256.18,512c-36.076,0-65.426-29.35-65.426-65.426s29.35-65.426,65.426-65.426
	s65.426,29.35,65.426,65.426S292.256,512,256.18,512z M256.18,396.363c-27.686,0-50.211,22.525-50.211,50.211
	c0,27.686,22.525,50.211,50.211,50.211s50.211-22.525,50.211-50.211C306.391,418.888,283.866,396.363,256.18,396.363z"/>
<path style="fill:#81B776;" d="M289.922,486.801c-1.2,0-2.389-0.048-3.572-0.12c-8.405,6.339-18.856,10.104-30.17,10.104
	c-27.686,0-50.211-22.525-50.211-50.211c0-21.837,14.017-40.453,33.524-47.348c4.142-7.114,9.741-13.273,16.392-18.07
	c-35.94,0.16-65.13,29.442-65.13,65.419c0,36.076,29.35,65.426,65.426,65.426c22.58,0,42.522-11.498,54.285-28.946
	C304.071,485.469,297.15,486.801,289.922,486.801z"/>
<g>
	<path style="fill:#92B515;" d="M249.08,479.541h-8.115c-4.202,0-7.608-3.405-7.608-7.608s3.405-7.608,7.608-7.608h8.115
		c4.202,0,7.608,3.405,7.608,7.608S253.281,479.541,249.08,479.541z"/>
	<path style="fill:#92B515;" d="M276.475,469.398c-2.536,0-5.015-1.267-6.458-3.577c-2.227-3.562-1.143-8.257,2.42-10.483
		l8.115-5.072c3.561-2.225,8.257-1.144,10.483,2.42c2.227,3.562,1.143,8.257-2.42,10.483l-8.115,5.072
		C279.246,469.025,277.851,469.398,276.475,469.398z"/>
</g>
<g>
</g>
<g>
</g>
<g>
</g>
<g>
</g>
<g>
</g>
<g>
</g>
<g>
</g>
<g>
</g>
<g>
</g>
<g>
</g>
<g>
</g>
<g>
</g>
<g>
</g>
<g>
</g>
<g>
</g>
</svg>
