<?xml version="1.0" encoding="iso-8859-1"?>
<!-- Generator: Adobe Illustrator 19.0.0, SVG Export Plug-In . SVG Version: 6.00 Build 0)  -->
<svg version="1.1" id="Capa_1" xmlns="http://www.w3.org/2000/svg" xmlns:xlink="http://www.w3.org/1999/xlink" x="0px" y="0px"
	 viewBox="0 0 512.001 512.001" style="enable-background:new 0 0 512.001 512.001;" xml:space="preserve">
<path style="fill:#D61D1D;" d="M130.502,300.272l34.533,207.655c0.391,2.351,2.425,4.074,4.808,4.074h172.315
	c2.383,0,4.418-1.723,4.808-4.074l34.275-206.103L130.502,300.272z"/>
<path style="fill:#A80C0C;" d="M244.834,483.67c-13.9,0-25.761-10.052-28.04-23.763l-26.486-159.266l-59.806-0.371l34.533,207.655
	c0.391,2.351,2.425,4.074,4.808,4.074h172.316c2.383,0,4.418-1.723,4.808-4.074L351,483.669H244.834V483.67z"/>
<path style="fill:#960909;" d="M256.602,348.932c-2.741,0-5.435-0.462-8.007-1.374l-117.133-41.515l-14.284-85.89
	c-0.957-5.751,1.38-11.452,6.101-14.878l121.124-87.892c3.401-2.467,7.411-3.77,11.599-3.77c4.189,0,8.2,1.304,11.599,3.77
	l121.123,87.892c4.721,3.425,7.058,9.127,6.101,14.88l-14.538,87.418l-115.855,40.049
	C261.913,348.491,259.278,348.932,256.602,348.932z"/>
<path style="fill:#A80C0C;" d="M256.602,348.932c-2.741,0-5.435-0.462-8.007-1.374l-117.133-41.515l-14.284-85.89
	c-0.957-5.751,1.38-11.452,6.101-14.878l121.124-87.892c3.401-2.467,7.411-3.77,11.599-3.77c4.189,0,8.2,1.304,11.599,3.77
	l121.123,87.892c4.721,3.425,7.058,9.127,6.101,14.88l-14.538,87.418l-115.855,40.049
	C261.913,348.491,259.278,348.932,256.602,348.932z"/>
<path style="fill:#890606;" d="M180.666,245.329c-0.957-5.751,1.38-11.452,6.101-14.878l118.325-85.861l-37.493-27.206
	c-3.399-2.467-7.409-3.77-11.599-3.77c-4.188,0-8.198,1.304-11.599,3.77l-121.124,87.892c-4.721,3.425-7.058,9.127-6.101,14.878
	l14.284,85.89l63.016,22.334L180.666,245.329z"/>
<path style="fill:#EFA348;" d="M256.602,346.884c-2.507,0-4.971-0.423-7.323-1.256l-15.294-5.42v-29.423
	c0-9.654-2.488-19.208-7.196-27.628l-4.359-7.797l8.144-3.67c8.025-3.616,16.581-5.45,25.427-5.45c7.89,0,15.614,1.483,22.958,4.408
	l7.738,3.082l-3.21,7.685c-2.95,7.065-4.446,14.534-4.446,22.2v36.786l-15.28,5.282C261.459,346.481,259.05,346.884,256.602,346.884
	z"/>
<path id="SVGCleanerId_0" style="fill:#EFA348;" d="M256.401,348.932c-2.507,0-4.98-0.285-7.332-1.118l-15.285-5.558v-29.423
	c0-1.971-0.109-3.996-0.324-6.017l-0.556-5.248l4.548-2.677c5.559-3.273,11.904-5.002,18.348-5.002
	c6.806,0,13.441,1.898,19.19,5.492l3.85,2.406l0.208,40.781l-15.399,5.308C261.347,348.672,258.849,348.932,256.401,348.932z"/>
<g>
	<path id="SVGCleanerId_0_1_" style="fill:#EFA348;" d="M256.401,348.932c-2.507,0-4.98-0.285-7.332-1.118l-15.285-5.558v-29.423
		c0-1.971-0.109-3.996-0.324-6.017l-0.556-5.248l4.548-2.677c5.559-3.273,11.904-5.002,18.348-5.002
		c6.806,0,13.441,1.898,19.19,5.492l3.85,2.406l0.208,40.781l-15.399,5.308C261.347,348.672,258.849,348.932,256.401,348.932z"/>
</g>
<path style="fill:#F7D772;" d="M263.649,347.875l10.543-3.634v-15.283c0-9.599-7.809-17.408-17.408-17.408
	s-17.408,7.809-17.408,17.408v15.331l9.693,3.525c1.829,0.648,3.732,0.958,5.667,1.067v-19.923c0-1.129,0.919-2.048,2.048-2.048
	c1.129,0,2.048,0.919,2.048,2.048v19.865C260.475,348.687,262.107,348.409,263.649,347.875z"/>
<g>
	<path style="fill:#EFA348;" d="M297.097,205.825c-22.67,0-42.314,16.137-46.708,38.371l-1.96,9.915v20.321l56.573,2.202
		l5.502-2.793c8.056-4.091,16.75-6.292,25.84-6.544l6.9-0.193l0.981-6.832c0.324-2.253,0.488-4.551,0.488-6.831
		C344.713,227.186,323.352,205.825,297.097,205.825z"/>
	<path style="fill:#EFA348;" d="M382.241,266.062c-11.251-13.553-27.779-21.325-45.345-21.325c-32.467,0-58.88,26.413-58.88,58.88
		v39.307l102.269-35.352l6.362-38.256L382.241,266.062z"/>
	<path style="fill:#EFA348;" d="M218.742,272.117c-10.741-11.544-25.9-18.164-41.59-18.164c0,0-0.477,0.02-0.674,0.023
		l-10.106,0.135l1.96-9.915c4.394-22.233,24.037-38.37,46.708-38.37c26.255,0,47.616,21.361,47.616,47.616
		c0,2.28-0.164,4.579-0.488,6.831l-0.981,6.832l-6.9,0.193c-9.09,0.253-17.784,2.453-25.84,6.544l-5.502,2.793L218.742,272.117z"/>
	<path style="fill:#EFA348;" d="M131.462,306.043l-4.342-26.109l3.995-4.173c11.048-14.51,27.828-22.832,46.038-22.832
		c31.902,0,57.856,25.954,57.856,57.856l0.403,32.101L131.462,306.043z"/>
</g>
<path style="fill:#68594E;" d="M347.673,246.791c-0.26-0.05-0.519-0.101-0.779-0.147l-4.93-0.873l-1.471-4.785
	c-0.923-3.001-2.152-5.902-3.653-8.624l-1.196-2.169l0.236-2.822l0.011-0.067l19.307-213.349c0.254-2.784,1.585-5.286,3.75-7.047
	c1.824-1.487,4.125-2.308,6.473-2.308c0.401,0,0.808,0.024,1.209,0.071l12.653,1.451c2.777,0.318,5.247,1.709,6.957,3.917
	c1.71,2.208,2.44,4.946,2.056,7.712l-32.033,230.707L347.673,246.791z"/>
<g>
	<path style="fill:#5B4A3F;" d="M366.627,4.669c-0.401-0.047-0.808-0.071-1.209-0.071c-2.348,0-4.649,0.821-6.473,2.308
		c-2.165,1.762-3.496,4.263-3.75,7.047l-19.306,213.349l-0.011,0.067l-0.236,2.822l1.196,2.169c1.501,2.722,2.73,5.623,3.653,8.624
		l1.471,4.785l4.428,0.784l26.556-241.16L366.627,4.669z"/>
	<polygon style="fill:#5B4A3F;" points="350.423,66.716 352.452,44.273 384.107,47.902 381.008,70.222 	"/>
</g>
<path style="fill:#68594E;" d="M304.628,209.537c-2.14-0.36-4.378-0.567-6.65-0.617l-7.825-0.17l-4.73-198.223
	c-0.067-2.79,0.97-5.428,2.92-7.426C290.299,1.099,292.911,0,295.702,0h12.757c2.79,0,5.402,1.1,7.353,3.096
	c1.955,2.004,2.992,4.642,2.925,7.433l-4.786,200.576L304.628,209.537z"/>
<g>
	<path style="fill:#5B4A3F;" d="M302.081,0.001h-6.379c-2.791,0-5.403,1.1-7.358,3.101c-1.95,1.999-2.987,4.637-2.92,7.426
		l4.73,198.223l7.825,0.17c1.387,0.03,2.756,0.126,4.102,0.273V0.001z"/>
	<polygon style="fill:#5B4A3F;" points="286.687,63.489 286.15,40.961 318.011,40.961 317.474,63.489 	"/>
</g>
<polygon style="fill:#FFFFFF;" points="354.454,462.9 365.164,398.498 146.837,398.498 157.547,462.9 "/>
<polygon style="fill:#EADFCE;" points="146.837,398.498 157.547,462.9 217.041,462.9 206.331,398.498 "/>
<g>
	<path style="fill:#F7D772;" d="M216.576,336.21v-25.425c0-21.738-17.685-39.424-39.424-39.424
		c-20.175,0-37.025,15.114-39.195,35.157l-0.208,1.754l15.238,5.401l0.108-4.69c0.057-0.265,0.103-0.536,0.133-0.812
		c1.324-12.229,11.609-21.45,23.924-21.45c13.269,0,24.064,10.795,24.064,24.064v19.981L216.576,336.21z"/>
	<path style="fill:#F7D772;" d="M336.897,263.169c-22.303,0-40.448,18.145-40.448,40.448v32.936l15.36-5.309v-27.626
		c0-13.833,11.255-25.088,25.088-25.088s25.088,11.255,25.088,25.088c0,0.593-0.021,5.345-0.062,10.302l15.39-5.32
		c0.021-2.527,0.033-4.438,0.033-4.983C377.345,281.314,359.199,263.169,336.897,263.169z"/>
	<path style="fill:#F7D772;" d="M336.897,287.526c-9.599,0-17.408,7.809-17.408,17.408v23.654l15.36-5.309v-18.345
		c0-1.129,0.919-2.048,2.048-2.048c1.129,0,2.048,0.919,2.048,2.048v16.929l15.36-5.309v-11.619
		C354.305,295.335,346.495,287.526,336.897,287.526z"/>
	<path style="fill:#F7D772;" d="M194.561,328.407v-16.306c0-9.599-7.809-17.408-17.408-17.408s-17.408,7.809-17.408,17.408v3.966
		l15.36,5.444v-9.41c0-1.129,0.919-2.048,2.048-2.048s2.048,0.919,2.048,2.048v10.862L194.561,328.407z"/>
	<path style="fill:#F7D772;" d="M387.915,261.691c-10.05-12.2-24.175-20.383-39.594-23.114
		c-6.906-22.454-27.574-37.873-51.361-37.873c-15.277,0-29.755,6.588-39.847,17.695c-10.057-12.056-25.182-19.743-42.073-19.743
		c-28.363,0-51.757,21.666-54.511,49.316c-13.708,3.655-26.073,11.73-34.878,23.135l3.668,22.053l6.885-10.37
		c0.729-1.098,1.478-2.183,2.305-3.209c9.483-11.758,23.457-18.461,38.643-18.461c15.451,0,29.274,7.094,38.39,18.194
		c0.186,0.48,1.81,2.787,2.486,3.308c5.536,8.01,8.788,17.711,8.788,28.162v29.055l15.36,5.444v-34.499
		c0-2.326-0.128-4.62-0.368-6.883c4.295-2.526,9.136-3.869,14.192-3.869c5.31,0,10.396,1.464,14.848,4.247v41.122l15.36-5.309
		v-36.475c0-27.949,22.739-50.688,50.688-50.688c16.128,0,31.444,7.789,40.969,20.834l6.488,9.344L387.915,261.691z
		 M186.704,246.469c-3.119-0.461-6.307-0.708-9.552-0.708c-0.262,0-0.522,0.02-0.783,0.024
		c3.575-18.086,19.552-31.768,38.671-31.768c21.739,0,39.424,17.686,39.424,39.424c0,1.905-0.136,3.798-0.404,5.667
		c-3.315,0.092-6.6,0.42-9.836,0.976v-6.643c0-16.092-13.092-29.184-29.184-29.184C201.352,224.257,189.84,233.733,186.704,246.469z
		 M228.865,264.616c-1.394,0.595-2.77,1.233-4.125,1.921c-6.426-6.906-14.33-12.411-23.206-16.015
		c1.345-6.224,6.886-10.905,13.507-10.905c7.623,0,13.824,6.201,13.824,13.824V264.616z M272.729,288.009
		c-5.252-2.196-10.903-3.336-16.728-3.336c-6.216,0-12.229,1.3-17.77,3.793c-1.185-3.232-2.631-6.338-4.292-9.307
		c6.894-3.105,14.393-4.726,22.062-4.726c6.846,0,13.617,1.315,19.919,3.824C274.61,281.392,273.545,284.653,272.729,288.009z
		 M284.16,263.904v-9.439c0-7.058,5.742-12.8,12.8-12.8c3.409,0,6.586,1.379,8.927,3.658
		C297.363,249.875,289.947,256.24,284.16,263.904z M320.814,239.559c-5.065-8.056-14.026-13.254-23.853-13.254
		c-13.309,0-24.483,9.283-27.406,21.712c-0.544-5.504-1.906-10.769-3.961-15.676c7.156-10.107,18.884-16.275,31.367-16.275
		c15.046,0,28.347,8.63,34.621,21.736C327.901,238.096,324.301,238.682,320.814,239.559z"/>
</g>
<g>
</g>
<g>
</g>
<g>
</g>
<g>
</g>
<g>
</g>
<g>
</g>
<g>
</g>
<g>
</g>
<g>
</g>
<g>
</g>
<g>
</g>
<g>
</g>
<g>
</g>
<g>
</g>
<g>
</g>
</svg>
