<?xml version="1.0" encoding="iso-8859-1"?>
<!-- Generator: Adobe Illustrator 19.0.0, SVG Export Plug-In . SVG Version: 6.00 Build 0)  -->
<svg version="1.1" id="Capa_1" xmlns="http://www.w3.org/2000/svg" xmlns:xlink="http://www.w3.org/1999/xlink" x="0px" y="0px"
	 viewBox="0 0 512 512" style="enable-background:new 0 0 512 512;" xml:space="preserve">
<path style="fill:#B78555;" d="M440.032,382.984v-58.872h46.265v58.872c0,3.826-3.102,6.927-6.927,6.927h-32.41
	C443.134,389.911,440.032,386.809,440.032,382.984z"/>
<path id="SVGCleanerId_0" style="fill:#B78555;" d="M25.703,382.984v-58.872h46.265v58.872c0,3.826-3.102,6.927-6.927,6.927H32.63
	C28.805,389.911,25.703,386.809,25.703,382.984z"/>
<rect id="SVGCleanerId_1" x="25.703" y="324.112" style="fill:#A06635;" width="46.265" height="35.47"/>
<rect x="440.032" y="324.112" style="fill:#A06635;" width="46.265" height="35.47"/>
<path style="fill:#E3DAD0;" d="M488.116,263.31L405.47,132.932c-4.368-6.891-11.444-10.843-19.414-10.843h-32.885h-11.324
	l66.608,174.527l1.677,3.85h26.439h32.131c8.455,0,15.995-4.533,20.172-12.123C493.269,280.35,492.986,270.992,488.116,263.31z"/>
<path style="fill:#F7EDE3;" d="M259.202,300.465c-8.455,0-15.995-4.533-20.172-12.125c-4.395-7.991-4.112-17.348,0.758-25.03
	l82.646-130.378c4.368-6.891,11.445-10.843,19.414-10.843s15.045,3.952,19.414,10.843l82.646,130.378
	c4.87,7.683,5.153,17.04,0.757,25.031c-4.176,7.592-11.716,12.123-20.172,12.123H259.202z"/>
<path style="fill:#513E3D;" d="M297.124,300.465v-64.161c0-7.706,6.269-13.975,13.975-13.975h61.496
	c7.706,0,13.975,6.269,13.975,13.975v64.161H297.124z"/>
<path style="fill:#E3DAD0;" d="M380.164,263.31l-82.646-130.378c-4.368-6.891-11.444-10.843-19.414-10.843h-32.885h-11.324
	l66.608,174.527l1.677,3.85h26.439h32.131c8.455,0,15.995-4.533,20.172-12.123C385.317,280.35,385.034,270.992,380.164,263.31z"/>
<path style="fill:#F7EDE3;" d="M151.25,300.465c-8.455,0-15.995-4.533-20.172-12.125c-4.395-7.991-4.112-17.348,0.758-25.03
	l82.646-130.378c4.368-6.891,11.445-10.843,19.414-10.843c7.969,0,15.045,3.952,19.414,10.843l82.646,130.378
	c4.87,7.683,5.153,17.04,0.757,25.031c-4.176,7.592-11.716,12.123-20.172,12.123H151.25z"/>
<path style="fill:#513E3D;" d="M189.173,300.465v-64.161c0-7.706,6.269-13.975,13.975-13.975h61.496
	c7.706,0,13.975,6.269,13.975,13.975v64.161H189.173z"/>
<path style="fill:#E3DAD0;" d="M272.212,263.31l-82.646-130.378c-4.368-6.891-11.444-10.843-19.414-10.843h-32.885h-11.324
	l66.608,174.527l1.677,3.85h26.439h32.131c8.455,0,15.995-4.533,20.172-12.123C277.365,280.35,277.082,270.992,272.212,263.31z"/>
<path style="fill:#F7EDE3;" d="M43.298,300.465c-8.455,0-15.995-4.533-20.172-12.125c-4.395-7.991-4.112-17.348,0.758-25.03
	l82.646-130.378c4.368-6.891,11.445-10.843,19.414-10.843s15.045,3.952,19.414,10.843l82.646,130.378
	c4.87,7.683,5.153,17.04,0.757,25.031c-4.176,7.592-11.716,12.123-20.172,12.123H43.298z"/>
<path style="fill:#513E3D;" d="M81.221,300.465v-64.161c0-7.706,6.269-13.975,13.975-13.975h61.496
	c7.706,0,13.975,6.269,13.975,13.975v64.161H81.221z"/>
<g>
	<path id="SVGCleanerId_0_1_" style="fill:#B78555;" d="M25.703,382.984v-58.872h46.265v58.872c0,3.826-3.102,6.927-6.927,6.927
		H32.63C28.805,389.911,25.703,386.809,25.703,382.984z"/>
</g>
<path style="fill:#C69C6D;" d="M9.191,339.534c-5.069,0-9.191-4.124-9.191-9.191v-21.714c0-5.069,4.124-9.191,9.191-9.191h493.617
	c5.069,0,9.191,4.124,9.191,9.191v21.713c0,5.069-4.124,9.191-9.191,9.191H9.191V339.534z"/>
<g>
	<rect id="SVGCleanerId_1_1_" x="25.703" y="324.112" style="fill:#A06635;" width="46.265" height="35.47"/>
</g>
<path style="fill:#B78555;" d="M81.159,320.514c-5.069,0-9.191-4.124-9.191-9.191v-11.885H9.191c-5.069,0-9.191,4.124-9.191,9.191
	v21.713c0,5.069,4.124,9.191,9.191,9.191h493.617c5.069,0,9.191-4.124,9.191-9.191v-9.829H81.159V320.514z"/>
<g>
</g>
<g>
</g>
<g>
</g>
<g>
</g>
<g>
</g>
<g>
</g>
<g>
</g>
<g>
</g>
<g>
</g>
<g>
</g>
<g>
</g>
<g>
</g>
<g>
</g>
<g>
</g>
<g>
</g>
</svg>
