<?xml version="1.0" encoding="iso-8859-1"?>
<!-- Generator: Adobe Illustrator 19.0.0, SVG Export Plug-In . SVG Version: 6.00 Build 0)  -->
<svg version="1.1" id="Capa_1" xmlns="http://www.w3.org/2000/svg" xmlns:xlink="http://www.w3.org/1999/xlink" x="0px" y="0px"
	 viewBox="0 0 512 512" style="enable-background:new 0 0 512 512;" xml:space="preserve">
<rect x="120.337" y="346.958" style="fill:#DDBA76;" width="192.436" height="18.354"/>
<path style="fill:#68594E;" d="M25.945,16.178c-4.377-0.962-7.166-5.264-6.257-9.652l0,0c0.909-4.389,5.178-7.231,9.576-6.374
	l451.047,87.756c4.688,0.971,8.532,4.274,10.232,9.031c0.446,1.248,0.686,2.568,0.717,3.893c0.118,5.023-2.257,9.458-6.277,12.065
	c-3.056,1.981-6.675,2.672-10.193,1.943L25.945,16.178z"/>
<path style="fill:#56483E;" d="M270.776,47.14c-0.735,0.103-1.472,0.175-2.216,0.175h-100.96l92.937,20.428l130.604,2.814
	L270.776,47.14z"/>
<g>
	<path style="fill:#EFA348;" d="M228.008,337.628l1.188-66.21c3.456-27.01,26.603-47.378,53.842-47.378
		c27.24,0,50.387,20.368,53.843,47.378l1.188,66.21H228.008z"/>
	<path style="fill:#EFA348;" d="M250.213,279.716l2.755-10.361c3.62-13.614,15.986-23.124,30.07-23.124
		c14.083,0,26.448,9.508,30.071,23.124l2.755,10.361H250.213z"/>
	<polygon style="fill:#EFA348;" points="232.374,301.461 232.374,57.645 114.922,57.645 114.922,299.048 	"/>
	<polygon style="fill:#EFA348;" points="232.374,301.461 232.374,57.645 114.922,57.645 114.922,299.048 	"/>
</g>
<g>
	<path style="fill:#E28929;" d="M207.058,261.246c8.117-1.341,16.972-1.905,25.316-1.805v-34.181
		c-5.533,5.347-10.254,11.615-13.922,18.662c-15.547,0.109-30.343,5.061-42.626,14.131c-12.438-9.174-27.403-14.133-43.08-14.133
		c-6.148,0-12.117,0.774-17.824,2.214v40.845c5.214-3.132,11.311-4.938,17.824-4.938c13.086,0,24.5,7.279,30.417,17.999
		l12.909,0.266C178.024,282.387,187.767,264.435,207.058,261.246z"/>
	<polygon style="fill:#E28929;" points="232.374,68.072 232.374,57.645 114.922,57.645 114.922,66.963 	"/>
</g>
<path style="fill:#C95039;" d="M62.466,285.73c0.056-0.808,0.14-1.675,0.209-2.379c0.28-2.849,0.545-5.537-0.257-7.47
	c-0.754-1.819-2.786-3.469-4.936-5.215c-0.647-0.525-1.465-1.193-2.167-1.811l-3.175-2.798c-2.039-1.797-2.039-4.974,0-6.771
	l3.175-2.798c0.701-0.618,1.52-1.286,2.168-1.812c2.148-1.745,4.18-3.395,4.935-5.215c0.801-1.932,0.537-4.62,0.257-7.465
	c-0.069-0.704-0.154-1.573-0.21-2.382l-0.296-4.274c-0.189-2.732,2.08-5.001,4.812-4.812l4.274,0.296
	c0.808,0.056,1.675,0.14,2.379,0.209c1.447,0.142,2.81,0.277,4.089,0.277c1.429,0,2.503-0.17,3.38-0.534
	c1.819-0.754,3.469-2.785,5.215-4.935c0.525-0.647,1.193-1.465,1.811-2.167l2.798-3.175c1.797-2.039,4.974-2.039,6.771,0
	l2.798,3.175c0.618,0.701,1.286,1.52,1.812,2.168c1.745,2.148,3.395,4.18,5.215,4.935c0.402,0.166,0.884,0.293,1.475,0.386
	l6.949,1.103v33.667l-4.874,2.182c-10.103,4.523-18.751,12.304-24.354,21.91l-2.624,4.501l-5.192-0.44
	c-0.387-0.033-0.785-0.049-1.182-0.049c-1.28,0-2.643,0.134-4.086,0.276c-0.704,0.069-1.573,0.154-2.382,0.21l-4.274,0.296
	c-2.732,0.189-5.001-2.08-4.812-4.812L62.466,285.73z"/>
<path style="fill:#EFA348;" d="M272.705,319.131l-0.711-7.46c-0.659-6.921-2.641-13.547-5.889-19.695l-3.88-7.342l7.372-3.824
	c4.422-2.294,9.364-3.507,14.293-3.507c8.521,0,16.773,3.572,22.637,9.801l3.693,3.923l-2.111,4.957
	c-2.129,4.998-3.469,10.275-3.984,15.687l-0.71,7.461h-30.71V319.131z"/>
<path style="fill:#F4F1E6;" d="M333.217,260.15c-7.476-21.285-27.658-35.588-50.227-35.599l-10.928,0.002l2.808-10.391
	c2.204-8.157,6.08-15.682,11.52-22.366c9.747-11.978,34.828-22.176,54.151-28.621c3.946-1.317,7.97-1.985,11.962-1.985
	c7.998,0,15.48,2.649,21.637,7.66c9.351,7.61,13.865,19.181,12.382,31.746c-2.386,20.23-7.278,46.857-17.024,58.834
	c-0.395,0.483-0.799,0.956-1.205,1.426l-2.728,3.156l-4.158-0.33c-1.564-0.125-2.958-0.184-4.262-0.184
	c-4.708,0-9.413,0.632-13.981,1.876l-7.402,2.016L333.217,260.15z"/>
<path style="fill:#FF7900;" d="M328.576,250.335c-5.299-8.764-12.969-15.791-22.185-20.324l-7.479-3.678l3.76-7.437
	c4.502-8.905,13.491-14.435,23.456-14.435c14.487,0,26.272,11.785,26.272,26.272c0,9.186-4.652,17.542-12.443,22.352l-7.079,4.37
	L328.576,250.335z"/>
<path style="fill:#DBC9B2;" d="M302.877,208.284c9.747-11.978,34.828-22.176,54.151-28.621c3.946-1.317,7.97-1.985,11.962-1.985
	c5.137,0,10.06,1.098,14.557,3.208c-2.142-4.606-5.31-8.703-9.409-12.037c-6.157-5.011-13.639-7.66-21.637-7.66
	c-3.991,0-8.016,0.668-11.962,1.985c-19.323,6.445-44.403,16.643-54.151,28.621c-5.44,6.686-9.316,14.21-11.52,22.366l-2.808,10.391
	l10.928-0.002c3.408,0.002,6.761,0.335,10.026,0.963C295.306,219.321,298.601,213.539,302.877,208.284z"/>
<path style="fill:#FF5B00;" d="M319.162,235.384c4.502-8.905,13.491-14.435,23.456-14.435c2.937,0,5.759,0.491,8.399,1.385
	c-3.512-10.379-13.338-17.873-24.888-17.873c-9.966,0-18.953,5.532-23.456,14.435l-3.76,7.437l7.479,3.678
	c4.215,2.073,8.087,4.691,11.576,7.735L319.162,235.384z"/>
<g>
	<path style="fill:#EFA348;" d="M77.715,319.131l1.188-9.288c3.456-27.01,26.603-47.378,53.842-47.378
		c27.24,0,50.387,20.368,53.843,47.378l1.188,9.288H77.715z"/>
	<path style="fill:#EFA348;" d="M99.92,319.131l2.755-10.361c3.62-13.614,15.986-23.124,30.07-23.124
		c14.083,0,26.448,9.508,30.071,23.124l2.755,10.361H99.92z"/>
	<path style="fill:#EFA348;" d="M186.464,319.131l2.755-10.361c3.62-13.614,15.986-23.124,30.07-23.124
		c14.083,0,26.448,9.508,30.071,23.124l2.755,10.361H186.464z"/>
	<path style="fill:#EFA348;" d="M302.111,319.131l1.188-9.288c3.456-27.01,26.603-47.378,53.842-47.378
		c27.24,0,50.387,20.368,53.843,47.378l1.188,9.288H302.111z"/>
	<path style="fill:#EFA348;" d="M324.625,319.131l2.755-10.361c3.62-13.614,15.986-23.124,30.07-23.124
		c14.083,0,26.448,9.508,30.071,23.124l2.755,10.361H324.625z"/>
</g>
<path style="fill:#EFE5AB;" d="M171.175,503.801V463.05h151.246v40.752c0,4.528-3.671,8.198-8.198,8.198h-134.85
	C174.845,512,171.175,508.329,171.175,503.801z"/>
<path style="fill:#DDBA76;" d="M223.167,503.801V463.05h-51.991v40.752c0,4.528,3.671,8.198,8.198,8.198h51.991
	C226.836,512,223.167,508.329,223.167,503.801z"/>
<g>
	<path style="fill:#F7D772;" d="M226.399,324.488c-3.514,0-6.48-2.346-7.418-5.557c-0.938,3.211-3.904,5.557-7.418,5.557
		c-4.267,0-7.727-3.46-7.727-7.727c0-8.351,6.794-15.145,15.145-15.145s15.145,6.794,15.145,15.145
		C234.126,321.029,230.666,324.488,226.399,324.488z"/>
	<path style="fill:#F7D772;" d="M295.787,324.488c-3.514,0-6.48-2.346-7.418-5.557c-0.938,3.211-3.904,5.557-7.418,5.557
		c-4.267,0-7.727-3.46-7.727-7.727c0-8.351,6.794-15.145,15.145-15.145c8.352,0,15.145,6.794,15.145,15.145
		C303.514,321.029,300.056,324.488,295.787,324.488z"/>
	<path style="fill:#F7D772;" d="M231.859,269.37c-4.267,0-7.727-3.46-7.727-7.727V58.16c0-4.267,3.46-7.727,7.727-7.727
		c4.267,0,7.727,3.46,7.727,7.727v203.483C239.586,265.911,236.126,269.37,231.859,269.37z"/>
	<path style="fill:#F7D772;" d="M115.437,270.398c-4.267,0-7.727-3.46-7.727-7.727V58.16c0-4.267,3.46-7.727,7.727-7.727
		c4.267,0,7.727,3.46,7.727,7.727v204.511C123.164,266.939,119.705,270.398,115.437,270.398z"/>
	<path style="fill:#F7D772;" d="M203.011,270.398c-4.267,0-7.727-3.46-7.727-7.727V59.19c0-4.267,3.46-7.727,7.727-7.727
		c4.267,0,7.727,3.46,7.727,7.727v203.481C210.738,266.939,207.279,270.398,203.011,270.398z"/>
	<path style="fill:#F7D772;" d="M144.285,268.353c-4.267,0-7.727-3.46-7.727-7.727V59.19c0-4.267,3.46-7.727,7.727-7.727
		s7.727,3.46,7.727,7.727v201.436C152.012,264.894,148.552,268.353,144.285,268.353z"/>
	<path style="fill:#F7D772;" d="M173.648,285.853c-4.267,0-7.727-3.46-7.727-7.727V58.092c0-4.267,3.46-7.727,7.727-7.727
		c4.267,0,7.727,3.46,7.727,7.727v220.033C181.375,282.393,177.916,285.853,173.648,285.853z"/>
</g>
<g>
	<path style="fill:#E8BB3F;" d="M107.71,248.353v14.318c0,4.267,3.46,7.727,7.727,7.727c4.267,0,7.727-3.46,7.727-7.727V244.57
		C117.811,245.277,112.634,246.545,107.71,248.353z"/>
	<path style="fill:#E8BB3F;" d="M195.284,247.851v14.821c0,4.267,3.46,7.727,7.727,7.727c4.267,0,7.727-3.46,7.727-7.727v-18.28
		C205.435,244.983,200.259,246.146,195.284,247.851z"/>
	<path style="fill:#E8BB3F;" d="M136.558,244.03v16.596c0,4.267,3.46,7.727,7.727,7.727s7.727-3.46,7.727-7.727v-14.119
		C147.006,245.137,141.832,244.302,136.558,244.03z"/>
	<path style="fill:#E8BB3F;" d="M175.825,258.053c-3.149-2.322-6.461-4.373-9.905-6.143v26.216c0,4.267,3.46,7.727,7.727,7.727
		c4.267,0,7.727-3.46,7.727-7.727v-23.774C179.476,255.5,177.621,256.727,175.825,258.053z"/>
</g>
<path style="fill:#F7D772;" d="M107.71,262.671V58.16V262.671z"/>
<g>
	<path style="fill:#E8BB3F;" d="M107.71,58.16v8.735l15.454,0.146V58.16c0-0.174-0.014-0.344-0.026-0.515h-15.403
		C107.724,57.816,107.71,57.986,107.71,58.16z"/>
	<path style="fill:#E8BB3F;" d="M136.558,59.19v7.976l15.454,0.146V59.19c0-0.53-0.054-1.046-0.156-1.545h-15.144
		C136.611,58.144,136.558,58.661,136.558,59.19z"/>
	<path style="fill:#E8BB3F;" d="M165.921,58.092v9.352l15.454,0.146v-9.498c0-0.151-0.014-0.299-0.023-0.447h-15.409
		C165.934,57.793,165.921,57.941,165.921,58.092z"/>
	<path style="fill:#E8BB3F;" d="M224.132,58.16v9.833l15.454,0.146V58.16c0-0.174-0.014-0.344-0.026-0.515h-15.403
		C224.146,57.816,224.132,57.986,224.132,58.16z"/>
	<path style="fill:#E8BB3F;" d="M195.284,59.19v8.531l15.454,0.146V59.19c0-0.53-0.054-1.046-0.156-1.545h-15.144
		C195.338,58.144,195.284,58.661,195.284,59.19z"/>
</g>
<path style="fill:#7F7167;" d="M23.442,56.487c-4.481-0.055-8.084-3.703-8.084-8.184l0,0c0-4.482,3.605-8.13,8.086-8.184
	l459.472-5.494c4.787,0,9.221,2.455,11.85,6.77c0.689,1.131,1.193,2.377,1.492,3.667c1.133,4.895-0.294,9.719-3.702,13.087
	c-2.591,2.559-5.995,3.97-9.587,3.97L23.442,56.487z"/>
<g>
	<path style="fill:#F7D772;" d="M132.745,278.435c-21.133,0-38.327,17.193-38.327,38.327c0,4.267,3.46,7.727,7.727,7.727
		c4.267,0,7.727-3.46,7.727-7.727c0-12.612,10.261-22.872,22.872-22.872s22.872,10.261,22.872,22.872
		c0,4.267,3.46,7.727,7.727,7.727s7.727-3.46,7.727-7.727C171.072,295.628,153.879,278.435,132.745,278.435z"/>
	<path style="fill:#F7D772;" d="M132.745,301.616c-8.35,0-15.145,6.794-15.145,15.145c0,4.267,3.46,7.727,7.727,7.727
		c3.514,0,6.48-2.346,7.418-5.556c0.938,3.21,3.904,5.556,7.418,5.556c4.267,0,7.727-3.46,7.727-7.727
		C147.891,308.41,141.096,301.616,132.745,301.616z"/>
</g>
<path style="fill:#E8BB3F;" d="M224.132,234.752v26.891c0,4.267,3.46,7.727,7.727,7.727c4.267,0,7.727-3.46,7.727-7.727v-42.491
	C233.711,223.496,228.494,228.741,224.132,234.752z"/>
<g>
	<path style="fill:#F7D772;" d="M357.141,255.253c-5.588,0-10.998,0.762-16.148,2.166c-8.524-24.266-31.677-41.11-58.033-41.11
		c-25.7,0-48.252,15.633-57.369,39.305c-2.173-0.234-4.378-0.361-6.612-0.361c-16.316,0-31.688,6.366-43.146,17.669
		c-11.106-10.918-26.321-17.669-43.088-17.669c-33.915,0-61.508,27.592-61.508,61.508c0,4.267,3.46,7.727,7.727,7.727
		c4.267,0,7.727-3.46,7.727-7.727c0-25.394,20.659-46.054,46.054-46.054s46.054,20.659,46.054,46.054
		c0,4.267,3.46,7.727,7.727,7.727c0.314,0,0.622-0.025,0.927-0.061c0.305,0.036,0.613,0.061,0.927,0.061
		c4.267,0,7.727-3.46,7.727-7.727c0-12.612,10.261-22.872,22.872-22.872c12.612,0,22.872,10.261,22.872,22.872
		c0,4.267,3.46,7.727,7.727,7.727s7.727-3.46,7.727-7.727c0-21.133-17.193-38.327-38.327-38.327
		c-11.964,0-22.661,5.513-29.695,14.128c-1.099-2.559-2.368-5.029-3.791-7.396c8.691-9.222,20.698-14.459,33.486-14.459
		c25.394,0,46.054,20.659,46.054,46.054c0,4.267,3.46,7.727,7.727,7.727s7.727-3.46,7.727-7.727c0-10.336-2.574-20.077-7.098-28.637
		c3.224-1.672,6.813-2.581,10.497-2.581c6.349,0,12.336,2.645,16.63,7.203c-3.142,7.382-4.885,15.499-4.885,24.015
		c0,4.267,3.46,7.727,7.727,7.727s7.727-3.46,7.727-7.727c0-25.394,20.659-46.054,46.054-46.054
		c25.393,0,46.054,20.659,46.054,46.054c0,4.267,3.46,7.727,7.727,7.727s7.727-3.46,7.727-7.727
		C418.648,282.845,391.056,255.253,357.141,255.253z M283.888,270.089c-6.879,0-13.575,1.857-19.427,5.306
		c-1.134-1.247-2.328-2.437-3.561-3.586c2.646-9.83,11.546-16.865,22.06-16.865c12.334,0,22.413,9.815,22.851,22.045
		C299.467,272.556,291.846,270.089,283.888,270.089z M319.953,267.81c-4.413-16.295-19.321-28.32-36.992-28.32
		c-15.664,0-29.207,9.318-35.137,22.967c-2.264-1.207-4.612-2.273-7.032-3.194c7.276-16.639,23.627-27.499,42.167-27.499
		c20.031,0,37.592,12.987,43.733,31.588C324.348,264.694,322.094,266.18,319.953,267.81z"/>
	<path style="fill:#F7D772;" d="M357.141,278.435c-21.133,0-38.327,17.193-38.327,38.327c0,4.267,3.46,7.727,7.727,7.727
		s7.727-3.46,7.727-7.727c0-12.612,10.261-22.872,22.872-22.872c12.612,0,22.872,10.261,22.872,22.872
		c0,4.267,3.46,7.727,7.727,7.727s7.727-3.46,7.727-7.727C395.467,295.628,378.275,278.435,357.141,278.435z"/>
	<path style="fill:#F7D772;" d="M357.141,301.616c-8.35,0-15.145,6.794-15.145,15.145c0,4.267,3.46,7.727,7.727,7.727
		c3.514,0,6.48-2.346,7.418-5.556c0.938,3.21,3.904,5.556,7.418,5.556c4.267,0,7.727-3.46,7.727-7.727
		C372.286,308.41,365.492,301.616,357.141,301.616z"/>
</g>
<path style="fill:#FCF7C5;" d="M222.882,486.037c-76.293,0-138.395-61.931-138.675-138.161h-8.025
	c-8.209,0-14.888-6.678-14.888-14.888c0-8.209,6.678-14.888,14.888-14.888h341.23c8.209,0,14.888,6.678,14.888,14.888
	c0,8.209-6.678,14.888-14.888,14.888h-8.025c-0.28,76.229-62.382,138.161-138.675,138.161H222.882z"/>
<path style="fill:#F4DE9F;" d="M299.418,347.876H133.52h-8.025c-8.209,0-14.888-6.678-14.888-14.888
	c0-8.209,6.678-14.888,14.888-14.888H76.182c-8.209,0-14.888,6.678-14.888,14.888c0,8.209,6.678,14.888,14.888,14.888h8.025
	c0.28,76.229,62.382,138.161,138.675,138.161h47.831c0.247,0,0.493-0.008,0.741-0.009c-70.128-0.37-128.102-53.056-136.804-120.942
	h164.768c4.753,0,8.605-3.852,8.605-8.605S304.17,347.876,299.418,347.876z"/>
<path style="fill:#5B4A3F;" d="M492.557,58.15c2.633-2.602,4.078-6.076,4.078-9.777H15.363c0.037,4.449,3.622,8.06,8.081,8.115
	L482.97,62.12C486.561,62.12,489.965,60.71,492.557,58.15z"/>
<g>
</g>
<g>
</g>
<g>
</g>
<g>
</g>
<g>
</g>
<g>
</g>
<g>
</g>
<g>
</g>
<g>
</g>
<g>
</g>
<g>
</g>
<g>
</g>
<g>
</g>
<g>
</g>
<g>
</g>
</svg>
