<?xml version="1.0" encoding="iso-8859-1"?>
<!-- Generator: Adobe Illustrator 19.0.0, SVG Export Plug-In . SVG Version: 6.00 Build 0)  -->
<svg version="1.1" id="Capa_1" xmlns="http://www.w3.org/2000/svg" xmlns:xlink="http://www.w3.org/1999/xlink" x="0px" y="0px"
	 viewBox="0 0 511.968 511.968" style="enable-background:new 0 0 511.968 511.968;" xml:space="preserve">
<path style="fill:#607D8B;" d="M480,224.002H10.667C4.776,224.002,0,228.778,0,234.669c0,135.494,109.839,245.333,245.333,245.333
	s245.333-109.839,245.333-245.333C490.667,228.778,485.891,224.002,480,224.002z"/>
<g>
	<ellipse style="fill:#FAFAFA;" cx="245.333" cy="234.669" rx="234.667" ry="64"/>
	<path style="fill:#FAFAFA;" d="M480,234.669c0,11.733-11.733,22.827-32,32.427c-40.533,18.773-116.053,31.573-202.667,31.573
		S83.2,285.869,42.667,267.095c-20.267-9.6-32-20.693-32-32.427c0-35.413,104.96-64,234.667-64S480,199.255,480,234.669z"/>
</g>
<path style="fill:#FFC107;" d="M448,266.669v0.427c-40.533,18.773-116.053,31.573-202.667,31.573S83.2,285.869,42.667,267.095
	v-0.427c0-42.027,101.973-64,202.667-64S448,224.642,448,266.669z"/>
<path style="fill:#455A64;" d="M245.333,309.335C123.413,309.335,0,283.735,0,234.669s123.413-74.667,245.333-74.667
	s245.333,25.6,245.333,74.667S367.253,309.335,245.333,309.335z M245.333,181.335c-136.747,0-224,31.573-224,53.333
	s87.253,53.333,224,53.333s224-31.573,224-53.333S382.08,181.335,245.333,181.335z"/>
<path style="fill:#CFD8DC;" d="M471.787,32.002c-11.387-0.012-22.243,4.811-29.867,13.269L258.688,248.855
	c-3.947,4.373-3.601,11.118,0.772,15.065c1.964,1.773,4.518,2.752,7.164,2.748h42.667c2.61,0.001,5.13-0.956,7.083-2.688
	l182.123-161.899c16.554-14.718,18.042-40.068,3.325-56.622C494.196,36.884,483.262,31.985,471.787,32.002z"/>
<path style="fill:#FFB300;" d="M341.333,266.669h-96c-5.891,0-10.667-4.776-10.667-10.667c0-5.891,4.776-10.667,10.667-10.667h96
	c5.891,0,10.667,4.776,10.667,10.667C352,261.893,347.224,266.669,341.333,266.669z"/>
<path d="M245.333,480.002C109.903,479.849,0.153,370.099,0,234.669c0-5.891,4.776-10.667,10.667-10.667s10.667,4.776,10.667,10.667
	c0,123.712,100.288,224,224,224s224-100.288,224-224c0-5.891,4.776-10.667,10.667-10.667c5.891,0,10.667,4.776,10.667,10.667
	C490.514,370.099,380.764,479.849,245.333,480.002z"/>
<path d="M341.333,266.669h-96c-5.891,0-10.667-4.776-10.667-10.667c0-5.891,4.776-10.667,10.667-10.667h96
	c5.891,0,10.667,4.776,10.667,10.667C352,261.893,347.224,266.669,341.333,266.669z"/>
<path d="M245.333,309.335C123.413,309.335,0,283.735,0,234.669c0-62.208,198.251-86.101,339.968-69.291
	c5.875,0.433,10.287,5.546,9.854,11.421c-0.433,5.875-5.546,10.287-11.421,9.854c-0.318-0.023-0.635-0.061-0.95-0.113
	c-30.577-3.536-61.336-5.274-92.117-5.205c-136.747,0-224,31.573-224,53.333s87.253,53.333,224,53.333s224-31.573,224-53.333
	c0-10.816-25.6-27.925-81.6-39.893c-5.767-1.231-9.445-6.905-8.213-12.672s6.905-9.445,12.672-8.213
	c44.928,9.579,98.475,27.968,98.475,60.779C490.667,283.735,367.253,309.335,245.333,309.335z"/>
<path d="M42.667,266.839c-5.928-0.07-10.691-4.909-10.667-10.837c0-42.112,134.101-53.333,213.333-53.333
	c19.669,0,39.445,0.597,58.773,1.813c5.879,0.366,10.349,5.428,9.984,11.307c-0.188,5.723-4.98,10.21-10.703,10.021
	c-0.201-0.007-0.403-0.019-0.603-0.037c-18.901-1.173-38.229-1.771-57.451-1.771c-118.677,0-188.096,21.056-192,32.363
	c-0.011,5.797-4.719,10.487-10.516,10.476C42.767,266.841,42.717,266.84,42.667,266.839z"/>
<path d="M448,266.669c-5.792,0.002-10.528-4.62-10.667-10.411c-1.749-4.267-21.333-17.536-88.363-26.112
	c-5.844-0.748-9.975-6.092-9.227-11.936c0.748-5.844,6.092-9.975,11.936-9.227c70.997,9.088,106.987,24.896,106.987,46.933
	c0.047,5.891-4.69,10.705-10.581,10.752C448.057,266.669,448.029,266.669,448,266.669z"/>
<path d="M309.333,266.669c-5.891,0.002-10.668-4.772-10.67-10.663c-0.001-3.051,1.305-5.957,3.587-7.982L484.267,86.146
	c7.92-6.728,8.886-18.602,2.158-26.522s-18.602-8.886-26.522-2.158c-0.75,0.637-1.449,1.332-2.09,2.078L274.581,263.149
	c-3.947,4.377-10.695,4.726-15.072,0.779c-4.377-3.947-4.726-10.695-0.779-15.072l0,0L441.963,45.271
	c14.826-16.489,40.211-17.837,56.7-3.011s17.837,40.211,3.011,56.7c-0.987,1.098-2.034,2.14-3.135,3.122L316.416,263.981
	C314.464,265.713,311.944,266.67,309.333,266.669z"/>
<g>
</g>
<g>
</g>
<g>
</g>
<g>
</g>
<g>
</g>
<g>
</g>
<g>
</g>
<g>
</g>
<g>
</g>
<g>
</g>
<g>
</g>
<g>
</g>
<g>
</g>
<g>
</g>
<g>
</g>
</svg>
