<?xml version="1.0" encoding="iso-8859-1"?>
<!-- Generator: Adobe Illustrator 19.0.0, SVG Export Plug-In . SVG Version: 6.00 Build 0)  -->
<svg version="1.1" id="Capa_1" xmlns="http://www.w3.org/2000/svg" xmlns:xlink="http://www.w3.org/1999/xlink" x="0px" y="0px"
	 viewBox="0 0 512 512" style="enable-background:new 0 0 512 512;" xml:space="preserve">
<path style="fill:#961E15;" d="M166.143,362.842v127.923c0,7.975-6.465,14.44-14.44,14.44h-40.414c-7.975,0-14.44-6.465-14.44-14.44
	V362.842c0-7.975,6.465-14.44,14.44-14.44h40.414C159.678,348.402,166.143,354.867,166.143,362.842z"/>
<path style="fill:#87100E;" d="M145.937,487.41c-7.975,0-14.44-6.465-14.44-14.44V348.402H111.29c-7.975,0-14.44,6.465-14.44,14.44
	v127.923c0,7.975,6.465,14.44,14.44,14.44h40.414c7.975,0,14.44-6.465,14.44-14.44v-3.355L145.937,487.41L145.937,487.41z"/>
<path style="fill:#68594E;" d="M495.837,464.579c0,0.791-0.068,1.588-0.204,2.37c-0.632,3.66-2.656,6.852-5.701,8.983
	c-3.038,2.13-6.73,2.944-10.389,2.286L27.246,397.019c-5.127-0.923-8.845-5.37-8.845-10.575c0-0.602,0.052-1.21,0.153-1.809
	c1.005-5.819,6.543-9.752,12.348-8.791l453.351,75.087c3.666,0.607,6.871,2.61,9.023,5.639
	C494.951,458.931,495.837,461.699,495.837,464.579L495.837,464.579z"/>
<path style="fill:#5B4A3F;" d="M18.933,383.15c-0.156,0.481-0.291,0.972-0.38,1.484c-0.102,0.599-0.153,1.207-0.153,1.809
	c0,5.206,3.719,9.654,8.845,10.575l452.297,81.199c3.658,0.658,7.351-0.156,10.389-2.286c2.502-1.752,4.3-4.225,5.218-7.08
	L18.933,383.15z"/>
<path style="fill:#68594E;" d="M494.754,383.133c0.266,0.744,0.472,1.517,0.608,2.3c0.641,3.658-0.188,7.347-2.335,10.38
	c-2.141,3.031-5.341,5.043-9.007,5.659L30.86,477.706c-5.138,0.862-10.139-2.069-11.897-6.969c-0.203-0.567-0.36-1.156-0.467-1.754
	c-1.018-5.817,2.868-11.388,8.657-12.443l452.089-82.343c3.655-0.666,7.349,0.137,10.397,2.263
	C492.014,378.115,493.783,380.422,494.754,383.133L494.754,383.133z"/>
<path style="fill:#5B4A3F;" d="M18.964,470.738c1.757,4.9,6.759,7.832,11.897,6.969l453.16-76.234
	c3.666-0.616,6.867-2.628,9.007-5.659c2.073-2.93,2.903-6.468,2.381-10.002l-476.804,83.66
	C18.702,469.901,18.816,470.327,18.964,470.738z"/>
<path style="fill:#D5D2BD;" d="M152.258,311.311C68.302,311.311,0,243.009,0,159.053S68.302,6.795,152.258,6.795h207.484
	C443.698,6.795,512,75.098,512,159.053s-68.302,152.258-152.258,152.258H152.258z"/>
<path style="fill:#E7E4CD;" d="M152.258,285.505c-69.726,0-126.452-56.726-126.452-126.452S82.532,32.602,152.258,32.602h207.484
	c69.726,0,126.452,56.726,126.452,126.452s-56.726,126.452-126.452,126.452H152.258z"/>
<path style="fill:#BD7155;" d="M367.95,216.334c-13.812-39.91-4.184-88.942,0.597-108.171l2.303-9.262l8.835,3.61
	c17.155,7.01,34.364,15.966,51.147,26.621c11.196,7.107,17.879,19.291,17.879,32.591c0,13.3-6.684,25.483-17.879,32.59
	c-17.118,10.867-34.606,19.941-51.978,26.974l-8.06,3.262L367.95,216.334z"/>
<path style="fill:#B2644B;" d="M431.355,129.487c0.828,3.172,1.265,6.478,1.265,9.86c0,13.3-6.684,25.483-17.879,32.59
	c-16.917,10.739-34.196,19.72-51.366,26.718c1.101,6.004,2.589,11.936,4.576,17.677l2.843,8.216l8.06-3.262
	c17.373-7.033,34.86-16.107,51.978-26.974c11.196-7.107,17.879-19.291,17.879-32.59C448.71,148.635,442.229,136.64,431.355,129.487z
	"/>
<path style="fill:#BD7155;" d="M68.122,161.726l-8.846-36.768c-1.462-6.075,5.693-10.482,10.46-6.441l55.034,43.165L69.735,204.85
	c-4.77,4.034-11.918-0.376-10.455-6.449L68.122,161.726z"/>
<path style="fill:#DFB296;" d="M369.03,216.302c-13.776-39.362-2.785-98.59,1.82-117.402l-69.13-14.722
	c-3.748-0.201-7.382-0.303-10.801-0.303c-8.84,0-17.986,0.618-27.182,1.838l-5.241,0.696c-27.913,2.477-82.437,28.209-82.437,28.209
	l-4.503,2.441c-19.04,10.326-34.437,21.099-44,28.32c-5.177,3.908-8.146,9.865-8.146,16.344s2.969,12.436,8.145,16.344
	c19.489,14.714,59.435,41.306,107.997,54.076l9.133,2.402c1.11,0.371,2.216,0.664,3.319,0.872c35.701,6.761,88.937-0.99,88.937-0.99
	l2.789-0.649c7.938-1.849,16.067-4.18,24.161-6.927l7.893-2.68L369.03,216.302z"/>
<path style="fill:#D19D80;" d="M119.419,161.397c-0.002,0.109-0.009,0.217-0.009,0.326c0,6.479,2.969,12.436,8.145,16.344
	c19.489,14.714,59.435,41.306,107.997,54.076l9.133,2.402c1.11,0.371,2.216,0.664,3.319,0.872c35.701,6.761,88.937-0.99,88.937-0.99
	l2.789-0.649c7.938-1.849,16.067-4.18,24.161-6.927l7.893-2.68l-2.753-7.868c-5.711-16.32-7.163-36.053-6.581-54.906H119.419z"/>
<path style="fill:#CE8B6A;" d="M270.932,84.886c-2.393,0.236-4.792,0.509-7.196,0.828l-5.241,0.696
	c-27.913,2.477-82.437,28.209-82.437,28.209l-4.503,2.441c-1.843,0.999-3.64,2.003-5.412,3.007v83.26
	c19.361,10.938,43.117,21.902,69.408,28.817l9.133,2.402c1.11,0.371,2.216,0.664,3.319,0.872c7.131,1.35,14.963,2.12,22.929,2.491
	V84.886z"/>
<path style="fill:#C97F5F;" d="M250.94,235.933c0.801,0.131,1.607,0.256,2.423,0.375c0.123,0.018,0.246,0.034,0.369,0.052
	c0.773,0.109,1.553,0.215,2.337,0.313c0.109,0.013,0.219,0.028,0.328,0.042c0.857,0.105,1.721,0.204,2.589,0.297
	c0.131,0.014,0.262,0.028,0.393,0.041c1.801,0.189,3.624,0.351,5.463,0.488c0.091,0.007,0.181,0.013,0.271,0.021
	c1.924,0.141,3.864,0.256,5.813,0.347c0.002,0,0.003,0,0.005,0v-76.511H166.143v41.929c0.001,0,0.002,0.001,0.003,0.002
	c7.225,4.082,15.064,8.166,23.416,12.043c0.202,0.094,0.408,0.186,0.61,0.28c1.143,0.527,2.294,1.052,3.456,1.571
	c0.361,0.161,0.727,0.32,1.089,0.481c1.011,0.447,2.026,0.892,3.051,1.331c0.459,0.197,0.923,0.392,1.384,0.587
	c0.939,0.397,1.883,0.792,2.833,1.183c0.523,0.215,1.05,0.428,1.576,0.641c0.904,0.365,1.813,0.728,2.726,1.086
	c0.566,0.222,1.132,0.442,1.701,0.662c0.886,0.341,1.777,0.678,2.67,1.012c0.599,0.224,1.198,0.447,1.801,0.667
	c0.883,0.323,1.771,0.64,2.662,0.955c0.615,0.218,1.23,0.437,1.85,0.65c0.898,0.311,1.802,0.613,2.708,0.916
	c0.618,0.206,1.236,0.416,1.858,0.618c0.936,0.306,1.881,0.601,2.825,0.897c0.598,0.187,1.192,0.379,1.793,0.562
	c1.036,0.317,2.083,0.621,3.129,0.926c0.515,0.15,1.026,0.306,1.543,0.453c1.565,0.445,3.139,0.878,4.724,1.294l9.133,2.402
	c1.11,0.371,2.216,0.664,3.319,0.872c0.799,0.151,1.609,0.293,2.425,0.429C250.598,235.875,250.769,235.904,250.94,235.933z"/>
<path style="fill:#BD7155;" d="M290.335,180.274c-2.925-10.555-2.777-22.667,0.441-36.002l1.052-4.356
	c0.488-2.021,2.52-3.265,4.542-2.781l35.527,8.509l1.688,3.61c3.801,8.129,3.8,17.525-0.001,25.653l-1.687,3.606l-35.894,8.597
	c-1.974,0.473-3.968-0.703-4.51-2.658L290.335,180.274z"/>
<path style="fill:#A1C422;" d="M200.989,189.481c-6.206,0-12.018-3.014-15.735-8.347c-1.352-1.94-2.314-4.143-2.821-6.453
	c-1.436-6.539,0.453-13.011,4.95-17.629c3.512-3.605,8.196-5.65,13.212-5.77l0.081-0.004h0.271c6.397,0,16.402,6.705,23.668,12.327
	l3.967,3.071c2.172,1.681,2.214,4.946,0.088,6.682l-3.885,3.173c-7.174,5.86-17.069,12.863-23.471,12.947L200.989,189.481z"/>
<g>
	<path style="fill:#B2D84A;" d="M295.097,265.353c-7.311,0-14.419-1.55-21.134-4.611c-11.046-5.032-20.046-13.874-25.145-24.89
		c-5.101-11.023-6.167-23.137-3.119-34.632l1.289-4.864c0.648-2.446,3.354-3.708,5.645-2.633l85.419,40.084
		c2.291,1.075,3.049,3.962,1.582,6.024l-2.917,4.1c-6.015,8.456-14.395,14.805-24.234,18.359
		C306.858,264.323,301.01,265.353,295.097,265.353z"/>
	<path style="fill:#B2D84A;" d="M209.211,127.785c-16.066,0-31.383-7.648-40.971-20.459l-2.536-3.389
		c-1.77-2.365-0.963-5.756,1.682-7.07l83.053-41.276c2.646-1.315,5.835,0.09,6.651,2.929l1.17,4.068
		c6.815,23.703-4.278,48.878-26.376,59.861C224.76,125.991,217.131,127.785,209.211,127.785z"/>
</g>
<path style="fill:#961E15;" d="M317.716,119.333c-0.984,0-1.976-0.028-2.947-0.085c-5.283-0.303-10.203-1.407-14.625-3.281
	l-8.109-3.435c-3.808-1.613-3.753-7.029,0.087-8.565l8.177-3.271c15.053-6.021,29.997-16.581,39-27.556
	c2.996-3.65,7.282-5.66,12.071-5.66h0.114c4.921,0.086,9.373,2.337,12.302,6.176c3.953,5.18,4.299,12.143,0.883,17.739
	c-2.97,4.865-6.367,9.297-10.099,13.17C345.793,113.674,331.673,119.333,317.716,119.333z"/>
<g style="enable-background:new    ;">
	<circle style="fill:#A34224;" cx="397.915" cy="147.128" r="7.782"/>
</g>
<g>
	<path style="fill:#89AD07;" d="M304.786,218.198l-2.076-0.974l0,0l-2.027-0.952l-12.327-5.785l0,0l-2.062-0.968l-41.121,14.854
		c-0.04,0.014-0.078,0.034-0.119,0.05c0.8,3.89,2.048,7.722,3.764,11.43c0.487,1.054,1.022,2.081,1.579,3.094
		c0.011-0.004,0.024-0.006,0.035-0.01l30.138-10.886l-13.538,28.85c2.202,1.449,4.514,2.743,6.931,3.843
		c2.333,1.063,4.716,1.931,7.136,2.628l13.303-28.349l10.599,29.343c2.527-0.503,5.027-1.187,7.482-2.075
		c2.457-0.888,4.824-1.95,7.084-3.175L304.786,218.198z"/>
	<path style="fill:#89AD07;" d="M259.489,85.442l-41.235-13.855l-2.053,1.02l0,0l-12.631,6.277l-1.569,0.78l0,0l-2.041,1.014
		l-13.926,41.444c-0.009,0.028-0.014,0.056-0.024,0.084c4.606,2.336,9.564,3.98,14.699,4.852c0-0.001,0.001-0.002,0.001-0.003
		l10.206-30.374l14.184,28.541c2.303-0.762,4.569-1.672,6.781-2.772c2.488-1.237,4.828-2.661,7.028-4.235L224.978,90.18
		l29.572,9.937C256.923,95.518,258.595,90.57,259.489,85.442z"/>
</g>
<g>
	<path style="fill:#5B4A3F;" d="M424.02,440.956c-0.027,0.121-0.059,0.238-0.081,0.361l-4.316,25.59
		c-0.031,0.182-0.046,0.362-0.064,0.543l15.182,2.725c0.06-0.227,0.109-0.458,0.15-0.694l4.316-25.59
		c0.024-0.138,0.033-0.276,0.048-0.413L424.02,440.956z"/>
	<path style="fill:#5B4A3F;" d="M434.892,384.119c-0.104-0.616-0.285-1.198-0.52-1.749l-14.848,2.704
		c-0.023,0.532,0.008,1.074,0.1,1.62l4.2,24.905l15.269-2.568L434.892,384.119z"/>
</g>
<path style="fill:#D89E7D;" d="M166.143,120.066c-16.542,9.371-29.951,18.791-38.588,25.313c-5.177,3.908-8.146,9.865-8.146,16.344
	s2.969,12.436,8.145,16.344c8.938,6.748,22.188,15.995,38.589,25.26V120.066z"/>
<path style="fill:#CE8F6F;" d="M130.119,179.98c0.374,0.277,0.745,0.552,1.131,0.835c0.327,0.239,0.667,0.486,1.002,0.73
	c0.324,0.235,0.645,0.47,0.978,0.709c0.399,0.289,0.811,0.582,1.223,0.877c0.28,0.199,0.557,0.398,0.842,0.601
	c0.459,0.326,0.929,0.658,1.403,0.99c0.249,0.174,0.498,0.35,0.75,0.526c0.523,0.366,1.056,0.736,1.596,1.109
	c0.201,0.139,0.405,0.28,0.609,0.419c0.593,0.408,1.192,0.818,1.803,1.231c0.157,0.106,0.316,0.214,0.475,0.321
	c0.668,0.452,1.344,0.906,2.034,1.366c0.082,0.055,0.164,0.109,0.247,0.163c6.44,4.282,13.793,8.869,21.924,13.463
	c0.002,0.001,0.005,0.003,0.007,0.004v-41.929H119.42c-0.002,0.109-0.009,0.217-0.009,0.326c0,6.479,2.969,12.436,8.145,16.344
	c0.579,0.437,1.179,0.887,1.794,1.344C129.599,179.596,129.863,179.79,130.119,179.98z"/>
<g>
</g>
<g>
</g>
<g>
</g>
<g>
</g>
<g>
</g>
<g>
</g>
<g>
</g>
<g>
</g>
<g>
</g>
<g>
</g>
<g>
</g>
<g>
</g>
<g>
</g>
<g>
</g>
<g>
</g>
</svg>
