<?xml version="1.0" encoding="iso-8859-1"?>
<!-- Generator: Adobe Illustrator 19.0.0, SVG Export Plug-In . SVG Version: 6.00 Build 0)  -->
<svg version="1.1" id="Capa_1" xmlns="http://www.w3.org/2000/svg" xmlns:xlink="http://www.w3.org/1999/xlink" x="0px" y="0px"
	 viewBox="0 0 512.001 512.001" style="enable-background:new 0 0 512.001 512.001;" xml:space="preserve">
<g transform="matrix(1.25 0 0 -1.25 0 45)">
	<g>
		<path style="fill:#EEEEEE;" d="M342.966-48.356c-4.753,2.767-10.997,4.055-19.649,4.055c-67.152,0-295.765-85.285-305.475-88.918
			c-2.13-0.794-3.983-2.178-5.354-3.995c-14.931-19.66-11.984-91.999,12.081-128.096c33.149-49.729,82.072-63.819,105.619-66.117
			c0.385-0.036,1.287-0.084,1.685-0.084c29.575,0,220.575,129.479,234.917,159.234C383.298-138.068,382.203-71.205,342.966-48.356z"
			/>
		<path style="fill:#CCD6DD;" d="M301.31-72.794c-48.129-36.097-156.419-108.29-156.419-108.29
			c-8.583-25.747-23.277-100.458-9.171-149.922c39.363,8.765,217.248,130.053,231.07,158.741
			c12.468,25.846,14.888,70.351-1.613,100.412C344.162-59.479,321.661-57.53,301.31-72.794z"/>
	</g>
	<g>
		<g>
			<path style="fill:#A0041E;" d="M373.715-30.927c-2.731,2.563-6.51,3.718-10.18,3.092L10.077-85.987
				C4.158-86.962-0.15-92.171,0.006-98.175c0.325-12.165,0.228-21.009,0.12-30.971c-0.06-5.535-0.12-11.407-0.12-18.337
				c0-3.586,1.588-6.979,4.344-9.265c24.462-20.298,104.849-74.082,123.126-83.227c1.708-0.842,3.55-1.263,5.378-1.263
				c2.611,0,5.198,0.842,7.34,2.491c30.755,23.656,198.328,119.468,224.569,130.851c4.031,1.757,6.786,5.571,7.183,9.95
				c1.504,16.52,5.511,57.045,5.511,57.045C377.831-37.172,376.447-33.478,373.715-30.927"/>
			<path style="fill:#DD2E44;" d="M374.527-31.756C350.222-4.142,258.692,35.312,243.171,35.986
				c-0.975,0.048-1.913-0.036-2.864-0.217C118.709,11.548,39.14-58.155,9.18-84.397l-5.006-4.355
				c-2.791-2.406-4.319-5.968-4.164-9.65c0.168-3.682,2.009-7.087,5.006-9.241c4.079-2.924,100.072-71.712,123.427-84.924
				c1.853-1.035,3.887-1.552,5.92-1.552c2.888,0,5.752,1.047,8.014,3.056c47.106,42.1,205.751,131.886,227.385,140.103
				c3.694,1.408,6.461,4.524,7.412,8.362C378.124-38.771,377.137-34.716,374.527-31.756"/>
			<g>
				<path style="fill:#EA596E;" d="M113.209-144.176c-4.945,28.689-10.549,61.206-21.035,93.17
					c-2.62,7.986-11.217,12.335-19.203,9.715c-7.986-2.62-12.336-11.217-9.715-19.203c9.791-29.844,15.194-61.193,19.961-88.852
					l0.559-3.242c1.278-7.406,7.709-12.631,14.977-12.631c0.859,0,1.731,0.073,2.606,0.225c8.282,1.43,13.836,9.302,12.407,17.584
					L113.209-144.176z"/>
				<path style="fill:#EA596E;" d="M158.674-9.383c-2.901,7.887-11.646,11.93-19.535,9.029c-7.887-2.901-11.93-11.646-9.029-19.535
					c12.006-32.642,25.24-109.476,26.156-127.858c0.405-8.137,7.128-14.461,15.185-14.461c0.255,0,0.512,0.006,0.77,0.019
					c8.394,0.418,14.86,7.561,14.441,15.955C185.541-123.694,171.577-44.465,158.674-9.383z"/>
				<path style="fill:#EA596E;" d="M252.872-89.907c-3.649,25.661-10.442,73.425-21.351,106.151
					c-2.658,7.973-11.276,12.282-19.248,9.624c-7.973-2.658-12.282-11.276-9.624-19.248c10.037-30.113,16.578-76.104,20.092-100.812
					c0.526-3.703,0.98-6.893,1.362-9.437c1.132-7.546,7.624-12.96,15.03-12.96c0.751,0,1.512,0.056,2.277,0.171
					c8.311,1.247,14.037,8.996,12.79,17.308C253.827-96.629,253.385-93.518,252.872-89.907z"/>
				<path style="fill:#EA596E;" d="M322.469-58.75c-2.437,24.409-6.419,43.165-13.318,62.715
					c-2.796,7.925-11.489,12.082-19.413,9.286c-7.925-2.797-12.083-11.488-9.286-19.413c6.124-17.356,9.523-33.467,11.734-55.61
					c0.783-7.849,7.399-13.707,15.124-13.707c0.505,0,1.016,0.025,1.53,0.076C317.201-74.569,323.304-67.113,322.469-58.75z"/>
			</g>
		</g>
		<g>
			<path style="fill:#292F33;" d="M375.137-229.213c-20.623,14.86-48.791,24.064-79.846,24.064s-59.223-9.205-79.834-24.064h-34.472
				v-60.161c0-46.432,51.281-84.226,114.306-84.226c63.037,0,114.306,37.794,114.306,84.226v60.161L375.137-229.213L375.137-229.213
				z"/>
			<path style="fill:#292F33;" d="M295.294-144.987c-63.025,0-114.306-37.794-114.306-84.226s51.281-84.226,114.306-84.226
				s114.306,37.794,114.306,84.226S358.319-144.987,295.294-144.987"/>
		</g>
		<g>
			<path style="fill:#E1E8ED;" d="M295.294-169.052c-47.07,0-85.236-26.928-85.236-60.161s38.166-60.161,85.236-60.161
				s85.225,26.928,85.225,60.161C380.519-195.979,342.364-169.052,295.294-169.052z"/>
			
				<path style="fill:none;stroke:#E1E8ED;stroke-width:1.667;stroke-linecap:round;stroke-linejoin:round;stroke-miterlimit:10;" d="
				M380.519-229.213c0-33.233-38.155-60.161-85.225-60.161s-85.236,26.928-85.236,60.161s38.166,60.161,85.236,60.161
				S380.519-195.979,380.519-229.213z"/>
		</g>
		<path style="fill:#77B255;" d="M341.355-210.945c-3.221,0-7.497-0.492-12.91-1.116c-8.438-0.971-19.993-2.302-33.151-2.302
			c-4.595,0-8.997,0.025-13.155,0.049c-3.745,0.02-7.295,0.041-10.612,0.041c-7.643,0-15.478-0.091-21.012-0.755
			c-3.182-0.38-12.868-1.542-12.868-9.381c0-12.333,6.07-23.517,17.093-31.492c10.465-7.571,24.868-11.74,40.554-11.74
			c15.454,0,29.857,5.292,40.554,14.901c10.235,9.193,16.105,21.532,16.105,33.854C351.954-217.024,351.189-210.945,341.355-210.945
			z"/>
		<path style="fill:#F4900C;" d="M355.445-217.34c-0.603,15.847-27.206,34.683-60.151,34.683c-15.706,0-30.543-4.418-41.78-12.441
			c-11.854-8.461-18.381-19.91-18.381-32.235c0-4.51,0.741-7.786,2.335-10.309c1.992-3.154,5.234-4.891,9.132-4.891
			c5.434,0,11.6,3.263,20.134,7.78c7.192,3.806,15.344,8.122,24.447,11.157c10.031,3.343,20.036,5.038,29.738,5.038
			c15.985,0,25.76-4.855,25.83-4.89c0.848-0.425,1.77-0.812,2.69-0.812c0.004,0,0.008,0,0.012,0h0.002
			c3.323,0,6.016,2.871,6.016,6.193C355.47-217.88,355.461-217.52,355.445-217.34z"/>
	</g>
</g>
<g>
</g>
<g>
</g>
<g>
</g>
<g>
</g>
<g>
</g>
<g>
</g>
<g>
</g>
<g>
</g>
<g>
</g>
<g>
</g>
<g>
</g>
<g>
</g>
<g>
</g>
<g>
</g>
<g>
</g>
</svg>
