<?xml version="1.0" encoding="iso-8859-1"?>
<!-- Generator: Adobe Illustrator 19.0.0, SVG Export Plug-In . SVG Version: 6.00 Build 0)  -->
<svg version="1.1" id="Capa_1" xmlns="http://www.w3.org/2000/svg" xmlns:xlink="http://www.w3.org/1999/xlink" x="0px" y="0px"
	 viewBox="0 0 512.001 512.001" style="enable-background:new 0 0 512.001 512.001;" xml:space="preserve">
<path style="fill:#EFA348;" d="M27.623,357.084L0.432,307c-1.274-2.346,0.425-5.201,3.094-5.201h101.903l11.487,55.285H27.623z"/>
<path style="fill:#C67822;" d="M167.14,292.411l-2.218-1.651c-14.093-10.494-22.506-27.23-22.506-44.768
	c0-30.772,25.035-55.807,55.807-55.807s55.807,25.035,55.807,55.807c0,17.537-8.415,34.272-22.509,44.768l-2.218,1.651H167.14z"/>
<path style="fill:#B75A15;" d="M179.111,245.992c0-24.345,15.676-45.086,37.459-52.693c-5.751-2.008-11.921-3.114-18.347-3.114
	c-30.772,0-55.807,25.035-55.807,55.807c0,17.538,8.413,34.274,22.506,44.768l2.218,1.651h36.695l-2.218-1.651
	C187.524,280.266,179.111,263.53,179.111,245.992z"/>
<path style="fill:#E2D9C5;" d="M240.674,224.503v-14.677c-10.244-12.006-25.469-19.641-42.451-19.641
	c-21.46,0-40.118,12.184-49.452,29.991h23.663v14.395c0,7.094,5.771,12.865,12.865,12.865c7.094,0,12.865-5.771,12.865-12.865
	v-6.132c0-3.096,2.518-5.614,5.614-5.614h11.726c0.91,0,1.678,0.769,1.678,1.678c0,6.477,5.27,11.747,11.747,11.747
	C235.405,236.249,240.674,230.979,240.674,224.503z"/>
<path style="fill:#D1C09D;" d="M198.222,190.185c-21.46,0-40.118,12.184-49.452,29.991h23.663v14.395
	c0,4.849,2.699,9.078,6.672,11.27c0.121-23.988,15.015-44.529,36.026-53.012C209.795,191.125,204.119,190.185,198.222,190.185z"/>
<path style="fill:#C67822;" d="M279.294,292.411l-2.218-1.651c-14.093-10.494-22.506-27.23-22.506-44.768
	c0-30.772,25.035-55.807,55.807-55.807s55.807,25.035,55.807,55.807c0,17.537-8.415,34.272-22.509,44.768l-2.218,1.651H279.294z"/>
<path style="fill:#B75A15;" d="M291.265,245.992c0-24.345,15.676-45.086,37.459-52.693c-5.751-2.008-11.921-3.114-18.347-3.114
	c-30.772,0-55.807,25.035-55.807,55.807c0,17.538,8.413,34.274,22.506,44.768l2.218,1.651h36.695l-2.218-1.651
	C299.678,280.266,291.265,263.53,291.265,245.992z"/>
<path style="fill:#96401E;" d="M359.448,219.433c-9.458-17.405-27.908-29.247-49.071-29.247c-22.517,0-41.948,13.412-50.76,32.66
	h14.693c3.515,0,6.376,2.86,6.376,6.374c0,6.098,4.961,11.059,11.059,11.059c6.098,0,11.059-4.961,11.059-11.059
	c0-3.659,2.976-6.635,6.635-6.635h4.424c3.659,0,6.635,2.977,6.635,6.635v11.059c0,7.317,5.953,13.272,13.272,13.272
	s13.272-5.954,13.272-13.272v-11.32c0-2.548,1.523-4.849,3.879-5.862L359.448,219.433z"/>
<path style="fill:#5E2208;" d="M310.376,190.185c-22.517,0-41.948,13.412-50.76,32.66h14.693c3.515,0,6.376,2.86,6.376,6.374
	c0,6.038,4.864,10.952,10.879,11.05c2.209-21.651,16.591-39.741,36.175-47.316C322.272,191.16,316.437,190.185,310.376,190.185z"/>
<path style="fill:#C67822;" d="M112.916,357.084l-2.218-1.651c-14.093-10.494-22.506-27.23-22.506-44.767
	c0-30.772,25.035-55.807,55.807-55.807s55.807,25.035,55.807,55.807c0,17.537-8.415,34.272-22.509,44.767l-2.218,1.651H112.916z"/>
<path style="fill:#B75A15;" d="M124.888,310.665c0-24.345,15.676-45.086,37.459-52.693c-5.751-2.008-11.921-3.114-18.347-3.114
	c-30.772,0-55.807,25.035-55.807,55.807c0,17.538,8.413,34.274,22.506,44.767l2.218,1.651h36.695l-2.218-1.651
	C133.301,344.939,124.888,328.203,124.888,310.665z"/>
<path style="fill:#96401E;" d="M197.792,295.839c-6.512-23.596-28.154-40.98-53.792-40.98c-25.026,0-46.256,16.559-53.313,39.296
	h13.951c2.378,0,4.313,1.935,4.313,4.313v9.232c0,6.54,5.321,11.861,11.861,11.861c6.54,0,11.861-5.321,11.861-11.861v-7.548
	c0-2.378,1.935-4.313,4.313-4.313h12.939c2.378,0,4.313,1.935,4.313,4.313c0,6.54,5.321,11.861,11.861,11.861h2.156
	c6.54,0,11.861-5.321,11.861-11.861c0-2.378,1.935-4.313,4.313-4.313L197.792,295.839L197.792,295.839z"/>
<path style="fill:#5E2208;" d="M125.141,311.89c0-24.43,15.007-45.401,36.279-54.235c-5.484-1.808-11.337-2.797-17.419-2.797
	c-25.026,0-46.256,16.559-53.313,39.296h13.951c2.378,0,4.313,1.935,4.313,4.313v9.232c0,6.54,5.321,11.861,11.861,11.861
	c1.687,0,3.289-0.359,4.742-0.996C125.292,316.359,125.141,314.132,125.141,311.89z"/>
<path style="fill:#C67822;" d="M223.487,357.084l-2.218-1.651c-14.093-10.494-22.506-27.23-22.506-44.767
	c0-30.772,25.035-55.807,55.807-55.807s55.807,25.035,55.807,55.807c0,17.537-8.415,34.272-22.509,44.767l-2.218,1.651H223.487z"/>
<path style="fill:#B75A15;" d="M235.459,310.665c0-24.345,15.676-45.086,37.459-52.693c-5.751-2.008-11.921-3.114-18.347-3.114
	c-30.772,0-55.807,25.035-55.807,55.807c0,17.538,8.413,34.274,22.506,44.767l2.218,1.651h36.695l-2.218-1.651
	C243.871,344.939,235.459,328.203,235.459,310.665z"/>
<path style="fill:#E2D9C5;" d="M254.57,254.858c-23.554,0-43.732,14.676-51.909,35.356l10.557,1.176
	c4.582,0.511,8.038,4.374,8.038,8.988v13.91c0,7.816,6.359,14.175,14.175,14.175c7.816,0,14.175-6.359,14.175-14.175v-11.994
	c0-2.404,1.957-4.361,4.361-4.361h9.813c2.405,0,4.361,1.957,4.361,4.361c0,6.613,5.38,11.994,11.994,11.994
	s11.994-5.38,11.994-11.994v-2.181h17.233C304.415,274.372,281.734,254.858,254.57,254.858z"/>
<path style="fill:#D1C09D;" d="M254.57,254.858c-23.554,0-43.732,14.676-51.909,35.356l10.557,1.176
	c4.582,0.511,8.038,4.374,8.038,8.988v13.91c0,7.816,6.359,14.175,14.175,14.175c0.95,0,1.879-0.098,2.777-0.276
	c-1.793-5.577-2.76-11.44-2.76-17.4c0-24.154,15.047-44.847,36.254-53.234C266.303,255.804,260.545,254.858,254.57,254.858z"/>
<path style="fill:#C67822;" d="M334.057,357.084l-2.218-1.651c-14.093-10.494-22.506-27.23-22.506-44.767
	c0-30.772,25.035-55.807,55.807-55.807s55.807,25.035,55.807,55.807c0,17.537-8.415,34.272-22.509,44.767l-2.218,1.651H334.057z"/>
<path style="fill:#B75A15;" d="M346.029,310.665c0-24.345,15.676-45.086,37.459-52.693c-5.751-2.008-11.921-3.114-18.347-3.114
	c-30.772,0-55.807,25.035-55.807,55.807c0,17.538,8.413,34.274,22.506,44.767l2.218,1.651h36.695l-2.218-1.651
	C354.442,344.939,346.029,328.203,346.029,310.665z"/>
<path style="fill:#96401E;" d="M365.14,254.858c-25.702,0-47.39,17.47-53.842,41.156h14.998c1.958,0,3.551,1.593,3.551,3.551v6.102
	c0,7.781,6.33,14.11,14.11,14.11s14.11-6.33,14.11-14.11v-2.171h62.405C416.94,276.101,393.483,254.858,365.14,254.858z"/>
<path style="fill:#5E2208;" d="M343.957,319.778c0.948,0,1.873-0.097,2.769-0.276c-0.452-2.875-0.706-5.791-0.706-8.735
	c0-24.183,15.144-44.879,36.44-53.147c-5.456-1.787-11.275-2.761-17.321-2.761c-25.702,0-47.39,17.47-53.842,41.156h14.998
	c1.958,0,3.551,1.593,3.551,3.551v6.102C329.847,313.448,336.177,319.778,343.957,319.778z"/>
<path style="fill:#EFA348;" d="M347.955,357.084l39.034-54.293c0.447-0.623,1.167-0.992,1.935-0.992h120.692
	c1.807,0,2.956,1.932,2.094,3.519l-28.104,51.766H347.955z"/>
<path style="fill:#F7D772;" d="M67.553,432.687l-40.729-76.645H483.36l-40.729,76.645c-1.543,2.903-4.562,4.718-7.849,4.718H75.403
	C72.115,437.404,69.096,435.59,67.553,432.687z"/>
<path style="fill:#F9BA5D;" d="M151.472,414.4c-15.51,0-29.754-8.561-37.033-22.258l-19.184-36.101H26.824l40.729,76.645
	c1.543,2.903,4.562,4.718,7.849,4.718H434.78c3.288,0,6.307-1.815,7.849-4.718l9.718-18.287H151.472V414.4z"/>
<path style="fill:#E58C2C;" d="M324.465,214.179c-0.64,0-1.29-0.079-1.939-0.245c-4.187-1.068-6.716-5.327-5.647-9.514
	l26.078-102.226c1.068-4.187,5.333-6.714,9.514-5.646c4.187,1.068,6.716,5.327,5.647,9.514L332.04,208.287
	C331.138,211.826,327.955,214.179,324.465,214.179z"/>
<path style="fill:#D32020;" d="M353.666,106.538c-8.807,0-15.971-7.164-15.971-15.971s7.164-15.971,15.971-15.971
	s15.971,7.164,15.971,15.971S362.473,106.538,353.666,106.538z"/>
<g>
</g>
<g>
</g>
<g>
</g>
<g>
</g>
<g>
</g>
<g>
</g>
<g>
</g>
<g>
</g>
<g>
</g>
<g>
</g>
<g>
</g>
<g>
</g>
<g>
</g>
<g>
</g>
<g>
</g>
</svg>
