<?xml version="1.0" encoding="iso-8859-1"?>
<!-- Generator: Adobe Illustrator 19.0.0, SVG Export Plug-In . SVG Version: 6.00 Build 0)  -->
<svg version="1.1" id="Capa_1" xmlns="http://www.w3.org/2000/svg" xmlns:xlink="http://www.w3.org/1999/xlink" x="0px" y="0px"
	 viewBox="0 0 512.001 512.001" style="enable-background:new 0 0 512.001 512.001;" xml:space="preserve">
<path style="fill:#93A35A;" d="M239.42,236.958c-4.064,0-7.357-3.472-7.357-7.758v-97.229c0-40.209-31.022-72.922-69.154-72.922
	s-69.154,32.712-69.154,72.922v102.4c0,4.285-3.293,7.758-7.357,7.758c-4.064,0-7.357-3.472-7.357-7.758v-102.4
	c0-48.764,37.623-88.437,83.869-88.437s83.869,39.672,83.869,88.437V229.2C246.778,233.484,243.484,236.958,239.42,236.958z"/>
<path style="fill:#78B591;" d="M325.301,383.835c-7.7,0-13.964-6.264-13.964-13.964s6.264-13.964,13.964-13.964h97.229
	c7.7,0,13.964,6.264,13.964,13.964s-6.264,13.964-13.964,13.964H325.301z"/>
<path style="fill:#A5BC79;" d="M343.685,355.908c-15.555,0-28.209-12.654-28.209-28.209v-75.184c0-7.437,6.051-13.488,13.488-13.488
	h89.905c7.437,0,13.488,6.051,13.488,13.488v75.184c0,15.555-12.654,28.209-28.209,28.209H343.685z"/>
<path style="fill:#49A56E;" d="M355.328,369.871c0-7.7,6.264-13.964,13.964-13.964h-43.991c-7.7,0-13.964,6.264-13.964,13.964
	s6.264,13.964,13.964,13.964h43.991C361.592,383.835,355.328,377.571,355.328,369.871z"/>
<path style="fill:#93A35A;" d="M359.466,327.698v-75.184c0-7.437,6.051-13.488,13.488-13.488h-43.991
	c-7.437,0-13.488,6.051-13.488,13.488v75.184c0,15.555,12.654,28.209,28.209,28.209h43.991
	C372.121,355.908,359.466,343.253,359.466,327.698z"/>
<path style="fill:#578C6D;" d="M195.142,113.87h-64.467c-3.049,0-5.52,2.472-5.52,5.52v31.304h75.507v-31.303
	C200.662,116.341,198.191,113.87,195.142,113.87z"/>
<path style="fill:#78B591;" d="M93.607,383.835c-7.7,0-13.964-6.264-13.964-13.964s6.264-13.964,13.964-13.964H232.21
	c7.7,0,13.964,6.264,13.964,13.964s-6.264,13.964-13.964,13.964H93.607z"/>
<path style="fill:#49A56E;" d="M136.127,369.871c0-7.7,6.264-13.964,13.964-13.964H93.607c-7.7,0-13.964,6.264-13.964,13.964
	s6.264,13.964,13.964,13.964h56.484C142.391,383.835,136.127,377.571,136.127,369.871z"/>
<path style="fill:#A5BC79;" d="M162.909,356.942c-48.194,0-87.402-39.208-87.402-87.402V229.2c0-48.194,39.208-87.402,87.402-87.402
	s87.402,39.208,87.402,87.402v40.34C250.311,317.733,211.103,356.942,162.909,356.942z"/>
<path style="fill:#3E7F59;" d="M177.318,113.87h-46.643c-3.049,0-5.52,2.472-5.52,5.52v31.304h46.643v-31.303
	C171.798,116.341,174.269,113.87,177.318,113.87z"/>
<path style="fill:#93A35A;" d="M122.149,269.54V229.2c0-40.117,27.177-73.985,64.081-84.218c-7.43-2.06-15.244-3.185-23.321-3.185
	c-48.194,0-87.402,39.208-87.402,87.402v40.34c0,48.194,39.208,87.402,87.402,87.402c8.077,0,15.892-1.124,23.321-3.185
	C149.327,343.525,122.149,309.657,122.149,269.54z"/>
<path style="fill:#78B591;" d="M162.909,141.798c-43.773,0-80.126,32.346-86.429,74.389h172.858
	C243.034,174.143,206.681,141.798,162.909,141.798z"/>
<path style="fill:#49A56E;" d="M162.909,141.798c-43.773,0-80.126,32.346-86.429,74.389h46.566
	c5.72-33.698,29.922-61.167,61.792-71.581C177.826,142.787,170.483,141.798,162.909,141.798z"/>
<path style="fill:#EFE5AB;" d="M64.017,468.467c-7.065,0-12.811-5.748-12.811-12.811v-33.734h410.636v33.734
	c0,7.064-5.747,12.811-12.811,12.811L64.017,468.467L64.017,468.467z"/>
<path style="fill:#FCF7C5;" d="M32.763,436.402c-9.207,0-17.318-5.497-20.664-14.005l-11.5-29.234
	c-1.036-2.637-0.716-5.492,0.877-7.836c1.587-2.343,4.243-3.745,7.098-3.745H503.44c2.855,0,5.511,1.403,7.104,3.755
	c1.574,2.315,1.896,5.26,0.855,7.865l-11.485,29.198c-3.346,8.506-11.457,14.003-20.664,14.003H32.763z"/>
<path style="fill:#F4DE9F;" d="M91.209,411.72c-9.207,0-17.318-5.497-20.664-14.005l-6.348-16.135H8.574
	c-2.855,0-5.511,1.403-7.098,3.745c-1.594,2.345-1.914,5.2-0.877,7.836L12.1,422.396c3.346,8.509,11.457,14.005,20.664,14.005
	h446.485c9.206,0,17.317-5.497,20.664-14.003l4.201-10.678H91.209z"/>
<g>
	<path style="fill:#93A35A;" d="M184.63,267.748h-78.403c-0.245,0-0.486,0.014-0.725,0.036v1.754c0,4.669,0.378,9.251,1.086,13.725
		h78.042c4.285,0,7.758-3.472,7.758-7.758S188.915,267.748,184.63,267.748z"/>
	<path style="fill:#93A35A;" d="M159.806,306.019h-46.296c2.537,5.5,5.614,10.7,9.19,15.515h37.106c4.285,0,7.758-3.472,7.758-7.758
		S164.091,306.019,159.806,306.019z"/>
	<path style="fill:#93A35A;" d="M396.671,267.748h-65.164c-0.153,0-0.303,0.014-0.455,0.023v15.469
		c0.151,0.009,0.301,0.023,0.455,0.023h65.164c4.285,0,7.758-3.472,7.758-7.758S400.956,267.748,396.671,267.748z"/>
	<path style="fill:#93A35A;" d="M369.778,295.916h-38.271c-0.153,0-0.303,0.014-0.455,0.023v15.469
		c0.151,0.009,0.301,0.023,0.455,0.023h38.271c4.285,0,7.758-3.472,7.758-7.758S374.063,295.916,369.778,295.916z"/>
</g>
<g>
</g>
<g>
</g>
<g>
</g>
<g>
</g>
<g>
</g>
<g>
</g>
<g>
</g>
<g>
</g>
<g>
</g>
<g>
</g>
<g>
</g>
<g>
</g>
<g>
</g>
<g>
</g>
<g>
</g>
</svg>
