<?xml version="1.0" encoding="iso-8859-1"?>
<!-- Generator: Adobe Illustrator 19.0.0, SVG Export Plug-In . SVG Version: 6.00 Build 0)  -->
<svg version="1.1" id="Capa_1" xmlns="http://www.w3.org/2000/svg" xmlns:xlink="http://www.w3.org/1999/xlink" x="0px" y="0px"
	 viewBox="0 0 512.001 512.001" style="enable-background:new 0 0 512.001 512.001;" xml:space="preserve">
<path style="fill:#F4BF62;" d="M252.766,130.186c-0.329,0.477-0.644,0.966-0.93,1.479h-3.527c-3.2-5.751-9.234-9.309-15.82-9.309
	c-6.588,0-12.62,3.558-15.82,9.309h-3.527c-3.2-5.751-9.234-9.309-15.82-9.309c-6.716,0-12.809,3.673-15.97,9.605
	c-22.462,2.569-39.367,21.514-39.367,44.181c0,24.524,19.953,44.477,44.477,44.477h66.306L252.766,130.186L252.766,130.186z"/>
<path style="fill:#EAAA42;" d="M218.396,202.44c-24.524,0-44.477-19.953-44.477-44.477c0-13.457,5.959-25.602,15.502-33.788
	c-3.381,1.643-6.227,4.326-8.071,7.787c-22.462,2.569-39.367,21.514-39.367,44.181c0,24.524,19.953,44.477,44.477,44.477h66.306
	v-18.179h-34.369V202.44z"/>
<path style="fill:#EA8383;" d="M142.217,224.15H36.643c-3.671,0-6.648,2.976-6.648,6.648v8.257c0,35.755,28.986,64.74,64.74,64.74
	h59.797h34.105V224.15H142.217z"/>
<path style="fill:#E56E6E;" d="M142.314,286.209c-34.855,0-63.265-27.549-64.673-62.059H36.643c-3.671,0-6.648,2.976-6.648,6.648
	v8.257c0,35.755,28.986,64.74,64.74,64.74h59.797h34.105v-17.586H142.314z"/>
<path style="fill:#F46C21;" d="M474.423,283.476c-0.766,0-1.544-0.086-2.309-0.255l-66.651-14.66l4.317-23.546l61.861-16.805
	c0.902-0.237,1.813-0.357,2.716-0.357c3.21,0,6.186,1.496,8.17,4.104c2.596,3.438,2.844,7.848,0.668,11.53l-7.311,12.379
	l7.281,11.817c2.219,3.599,2.075,7.977-0.373,11.425C480.814,281.887,477.766,283.476,474.423,283.476z"/>
<path style="fill:#EFA04B;" d="M170.281,303.795c-24.524,0-44.477-19.953-44.477-44.477c0-22.667,16.905-41.611,39.367-44.181
	c3.162-5.932,9.254-9.605,15.97-9.605c6.587,0,12.62,3.558,15.82,9.309h3.527c3.2-5.751,9.233-9.309,15.82-9.309
	c6.587,0,12.62,3.558,15.82,9.309h3.527c3.2-5.751,9.233-9.309,15.82-9.309c6.587,0,12.62,3.558,15.82,9.309h3.527
	c3.2-5.751,9.233-9.309,15.82-9.309c4.095,0,8.108,1.403,11.3,3.951l0.209,0.167l0.141,0.128l0.241,0.187l0.303,0.268
	c3.27,2.977,5.322,7.03,5.795,11.44c13.03,8.208,20.799,22.26,20.799,37.646c0,24.524-19.953,44.477-44.477,44.477H170.281V303.795z
	"/>
<path style="fill:#F4BF62;" d="M265.826,303.795c-24.524,0-44.477-19.953-44.477-44.477c0-22.667,16.905-41.611,39.367-44.181
	c3.162-5.932,9.254-9.605,15.97-9.605c6.587,0,12.62,3.558,15.82,9.309h3.527c3.2-5.751,9.233-9.309,15.82-9.309
	c6.587,0,12.62,3.558,15.82,9.309h3.527c3.2-5.751,9.233-9.309,15.82-9.309c6.587,0,12.62,3.558,15.82,9.309h3.527
	c3.2-5.751,9.233-9.309,15.82-9.309c4.095,0,8.108,1.403,11.3,3.951l0.209,0.167l0.141,0.128l0.241,0.187l0.303,0.268
	c3.27,2.977,5.322,7.03,5.795,11.44c13.03,8.208,20.799,22.26,20.799,37.646c0,24.524-19.953,44.477-44.477,44.477H265.826V303.795z
	"/>
<path style="fill:#F46C21;" d="M462.012,201.763c-0.766,0-1.542-0.086-2.307-0.254l-63.6-14.369l-6.347-21.308l69.473-19.335
	c0.9-0.237,1.812-0.357,2.716-0.357c3.214,0,6.195,1.499,8.177,4.114c2.59,3.429,2.838,7.838,0.662,11.522l-7.311,12.379
	l7.281,11.817c2.219,3.598,2.075,7.977-0.373,11.425C468.402,200.174,465.354,201.763,462.012,201.763z"/>
<path style="fill:#F7D772;" d="M253.414,220.62c-24.524,0-44.477-19.953-44.477-44.477c0-22.667,16.905-41.611,39.367-44.181
	c3.162-5.932,9.254-9.605,15.97-9.605c6.587,0,12.62,3.558,15.82,9.309h3.527c3.2-5.751,9.233-9.309,15.82-9.309
	c6.587,0,12.62,3.558,15.82,9.309h3.527c3.2-5.751,9.233-9.309,15.82-9.309c6.587,0,12.62,3.558,15.82,9.309h3.527
	c3.2-5.751,9.233-9.309,15.82-9.309c4.095,0,8.108,1.403,11.3,3.951l0.209,0.167l0.141,0.128l0.241,0.187l0.303,0.268
	c3.27,2.977,5.322,7.03,5.795,11.44c13.03,8.208,20.799,22.26,20.799,37.646c0,24.524-19.953,44.477-44.477,44.477H253.414V220.62z"
	/>
<path style="fill:#EDC34F;" d="M396.026,202.44H285.351c-24.524,0-44.477-19.953-44.477-44.477c0-9.416,2.925-18.183,7.945-25.407
	c-0.135-0.266-0.267-0.535-0.39-0.808c-0.039,0.072-0.086,0.14-0.124,0.213c-22.462,2.569-39.367,21.514-39.367,44.181
	c0,24.524,19.953,44.477,44.477,44.477h110.675c14.776,0,27.884-7.25,35.977-18.371C398.735,202.369,397.389,202.44,396.026,202.44z
	"/>
<path style="fill:#EA953F;" d="M312.893,285.615H202.218c-24.524,0-44.477-19.953-44.477-44.477
	c0-13.457,5.959-25.602,15.502-33.788c-3.381,1.643-6.227,4.326-8.071,7.787c-22.462,2.569-39.367,21.514-39.367,44.181
	c0,24.524,19.953,44.477,44.477,44.477h110.675c14.776,0,27.884-7.25,35.977-18.371
	C315.601,285.544,314.255,285.615,312.893,285.615z"/>
<path style="fill:#EDB151;" d="M408.438,285.615H297.763c-24.524,0-44.477-19.953-44.477-44.477
	c0-13.457,5.959-25.602,15.502-33.788c-3.381,1.643-6.227,4.326-8.071,7.787c-22.462,2.569-39.367,21.514-39.367,44.181
	c0,24.524,19.953,44.477,44.477,44.477h110.675c14.776,0,27.884-7.25,35.977-18.371
	C411.147,285.544,409.801,285.615,408.438,285.615z"/>
<path style="fill:#A6C1AD;" d="M64.017,389.646c-7.065,0-12.811-5.748-12.811-12.811V343.1h410.636v33.734
	c0,7.064-5.747,12.811-12.811,12.811H64.017z"/>
<path style="fill:#C2D5BF;" d="M32.763,357.581c-9.207,0-17.318-5.497-20.664-14.005l-11.5-29.234
	c-1.036-2.637-0.716-5.492,0.877-7.836c1.587-2.343,4.243-3.745,7.098-3.745H503.44c2.855,0,5.511,1.403,7.104,3.755
	c1.574,2.315,1.896,5.26,0.855,7.865l-11.485,29.198c-3.346,8.506-11.457,14.003-20.664,14.003L32.763,357.581L32.763,357.581z"/>
<path style="fill:#91BC86;" d="M91.209,332.899c-9.207,0-17.318-5.497-20.664-14.005l-6.348-16.135H8.574
	c-2.855,0-5.511,1.403-7.098,3.745c-1.594,2.345-1.914,5.2-0.877,7.836L12.1,343.575c3.346,8.509,11.457,14.005,20.664,14.005
	h446.485c9.206,0,17.317-5.497,20.664-14.003l4.201-10.678H91.209z"/>
<g>
	<path style="fill:#E5A339;" d="M359.275,246.946c0.986-1.02,3.005-0.604,4.189,0.898c5.795,7.347,6.693,16.527,1.7,21.695
		c-4.993,5.169-14.198,4.589-21.742-0.948c-1.542-1.132-2.028-3.136-1.043-4.156L359.275,246.946z"/>
	<path style="fill:#E5A339;" d="M283.721,258.742c1.258,0.656,1.431,2.71,0.327,4.272c-5.401,7.641-13.951,11.105-20.323,7.782
		c-6.373-3.322-8.427-12.315-5.255-21.118c0.649-1.8,2.432-2.834,3.69-2.178L283.721,258.742z"/>
</g>
<path style="fill:#DD842A;" d="M191.338,259.848c1.258,0.656,1.43,2.71,0.327,4.272c-5.401,7.641-13.951,11.105-20.323,7.782
	s-8.427-12.315-5.256-21.118c0.649-1.8,2.432-2.834,3.69-2.178L191.338,259.848z"/>
<path style="fill:#E5A030;" d="M188.242,172.48c0.832,0.433,0.945,1.791,0.216,2.824c-3.571,5.051-9.221,7.341-13.434,5.145
	c-4.212-2.196-5.57-8.14-3.474-13.96c0.428-1.189,1.607-1.873,2.439-1.44L188.242,172.48z"/>
<g>
	<path style="fill:#E5A755;" d="M270.719,183.324c0.726,1.026,0.031,2.717-1.473,3.502c-7.355,3.839-15.501,3.11-19.182-2.09
		c-3.681-5.201-1.66-13.126,4.406-18.786c1.24-1.157,3.066-1.251,3.792-0.224L270.719,183.324z"/>
	<path style="fill:#E5A755;" d="M341.8,156.757c1.041-0.705,2.717,0.024,3.471,1.543c3.69,7.431,2.796,15.561-2.478,19.136
		c-5.274,3.575-13.157,1.394-18.693-4.786c-1.132-1.263-1.188-3.091-0.148-3.796L341.8,156.757z"/>
</g>
<g>
</g>
<g>
</g>
<g>
</g>
<g>
</g>
<g>
</g>
<g>
</g>
<g>
</g>
<g>
</g>
<g>
</g>
<g>
</g>
<g>
</g>
<g>
</g>
<g>
</g>
<g>
</g>
<g>
</g>
</svg>
