<?xml version="1.0" encoding="iso-8859-1"?>
<!-- Generator: Adobe Illustrator 18.0.0, SVG Export Plug-In . SVG Version: 6.00 Build 0)  -->
<!DOCTYPE svg PUBLIC "-//W3C//DTD SVG 1.1//EN" "http://www.w3.org/Graphics/SVG/1.1/DTD/svg11.dtd">
<svg version="1.1" id="Capa_1" xmlns="http://www.w3.org/2000/svg" xmlns:xlink="http://www.w3.org/1999/xlink" x="0px" y="0px"
	 viewBox="0 0 327.484 327.484" style="enable-background:new 0 0 327.484 327.484;" xml:space="preserve">
<g>
	<g>
		<path style="fill:#52785B;" d="M197.595,69.621c-1.212-0.985-2.45-1.936-3.699-2.875c29.491,22.139,48.622,57.365,48.622,96.996
			c0,45.685-25.398,85.543-62.812,106.213c45.261-0.169,129.05-21.629,132.569-101.036C308.804,99.604,243.913,74.74,197.595,69.621
			z"/>
		<path style="fill:#EF8829;" d="M185.713,61.111c-1.969-1.244-3.963-2.453-6.008-3.582C181.75,58.659,183.743,59.87,185.713,61.111
			z"/>
		<path style="fill:#EF8829;" d="M192.031,65.385c-1.48-1.07-2.985-2.107-4.514-3.111C189.048,63.277,190.55,64.317,192.031,65.385z
			"/>
	</g>
	<g>
		<path style="fill:#84BD93;" d="M147.317,60.769c0.789,0.2,1.567,0.427,2.348,0.644C148.883,61.196,148.105,60.969,147.317,60.769z
			"/>
		<path style="fill:#84BD93;" d="M152.266,62.153c0.793,0.243,1.574,0.51,2.358,0.77C153.839,62.663,153.058,62.396,152.266,62.153z
			"/>
		<path style="fill:#84BD93;" d="M157.117,63.769c0.787,0.283,1.562,0.588,2.34,0.889C158.679,64.357,157.904,64.052,157.117,63.769
			z"/>
		<path style="fill:#84BD93;" d="M137.135,58.716c0.759,0.114,1.507,0.26,2.261,0.39C138.642,58.976,137.894,58.83,137.135,58.716z"
			/>
		<path style="fill:#84BD93;" d="M131.916,58.06c0.716,0.072,1.422,0.177,2.134,0.263C133.339,58.237,132.633,58.132,131.916,58.06z
			"/>
		<path style="fill:#84BD93;" d="M161.863,65.608c0.78,0.324,1.55,0.668,2.321,1.011C163.413,66.277,162.643,65.932,161.863,65.608z
			"/>
		<path style="fill:#84BD93;" d="M142.269,59.621c0.779,0.157,1.548,0.344,2.321,0.518
			C143.817,59.964,143.049,59.778,142.269,59.621z"/>
		<path style="fill:#84BD93;" d="M15.254,170.172c-0.128-2.129-0.213-4.269-0.213-6.43
			C15.042,165.902,15.127,168.043,15.254,170.172z"/>
		<path style="fill:#84BD93;" d="M183.756,77.932c0.704,0.514,1.401,1.038,2.092,1.569C185.156,78.97,184.46,78.447,183.756,77.932z
			"/>
		<path style="fill:#84BD93;" d="M187.727,80.979c0.682,0.549,1.357,1.105,2.025,1.67C189.084,82.084,188.409,81.528,187.727,80.979
			z"/>
		<path style="fill:#84BD93;" d="M191.552,84.208c0.656,0.58,1.306,1.166,1.947,1.762C192.858,85.375,192.208,84.789,191.552,84.208
			z"/>
		<path style="fill:#84BD93;" d="M171.002,69.93c0.757,0.403,1.505,0.822,2.251,1.243C172.506,70.752,171.759,70.333,171.002,69.93z
			"/>
		<path style="fill:#84BD93;" d="M166.488,67.662c0.772,0.365,1.534,0.747,2.295,1.13C168.021,68.409,167.26,68.027,166.488,67.662z
			"/>
		<path style="fill:#84BD93;" d="M175.386,72.401c0.741,0.441,1.474,0.895,2.203,1.354C176.86,73.296,176.128,72.842,175.386,72.401
			z"/>
		<path style="fill:#84BD93;" d="M179.64,75.071c0.724,0.478,1.439,0.967,2.15,1.463C181.079,76.038,180.364,75.549,179.64,75.071z"
			/>
		<path style="fill:#84BD93;" d="M126.625,57.661c0.595,0.03,1.182,0.091,1.775,0.131C127.807,57.753,127.22,57.691,126.625,57.661z
			"/>
		<path style="fill:#84BD93;" d="M44.292,236.825c-1.083-1.14-2.141-2.304-3.174-3.492
			C42.151,234.521,43.208,235.685,44.292,236.825z"/>
		<path style="fill:#84BD93;" d="M45.364,237.95c1.406,1.438,2.841,2.847,4.326,4.204C48.205,240.797,46.77,239.387,45.364,237.95z"
			/>
		<path style="fill:#84BD93;" d="M36.288,227.401c-1.234-1.642-2.41-3.329-3.549-5.043
			C33.878,224.072,35.054,225.759,36.288,227.401z"/>
		<path style="fill:#84BD93;" d="M40.084,232.14c-1.278-1.515-2.526-3.056-3.719-4.641C37.558,229.085,38.806,230.626,40.084,232.14
			z"/>
		<path style="fill:#84BD93;" d="M54.44,246.228c-1.615-1.311-3.198-2.658-4.733-4.059C51.242,243.57,52.825,244.918,54.44,246.228z
			"/>
		<path style="fill:#84BD93;" d="M15.856,176.667c-0.185-1.514-0.335-3.038-0.455-4.571
			C15.521,173.629,15.671,175.152,15.856,176.667z"/>
		<path style="fill:#84BD93;" d="M65.123,253.854c-1.513-0.946-2.999-1.931-4.46-2.95C62.124,251.923,63.61,252.907,65.123,253.854z
			"/>
		<path style="fill:#84BD93;" d="M59.384,249.994c-1.327-0.955-2.63-1.94-3.911-2.953C56.754,248.055,58.057,249.039,59.384,249.994
			z"/>
		<path style="fill:#84BD93;" d="M194.164,86.604c-16.167-9.954-35.184-15.708-55.522-15.708
			c-58.569,0-106.219,47.649-106.219,106.217c0,30.305,12.761,57.683,33.187,77.053c16.195,10.004,35.257,15.794,55.651,15.794
			c58.568,0,106.216-47.649,106.216-106.217C227.476,133.383,214.653,105.98,194.164,86.604z M157.141,117.227l8.957-8.958
			c2.938-2.938,7.7-2.937,10.636-0.001c2.938,2.937,2.938,7.699,0.001,10.636l-8.957,8.958c-1.469,1.469-3.394,2.203-5.318,2.203
			c-1.924,0-3.85-0.734-5.317-2.202C154.204,124.926,154.204,120.164,157.141,117.227z M114.604,92.81c0-4.154,2.346-7.52,6.5-7.52
			c4.154,0,6.5,3.367,6.5,7.52v12.668c0,4.154-2.346,7.521-6.5,7.521c-4.154,0-6.5-3.367-6.5-7.521V92.81z M65.784,108.268
			c2.938-2.936,7.699-2.936,10.637,0l8.956,8.956c2.937,2.938,2.937,7.699,0,10.637c-1.469,1.468-3.394,2.202-5.318,2.202
			c-1.924,0-3.85-0.734-5.318-2.202l-8.956-8.956C62.847,115.967,62.847,111.205,65.784,108.268z M50.327,172.081
			c-4.154,0-7.52-3.846-7.52-8s3.367-8,7.52-8h12.667c4.154,0,7.521,3.846,7.521,8s-3.367,8-7.521,8H50.327z M85.377,210.259
			l-8.956,8.957c-1.469,1.469-3.394,2.203-5.318,2.203c-1.924,0-3.85-0.735-5.317-2.202c-2.938-2.937-2.938-7.699-0.001-10.636
			l8.956-8.957c2.938-2.938,7.7-2.937,10.636-0.001C88.314,202.56,88.314,207.322,85.377,210.259z M127.604,234.675
			c0,4.154-2.346,7.521-6.5,7.521c-4.154,0-6.5-3.367-6.5-7.521v-12.668c0-4.154,2.346-7.521,6.5-7.521c4.154,0,6.5,3.367,6.5,7.521
			V234.675z M121.26,206.644c-23.656,0-42.902-19.245-42.902-42.902s19.245-42.902,42.902-42.902
			c23.655,0,42.901,19.246,42.901,42.902S144.916,206.644,121.26,206.644z M176.734,219.217c-1.468,1.468-3.393,2.202-5.317,2.202
			c-1.925,0-3.85-0.735-5.318-2.203l-8.957-8.958c-2.937-2.937-2.937-7.699,0.001-10.636c2.937-2.937,7.699-2.936,10.636,0.001
			l8.957,8.958C179.671,211.518,179.671,216.281,176.734,219.217z M192.191,172.081h-12.668c-4.154,0-7.52-3.846-7.52-8
			s3.367-8,7.52-8h12.668c4.154,0,7.521,3.846,7.521,8S196.345,172.081,192.191,172.081z"/>
		<path style="fill:#84BD93;" d="M18.577,190.908c-0.529-1.997-1.008-4.014-1.422-6.056
			C17.569,186.893,18.048,188.91,18.577,190.908z"/>
		<path style="fill:#84BD93;" d="M31.921,221.083c-0.842-1.307-1.657-2.633-2.442-3.978
			C30.264,218.451,31.079,219.776,31.921,221.083z"/>
		<path style="fill:#84BD93;" d="M20.377,196.921c-0.485-1.47-0.935-2.955-1.356-4.453
			C19.443,193.966,19.893,195.451,20.377,196.921z"/>
		<path style="fill:#84BD93;" d="M16.972,183.832c-0.329-1.714-0.618-3.442-0.864-5.183
			C16.354,180.39,16.643,182.118,16.972,183.832z"/>
		<path style="fill:#84BD93;" d="M22.684,203.228c-0.594-1.478-1.159-2.971-1.687-4.481
			C21.525,200.257,22.089,201.75,22.684,203.228z"/>
		<path style="fill:#84BD93;" d="M28.589,215.561c-0.82-1.461-1.605-2.944-2.358-4.446
			C26.984,212.617,27.769,214.099,28.589,215.561z"/>
		<path style="fill:#84BD93;" d="M25.725,210.126c-0.896-1.837-1.737-3.705-2.528-5.599
			C23.988,206.421,24.829,208.289,25.725,210.126z"/>
	</g>
	<g>
		<path style="fill:#FDD44B;" d="M128.998,136.998c2.127,0.617,4.148,1.478,6.033,2.557
			C133.145,138.477,131.126,137.615,128.998,136.998z"/>
		<path style="fill:#FDD44B;" d="M135.75,139.993c0.728,0.447,1.435,0.924,2.117,1.434
			C137.185,140.917,136.479,140.439,135.75,139.993z"/>
		<path style="fill:#FDD44B;" d="M125.644,136.262c0.825,0.131,1.638,0.298,2.437,0.5
			C127.281,136.559,126.47,136.393,125.644,136.262z"/>
		<path style="fill:#FDD44B;" d="M99.419,180.984c1.36,1.719,2.915,3.27,4.636,4.627
			C102.334,184.255,100.779,182.701,99.419,180.984z"/>
		<path style="fill:#FDD44B;" d="M143.13,146.54c-1.358-1.723-2.911-3.28-4.631-4.641C140.218,143.26,141.773,144.817,143.13,146.54
			z"/>
		<path style="fill:#FDD44B;" d="M121.26,135.882c1.156,0,2.289,0.093,3.408,0.23C123.549,135.975,122.416,135.882,121.26,135.882z"
			/>
		<path style="fill:#FDD44B;" d="M143.562,147.116c0.535,0.717,1.037,1.46,1.503,2.227
			C144.599,148.575,144.098,147.834,143.562,147.116z"/>
		<path style="fill:#FDD44B;" d="M106.858,187.545c-0.765-0.465-1.505-0.964-2.219-1.498
			C105.353,186.581,106.093,187.08,106.858,187.545z"/>
		<path style="fill:#FDD44B;" d="M98.942,180.346c-0.507-0.68-0.984-1.384-1.429-2.11C97.958,178.963,98.434,179.666,98.942,180.346
			z"/>
		<path style="fill:#FDD44B;" d="M145.279,149.696c-4.115-2.402-8.893-3.787-13.992-3.787c-15.361,0-27.86,12.498-27.86,27.86
			c0,5.098,1.385,9.877,3.787,13.992c4.13,2.425,8.921,3.84,14.046,3.84c15.362,0,27.859-12.498,27.859-27.86
			C149.119,158.617,147.704,153.826,145.279,149.696z"/>
		<path style="fill:#FDD44B;" d="M94.28,170.563c-0.202-0.799-0.369-1.612-0.5-2.437C93.911,168.952,94.078,169.763,94.28,170.563z"
			/>
		<path style="fill:#FDD44B;" d="M97.072,177.511c-1.078-1.884-1.939-3.905-2.556-6.031
			C95.133,173.607,95.994,175.626,97.072,177.511z"/>
		<path style="fill:#FDD44B;" d="M93.631,167.15c-0.137-1.119-0.23-2.252-0.23-3.407C93.4,164.898,93.493,166.03,93.631,167.15z"/>
	</g>
	<path style="fill:#3F2D20;" d="M121.26,206.644c23.655,0,42.901-19.245,42.901-42.902s-19.246-42.902-42.901-42.902
		c-23.656,0-42.902,19.245-42.902,42.902S97.604,206.644,121.26,206.644z M149.119,163.742c0,15.362-12.498,27.86-27.859,27.86
		s-27.86-12.498-27.86-27.86s12.498-27.86,27.86-27.86S149.119,148.38,149.119,163.742z"/>
	<path style="fill:#3F2D20;" d="M121.26,112.999c4.154,0,7.521-3.367,7.521-7.521V92.81c0-4.154-3.367-7.521-7.521-7.521
		c-4.154,0-7.521,3.367-7.521,7.521v12.668C113.739,109.632,117.106,112.999,121.26,112.999z"/>
	<path style="fill:#3F2D20;" d="M121.26,214.487c-4.154,0-7.521,3.367-7.521,7.521v12.668c0,4.154,3.367,7.521,7.521,7.521
		c4.154,0,7.521-3.367,7.521-7.521v-12.668C128.781,217.853,125.414,214.487,121.26,214.487z"/>
	<path style="fill:#3F2D20;" d="M42.806,163.742c0,4.154,3.367,7.521,7.521,7.521h12.667c4.154,0,7.521-3.367,7.521-7.521
		c0-4.154-3.367-7.521-7.521-7.521H50.327C46.173,156.221,42.806,159.588,42.806,163.742z"/>
	<path style="fill:#3F2D20;" d="M172.003,163.742c0,4.154,3.367,7.521,7.521,7.521h12.668c4.154,0,7.521-3.367,7.521-7.521
		c0-4.154-3.367-7.521-7.521-7.521h-12.668C175.37,156.221,172.003,159.588,172.003,163.742z"/>
	<path style="fill:#3F2D20;" d="M74.74,199.624l-8.956,8.957c-2.937,2.937-2.937,7.699,0.001,10.636
		c1.468,1.468,3.393,2.202,5.317,2.202c1.924,0,3.85-0.734,5.318-2.203l8.956-8.957c2.937-2.937,2.937-7.699-0.001-10.636
		C82.44,196.688,77.678,196.686,74.74,199.624z"/>
	<path style="fill:#3F2D20;" d="M162.459,130.065c1.924,0,3.85-0.734,5.318-2.203l8.957-8.958c2.937-2.937,2.937-7.699-0.001-10.636
		c-2.936-2.936-7.698-2.937-10.636,0.001l-8.957,8.958c-2.937,2.937-2.937,7.699,0.001,10.636
		C158.609,129.331,160.535,130.065,162.459,130.065z"/>
	<path style="fill:#3F2D20;" d="M74.74,127.861c1.469,1.468,3.394,2.202,5.318,2.202c1.924,0,3.85-0.734,5.318-2.202
		c2.937-2.938,2.937-7.699,0-10.637l-8.956-8.956c-2.938-2.936-7.699-2.936-10.637,0c-2.937,2.938-2.937,7.699,0,10.637
		L74.74,127.861z"/>
	<path style="fill:#3F2D20;" d="M167.777,199.623c-2.937-2.937-7.699-2.938-10.636-0.001c-2.938,2.937-2.938,7.699-0.001,10.636
		l8.957,8.958c1.469,1.469,3.393,2.203,5.319,2.203c1.924,0,3.85-0.734,5.317-2.202c2.938-2.937,2.938-7.699,0.001-10.636
		L167.777,199.623z"/>
	<path style="fill:#3F2D20;" d="M272.642,67.189c-25.674-15.469-60.62-24.705-93.481-24.705h-57.9C54.397,42.484,0,96.88,0,163.742
		c0,66.861,54.396,121.256,121.258,121.258h57.902c32.861,0,67.807-9.236,93.481-24.705c35.878-21.617,54.843-55.004,54.843-96.553
		S308.52,88.806,272.642,67.189z M227.476,163.742c0,58.568-47.648,106.217-106.216,106.217
		c-58.569,0-106.219-47.649-106.219-106.217c0-58.568,47.65-106.217,106.219-106.217
		C179.828,57.525,227.476,105.174,227.476,163.742z M242.518,163.742c0-45.685-25.398-85.543-62.812-106.213
		c46.237,0.172,132.737,22.523,132.737,106.213s-86.5,106.04-132.737,106.213C217.12,249.285,242.518,209.427,242.518,163.742z"/>
</g>
<g>
</g>
<g>
</g>
<g>
</g>
<g>
</g>
<g>
</g>
<g>
</g>
<g>
</g>
<g>
</g>
<g>
</g>
<g>
</g>
<g>
</g>
<g>
</g>
<g>
</g>
<g>
</g>
<g>
</g>
</svg>
