<?xml version="1.0" encoding="iso-8859-1"?>
<!-- Generator: Adobe Illustrator 19.0.0, SVG Export Plug-In . SVG Version: 6.00 Build 0)  -->
<svg version="1.1" id="Capa_1" xmlns="http://www.w3.org/2000/svg" xmlns:xlink="http://www.w3.org/1999/xlink" x="0px" y="0px"
	 viewBox="0 0 512 512" style="enable-background:new 0 0 512 512;" xml:space="preserve">
<path style="fill:#5C913B;" d="M6.523,71.534C6.523,71.534,76.269,0,149.592,0c87.63,0,113.553,70.648,113.553,70.648
	s8.942-57.227,71.534-57.227s99.261,44.709,99.261,44.709s-50.976,30.387-66.169,36.654
	c-40.074,16.496-162.741,50.961-219.968,36.654C90.576,117.145,6.523,71.534,6.523,71.534"/>
<path style="fill:#FF886C;" d="M248.847,84.053c0,0,14.908-12.819,85.841-12.819c93.595,0,171.682,68.859,171.682,184.945
	C506.37,421.151,292.368,512,292.368,512S5.63,496.563,5.63,255.406c0-142.482,96.571-185.66,157.376-185.66
	C233.938,69.746,248.847,84.053,248.847,84.053"/>
<path style="fill:#77B255;" d="M6.523,71.534C6.523,71.534,76.269,0,149.592,0c87.63,0,113.553,70.648,113.553,70.648
	s-58.114,75.096-115.342,60.789C90.576,117.145,6.523,71.534,6.523,71.534"/>
<path style="fill:#DD2E44;" d="M320.366,427.418c-2.718,0-5.48-0.787-7.926-2.404c-6.581-4.392-8.355-13.262-3.963-19.843
	c0.215-0.315,26.21-41.59,26.21-135.128c0-92.208-65.497-145.672-66.169-146.202c-6.167-4.936-7.168-13.934-2.232-20.116
	c4.936-6.152,13.934-7.153,20.116-2.232c3.133,2.518,76.899,62.736,76.899,168.55c0,103.296-29.744,149.106-31.017,151.009
	C329.538,425.186,324.988,427.418,320.366,427.418"/>
<g>
</g>
<g>
</g>
<g>
</g>
<g>
</g>
<g>
</g>
<g>
</g>
<g>
</g>
<g>
</g>
<g>
</g>
<g>
</g>
<g>
</g>
<g>
</g>
<g>
</g>
<g>
</g>
<g>
</g>
</svg>
