<?xml version="1.0" encoding="iso-8859-1"?>
<!-- Generator: Adobe Illustrator 19.0.0, SVG Export Plug-In . SVG Version: 6.00 Build 0)  -->
<svg version="1.1" id="Capa_1" xmlns="http://www.w3.org/2000/svg" xmlns:xlink="http://www.w3.org/1999/xlink" x="0px" y="0px"
	 viewBox="0 0 512 512" style="enable-background:new 0 0 512 512;" xml:space="preserve">
<path style="fill:#A5001E;" d="M363.861,298.915v184.072c0,16.022-12.991,29.013-29.024,29.013H177.162
	c-16.032,0-29.024-12.991-29.024-29.013V298.605c0-6.672,0.745-13.333,2.224-19.932l53.114-145.067l19.559-53.434h64.036
	l20.066,53.434l54.365,144.777C363.075,285.179,363.861,292.037,363.861,298.915z"/>
<path style="fill:#C70024;" d="M363.861,298.915v184.072c0,16.022-12.991,29.013-29.024,29.013H177.162
	c-16.032,0-29.024-12.991-29.024-29.013V298.605c0-6.672,0.745-13.333,2.224-19.932l72.673-198.501h64.036l74.431,198.211
	C363.075,285.179,363.861,292.037,363.861,298.915z"/>
<path style="fill:#A5001E;" d="M178.176,482.987V298.605c0-6.672,0.745-13.333,2.224-19.932l49.236-134.482
	c2.327-6.357,8.376-10.584,15.146-10.584h62.356l-20.066-53.434h-33.999h-30.037l-72.673,198.501
	c-1.479,6.599-2.224,13.26-2.224,19.932v184.382c0,16.022,12.991,29.013,29.024,29.013H207.2
	C191.167,512,178.176,499.009,178.176,482.987z"/>
<path style="fill:#FF9811;" d="M305.425,486.145h-98.849c-16.348,0-29.6-13.252-29.6-29.6V330.942c0-16.348,13.252-29.6,29.6-29.6
	h98.849c16.348,0,29.6,13.252,29.6,29.6v125.603C335.025,472.893,321.772,486.145,305.425,486.145z"/>
<path style="fill:#C70024;" d="M307.717,408.483c0,22.745-17.17,41.787-40.174,46.639c-3.713,0.786-7.571,1.2-11.543,1.2
	c-28.558,0-51.717-21.421-51.717-47.838s23.159-47.838,51.717-47.838c3.972,0,7.83,0.414,11.543,1.2
	C290.547,366.695,307.717,385.738,307.717,408.483z"/>
<path style="fill:#FF0C38;" d="M307.717,408.483c0,22.745-17.17,41.787-40.174,46.639c-22.993-4.851-40.164-23.893-40.164-46.639
	s17.17-41.787,40.164-46.639C290.547,366.695,307.717,385.738,307.717,408.483z"/>
<path style="fill:#5EAC24;" d="M314.198,388.945c-2.067-7.275-8.946-25.879-27.684-38.487c-6.825-4.592-14.661-7.45-22.756-8.672
	v-19.413c0-4.284-3.473-7.758-7.758-7.758c-4.284,0-7.758,3.473-7.758,7.758v19.048c-15.218,1.552-29.678,8.68-38.444,20.844
	c-4.463,6.194-8.573,13.964-11.743,23.702c-0.578,1.777,0.586,3.668,2.437,3.927c6.448,0.906,20.675,1.576,31.754-7.457
	c1.89-1.54,4.739-0.25,4.882,2.184c0.457,7.807,2.85,20.12,12.71,27.472c0.923,0.688,2.16,0.799,3.183,0.271
	c4.513-2.326,16.72-10.267,18.669-28.842c0.272-2.595,3.435-3.653,5.226-1.755c6.012,6.371,17.493,14.534,35.022,10.967
	C313.65,392.388,314.675,390.626,314.198,388.945z"/>
<path style="fill:#4E901E;" d="M277.09,345.44c-18.928,4.986-34.257,18.846-41.281,36.864c-1.024-0.703-2.462-0.765-3.558,0.134
	c-11.088,9.03-25.31,8.368-31.754,7.458c-1.851-0.259-3.02-2.151-2.441-3.93c3.165-9.733,7.282-17.501,11.74-23.697
	c8.771-12.164,23.231-19.29,38.447-20.842v-19.053c0-4.282,3.475-7.758,7.758-7.758c4.282,0,7.758,3.475,7.758,7.758v19.415
	C268.329,342.481,272.818,343.692,277.09,345.44z"/>
<path style="fill:#FF9811;" d="M309.869,28.351v58.016c0,10.53-8.606,19.135-19.135,19.135h-69.467
	c-10.53,0-19.135-8.606-19.135-19.135V28.351C202.131,12.764,214.885,0,230.472,0h51.055C297.115,0,309.869,12.764,309.869,28.351z"
	/>
<path style="fill:#EE8700;" d="M249.711,105.503h-28.444c-10.53,0-19.135-8.606-19.135-19.135V28.351
	C202.131,12.764,214.885,0,230.472,0h28.444c-15.588,0-28.341,12.764-28.341,28.351v58.016
	C230.576,96.897,239.182,105.503,249.711,105.503z"/>
<path style="fill:#AA6100;" d="M272.549,41.891v13.425c0,5.793-5.106,10.541-11.335,10.541h-10.428
	c-6.23,0-11.335-4.748-11.335-10.541V41.891H272.549z"/>
<rect x="202.131" y="34.133" style="fill:#CC7400;" width="107.737" height="15.515"/>
<rect id="SVGCleanerId_0" x="202.131" y="34.133" style="fill:#AA6100;" width="28.444" height="15.515"/>
<g>
	<rect id="SVGCleanerId_0_1_" x="202.131" y="34.133" style="fill:#AA6100;" width="28.444" height="15.515"/>
</g>
<g>
</g>
<g>
</g>
<g>
</g>
<g>
</g>
<g>
</g>
<g>
</g>
<g>
</g>
<g>
</g>
<g>
</g>
<g>
</g>
<g>
</g>
<g>
</g>
<g>
</g>
<g>
</g>
<g>
</g>
</svg>
