<?xml version="1.0" encoding="iso-8859-1"?>
<!-- Generator: Adobe Illustrator 19.0.0, SVG Export Plug-In . SVG Version: 6.00 Build 0)  -->
<svg version="1.1" id="Capa_1" xmlns="http://www.w3.org/2000/svg" xmlns:xlink="http://www.w3.org/1999/xlink" x="0px" y="0px"
	 viewBox="0 0 512 512" style="enable-background:new 0 0 512 512;" xml:space="preserve">
<path style="fill:#2864F0;" d="M332.227,411.082H179.774c-8.284,0-15,6.716-15,15V497c0,8.284,6.716,15,15,15h152.453
	c8.284,0,15-6.716,15-15v-70.918C347.227,417.798,340.511,411.082,332.227,411.082z"/>
<path style="fill:#0053BF;" d="M332.227,411.082H256V512h76.227c8.284,0,15-6.716,15-15v-70.918
	C347.227,417.798,340.511,411.082,332.227,411.082z"/>
<path style="fill:#FFDA45;" d="M403.461,227.915c-2.566-4.549-2.566-10.2,0-14.747l20.146-35.688
	c5.277-9.347,7.04-20.294,4.964-30.826L402.044,12.099C400.658,5.068,394.493,0,387.327,0H124.673
	c-7.166,0-13.331,5.068-14.717,12.099L83.43,146.653c-2.076,10.53-0.314,21.477,4.962,30.825l20.147,35.689
	c2.567,4.548,2.567,10.199,0,14.747L91.347,258.37c-7.781,13.783-7.707,30.866,0.193,44.581l75.235,130.617
	c2.678,4.649,7.634,7.514,12.998,7.514h152.453c5.364,0,10.32-2.864,12.998-7.514l75.235-130.617
	c7.899-13.715,7.974-30.797,0.193-44.582L403.461,227.915z"/>
<path style="fill:#FFBC36;" d="M403.461,227.915c-2.566-4.549-2.566-10.2,0-14.747l20.146-35.688
	c5.277-9.347,7.04-20.294,4.964-30.826L402.044,12.099C400.658,5.068,394.493,0,387.327,0H256v441.082h76.227
	c5.364,0,10.32-2.864,12.998-7.514l75.235-130.617c7.899-13.715,7.974-30.797,0.193-44.582L403.461,227.915z"/>
<g>
</g>
<g>
</g>
<g>
</g>
<g>
</g>
<g>
</g>
<g>
</g>
<g>
</g>
<g>
</g>
<g>
</g>
<g>
</g>
<g>
</g>
<g>
</g>
<g>
</g>
<g>
</g>
<g>
</g>
</svg>
