<?xml version="1.0" encoding="iso-8859-1"?>
<!-- Generator: Adobe Illustrator 19.0.0, SVG Export Plug-In . SVG Version: 6.00 Build 0)  -->
<svg version="1.1" id="Capa_1" xmlns="http://www.w3.org/2000/svg" xmlns:xlink="http://www.w3.org/1999/xlink" x="0px" y="0px"
	 viewBox="0 0 512.009 512.009" style="enable-background:new 0 0 512.009 512.009;" xml:space="preserve">
<path style="fill:#CFCFCF;" d="M414.643,79.328V52.885H326.5v26.443l-31.29,31.29c-13.777,13.768-21.242,32.621-20.625,52.092
	l6.963,223.705c0.599,18.422-2.089,36.808-7.933,54.296l0,0v44.071c0,14.605,11.837,26.443,26.443,26.443l0,0h141.027
	c14.605,0,26.443-11.837,26.443-26.443l0,0v-44.071l0,0c-5.844-17.487-8.532-35.874-7.933-54.296l6.963-223.705
	c0.617-19.471-6.849-38.324-20.625-52.092L414.643,79.328z"/>
<rect x="326.483" y="52.885" style="fill:#BFBFBF;" width="88.142" height="17.628"/>
<path style="fill:#FDB62F;" d="M466.558,162.71c0.37-11.626-2.142-23.164-7.316-33.582l-16.923,3.79
	c-24.028,5.368-48.954,5.368-72.982,0l0,0c-28.091-6.258-57.319-5.2-84.881,3.085l-6.082,1.851
	c-2.759,7.986-4.046,16.412-3.79,24.856l6.963,223.705c0.599,18.422-2.089,36.808-7.933,54.296v44.071
	c0,14.605,11.837,26.443,26.443,26.443l0,0h141.027c14.605,0,26.443-11.837,26.443-26.443l0,0v-44.071
	c-5.844-17.487-8.532-35.874-7.933-54.296L466.558,162.71z"/>
<g>
	<path style="fill:#77A226;" d="M465.853,185.098H275.29l6.258,201.317c0.264,9.317-0.264,18.633-1.587,27.853h181.22
		c-1.322-9.22-1.851-18.536-1.587-27.853L465.853,185.098z"/>
	<path style="fill:#77A226;" d="M335.315,0h70.514c9.74,0,17.628,7.889,17.628,17.628v35.257l0,0H317.686l0,0V17.628
		C317.686,7.889,325.584,0,335.315,0z"/>
</g>
<g>
	<path style="fill:#5A821E;" d="M130.032,438.155l-12.516-12.516c43.639-43.384,68.107-102.412,67.958-163.944V88.142h17.628
		v173.552C203.26,327.906,176.95,391.439,130.032,438.155z"/>
	<path style="fill:#5A821E;" d="M215.265,414.797l-17.628-1.587l2.204-13.221c7.21-35.627,2.309-72.638-13.926-105.154l15.777-7.933
		c17.955,36.05,23.375,77.045,15.425,116.524L215.265,414.797z"/>
</g>
<g>
	
		<ellipse transform="matrix(-0.5909 -0.8068 0.8068 -0.5909 -71.4228 641.3492)" style="fill:#77A226;" cx="126.909" cy="338.785" rx="17.629" ry="79.331"/>
	
		<ellipse transform="matrix(-0.7779 -0.6283 0.6283 -0.7779 117.3145 479.0436)" style="fill:#77A226;" cx="143.306" cy="218.792" rx="17.627" ry="79.5"/>
	
		<ellipse transform="matrix(-0.573 -0.8196 0.8196 -0.573 148.3297 650.8062)" style="fill:#77A226;" cx="243.71" cy="286.761" rx="79.331" ry="17.629"/>
	
		<ellipse transform="matrix(-0.994 -0.109 0.109 -0.994 356.6425 938.0925)" style="fill:#77A226;" cx="203.962" cy="459.298" rx="35.255" ry="52.883"/>
	
		<ellipse transform="matrix(-0.7071 -0.7071 0.7071 -0.7071 -177.0391 859.2128)" style="fill:#77A226;" cx="89.429" cy="466.272" rx="35.257" ry="52.885"/>
</g>
<path style="fill:#BFBFBF;" d="M413.144,134.329c0.441,0.793,0.793,1.587,1.322,2.38c9.369-0.511,18.686-1.78,27.853-3.79
	l16.923-3.79c1.155,2.442,2.186,4.945,3.085,7.492c-3.464-9.784-9.061-18.669-16.394-26.002l-31.29-31.29V52.885h-44.071v17.628
	L413.144,134.329z"/>
<g>
	<path style="fill:#CFCFCF;" d="M466.294,154.513c0.176,2.732,0.176,5.465,0,8.197C466.47,159.978,466.47,157.246,466.294,154.513z"
		/>
	<path style="fill:#CFCFCF;" d="M465.06,146.316c0.45,2.001,0.776,4.037,0.97,6.082C465.836,150.353,465.518,148.317,465.06,146.316
		z"/>
	<path style="fill:#CFCFCF;" d="M462.856,137.942c0.705,2.115,1.234,4.231,1.763,6.346
		C464.09,142.173,463.473,140.058,462.856,137.942z"/>
</g>
<g>
	<path style="fill:#FDB62F;" d="M466.029,152.398c0.044,0.705,0.044,1.41,0,2.115C466.074,153.808,466.074,153.103,466.029,152.398z
		"/>
	<path style="fill:#FDB62F;" d="M464.619,144.289c0.044,0.679,0.044,1.349,0,2.027C464.663,145.637,464.663,144.967,464.619,144.289
		z"/>
	<path style="fill:#FDB62F;" d="M462.327,136.62l0.529,1.322L462.327,136.62z"/>
</g>
<g>
	<path style="fill:#FD9133;" d="M461.182,414.268h-40.986l-0.793,64.696c-0.194,17.875-14.737,32.26-32.613,32.26h54.296
		c14.605,0,26.443-11.837,26.443-26.443l0,0v-44.071C464.672,432.09,462.548,423.25,461.182,414.268z"/>
	<path style="fill:#FD9133;" d="M442.319,132.918c-9.167,2.01-18.483,3.279-27.853,3.79c5.826,9.555,8.885,20.537,8.814,31.731
		l0.176,16.659h42.837l-6.699,201.317l6.963-223.705c0.176-2.732,0.176-5.465,0-8.197c0.044-0.705,0.044-1.41,0-2.115
		c-0.194-2.045-0.52-4.081-0.97-6.082c0.044-0.679,0.044-1.349,0-2.027c-0.529-2.115-1.058-4.231-1.763-6.346l-0.529-1.322
		c-0.899-2.547-1.93-5.051-3.085-7.492L442.319,132.918z"/>
</g>
<g>
	<path style="fill:#77A226;" d="M459.595,386.415c0,4.672,0,9.343,0,14.015C459.507,395.758,459.419,391.087,459.595,386.415z"/>
	<path style="fill:#77A226;" d="M459.771,400.43c0,4.583,0.793,8.814,1.41,13.838C460.565,409.685,460.036,405.454,459.771,400.43z"
		/>
</g>
<path style="fill:#5A821E;" d="M423.457,185.098l-2.821,229.17h40.986c-0.617-4.583-1.146-8.814-1.41-13.838l0,0
	c0-4.672,0-9.343,0-14.015l5.641-201.317H423.457z"/>
<ellipse style="fill:#FFFFFF;" cx="370.554" cy="246.798" rx="61.699" ry="26.443"/>
<g>
	<rect x="308.854" y="370.197" style="fill:#5A821E;" width="123.399" height="17.628"/>
	<rect x="308.854" y="299.683" style="fill:#5A821E;" width="123.399" height="17.628"/>
	<rect x="326.483" y="334.94" style="fill:#5A821E;" width="88.142" height="17.628"/>
	<path style="fill:#5A821E;" d="M405.828,0h-35.257c9.74,0,17.628,7.889,17.628,17.628v35.257h35.257V17.628
		C423.457,7.889,415.568,0,405.828,0z"/>
</g>
<g>
</g>
<g>
</g>
<g>
</g>
<g>
</g>
<g>
</g>
<g>
</g>
<g>
</g>
<g>
</g>
<g>
</g>
<g>
</g>
<g>
</g>
<g>
</g>
<g>
</g>
<g>
</g>
<g>
</g>
</svg>
