<?xml version="1.0" encoding="iso-8859-1"?>
<!-- Generator: Adobe Illustrator 19.0.0, SVG Export Plug-In . SVG Version: 6.00 Build 0)  -->
<svg version="1.1" id="Capa_1" xmlns="http://www.w3.org/2000/svg" xmlns:xlink="http://www.w3.org/1999/xlink" x="0px" y="0px"
	 viewBox="0 0 468.293 468.293" style="enable-background:new 0 0 468.293 468.293;" xml:space="preserve">
<path style="fill:#44C4A1;" d="M331.229,13.789l109.742,109.742c20.095,20.096,17.91,53.256-4.656,70.596l-28.979,22.233
	l-102.663,78.625l-69.913,53.526c-2.675,2.048-6.453,1.798-8.835-0.584L106.789,228.791c-2.383-2.383-2.632-6.163-0.582-8.837
	L260.633,18.445C277.926-4.169,311.134-6.306,331.229,13.789z"/>
<rect x="98.249" y="285.228" transform="matrix(0.7071 0.7071 -0.7071 0.7071 255.8163 -25.5218)" style="fill:#D5D6DB;" width="120.932" height="21.616"/>
<path style="fill:#E56353;" d="M92.597,245.197l116.941,116.941c2.438,2.438,2.438,6.392,0,8.83l-3.827,3.827
	c-19.507,19.507-51.135,19.507-70.642,0l-55.13-55.13c-19.507-19.507-19.507-51.135,0-70.642l3.827-3.827
	C86.205,242.759,90.159,242.759,92.597,245.197z"/>
<path style="fill:#E1E6E9;" d="M213.602,184.911l71.641-71.641c5.247-5.248,13.755-5.248,19.003,0L407.337,216.36l-102.663,78.625
	l-91.071-91.072C208.354,198.666,208.354,190.158,213.602,184.911z"/>
<g>
	<circle style="fill:#64798A;" cx="104.822" cy="402.045" r="10.078"/>
	<circle style="fill:#64798A;" cx="67.558" cy="422.213" r="10.078"/>
	<circle style="fill:#64798A;" cx="38.642" cy="458.215" r="10.078"/>
	<circle style="fill:#64798A;" cx="23.626" cy="402.045" r="10.078"/>
	<circle style="fill:#64798A;" cx="58.798" cy="375.383" r="10.078"/>
</g>
<g>
</g>
<g>
</g>
<g>
</g>
<g>
</g>
<g>
</g>
<g>
</g>
<g>
</g>
<g>
</g>
<g>
</g>
<g>
</g>
<g>
</g>
<g>
</g>
<g>
</g>
<g>
</g>
<g>
</g>
</svg>
