<?xml version="1.0" encoding="iso-8859-1"?>
<!-- Generator: Adobe Illustrator 19.0.0, SVG Export Plug-In . SVG Version: 6.00 Build 0)  -->
<svg version="1.1" id="Capa_1" xmlns="http://www.w3.org/2000/svg" xmlns:xlink="http://www.w3.org/1999/xlink" x="0px" y="0px"
	 viewBox="0 0 512.003 512.003" style="enable-background:new 0 0 512.003 512.003;" xml:space="preserve">
<path style="fill:#704C48;" d="M79.193,197.404v-85.259H25.259v85.259c0,11.924-4.476,23.46-12.629,32.55l0,0
	C4.476,239.045,0,250.582,0,262.506V419.5c0,10.962,9.389,19.848,20.973,19.848H83.48c11.583,0,20.972-8.886,20.972-19.848V262.506
	c0-11.924-4.476-23.46-12.629-32.551l0,0C83.669,220.865,79.193,209.329,79.193,197.404z"/>
<path style="fill:#F5D66C;" d="M71.341,72.657H33.112c-4.337,0-7.854,3.516-7.854,7.854v31.636h53.934V80.509
	C79.193,76.172,75.677,72.657,71.341,72.657z"/>
<path style="fill:#5B3E3C;" d="M91.823,229.955L91.823,229.955c-8.153-9.091-12.629-20.626-12.629-32.55v-85.259H50.334v85.259
	c0,11.924,4.476,23.46,12.629,32.55l0,0c8.153,9.091,12.629,20.627,12.629,32.55v156.993c0,10.962-9.389,19.848-20.972,19.848H83.48
	c11.583,0,20.972-8.886,20.972-19.848V262.506C104.452,250.582,99.977,239.045,91.823,229.955z"/>
<rect y="278.684" style="fill:#F5D66C;" width="104.453" height="123.474"/>
<g>
	<path style="fill:#EDBC62;" d="M71.341,72.656H42.48c4.337,0,7.854,3.516,7.854,7.854v31.636h28.859V80.509
		C79.193,76.172,75.677,72.656,71.341,72.656z"/>
	<rect x="75.592" y="278.684" style="fill:#EDBC62;" width="28.861" height="123.474"/>
</g>
<path style="fill:#F5D66C;" d="M215.043,197.404v-85.259h-53.934v85.259c0,11.924-4.476,23.46-12.629,32.55l0,0
	c-8.153,9.091-12.629,20.627-12.629,32.55v156.993c0,10.962,9.389,19.848,20.973,19.848h62.507c11.583,0,20.972-8.886,20.972-19.848
	V262.506c0-11.924-4.476-23.46-12.629-32.551l0,0C219.518,220.865,215.043,209.329,215.043,197.404z"/>
<path style="fill:#D46466;" d="M207.189,72.657h-38.228c-4.337,0-7.854,3.516-7.854,7.854v31.636h53.934V80.509
	C215.043,76.172,211.527,72.657,207.189,72.657z"/>
<path style="fill:#EDBC62;" d="M227.672,229.955L227.672,229.955c-8.153-9.091-12.629-20.626-12.629-32.55v-85.259h-31.397v85.259
	c0,11.924,4.476,23.46,12.629,32.55l0,0c8.153,9.091,12.629,20.627,12.629,32.55v156.993c0,10.962-9.389,19.848-20.972,19.848
	h31.398c11.583,0,20.972-8.886,20.972-19.848V262.506C240.302,250.582,235.825,239.045,227.672,229.955z"/>
<rect x="135.847" y="278.684" style="fill:#D46466;" width="104.453" height="123.474"/>
<g>
	<path style="fill:#C85665;" d="M207.189,72.656h-31.398c4.337,0,7.854,3.516,7.854,7.854v31.636h31.397V80.509
		C215.043,76.172,211.527,72.656,207.189,72.656z"/>
	<rect x="208.906" y="278.684" style="fill:#C85665;" width="31.397" height="123.474"/>
</g>
<path style="fill:#D68369;" d="M350.892,197.404v-85.259h-53.934v85.259c0,11.924-4.476,23.46-12.629,32.55l0,0
	c-8.153,9.091-12.629,20.627-12.629,32.55v156.993c0,10.962,9.389,19.848,20.973,19.848h62.507c11.583,0,20.972-8.886,20.972-19.848
	V262.506c0-11.924-4.476-23.46-12.629-32.551l0,0C355.368,220.865,350.892,209.329,350.892,197.404z"/>
<g>
	<path style="fill:#83524F;" d="M343.039,72.657h-38.228c-4.337,0-7.854,3.516-7.854,7.854v31.636h53.934V80.509
		C350.892,76.172,347.376,72.657,343.039,72.657z"/>
	<rect x="271.693" y="278.684" style="fill:#83524F;" width="104.453" height="123.474"/>
</g>
<path style="fill:#D16C4E;" d="M363.521,229.955L363.521,229.955c-8.153-9.091-12.629-20.626-12.629-32.55v-85.259h-31.398v85.259
	c0,11.924,4.476,23.46,12.629,32.55l0,0c8.153,9.091,12.629,20.627,12.629,32.55v156.993c0,10.962-9.389,19.848-20.972,19.848
	h31.398c11.583,0,20.972-8.886,20.972-19.848V262.506C376.15,250.582,371.675,239.045,363.521,229.955z"/>
<path style="fill:#D46466;" d="M486.741,197.404v-85.259h-53.935v85.259c0,11.924-4.476,23.46-12.629,32.55l0,0
	c-8.153,9.091-12.629,20.627-12.629,32.55v156.993c0,10.962,9.389,19.848,20.973,19.848h62.507c11.583,0,20.972-8.886,20.972-19.848
	V262.506c0-11.924-4.476-23.46-12.629-32.551l0,0C491.217,220.865,486.741,209.329,486.741,197.404z"/>
<path style="fill:#F5D66C;" d="M478.888,72.657h-38.228c-4.337,0-7.854,3.516-7.854,7.854v31.636h53.935V80.509
	C486.741,76.172,483.225,72.657,478.888,72.657z"/>
<path style="fill:#C85665;" d="M499.371,229.955L499.371,229.955c-8.153-9.091-12.629-20.626-12.629-32.55v-85.259h-31.398v85.259
	c0,11.924,4.476,23.46,12.629,32.55l0,0c8.153,9.091,12.629,20.627,12.629,32.55v156.993c0,10.962-9.389,19.848-20.972,19.848
	h31.398c11.583,0,20.972-8.886,20.972-19.848V262.506C512,250.582,507.524,239.045,499.371,229.955z"/>
<path style="fill:#EDBC62;" d="M478.888,72.656H447.49c4.337,0,7.854,3.516,7.854,7.854v31.636h31.398V80.509
	C486.741,76.172,483.225,72.656,478.888,72.656z"/>
<rect x="407.55" y="278.684" style="fill:#F5D66C;" width="104.453" height="123.474"/>
<rect x="480.599" y="278.684" style="fill:#EDBC62;" width="31.398" height="123.474"/>
<g>
	<rect x="344.753" y="278.684" style="fill:#704C48;" width="31.398" height="123.474"/>
	<path style="fill:#704C48;" d="M343.039,72.656h-31.397c4.337,0,7.854,3.516,7.854,7.854v31.636h31.398V80.509
		C350.892,76.172,347.376,72.656,343.039,72.656z"/>
</g>
<circle style="fill:#D16C4E;" cx="51.794" cy="340.421" r="23.797"/>
<g>
	<circle style="fill:#FCF0CB;" cx="188.073" cy="340.421" r="23.797"/>
	<circle style="fill:#FCF0CB;" cx="323.92" cy="340.421" r="23.797"/>
</g>
<circle style="fill:#83524F;" cx="459.777" cy="340.421" r="23.797"/>
<g>
</g>
<g>
</g>
<g>
</g>
<g>
</g>
<g>
</g>
<g>
</g>
<g>
</g>
<g>
</g>
<g>
</g>
<g>
</g>
<g>
</g>
<g>
</g>
<g>
</g>
<g>
</g>
<g>
</g>
</svg>
