<?xml version="1.0" encoding="iso-8859-1"?>
<!-- Generator: Adobe Illustrator 19.0.0, SVG Export Plug-In . SVG Version: 6.00 Build 0)  -->
<svg version="1.1" id="Capa_1" xmlns="http://www.w3.org/2000/svg" xmlns:xlink="http://www.w3.org/1999/xlink" x="0px" y="0px"
	 viewBox="0 0 512 512" style="enable-background:new 0 0 512 512;" xml:space="preserve">
<path style="fill:#664B34;" d="M406,421.099V467c0,24.899-20.099,45-45,45H151c-24.901,0-45-20.101-45-45v-45.901
	c0-41.999,7.8-87.4,23.401-136c0.298-0.599,0.599-1.199,0.599-1.8l19.2-5.4l46.199,26.4c0,0,18.001,9.901,38.101-2.401
	c0,0,10.8-7.2,22.5-14.099c12.001-7.2,24.901-14.401,29.099-14.401c0,0,48.602-18.3,98.401,35.7l11.1,10.201
	C401.499,349.3,406,383.299,406,421.099z"/>
<path style="fill:#59422D;" d="M406,421.099V467c0,24.899-20.099,45-45,45H256V287.8c12.001-7.2,24.901-14.401,29.099-14.401
	c0,0,48.602-18.3,98.401,35.7l11.1,10.201C401.499,349.3,406,383.299,406,421.099z"/>
<path style="fill:#E1E4FB;" d="M331.3,163.299L335.5,121L322,91H190l-13.5,30l4.2,42.299c-22.5,45-38.699,83.701-50.7,120
	c12.9,1.8,25.501,7.5,36.601,17.701C193.6,325.6,229,325.899,256,301.599c0.3-0.298,0.3-0.298,0.601-0.599
	c27.299-24.901,62.999-24.901,90,0c14.7,13.2,31.199,19.2,47.999,18.3C379.3,253.299,352,204.099,331.3,163.299z"/>
<path style="fill:#C5C9F7;" d="M335.501,121l-4.2,42.299c20.7,40.8,47.999,90,63.3,156c-16.8,0.901-33.3-5.099-47.999-18.3
	c-27.001-24.901-62.701-24.901-90,0c-0.3,0.3-0.3,0.3-0.601,0.599V91h66"/>
<path style="fill:#FD3018;" d="M166,16.5l9,89.801v1.199l1.5,13.5h159.001l1.5-13.5v-1.2l9-89.801L166,16.5L166,16.5z"/>
<path style="fill:#FD4E26;" d="M376,15c0,8.401-6.599,15-15,15H151c-8.401,0-15-6.599-15-15s6.599-15,15-15h210
	C369.401,0,376,6.599,376,15z"/>
<polygon style="fill:#E61E14;" points="335.501,121 256,121 256,16.5 346,16.5 337,106.3 337,107.5 "/>
<path style="fill:#FD3018;" d="M361,30H256V0h105c8.401,0,15,6.599,15,15S369.401,30,361,30z"/>
<g>
</g>
<g>
</g>
<g>
</g>
<g>
</g>
<g>
</g>
<g>
</g>
<g>
</g>
<g>
</g>
<g>
</g>
<g>
</g>
<g>
</g>
<g>
</g>
<g>
</g>
<g>
</g>
<g>
</g>
</svg>
