<?xml version="1.0" encoding="iso-8859-1"?>
<!-- Generator: Adobe Illustrator 19.0.0, SVG Export Plug-In . SVG Version: 6.00 Build 0)  -->
<svg version="1.1" id="Capa_1" xmlns="http://www.w3.org/2000/svg" xmlns:xlink="http://www.w3.org/1999/xlink" x="0px" y="0px"
	 viewBox="0 0 512 512" style="enable-background:new 0 0 512 512;" xml:space="preserve">
<path style="fill:#008877;" d="M417.152,512h-200V212c0-33.45,23.586-61.497,55-68.382V0h90v143.618
	c31.414,6.885,55,34.932,55,68.382V512z"/>
<path style="fill:#00665A;" d="M417.152,212c0-33.45-23.586-61.497-55-68.382V0h-45v512h100V212z"/>
<path style="fill:#FFF1AB;" d="M417.152,411h-100V241h100V411z"/>
<rect x="272.15" style="fill:#FD0E22;" width="90" height="90"/>
<rect x="317.15" style="fill:#CD091C;" width="45" height="90"/>
<rect x="154.15" y="376" style="fill:#93D7F4;" width="30" height="121"/>
<rect x="169.15" y="376" style="fill:#4BBAED;" width="15" height="121"/>
<g>
	<rect x="114.14" y="482" style="fill:#D1E7F8;" width="110.03" height="30"/>
	<path style="fill:#D1E7F8;" d="M169.152,391c-21.883,0-42.546-9.576-56.691-26.273c-14.145-16.698-20.194-38.654-16.597-60.24
		L106.445,241h125.414l10.581,63.486c3.598,21.586-2.452,43.542-16.597,60.24C211.699,381.424,191.036,391,169.152,391z"/>
</g>
<g>
	<path style="fill:#B3D8F4;" d="M242.44,304.486L231.859,241h-62.707v150c21.883,0,42.546-9.576,56.691-26.273
		C239.989,348.028,246.038,326.072,242.44,304.486z"/>
	<rect x="169.15" y="482" style="fill:#B3D8F4;" width="55.02" height="30"/>
</g>
<g>
</g>
<g>
</g>
<g>
</g>
<g>
</g>
<g>
</g>
<g>
</g>
<g>
</g>
<g>
</g>
<g>
</g>
<g>
</g>
<g>
</g>
<g>
</g>
<g>
</g>
<g>
</g>
<g>
</g>
</svg>
