<?xml version="1.0" encoding="iso-8859-1"?>
<!-- Generator: Adobe Illustrator 19.0.0, SVG Export Plug-In . SVG Version: 6.00 Build 0)  -->
<svg version="1.1" id="Capa_1" xmlns="http://www.w3.org/2000/svg" xmlns:xlink="http://www.w3.org/1999/xlink" x="0px" y="0px"
	 viewBox="0 0 512 512" style="enable-background:new 0 0 512 512;" xml:space="preserve">
<path style="fill:#A3603E;" d="M435.2,110.933H110.933c0-14.507-11.093-25.6-25.6-25.6H25.6L8.533,68.267v9.387
	c0,18.773,14.507,33.28,33.28,33.28l0,0h26.453L13.653,189.44C7.68,197.973,7.68,209.067,12.8,217.6
	c4.267,8.533,12.8,12.8,22.187,12.8H92.16c5.973,0,11.093,3.413,14.507,8.533l54.613,76.8v128h34.133l25.6-119.467h204.8l25.6,25.6
	l-17.067,93.867h34.133l34.133-102.4l-12.8-32.427c-2.56-6.827-3.413-13.653-1.707-21.333l15.36-57.173v-51.2l0,0
	C503.467,141.653,472.747,110.933,435.2,110.933z"/>
<path style="fill:#8F5436;" d="M155.307,305.493l6.827,10.24v128h34.133l25.6-119.467h204.8l25.6,25.6L435.2,443.733h34.133
	l34.133-102.4l-12.8-32.427c-2.56-6.827-3.413-13.653-1.707-21.333l14.507-57.173v-51.2l0,0c0-17.92-6.827-34.987-19.627-47.787
	C389.973,237.227,235.52,286.72,155.307,305.493z"/>
<rect x="68.267" y="145.067" style="fill:#75462E;" width="17.067" height="17.067"/>
<path style="fill:#8F5436;" d="M452.267,358.4c-2.56,0-4.267-0.853-5.973-2.56l-44.373-44.373
	C390.827,300.373,384,285.013,384,268.8v-21.333c0-5.12,3.413-8.533,8.533-8.533s8.533,3.413,8.533,8.533V268.8
	c0,11.093,4.267,22.187,12.8,29.867l44.373,44.373c3.413,3.413,3.413,8.533,0,11.947C456.533,357.547,454.827,358.4,452.267,358.4z"
	/>
<rect x="68.267" y="145.067" width="17.067" height="17.067"/>
<path d="M435.2,102.4H118.613c-4.267-15.36-17.067-25.6-33.28-25.6h-56.32L14.507,62.293c-3.413-3.413-8.533-3.413-11.947,0
	C0.853,64,0,65.707,0,68.267v9.387c0,23.04,18.773,41.813,41.813,41.813h10.24L6.827,184.32c-7.68,11.093-8.533,25.6-1.707,37.547
	c6.827,11.093,17.92,17.067,30.72,17.067h57.173c3.413,0,5.973,1.707,7.68,4.267l52.907,75.093v125.44
	c0,5.12,3.413,8.533,8.533,8.533h34.133c4.267,0,7.68-2.56,8.533-6.827l23.893-112.64h194.56l19.627,19.627l-16.213,89.6
	c-0.853,4.267,2.56,9.387,6.827,10.24c0.853,0,0.853,0,1.707,0h34.133c3.413,0,6.827-2.56,7.68-5.973l34.133-102.4
	c0.853-1.707,0.853-4.267,0-5.973l-12.8-32.427c-1.707-5.12-2.56-10.24-0.853-15.36L512,232.96c0-0.853,0-1.707,0-1.707v-51.2
	C512,136.533,477.867,102.4,435.2,102.4z M494.933,187.733V204.8c0,9.387-7.68,17.067-17.067,17.067S460.8,214.187,460.8,204.8
	v-8.533c0-18.773-15.36-34.133-34.133-34.133h-25.6V179.2h25.6c9.387,0,17.067,7.68,17.067,17.067v8.533
	c0,18.773,15.36,34.133,34.133,34.133c5.12,0,11.093-1.707,15.36-4.267l-12.8,51.2c-2.56,8.533-1.707,17.92,1.707,26.453
	l11.947,29.867l-31.573,93.867h-17.92l15.36-83.627c0.853-2.56,0-5.973-2.56-7.68l-44.373-44.373
	c-7.68-7.68-12.8-18.773-12.8-29.867v-23.04h-17.067V268.8c0,16.213,5.973,30.72,17.92,42.667l4.267,4.267H221.867
	c-4.267,0-7.68,2.56-8.533,6.827L189.44,435.2h-18.773V315.733c0-1.707-0.853-3.413-1.707-5.12l-54.613-76.8
	c-4.267-7.68-12.8-11.947-22.187-11.947H34.987c-6.827,0-12.8-3.413-16.213-8.533c-3.413-5.973-3.413-13.653,0.853-18.773
	l54.613-78.507c2.56-4.267,1.707-9.387-2.56-11.947c0-0.853-1.707-1.707-3.413-1.707H41.813c-7.68,0-14.507-3.413-18.773-9.387
	c0.853,0.853,1.707,0.853,2.56,0.853h59.733c9.387,0,17.067,7.68,17.067,17.067c0,5.12,3.413,8.533,8.533,8.533H435.2
	c33.28,0,59.733,26.453,59.733,59.733V187.733z"/>
<g>
</g>
<g>
</g>
<g>
</g>
<g>
</g>
<g>
</g>
<g>
</g>
<g>
</g>
<g>
</g>
<g>
</g>
<g>
</g>
<g>
</g>
<g>
</g>
<g>
</g>
<g>
</g>
<g>
</g>
</svg>
