<?xml version="1.0" encoding="iso-8859-1"?>
<!-- Generator: Adobe Illustrator 19.0.0, SVG Export Plug-In . SVG Version: 6.00 Build 0)  -->
<svg version="1.1" id="Capa_1" xmlns="http://www.w3.org/2000/svg" xmlns:xlink="http://www.w3.org/1999/xlink" x="0px" y="0px"
	 viewBox="0 0 512 512" style="enable-background:new 0 0 512 512;" xml:space="preserve">
<polygon style="fill:#FA962A;" points="290.133,494.933 290.133,477.867 307.2,477.867 307.2,460.8 290.133,460.8 290.133,418.133 
	273.067,418.133 273.067,494.933 238.933,494.933 238.933,512 324.267,512 324.267,494.933 "/>
<polygon style="fill:#FCAC2B;" points="238.933,494.933 238.933,477.867 256,477.867 256,460.8 238.933,460.8 238.933,418.133 
	221.867,418.133 221.867,494.933 187.733,494.933 187.733,512 273.067,512 273.067,494.933 "/>
<polygon style="fill:#FDB62F;" points="68.267,102.4 8.533,128 68.267,153.6 110.933,153.6 110.933,102.4 "/>
<path style="fill:#E5E5E5;" d="M435.2,59.733L435.2,59.733c-57.336,0-109.568,32.973-134.221,84.745L256,238.933L188.689,97.587
	c-9.762-21.385-30.327-35.823-53.76-37.734c-34.603-2.15-64.393,24.158-66.543,58.761c-0.077,1.297-0.119,2.594-0.119,3.891v129.229
	c0,101.325,82.142,183.467,183.467,183.467S435.2,341.333,435.2,264.533l0,0c37.7,0,68.267-30.566,68.267-68.267H435.2
	c37.7,0,68.267-30.566,68.267-68.267H435.2c37.7,0,68.267-30.566,68.267-68.267H435.2z"/>
<g>
	<path style="fill:#DE4C3C;" d="M162.133,8.533H204.8l0,0l0,0c0,28.279-22.921,51.2-51.2,51.2h-42.667l0,0l0,0
		C110.933,31.454,133.854,8.533,162.133,8.533z"/>
	<circle style="fill:#DE4C3C;" cx="128" cy="119.467" r="17.067"/>
	<path style="fill:#DE4C3C;" d="M38.4,238.933L38.4,238.933c16.495,0,29.867-13.372,29.867-29.867V153.6l-44.681,25.532
		c-9.31,5.316-15.053,15.215-15.053,25.933v4.002C8.533,225.562,21.905,238.933,38.4,238.933z"/>
</g>
<path style="fill:#DEDEDE;" d="M503.467,128H435.2c37.7,0,68.267-30.566,68.267-68.267H435.2c-0.333,0-0.657,0-0.99,0
	c-26.095,243.652-211.388,300.527-320.444,312.67c34.739,39.902,85.06,62.805,137.967,62.797
	c101.325,0,183.467-93.867,183.467-170.667c37.7,0,68.267-30.566,68.267-68.267H435.2C472.9,196.267,503.467,165.7,503.467,128z"/>
<path style="fill:#D1D1D1;" d="M289.527,392.533H256c-70.656-0.077-127.923-57.344-128-128V256h17.067v8.533
	c0.068,61.235,49.698,110.865,110.933,110.933h33.527c26.59-0.128,50.074-17.348,58.197-42.667h-49.058v-17.067h24.994
	c26.59-0.128,50.074-17.348,58.197-42.667H281.6V256h120.772l-1.391,9.745c-3.14,21.615-15.172,40.926-33.195,53.274l-0.922,6.46
	C361.207,363.87,328.337,392.371,289.527,392.533z"/>
<path d="M153.6,119.467c0-14.14-11.46-25.6-25.6-25.6s-25.6,11.46-25.6,25.6s11.46,25.6,25.6,25.6S153.6,133.606,153.6,119.467z
	 M119.467,119.467c0-4.71,3.823-8.533,8.533-8.533s8.533,3.823,8.533,8.533c0,4.71-3.823,8.533-8.533,8.533
	S119.467,124.177,119.467,119.467z"/>
<path d="M293.274,140.8L256,219.085L196.395,93.918c-5.427-11.418-13.585-21.316-23.757-28.817
	c24.286-8.183,40.653-30.942,40.695-56.567c0-4.71-3.823-8.533-8.533-8.533h-42.667c-31.966,0.043-58.231,25.233-59.605,57.173
	c-16.631,7.211-29.858,20.514-36.975,37.18c-0.213,0.077-0.435,0.094-0.649,0.188l-59.733,25.6c-4.335,1.86-6.332,6.878-4.48,11.204
	c0.862,2.014,2.466,3.618,4.48,4.48l43.989,18.85l-29.807,17.067C7.407,178.586,0.026,191.292,0,205.065v4.002
	c0.017,21.205,17.22,38.383,38.434,38.366c7.578,0,14.993-2.253,21.299-6.468v10.769c0.119,94.464,68.838,174.848,162.133,189.662
	v53.538h-34.133V512h136.533v-17.067h-34.133v-17.067H307.2V460.8h-17.067v-21.333c84.523-18.978,148.608-97.527,153.318-166.81
	c38.989-4.258,68.523-37.171,68.548-76.39v-8.533h-28.578C501.496,173.167,512,151.211,512,128v-8.533h-28.578
	C501.496,104.9,512,82.944,512,59.733V51.2h-76.8C374.622,51.371,319.479,86.187,293.274,140.8z M162.133,17.067h33.28
	C191.334,36.924,173.867,51.174,153.6,51.2h-33.28C124.399,31.343,141.867,17.092,162.133,17.067z M59.733,115.345v25.31L30.199,128
	L59.733,115.345z M38.4,230.4c-11.785,0-21.333-9.549-21.333-21.333v-4.002c0.009-7.654,4.113-14.72,10.752-18.526l31.915-18.227
	v40.755C59.733,220.851,50.185,230.4,38.4,230.4z M273.067,494.933h-34.133v-17.067H256V460.8h-17.067v-17.545
	c4.267,0.282,8.533,0.478,12.8,0.478c7.134-0.017,14.259-0.469,21.333-1.365V494.933z M435.2,119.467v17.067h59.127
	c-4.284,29.372-29.449,51.166-59.127,51.2V204.8h59.127c-4.284,29.372-29.449,51.166-59.127,51.2h-8.533v8.533
	c0,87.313-96.188,162.133-174.933,162.133C155.162,426.556,76.911,348.305,76.8,251.733V122.496
	c0-29.943,24.277-54.221,54.221-54.229c1.126,0,2.27,0,3.413,0.102c20.335,1.69,38.153,14.276,46.549,32.879L256,258.782
	l52.676-110.635c23.364-48.691,72.516-79.718,126.524-79.881h59.127C490.044,97.638,464.879,119.433,435.2,119.467z"/>
<path d="M281.6,273.067h100.258c-8.124,25.318-31.607,42.539-58.197,42.667h-24.994V332.8h49.058
	c-8.124,25.318-31.607,42.539-58.197,42.667H256c-61.235-0.068-110.865-49.698-110.933-110.933V256H128v8.533
	c0.077,70.656,57.344,127.923,128,128h33.527c38.801-0.171,71.663-28.663,77.321-67.055l0.922-6.46
	c18.022-12.339,30.063-31.659,33.212-53.274l1.391-9.745H281.6V273.067z"/>
<g>
</g>
<g>
</g>
<g>
</g>
<g>
</g>
<g>
</g>
<g>
</g>
<g>
</g>
<g>
</g>
<g>
</g>
<g>
</g>
<g>
</g>
<g>
</g>
<g>
</g>
<g>
</g>
<g>
</g>
</svg>
