<?xml version="1.0" encoding="iso-8859-1"?>
<!-- Generator: Adobe Illustrator 19.0.0, SVG Export Plug-In . SVG Version: 6.00 Build 0)  -->
<svg version="1.1" id="Capa_1" xmlns="http://www.w3.org/2000/svg" xmlns:xlink="http://www.w3.org/1999/xlink" x="0px" y="0px"
	 viewBox="0 0 464 464" style="enable-background:new 0 0 464 464;" xml:space="preserve">
<circle style="fill:#EBEBEB;" cx="232" cy="232" r="232"/>
<circle style="fill:#A66444;" cx="232" cy="232" r="168"/>
<path style="fill:#744630;" d="M295.2,355.728L232,338.872l-98.184,26.184c-12.257,3.268-24.94-3.566-28.952-15.6L64,226.872l160-64
	l160,24l9.432,28.328c4.348,13.04,6.565,26.695,6.568,40.44v26.504c-0.006,15.998-5.46,31.516-15.464,44l-0.256,0.312
	C363.02,353.017,328.071,364.502,295.2,355.728z"/>
<path style="fill:#8F563B;" d="M282.968,308.728L216,290.872l-120,32L59.928,214.648c-6.695-20.09,3.427-41.917,23.088-49.784
	l80.688-32.272c29.013-11.609,60.593-15.284,91.496-10.648L348.592,136c11.903,1.79,21.795,10.108,25.6,21.528l20.584,61.76
	c3.269,9.805,1.6,20.586-4.48,28.944L368.28,278.48C348.829,305.228,314.924,317.249,282.968,308.728L282.968,308.728z"/>
<path style="fill:#D9D9D9;" d="M176,162.872h104l-32,24l-16,48l-16-48L176,162.872z"/>
<g>
	<path style="fill:#744630;" d="M112.646,255.756l24.012-55.997l14.705,6.306l-24.012,55.997L112.646,255.756z"/>
	<path style="fill:#744630;" d="M152.642,255.721l24.012-55.997l14.705,6.306l-24.012,55.997L152.642,255.721z"/>
	<path style="fill:#744630;" d="M264.646,255.721l24.012-55.997l14.705,6.306l-24.012,55.997L264.646,255.721z"/>
	<path style="fill:#744630;" d="M304.642,255.694l24.012-55.997l14.705,6.306L319.347,262L304.642,255.694z"/>
</g>
<circle style="fill:#B94137;" cx="120" cy="96" r="24"/>
<circle style="fill:#C7463B;" cx="176" cy="72" r="24"/>
<g>
	<path style="fill:#6B9777;" d="M248.328,91.792L238.256,79.36l18.024-14.616l-9.064-25.8l15.096-5.304l12.808,36.44L248.328,91.792
		z"/>
	<path style="fill:#6B9777;" d="M278.712,99.872l-8.16-13.76l19.96-11.84l-5.224-26.84l15.704-3.056l7.376,37.904L278.712,99.872z"
		/>
	<path style="fill:#6B9777;" d="M306.856,115.36l-6.696-14.528l21.08-9.704l-2.416-27.248l15.936-1.408l3.416,38.464L306.856,115.36
		z"/>
</g>
<path style="fill:#5E8569;" d="M339.552,114.4c-27.904-26.327-64.339-41.753-102.664-43.464l0.696-16
	c42.159,1.878,82.239,18.842,112.936,47.8L339.552,114.4z"/>
<g>
</g>
<g>
</g>
<g>
</g>
<g>
</g>
<g>
</g>
<g>
</g>
<g>
</g>
<g>
</g>
<g>
</g>
<g>
</g>
<g>
</g>
<g>
</g>
<g>
</g>
<g>
</g>
<g>
</g>
</svg>
