<?xml version="1.0" encoding="iso-8859-1"?>
<!-- Generator: Adobe Illustrator 19.0.0, SVG Export Plug-In . SVG Version: 6.00 Build 0)  -->
<svg version="1.1" id="Capa_1" xmlns="http://www.w3.org/2000/svg" xmlns:xlink="http://www.w3.org/1999/xlink" x="0px" y="0px"
	 viewBox="0 0 512 512" style="enable-background:new 0 0 512 512;" xml:space="preserve">
<path style="fill:#E68783;" d="M87.04,170.667l-27.307-8.533c-20.48-9.387-25.6-27.307-25.6-51.2H71.68
	c14.507,0.853,29.013,6.827,39.253,17.067L128,145.067l-17.067,25.6H87.04z"/>
<path style="fill:#F5A9A2;" d="M494.08,279.04c5.973-19.627,9.387-40.107,9.387-61.44v-4.267
	c0-61.44-49.493-110.933-110.933-110.933h-197.12c-46.08,0-87.893,26.453-108.373,68.267l-29.867,63.147
	c-8.533,18.773-28.16,30.72-48.64,30.72V307.2l109.227,15.36c5.973,0.853,10.24,5.973,10.24,11.947V409.6h34.133l13.653-69.973
	c1.707-6.827,7.68-10.24,14.507-9.387c0.853,0,1.707,0.853,2.56,0.853c28.16,11.947,58.027,18.773,88.747,18.773
	c85.333,0,119.467-34.133,119.467-34.133l2.56-2.56c1.707,1.707,4.267,2.56,5.973,3.413c12.8,6.827,24.747,16.213,35.84,26.453
	l6.827,6.827L425.813,396.8c-2.56,4.267-0.853,9.387,3.413,11.947c0.853,0.853,2.56,0.853,4.267,0.853H460.8l42.667-59.733
	c-11.093-17.92-15.36-39.253-11.947-60.587C492.373,285.867,493.227,282.453,494.08,279.04z"/>
<path style="fill:#F0A09C;" d="M494.08,279.04c5.973-19.627,9.387-40.107,9.387-61.44v-4.267c0-36.693-17.92-70.827-48.64-91.307
	c-58.88,134.827-232.96,184.32-334.507,201.387c5.12,1.707,7.68,5.973,7.68,11.093V409.6h34.133l13.653-69.973
	c1.707-6.827,7.68-10.24,14.507-9.387c0.853,0,1.707,0.853,2.56,0.853c28.16,11.947,58.027,18.773,88.747,18.773
	c85.333,0,119.467-34.133,119.467-34.133l2.56-2.56c1.707,1.707,4.267,2.56,5.973,3.413c12.8,6.827,24.747,16.213,35.84,26.453
	l6.827,6.827L425.813,396.8c-2.56,4.267-0.853,9.387,3.413,11.947c0.853,0.853,2.56,0.853,4.267,0.853H460.8l42.667-59.733
	c-11.093-17.92-15.36-39.253-11.947-60.587C492.373,285.867,493.227,282.453,494.08,279.04z"/>
<rect x="93.867" y="238.933" style="fill:#75462E;" width="17.067" height="17.067"/>
<path d="M392.533,93.867h-197.12c-29.013,0-56.32,9.387-78.507,27.307c-11.947-11.093-28.16-17.92-44.373-18.773h-38.4
	c-5.12,0-8.533,3.413-8.533,8.533c0,20.48,3.413,46.08,30.72,58.88c0,0,0.853,0,0.853,0.853l17.92,5.973l-25.6,53.76
	C41.813,246.613,25.6,256,8.533,256C3.413,256,0,259.413,0,264.533V307.2c0,4.267,3.413,7.68,7.68,8.533l109.227,15.36
	c1.707,0,2.56,1.707,2.56,3.413V409.6c0,5.12,3.413,8.533,8.533,8.533h34.133c4.267,0,7.68-2.56,8.533-6.827l13.653-69.973
	c0-1.707,2.56-3.413,4.267-2.56h0.853c29.013,12.8,60.587,19.627,92.16,19.627c76.8,0,114.347-26.453,122.88-34.987h0.853
	c12.8,6.827,23.893,15.36,34.133,24.747l1.707,1.707l-23.04,42.667c-4.267,8.533-1.707,18.773,6.827,23.04
	c2.56,1.707,5.12,2.56,8.533,2.56H460.8c2.56,0,5.12-1.707,6.827-3.413l42.667-59.733c1.707-2.56,1.707-6.827,0-9.387
	c-11.947-18.773-15.36-41.813-8.533-63.147c6.827-20.48,9.387-41.813,10.24-64v-5.12C512,147.627,458.24,93.867,392.533,93.867z
	 M42.667,119.467H71.68c11.947,0.853,23.04,5.12,31.573,13.653c-7.68,8.533-15.36,17.92-20.48,27.307l-19.627-5.973
	C50.347,147.627,44.373,138.24,42.667,119.467z M486.4,221.867c-5.12,0-8.533-3.413-8.533-8.533v-17.067
	c0-14.507-11.093-25.6-25.6-25.6s-25.6,11.093-25.6,25.6v8.533h17.067v-8.533c0-5.12,3.413-8.533,8.533-8.533
	s8.533,3.413,8.533,8.533v17.067c0,13.653,11.093,25.6,24.747,25.6c2.56,0,5.12,0,7.68-0.853c-1.707,12.8-4.267,26.453-7.68,39.253
	c-0.853,3.413-1.707,7.68-2.56,11.093c-3.413,21.333,0,42.667,10.24,61.44l-36.693,51.2H432.64l26.453-46.933
	c1.707-3.413,1.707-7.68-1.707-10.24l-6.827-6.827c-11.093-11.093-23.893-20.48-37.547-28.16
	c-17.067-8.533-28.16-25.6-29.867-45.227H366.08c0.853,18.773,9.387,35.84,23.893,48.64c-11.093,8.533-45.227,28.16-109.227,28.16
	c-29.013,0-58.88-5.973-85.333-17.92c-10.24-4.267-22.187,0-27.307,10.24c-0.853,1.707-0.853,2.56-1.707,4.267l-11.093,64h-18.773
	v-66.56c0-10.24-7.68-18.773-17.92-20.48L17.067,299.52v-27.307c20.48-2.56,39.253-16.213,47.787-34.987L94.72,174.08
	c18.773-38.4,57.173-63.147,99.84-63.147h197.973c56.32,0,102.4,46.08,102.4,102.4C494.933,218.453,491.52,221.867,486.4,221.867z"
	/>
<rect x="93.867" y="238.933" width="17.067" height="17.067"/>
<path d="M140.8,182.613l20.48-20.48c11.093-11.093,25.6-17.067,40.96-17.92v-17.067c-19.627,0-39.253,8.533-52.907,23.04
	l-26.453,27.307c-3.413,3.413-3.413,8.533,0,11.947l0,0c1.707,1.707,3.413,3.413,5.12,4.267c12.8,9.387,28.16,13.653,43.52,13.653
	c19.627,0,39.253-6.827,53.76-19.627l-11.947-11.947C192.853,192.853,163.84,195.413,140.8,182.613z"/>
<g>
</g>
<g>
</g>
<g>
</g>
<g>
</g>
<g>
</g>
<g>
</g>
<g>
</g>
<g>
</g>
<g>
</g>
<g>
</g>
<g>
</g>
<g>
</g>
<g>
</g>
<g>
</g>
<g>
</g>
</svg>
