<?xml version="1.0" encoding="iso-8859-1"?>
<!-- Generator: Adobe Illustrator 19.0.0, SVG Export Plug-In . SVG Version: 6.00 Build 0)  -->
<svg version="1.1" id="Capa_1" xmlns="http://www.w3.org/2000/svg" xmlns:xlink="http://www.w3.org/1999/xlink" x="0px" y="0px"
	 viewBox="0 0 512 512" style="enable-background:new 0 0 512 512;" xml:space="preserve">
<path style="fill:#FF9037;" d="M482,406v31c0,41.355-33.645,75-75,75H256l-60-156L482,406z"/>
<path style="fill:#FFB037;" d="M256,356v156H105c-41.355,0-75-33.645-75-75v-31L256,356z"/>
<path style="fill:#FF9037;" d="M482,226l-286,60L256,0c60.367,0,117.121,23.508,159.806,66.194S482,165.633,482,226z"/>
<path style="fill:#FFB037;" d="M256,0v286L30,226c0-60.367,23.508-117.121,66.194-159.806S195.633,0,256,0z"/>
<polygon style="fill:#FFD237;" points="482,226 482,316 196,316 256,226 "/>
<rect x="30" y="226" style="fill:#FFE17A;" width="226" height="90"/>
<polygon style="fill:#88D652;" points="482,316 482,406 377,406 337,316 "/>
<polygon style="fill:#FF0021;" points="226,316 377,316 377,406 256,406 "/>
<polygon style="fill:#A5ED73;" points="135,406 30,406 30,316 165,316 "/>
<rect x="135" y="316" style="fill:#FF4B37;" width="121" height="90"/>
<path style="fill:#751F17;" d="M512,316c0,24.813-20.187,45-45,45H256v-90h211C491.813,271,512,291.187,512,316z"/>
<path style="fill:#8A3931;" d="M256,271v90H45c-24.813,0-45-20.187-45-45s20.187-45,45-45H256z"/>
<g>
	<rect x="136" y="149" style="fill:#FFF0BC;" width="30" height="30"/>
	<rect x="188.5" y="89" style="fill:#FFF0BC;" width="30" height="30"/>
</g>
<polygon style="fill:#FFE17A;" points="271,179 256,179 246,164.702 256,149 271,149 "/>
<rect x="241" y="149" style="fill:#FFF0BC;" width="15" height="30"/>
<g>
	<rect x="346" y="149" style="fill:#FFE17A;" width="30" height="30"/>
	<rect x="293.5" y="89" style="fill:#FFE17A;" width="30" height="30"/>
</g>
<polygon style="fill:#FFD237;" points="407.25,256 256,406 216,331 256,256 "/>
<polygon style="fill:#FFE17A;" points="256,256 256,406 104.75,256 "/>
<g>
</g>
<g>
</g>
<g>
</g>
<g>
</g>
<g>
</g>
<g>
</g>
<g>
</g>
<g>
</g>
<g>
</g>
<g>
</g>
<g>
</g>
<g>
</g>
<g>
</g>
<g>
</g>
<g>
</g>
</svg>
