<?xml version="1.0" encoding="iso-8859-1"?>
<!-- Generator: Adobe Illustrator 19.0.0, SVG Export Plug-In . SVG Version: 6.00 Build 0)  -->
<svg version="1.1" id="Capa_1" xmlns="http://www.w3.org/2000/svg" xmlns:xlink="http://www.w3.org/1999/xlink" x="0px" y="0px"
	 viewBox="0 0 512 512" style="enable-background:new 0 0 512 512;" xml:space="preserve">
<path style="fill:#CCD6DD;" d="M248.889,512C36.153,512,7.111,312.889,7.111,256h483.556C490.667,284.444,462.819,512,248.889,512"
	/>
<path style="fill:#99AAB5;" d="M490.667,242.57c0,74.184-108.246,134.314-241.778,134.314S7.111,316.753,7.111,242.57
	s108.246-120.093,241.778-120.093S490.667,168.387,490.667,242.57"/>
<g>
	<path style="fill:#EA596E;" d="M270.222,469.333h-35.556c-3.926,0-7.111-3.185-7.111-7.111s3.185-7.111,7.111-7.111h28.444v-42.667
		h-56.889v14.222h42.667c3.926,0,7.111,3.185,7.111,7.111s-3.185,7.111-7.111,7.111h-49.778c-3.926,0-7.111-3.185-7.111-7.111
		v-28.444c0-3.926,3.185-7.111,7.111-7.111h71.111c3.926,0,7.111,3.185,7.111,7.111v56.889
		C277.333,466.148,274.148,469.333,270.222,469.333"/>
	<path style="fill:#EA596E;" d="M348.444,455.111c-2.816,0-5.49-1.692-6.599-4.465c-1.45-3.641,0.313-7.779,3.954-9.244
		l30.948-12.388l-0.924-31.985L320,410.895v13.496c10.439-2.93,27.847-7.865,40.647-11.662c3.726-1.081,7.723,1.038,8.846,4.807
		c1.11,3.769-1.052,7.723-4.807,8.832c-19.598,5.803-49.877,14.25-49.877,14.25c-2.204,0.597-4.452,0.157-6.23-1.181
		c-1.763-1.336-2.802-3.442-2.802-5.661v-28.444c0-3.271,2.219-6.116,5.404-6.898l69.775-17.336c2.048-0.512,4.31-0.056,6.002,1.237
		c1.721,1.308,2.745,3.299,2.816,5.461l1.336,45.767c0.086,2.987-1.692,5.717-4.465,6.812l-35.556,14.222
		C350.222,454.941,349.326,455.111,348.444,455.111"/>
	<path style="fill:#EA596E;" d="M413.485,416.542c-1.593,0-2.859-0.427-4.096-1.11c-2.247-1.252-4.053-4.409-4.053-6.984v-36.452
		c0-2.616,1.45-5.034,3.769-6.272c8.391-4.465,18.204-10.339,26.141-15.09c5.547-3.314,10.212-6.116,12.957-7.581
		c2.119-1.11,4.693-1.095,6.77,0.043c2.119,1.152,3.484,3.286,3.67,5.689c0.483,6.23-1.607,21.973-2.048,25.074
		c-0.284,2.176-1.593,4.11-3.513,5.206l-17.11,9.785c-3.385,1.877-7.751,0.754-9.714-2.659c-1.935-3.399-0.754-7.751,2.659-9.699
		l14.037-8.021c0.256-1.991,0.498-4.167,0.739-6.314c-0.37,0.213-0.768,0.455-1.138,0.683c-6.969,4.167-15.332,9.173-22.997,13.397
		v23.111c2.461-1.336,5.788-3.271,10.283-6.073l4.821,5.39l2.702,6.699C423.867,413.74,417.581,416.542,413.485,416.542"/>
	<path style="fill:#EA596E;" d="M161.778,459.11c-0.726,0-1.45-0.114-2.162-0.327l-45.781-14.677
		c-3.741-1.209-5.803-5.206-4.608-8.945c1.194-3.741,5.219-5.745,8.945-4.608l36.764,11.776l0.91-33.493l-40.619-11.89l-0.37,10.453
		l22.542,7.637c3.712,1.265,5.704,5.29,4.452,9.016c-1.265,3.726-5.29,5.689-9.031,4.465l-27.548-9.344
		c-2.972-1.01-4.935-3.84-4.821-6.984l0.882-24.889c0.086-2.19,1.166-4.238,2.958-5.518c1.778-1.28,4.025-1.678,6.158-1.052
		l54.656,16c3.101,0.91,5.206,3.797,5.12,7.012l-1.336,48.455c-0.056,2.233-1.181,4.31-3.001,5.603
		C164.679,458.67,163.228,459.11,161.778,459.11"/>
	<path style="fill:#EA596E;" d="M76,419.556c-1.295,0-2.575-0.341-3.726-1.052L52.718,406.5c-3.342-2.048-4.394-6.428-2.332-9.77
		c2.048-3.357,6.415-4.424,9.785-2.347l8.647,5.319l-0.128-23.096l-18.916-10.667v6.044l10.567,6.385
		c3.357,2.019,4.437,6.385,2.418,9.742c-2.034,3.357-6.385,4.437-9.77,2.418l-13.994-8.448c-2.133-1.28-3.442-3.598-3.442-6.087
		v-22.215c0-2.532,1.336-4.864,3.527-6.144c2.176-1.265,4.878-1.295,7.083-0.056l33.11,18.674c2.219,1.252,3.598,3.598,3.612,6.158
		l0.228,39.993c0.015,2.588-1.379,4.978-3.612,6.243C78.403,419.257,77.194,419.556,76,419.556"/>
</g>
<path style="fill:#FFAC33;" d="M462.222,256c0,54.983-95.517,99.556-213.333,99.556S35.556,310.984,35.556,256
	s95.517-99.556,213.333-99.556S462.222,201.016,462.222,256"/>
<g>
	<path style="fill:#FFD983;" d="M305.778,341.333c-16.782,0-30.179-2.788-39.837-8.305c-10.908-6.243-17.166-16.256-17.166-27.492
		c0-26.382,33.28-49.536,71.225-49.536c7.865,0,14.222,6.372,14.222,14.222c0,7.865-6.357,14.222-14.222,14.222
		c-26.624,0-42.781,14.649-42.781,21.092c0,1.095,2.176,2.403,2.83,2.802c2.987,1.692,10.296,4.551,25.728,4.551
		c34.19,0,71.111-21.745,71.111-56.889c0-10.255-13.354-16.825-19.101-19.172c-28.714-11.733-75.25-8.234-98.759,15.701
		c-20.48,20.878-53.93,27.819-89.458,18.517c-21.874-5.717-47.203-19.043-52.693-39.268c-2.802-10.311,0.114-20.437,8.178-28.501
		c32.613-32.611,93.555-32.611,138.056-32.611c7.865,0,14.222,6.372,14.222,14.222s-6.357,14.222-14.222,14.222
		c-39.523,0-93.668,0-117.945,24.277c-0.739,0.754-0.91,1.152-0.91,1.166c0.341,2.219,8.121,10.852,25.699,16.91
		c22.344,7.695,52.281,7.95,68.793-8.861c32.967-33.579,91.876-37.603,129.806-22.101c23.381,9.557,36.779,26.141,36.779,45.496
		C405.333,308.708,353.65,341.333,305.778,341.333"/>
	<path style="fill:#FFD983;" d="M206.222,341.333C98.062,341.333,64,263.736,64,241.778c0-7.85,6.372-14.222,14.222-14.222
		c7.837,0,14.194,6.329,14.222,14.151c0.512,9.43,24.192,71.182,113.778,71.182c7.85,0,14.222,6.357,14.222,14.222
		C220.444,334.976,214.073,341.333,206.222,341.333"/>
</g>
<g>
	<path style="fill:#AA695B;" d="M491.973,43.423L164.791,56.024c-7.822,0.696-14.735-5.077-15.431-12.899
		c-0.711-7.822,5.064-14.735,12.886-15.431L488.146,0.927c7.837-0.711,14.748,5.064,15.446,12.886
		C504.289,21.634,499.809,42.711,491.973,43.423"/>
	<path style="fill:#AA695B;" d="M490.667,113.778L163.556,99.556c-7.85,0-14.222-6.372-14.222-14.222s6.372-14.222,14.222-14.222
		h327.111c7.865,0,14.222,6.372,14.222,14.222S498.532,113.778,490.667,113.778"/>
</g>
<g>
	<path style="fill:#FFD983;" d="M192,213.333c-7.85,0-14.222-6.372-14.222-14.222V28.444c0-7.85,6.372-14.222,14.222-14.222
		c7.85,0,14.222,6.372,14.222,14.222v170.667C206.222,206.962,199.85,213.333,192,213.333"/>
	<path style="fill:#FFD983;" d="M248.889,241.778c-7.85,0-14.222-6.372-14.222-14.222V14.222c0-7.85,6.372-14.222,14.222-14.222
		c7.85,0,14.222,6.372,14.222,14.222v213.333C263.111,235.406,256.739,241.778,248.889,241.778"/>
</g>
<g>
</g>
<g>
</g>
<g>
</g>
<g>
</g>
<g>
</g>
<g>
</g>
<g>
</g>
<g>
</g>
<g>
</g>
<g>
</g>
<g>
</g>
<g>
</g>
<g>
</g>
<g>
</g>
<g>
</g>
</svg>
