<?xml version="1.0" encoding="iso-8859-1"?>
<!-- Generator: Adobe Illustrator 19.0.0, SVG Export Plug-In . SVG Version: 6.00 Build 0)  -->
<svg version="1.1" id="Capa_1" xmlns="http://www.w3.org/2000/svg" xmlns:xlink="http://www.w3.org/1999/xlink" x="0px" y="0px"
	 viewBox="0 0 512 512" style="enable-background:new 0 0 512 512;" xml:space="preserve">
<path style="fill:#FCD5A2;" d="M482,271.026c0,116.1-94.9,210-211,210s-211-93.9-211-210s94.9-210,211-210S482,154.926,482,271.026z
	"/>
<path style="fill:#FEBB8E;" d="M482,271.026c0,116.1-94.9,210-211,210v-420C387.1,61.026,482,154.926,482,271.026z"/>
<path style="fill:#D9D9D9;" d="M90,46.026v90c0,8.399-6.599,15-15,15s-15-6.601-15-15v-90c0-8.401,6.599-15,15-15
	S90,37.625,90,46.026z"/>
<path style="fill:#FD3C65;" d="M308.8,211.026c-16.5,0-29.399,7.5-37.8,17.1c-8.401-9.6-21.301-17.1-37.8-17.1
	c-29.399,0-52.2,24.3-52.2,55.499c0,37.8,37.2,62.101,80.7,99.901c2.999,2.401,5.7,3.6,9.3,3.6s7.5-1.199,10.499-3.6
	C319.6,333.427,361,306.726,361,266.525C361,235.326,338.2,211.026,308.8,211.026z"/>
<path style="fill:#FD003A;" d="M361,266.525c0,40.201-41.4,66.902-79.501,99.901c-2.999,2.401-6.899,3.6-10.499,3.6v-141.9
	c8.401-9.6,21.301-17.1,37.8-17.1C338.2,211.026,361,235.326,361,266.525z"/>
<path style="fill:#D9D9D9;" d="M105,181.026v270c0,16.5-13.5,30-30,30s-30-13.5-30-30v-270H105z"/>
<path style="fill:#C8C6CD;" d="M150,121.026v-75c0-8.291-6.709-15-15-15s-15,6.709-15,15v75l15,15L150,121.026z"/>
<path style="fill:#D9D9D9;" d="M30,121.026v-75c0-8.291-6.709-15-15-15s-15,6.709-15,15v75l15,15L30,121.026z"/>
<g>
	<path style="fill:#C8C6CD;" d="M75,151.026v-120c8.401,0,15,6.599,15,15v90C90,144.425,83.401,151.026,75,151.026z"/>
	<path style="fill:#C8C6CD;" d="M105,181.026v270c0,16.5-13.5,30-30,30v-300H105z"/>
</g>
<path style="fill:#E5E5E5;" d="M0,121.026v45c0,24.899,20.099,45,45,45h60c24.901,0,45-20.101,45-45v-45H0z"/>
<path style="fill:#D9D9D9;" d="M150,121.026v45c0,24.899-20.099,45-45,45H75v-90H150z"/>
<path style="fill:#B35C4B;" d="M512,361.026v90c0,16.5-13.5,30-30,30s-30-13.5-30-30v-90l30-30L512,361.026z"/>
<path style="fill:#A24F3D;" d="M512,361.026v90c0,16.5-13.5,30-30,30v-150L512,361.026z"/>
<path style="fill:#E5E5E5;" d="M504.2,32.826c-5.099-2.701-10.8-2.401-15.601,0.599c-2.399,1.501-4.499,3.001-6.599,4.801
	c-56.7,40.8-90,105.899-90,176.1v131.7c0,8.399,6.599,15,15,15h105v-315C512,40.626,509.001,35.525,504.2,32.826z"/>
<path style="fill:#D9D9D9;" d="M512,46.026v315h-30v-322.8c2.1-1.8,4.2-3.3,6.599-4.801c4.801-2.999,10.501-3.3,15.601-0.599
	C509.001,35.525,512,40.626,512,46.026z"/>
<g>
</g>
<g>
</g>
<g>
</g>
<g>
</g>
<g>
</g>
<g>
</g>
<g>
</g>
<g>
</g>
<g>
</g>
<g>
</g>
<g>
</g>
<g>
</g>
<g>
</g>
<g>
</g>
<g>
</g>
</svg>
