<?xml version="1.0" encoding="iso-8859-1"?>
<!-- Generator: Adobe Illustrator 19.0.0, SVG Export Plug-In . SVG Version: 6.00 Build 0)  -->
<svg version="1.1" id="Capa_1" xmlns="http://www.w3.org/2000/svg" xmlns:xlink="http://www.w3.org/1999/xlink" x="0px" y="0px"
	 viewBox="0 0 512 512" style="enable-background:new 0 0 512 512;" xml:space="preserve">
<path style="fill:#939598;" d="M512,341.372c0,78.55-114.616,142.222-256,142.222S0,419.921,0,341.372S114.616,199.15,256,199.15
	S512,262.822,512,341.372"/>
<path style="fill:#F1F2F2;" d="M512,312.927c0,78.55-114.616,142.222-256,142.222S0,391.477,0,312.927s114.616-142.222,256-142.222
	S512,234.378,512,312.927"/>
<path style="fill:#FFCC4D;" d="M466.486,307.395c0,59.762-94.237,108.246-210.489,108.246S45.508,367.158,45.508,307.395
	c0-59.776,94.237-108.246,210.489-108.246S466.486,247.62,466.486,307.395"/>
<g>
	<path style="fill:#FFE8B6;" d="M156.444,384.038c-7.85,0-14.222-6.357-14.222-14.222s6.372-14.222,14.222-14.222
		c26.994,0,43.833-15.431,45.141-26.098c1.295-10.468-13.653-15.375-20.153-16.996c-12.886-3.2-22.471,0.47-33.536,4.764
		c-15.19,5.888-35.997,13.91-58.397-8.505c-9.799-9.785-12.345-22.827-6.997-35.741c10.425-25.159,48.981-45.425,73.941-45.425
		c7.85,0,14.222,6.372,14.222,14.222s-6.372,14.222-14.222,14.222c-15.858,0-42.596,15.63-47.659,27.876
		c-1.052,2.532-0.64,3.271,0.825,4.736c8.945,8.932,13.198,7.794,28.032,2.077c12.259-4.75,29.042-11.236,50.688-5.816
		c33.905,8.477,43.662,30.379,41.486,48.056C226.73,358.068,198.443,384.038,156.444,384.038"/>
	<path style="fill:#FFE8B6;" d="M241.778,398.261c-7.85,0-14.222-6.357-14.222-14.222s6.372-14.222,14.222-14.222
		c81.024,0,139.847-17.735,174.834-52.722c5.561-5.561,14.55-5.561,20.11,0c5.561,5.561,5.561,14.55,0,20.11
		C396.203,377.724,330.624,398.261,241.778,398.261"/>
	<path style="fill:#FFE8B6;" d="M303.624,343.649c-7.637,0-15.203-0.853-22.628-2.717c-7.723-1.905-31.203-7.779-31.929-26.766
		c-0.541-14.222,9.401-30.89,84.452-56.277c-8.192-6.699-27.847-16.071-49.081-16.071c-35.741,0-54.002,3.001-61.056,10.055
		c-5.547,5.561-14.55,5.561-20.11,0c-5.547-5.561-5.547-14.563,0-20.11c13.582-13.582,34.816-18.39,81.166-18.39
		c34.077,0,76.757,18.958,80.726,43.421c1.536,9.415-2.745,21.419-19.328,26.951c-36.736,12.246-55.766,22.03-64.015,27.833
		c1.593,0.554,3.598,1.152,6.073,1.778c45.952,11.434,104.135-33.65,110.478-45.227c1.024-6.841,6.941-12.089,14.065-12.089
		c7.865,0,14.222,6.372,14.222,14.222c0,10.041-9.016,22.172-26.824,36.082C375.035,325.701,338.839,343.636,303.624,343.649"/>
</g>
<path style="fill:#DD2E44;" d="M384,291.594c0,35.342-28.856,78.222-99.556,78.222s-56.889-28.444-170.667-71.111
	C65.763,280.699,185.301,227.594,256,227.594S384,256.252,384,291.594"/>
<g>
	<path style="fill:#EA596E;" d="M227.556,341.372c-3.641,0-7.282-1.394-10.055-4.167c-5.561-5.561-5.561-14.55,0-20.11
		c3.997-4.338,1.593-6.741,0-8.335c-7.936-7.936-31.83-8.761-54.699,2.674c-7.04,3.513-15.573,0.655-19.086-6.372
		c-3.513-7.025-0.655-15.573,6.372-19.086c28.117-14.052,67.2-17.664,87.523,2.674c17.821,17.806,9.757,38.784,0,48.554
		C234.837,339.978,231.197,341.372,227.556,341.372"/>
	<path style="fill:#EA596E;" d="M284.444,284.483c-34.332,0-52.424-18.077-66.944-32.612c-5.561-5.561-5.561-14.55,0-20.11
		c5.561-5.561,14.55-5.561,20.11,0c13.568,13.568,24.277,24.277,46.834,24.277c10.994,0,36.779,0,46.834-10.055
		c5.561-5.561,14.55-5.561,20.11,0c5.56,5.561,5.561,14.55,0,20.11C332.999,284.483,300.203,284.483,284.444,284.483"/>
	<path style="fill:#EA596E;" d="M284.444,341.372c-7.865,0-14.222-6.357-14.222-14.222s6.357-14.222,14.222-14.222
		c26.268,0,64.683-13.682,75.278-24.277c5.561-5.561,14.55-5.561,20.11,0c5.56,5.561,5.561,14.55,0,20.11
		C361.472,327.121,313.472,341.372,284.444,341.372"/>
</g>
<path style="fill:#FFAC33;" d="M241.792,284.483c-5.219,0-10.24-2.873-12.744-7.865c-14.194-28.402-43.748-87.51-58.268-203.705
	c-0.981-7.794,4.551-14.905,12.345-15.872c7.736-0.996,14.905,4.551,15.872,12.345c13.923,111.36,41.998,167.523,55.495,194.517
	c3.527,7.025,0.668,15.559-6.357,19.086C246.101,284,243.926,284.483,241.792,284.483"/>
<path style="fill:#99AAB5;" d="M499.555,157.08L282.809,93.038c-47.659-75.505-107.606-63.36-140.587-64.554
	c-3.556-0.128-11.648,3.129-11.847,8.889c-0.213,5.575,14.578,4.793,16.868,4.878c24.249,0.882,56.107,2.504,87.21,35.37
	C196.65,64.437,138.581,55.975,128,56.928c-6.514,0.597-7.111,5.333,0.597,8.889c6.314,2.93,65.024,23.424,97.265,33.28
	c-20.181,6.969-46.72,10.169-91.505-12.231c-7.055-3.527-17.067-8.519-20.579-1.493s7.197,10.71,14.222,14.222
	c30.72,15.36,48.782,33.166,68.594,33.166c23.566,0,40.59-7.182,53.93-12.8c4.736-1.991,9.016-3.741,12.843-4.878
	c0.228,0.142,0.398,0.341,0.64,0.47l210.545,93.753c6.912,3.769,22.357-11.25,26.126-18.148
	C504.447,184.273,504.661,160.252,499.555,157.08"/>
<path style="fill:#FFAC33;" d="M184.889,270.261c-3.641,0-7.282-1.394-10.055-4.167c-18.702-18.702-63.232-126.108-1.052-203.833
	c4.907-6.13,13.881-7.111,19.982-2.219c6.144,4.907,7.139,13.852,2.233,19.997c-51.896,64.868-11.079,155.918-1.052,165.945
	c5.561,5.561,5.561,14.55,0,20.11C192.17,268.867,188.53,270.261,184.889,270.261"/>
<g>
</g>
<g>
</g>
<g>
</g>
<g>
</g>
<g>
</g>
<g>
</g>
<g>
</g>
<g>
</g>
<g>
</g>
<g>
</g>
<g>
</g>
<g>
</g>
<g>
</g>
<g>
</g>
<g>
</g>
</svg>
