<?xml version="1.0" encoding="iso-8859-1"?>
<!-- Generator: Adobe Illustrator 19.0.0, SVG Export Plug-In . SVG Version: 6.00 Build 0)  -->
<svg version="1.1" id="Capa_1" xmlns="http://www.w3.org/2000/svg" xmlns:xlink="http://www.w3.org/1999/xlink" x="0px" y="0px"
	 viewBox="0 0 512 512" style="enable-background:new 0 0 512 512;" xml:space="preserve">
<polyline style="fill:#FFC66C;" points="448,283.127 64,283.127 64,421 448,421 448,283.127 "/>
<g>
	<path style="fill:#FF8E4B;" d="M64,475H10V118c0-14.912,12.088-27,27-27l0,0c14.912,0,27,12.088,27,27V475z"/>
	<path style="fill:#FF8E4B;" d="M502,475h-54V283.127c0-14.912,12.088-27,27-27l0,0c14.912,0,27,12.088,27,27V475z"/>
</g>
<path style="fill:#6A80FF;" d="M136,267.5v73.704c0,9.987,11.056,16.011,19.448,10.597l0.26-0.167
	c11.652-7.517,26.618-7.547,38.299-0.075l0.82,0.524c11.681,7.472,26.647,7.443,38.299-0.074c0.194-0.125,0.388-0.251,0.582-0.376
	c11.652-7.517,26.618-7.546,38.299-0.074l0.82,0.524c11.681,7.472,26.647,7.443,38.299-0.074c0.194-0.125,0.388-0.251,0.582-0.376
	c11.652-7.517,26.618-7.546,38.299-0.074l0.82,0.524c11.681,7.472,26.647,7.443,38.299-0.074c0.194-0.125,0.388-0.251,0.582-0.376
	c11.652-7.517,26.617-7.547,38.298-0.075c0.196,0.125,0.392,0.251,0.587,0.376c8.394,5.37,19.406-0.659,19.406-10.624V267.5
	c0-20.711-16.789-37.5-37.5-37.5h-237C152.789,230,136,246.789,136,267.5z"/>
<path style="fill:#FFCDAC;" d="M100,211.127L100,211.127c-19.882,0-36,16.118-36,36l0,0c0,19.882,16.118,36,36,36l0,0
	c19.882,0,36-16.118,36-36l0,0C136,227.245,119.882,211.127,100,211.127z"/>
<path d="M475,246.127c-7.227,0-13.97,2.09-19.674,5.687C448.832,233.309,431.195,220,410.5,220h-237
	c-11.559,0-22.163,4.155-30.408,11.043c-6.536-17.455-23.384-29.916-43.092-29.916c-9.643,0-18.598,2.988-26,8.08V118
	c0-20.402-16.598-37-37-37S0,97.598,0,118v357c0,5.522,4.477,10,10,10h54c5.523,0,10-4.478,10-10v-44h145c5.523,0,10-4.478,10-10
	s-4.477-10-10-10H74V293.127h52v48.076c0,8.284,4.519,15.892,11.792,19.855c7.274,3.963,16.116,3.635,23.085-0.86l0.251-0.162
	c8.339-5.381,19.129-5.401,27.487-0.055l0.822,0.525c14.935,9.555,34.211,9.516,49.107-0.094l0.584-0.377
	c8.339-5.381,19.129-5.401,27.487-0.055l0.822,0.525c14.935,9.555,34.212,9.516,49.107-0.094l0.584-0.377
	c8.338-5.381,19.128-5.401,27.487-0.055l0.822,0.525c7.444,4.762,15.964,7.141,24.483,7.141c8.574-0.001,17.147-2.411,24.613-7.229
	l0.594-0.383c8.339-5.38,19.129-5.401,27.496-0.049l0.58,0.37c4.467,2.858,9.702,3.997,14.795,3.405V411H293.344
	c-5.523,0-10,4.478-10,10s4.477,10,10,10H438v44c0,5.522,4.477,10,10,10h54c5.523,0,10-4.478,10-10V283.127
	C512,262.726,495.402,246.127,475,246.127z M100,221.127c14.336,0,26,11.664,26,26c0,14.337-11.664,26-26,26s-26-11.663-26-26
	C74,232.791,85.664,221.127,100,221.127z M54,465H20V118c0-9.374,7.626-17,17-17s17,7.626,17,17v165.127V421V465z M436.643,343.601
	c-0.619,0.34-1.583,0.599-2.668-0.096l-0.58-0.37c-14.935-9.555-34.211-9.518-49.107,0.094l-0.584,0.377
	c-8.338,5.382-19.127,5.402-27.487,0.055l-0.822-0.525c-14.935-9.554-34.211-9.516-49.107,0.094l-0.584,0.377
	c-8.338,5.382-19.128,5.402-27.487,0.055l-0.822-0.525c-7.442-4.761-15.962-7.14-24.48-7.14c-8.577,0-17.153,2.412-24.626,7.233
	l-0.584,0.377c-8.338,5.382-19.128,5.402-27.487,0.055l-0.822-0.525c-14.935-9.553-34.211-9.516-49.117,0.101l-0.251,0.162
	c-1.077,0.695-2.042,0.438-2.665,0.099c-0.621-0.338-1.362-1.011-1.362-2.293V267.5c0-15.164,12.336-27.5,27.5-27.5h237
	c15.164,0,27.5,12.336,27.5,27.5v0.5h-99.594c-5.523,0-10,4.478-10,10s4.477,10,10,10H438v53.311
	C438,342.59,437.262,343.262,436.643,343.601z M492,465h-34v-44v-79.689v-58.184c0-9.374,7.626-17,17-17s17,7.626,17,17V465z"/>
<path d="M256,411c-2.63,0-5.21,1.069-7.07,2.93c-1.86,1.86-2.93,4.44-2.93,7.07s1.07,5.21,2.93,7.069
	c1.86,1.86,4.44,2.931,7.07,2.931s5.21-1.07,7.07-2.931c1.86-1.859,2.93-4.439,2.93-7.069s-1.07-5.21-2.93-7.07S258.63,411,256,411z
	"/>
<path d="M304.344,47h29.858l-36.929,36.929c-2.86,2.86-3.715,7.162-2.167,10.898c1.548,3.737,5.194,6.173,9.239,6.173h54
	c5.523,0,10-4.477,10-10s-4.477-10-10-10h-29.858l36.929-36.929c2.86-2.86,3.715-7.162,2.167-10.898
	c-1.548-3.737-5.194-6.173-9.239-6.173h-54c-5.523,0-10,4.477-10,10S298.821,47,304.344,47z"/>
<path d="M216,101h15.858l-22.929,22.929c-2.86,2.86-3.715,7.162-2.167,10.898c1.548,3.737,5.194,6.173,9.239,6.173h40
	c5.523,0,10-4.477,10-10s-4.477-10-10-10h-15.858l22.929-22.929c2.86-2.86,3.715-7.162,2.167-10.898
	C263.691,83.437,260.044,81,256,81h-40c-5.523,0-10,4.477-10,10S210.477,101,216,101z"/>
<path d="M140.304,145h7.858l-14.929,14.929c-2.86,2.86-3.715,7.162-2.167,10.898c1.548,3.737,5.194,6.173,9.239,6.173h32
	c5.523,0,10-4.477,10-10s-4.477-10-10-10h-7.858l14.929-14.929c2.86-2.86,3.715-7.162,2.167-10.898
	c-1.548-3.737-5.194-6.173-9.239-6.173h-32c-5.523,0-10,4.477-10,10S134.781,145,140.304,145z"/>
<path d="M304.34,268c-2.63,0-5.21,1.069-7.07,2.93c-1.86,1.86-2.93,4.44-2.93,7.07s1.07,5.21,2.93,7.069
	c1.87,1.86,4.44,2.931,7.07,2.931s5.21-1.07,7.08-2.931c1.86-1.859,2.92-4.439,2.92-7.069s-1.06-5.21-2.92-7.07
	C309.55,269.069,306.98,268,304.34,268z"/>
<g>
</g>
<g>
</g>
<g>
</g>
<g>
</g>
<g>
</g>
<g>
</g>
<g>
</g>
<g>
</g>
<g>
</g>
<g>
</g>
<g>
</g>
<g>
</g>
<g>
</g>
<g>
</g>
<g>
</g>
</svg>
