<?xml version="1.0" encoding="iso-8859-1"?>
<!-- Generator: Adobe Illustrator 19.0.0, SVG Export Plug-In . SVG Version: 6.00 Build 0)  -->
<svg version="1.1" id="Capa_1" xmlns="http://www.w3.org/2000/svg" xmlns:xlink="http://www.w3.org/1999/xlink" x="0px" y="0px"
	 viewBox="0 0 512 512" style="enable-background:new 0 0 512 512;" xml:space="preserve">
<path style="fill:#ED3124;" d="M309.88,65.156H202.12V17.444C202.12,7.81,209.93,0,219.563,0h72.873
	c9.634,0,17.444,7.81,17.444,17.444L309.88,65.156L309.88,65.156z"/>
<path style="fill:#D8231E;" d="M309.883,17.572v47.581h-31.054V17.572c0-9.706-7.758-17.57-17.32-17.57h31.054
	C302.125,0.002,309.883,7.867,309.883,17.572z"/>
<path style="fill:#9A3F21;" d="M341.51,269.704l12.994-15.982c3.975-4.889,6.149-11.031,6.149-17.37v-68.826
	c0-6.73-2.45-13.223-6.88-18.231l-36.825-41.633c-4.43-5.008-6.88-11.501-6.88-18.231V65.156H201.932V89.43
	c0,6.73-2.45,13.223-6.88,18.231l-36.826,41.633c-4.43,5.008-6.88,11.501-6.88,18.231v68.826c0,6.339,2.174,12.481,6.149,17.37
	l12.994,15.982c3.975,4.889,6.149,11.031,6.149,17.37v59.955c0,6.415-2.226,12.624-6.288,17.539l-12.717,15.388
	c-4.062,4.914-6.288,11.124-6.288,17.539v87.217c0,15.071,12.036,27.289,26.884,27.289h155.538
	c14.848,0,26.884-12.218,26.884-27.289v-87.217c0-6.415-2.226-12.624-6.288-17.539l-12.718-15.388
	c-4.061-4.914-6.288-11.124-6.288-17.539v-59.955C335.36,280.734,337.535,274.593,341.51,269.704z"/>
<path style="fill:#8C331B;" d="M335.357,287.069v59.959c0,6.415,2.228,12.625,6.29,17.539l12.721,15.391
	c4.062,4.914,6.29,11.124,6.29,17.539v87.214c0,15.072-12.043,27.286-26.891,27.286h-31.905c14.848,0,26.891-12.214,26.891-27.286
	v-87.214c0-6.415-2.228-12.625-6.29-17.539l-12.721-15.391c-4.062-4.914-6.28-11.124-6.28-17.539v-59.959
	c0-6.333,2.168-12.481,6.148-17.365l12.995-15.987c3.97-4.883,6.148-11.032,6.148-17.365V167.52c0-6.724-2.451-13.221-6.887-18.228
	l-36.817-41.628c-4.436-5.007-6.887-11.504-6.887-18.239V65.153h31.905v24.274c0,6.734,2.451,13.232,6.877,18.239l36.827,41.628
	c4.436,5.007,6.887,11.505,6.887,18.228v68.832c0,6.333-2.178,12.481-6.158,17.365l-12.995,15.987
	C337.534,274.588,335.357,280.736,335.357,287.069z"/>
<rect x="151.342" y="170.15" style="fill:#ED3124;" width="209.31" height="68.889"/>
<rect x="328.752" y="170.15" style="fill:#D8231E;" width="31.9" height="68.889"/>
<g>
	<path style="fill:#E2EEFD;" d="M346.215,170.149h-3.398c-0.269-0.031-0.557-0.047-0.868-0.047
		c-2.157,0.004-15.589-0.169-17.222,0.001c-0.1,0.01-0.198,0.031-0.297,0.045h-2.763c0,0-1.036,1.905-2.04,3.61
		c-0.264,0.409-0.515,0.83-0.762,1.259l0,0l0,0c-0.193,0.337-0.386,0.676-0.581,1.017c-4.004,6.982-11.604,10.604-18.935,13.137
		c-7.561,2.613-15.388,3.978-22.984,6.317c-7.873,2.424-15.757,4.847-23.412,7.978c-14.455,5.913-31.109,11.376-39.172,26.676
		c-0.562,1.067-1.501,2.942-2.004,4.697l-1.278,4.198h3.046c0.262,0,0.525,0,0.787,0c1.489,0,2.978,0,4.467,0
		c3.401,0,6.801,0,10.202,0c10.708,0,21.415,0,32.123,0c2.871,0,5.742,0,8.613,0h5.429l0.032-1.419
		c0.05-2.265,0.479-4.51,1.308-6.622c1.307-3.331,3.019-6.931,5.806-9.285c3.005-2.537,6.779-3.855,10.484-4.991
		c17.069-5.233,38.963-3.935,49.291-24.049c2.227-4.337,3.487-9.454,3.919-14.351c0.102-1.159,0.201-2.279,0.206-3.302h0.003
		V170.149z"/>
	<ellipse style="fill:#E2EEFD;" cx="295.792" cy="355.52" rx="11.321" ry="11.491"/>
	<ellipse style="fill:#E2EEFD;" cx="295.792" cy="294.99" rx="11.321" ry="11.491"/>
	<ellipse style="fill:#E2EEFD;" cx="261.832" cy="388.87" rx="11.321" ry="11.491"/>
	<ellipse style="fill:#E2EEFD;" cx="309.882" cy="416.06" rx="11.321" ry="11.491"/>
</g>
<g>
	<path style="fill:#A80505;" d="M216.498,187.119H176.49c-4.195,0-7.596,3.452-7.596,7.711s3.401,7.711,7.596,7.711h40.008
		c4.195,0,7.596-3.452,7.596-7.711C224.095,190.571,220.694,187.119,216.498,187.119z"/>
	<path style="fill:#A80505;" d="M190.418,208.195h-13.927c-4.195,0-7.596,3.452-7.596,7.711s3.401,7.711,7.596,7.711h13.927
		c4.195,0,7.596-3.452,7.596-7.711S194.613,208.195,190.418,208.195z"/>
</g>
<g>
</g>
<g>
</g>
<g>
</g>
<g>
</g>
<g>
</g>
<g>
</g>
<g>
</g>
<g>
</g>
<g>
</g>
<g>
</g>
<g>
</g>
<g>
</g>
<g>
</g>
<g>
</g>
<g>
</g>
</svg>
