<?xml version="1.0" encoding="iso-8859-1"?>
<!-- Generator: Adobe Illustrator 19.0.0, SVG Export Plug-In . SVG Version: 6.00 Build 0)  -->
<svg version="1.1" id="Capa_1" xmlns="http://www.w3.org/2000/svg" xmlns:xlink="http://www.w3.org/1999/xlink" x="0px" y="0px"
	 viewBox="0 0 480.098 480.098" style="enable-background:new 0 0 480.098 480.098;" xml:space="preserve">
<path d="M244.489,54.754c14.538-9.703,18.458-29.354,8.755-43.892c-1.156-1.733-2.481-3.347-3.955-4.82l-3.6-3.6
	c-3.069-3.178-8.134-3.266-11.312-0.197s-3.266,8.134-0.197,11.312c0.064,0.067,0.13,0.132,0.197,0.197l3.608,3.6
	c6.109,6.113,6.105,16.021-0.008,22.13c-0.731,0.73-1.532,1.386-2.392,1.958c-14.538,9.703-18.458,29.354-8.755,43.892
	c1.156,1.733,2.481,3.347,3.955,4.82l3.6,3.6c3.07,3.178,8.134,3.266,11.312,0.196s3.266-8.134,0.196-11.312
	c-0.064-0.067-0.13-0.132-0.196-0.196l-3.608-3.6c-6.109-6.113-6.105-16.021,0.008-22.13
	C242.828,55.983,243.629,55.327,244.489,54.754z"/>
<path d="M196.489,54.754c14.538-9.703,18.458-29.354,8.755-43.892c-1.156-1.733-2.481-3.347-3.955-4.82l-3.6-3.6
	c-3.069-3.178-8.134-3.266-11.312-0.197s-3.266,8.134-0.197,11.312c0.064,0.067,0.13,0.132,0.197,0.197l3.608,3.6
	c6.109,6.113,6.105,16.021-0.008,22.13c-0.731,0.73-1.532,1.386-2.392,1.958c-14.538,9.703-18.458,29.354-8.755,43.892
	c1.156,1.733,2.481,3.347,3.955,4.82l3.6,3.6c3.069,3.178,8.134,3.266,11.312,0.197s3.266-8.134,0.197-11.312
	c-0.064-0.067-0.13-0.132-0.197-0.197l-3.608-3.6c-6.109-6.113-6.105-16.021,0.008-22.13
	C194.828,55.983,195.629,55.327,196.489,54.754z"/>
<path d="M292.489,54.754c14.538-9.703,18.458-29.354,8.755-43.892c-1.156-1.733-2.481-3.347-3.955-4.82l-3.6-3.6
	c-3.07-3.178-8.134-3.266-11.312-0.196s-3.266,8.134-0.196,11.312c0.064,0.067,0.13,0.132,0.196,0.196l3.608,3.6
	c6.109,6.113,6.105,16.021-0.008,22.13c-0.731,0.73-1.532,1.386-2.392,1.958c-14.538,9.703-18.458,29.354-8.755,43.892
	c1.156,1.733,2.481,3.347,3.955,4.82l3.6,3.6c3.07,3.178,8.134,3.266,11.312,0.196s3.266-8.134,0.196-11.312
	c-0.064-0.067-0.13-0.132-0.196-0.196l-3.608-3.6c-6.109-6.113-6.105-16.021,0.008-22.13
	C290.828,55.983,291.629,55.327,292.489,54.754z"/>
<path style="fill:#FFDB8B;" d="M384.049,120.098h-288v224c0,61.856,50.144,112,112,112h64c61.856,0,112-50.144,112-112V120.098z"/>
<g>
	<path style="fill:#B47B54;" d="M96.049,176.098h288v16h-288V176.098z"/>
	<path style="fill:#B47B54;" d="M96.049,240.098h288v16h-288V240.098z"/>
	<path style="fill:#B47B54;" d="M381.409,368.098H98.689c1.212,5.448,2.832,10.796,4.848,16h273.024
		C378.577,378.894,380.197,373.546,381.409,368.098L381.409,368.098z"/>
	<path style="fill:#B47B54;" d="M96.049,304.098h288v16h-288V304.098z"/>
	<path style="fill:#B47B54;" d="M24.049,424.098h432c8.837,0,16,7.163,16,16s-7.163,16-16,16h-72l-16,16h-256l-16-16h-72
		c-8.837,0-16-7.163-16-16S15.213,424.098,24.049,424.098z"/>
</g>
<path d="M456.049,416.098h-88.152c15.71-20.712,24.194-46.004,24.152-72v-224c0-4.418-3.582-8-8-8h-288c-4.418,0-8,3.582-8,8v224
	c-0.03,25.994,8.453,51.282,24.152,72H24.049c-13.255,0-24,10.745-24,24s10.745,24,24,24h68.688l13.656,13.656
	c1.5,1.5,3.534,2.344,5.656,2.344h256c2.122,0,4.156-0.844,5.656-2.344l13.656-13.656h68.688c13.255,0,24-10.745,24-24
	S469.304,416.098,456.049,416.098z M104.049,344.098v-216h272v216c0.052,26.874-10.387,52.707-29.096,72h-213.84
	C114.422,396.797,103.995,370.967,104.049,344.098z M456.049,448.098h-72c-2.122,0-4.156,0.844-5.656,2.344l-13.656,13.656H115.361
	l-13.656-13.656c-1.5-1.5-3.534-2.344-5.656-2.344h-72c-4.418,0-8-3.582-8-8s3.582-8,8-8h432c4.418,0,8,3.582,8,8
	S460.467,448.098,456.049,448.098z"/>
<g>
</g>
<g>
</g>
<g>
</g>
<g>
</g>
<g>
</g>
<g>
</g>
<g>
</g>
<g>
</g>
<g>
</g>
<g>
</g>
<g>
</g>
<g>
</g>
<g>
</g>
<g>
</g>
<g>
</g>
</svg>
