<?xml version="1.0" encoding="iso-8859-1"?>
<!-- Generator: Adobe Illustrator 19.0.0, SVG Export Plug-In . SVG Version: 6.00 Build 0)  -->
<svg version="1.1" id="Capa_1" xmlns="http://www.w3.org/2000/svg" xmlns:xlink="http://www.w3.org/1999/xlink" x="0px" y="0px"
	 viewBox="0 0 512 512" style="enable-background:new 0 0 512 512;" xml:space="preserve">
<g>
	<path style="fill:#DBDBDB;" d="M140.37,461.381H22.041L0,240.972h162.411L140.37,461.381z"/>
	<rect x="231.53" y="180.861" style="fill:#DBDBDB;" width="270.502" height="280.521"/>
</g>
<polygon style="fill:#EAEAE8;" points="501.981,461.381 331.665,461.381 331.665,180.861 321.647,160.823 491.963,160.823 
	501.981,180.861 "/>
<rect x="231.53" y="240.972" style="fill:#4799CF;" width="270.502" height="160.297"/>
<polygon style="fill:#DBDBDB;" points="11.071,250.991 31.108,451.362 131.294,451.362 151.331,250.991 152.122,240.972 
	9.979,240.972 "/>
<g>
	<polygon style="fill:#F7F7F7;" points="17.082,311.102 31.108,451.362 131.294,451.362 145.32,311.102 	"/>
	<polygon style="fill:#F7F7F7;" points="501.981,180.861 461.907,90.693 281.572,90.693 271.554,110.73 311.628,180.861 
		331.665,180.861 	"/>
</g>
<rect x="281.623" y="50.619" style="fill:#EAEAE8;" width="180.335" height="40.074"/>
<g>
	<g>
		<rect id="SVGCleanerId_0" x="261.585" y="271.028" style="fill:#6CBAE5;" width="40.074" height="20.037"/>
	</g>
	<rect x="261.585" y="311.102" style="fill:#6CBAE5;" width="40.074" height="20.037"/>
	<g>
		<rect id="SVGCleanerId_1" x="261.585" y="351.177" style="fill:#6CBAE5;" width="40.074" height="20.037"/>
	</g>
</g>
<path style="fill:#EAEAE8;" d="M416.833,361.195L416.833,361.195c-19.646,0-31.619-22.762-21.209-40.315l23.634-39.834
	l19.947,42.018C447.52,340.587,435.428,361.195,416.833,361.195z"/>
<rect x="231.53" y="240.972" style="fill:#428DC5;" width="100.186" height="160.297"/>
<g>
	<g>
		<rect id="SVGCleanerId_0_1_" x="261.585" y="271.028" style="fill:#4799CF;" width="40.074" height="20.037"/>
	</g>
	<rect x="261.585" y="311.102" style="fill:#4799CF;" width="40.074" height="20.037"/>
	<g>
		<rect id="SVGCleanerId_1_1_" x="261.585" y="351.177" style="fill:#4799CF;" width="40.074" height="20.037"/>
	</g>
</g>
<polyline style="fill:#DBDBDB;" points="281.572,90.693 331.665,180.861 331.665,200.898 231.479,200.898 231.479,180.861 
	281.572,90.693 "/>
<path d="M22.041,461.381h118.33l22.041-220.409H0L22.041,461.381z M122.227,441.344H40.185L28.162,321.121h106.087L122.227,441.344z
	 M140.26,261.009l-4.007,40.074H26.159l-4.007-40.074H140.26z"/>
<path d="M512,471.4v-60.112V230.954v-60.112h-0.1c0-1.513-0.23-3.036-0.962-4.478l-39.022-78.035V40.6H271.544v47.228l-48.57,77.704
	c-1.032,1.653-1.353,3.486-1.342,5.31h-0.18v60.112v180.335V471.4h100.186H512z M491.963,451.362H341.684v-40.074h150.279V451.362z
	 M491.963,391.251H341.684v-140.26h150.279V391.251z M491.963,230.954H341.684v-40.074h150.279V230.954z M490.781,170.842H337.176
	c0-1.693-0.26-3.396-1.162-4.969l-37.189-65.161h156.891L490.781,170.842z M291.591,60.638h160.297v20.037H291.591V60.638z
	 M281.182,110.209l34.604,60.632h-72.495L281.182,110.209z M241.498,190.879h80.149v40.074h-80.149V190.879z M241.498,250.991
	h80.149v140.26h-80.149V250.991z M241.498,411.288h80.149v40.074h-80.149V411.288z"/>
<g>
	<rect id="SVGCleanerId_0_2_" x="261.585" y="271.028" width="40.074" height="20.037"/>
</g>
<rect x="261.585" y="311.102" width="40.074" height="20.037"/>
<g>
	<rect id="SVGCleanerId_1_2_" x="261.585" y="351.177" width="40.074" height="20.037"/>
</g>
<path d="M416.823,371.214c11.852,0,22.782-6.131,29.284-16.39c6.893-10.89,7.694-24.375,2.144-36.057l-19.947-42.018
	c-1.583-3.346-4.889-5.54-8.586-5.711c-3.687-0.11-7.193,1.713-9.077,4.899l-23.624,39.844c-6.843,11.531-6.953,25.938-0.311,37.6
	C393.049,364.541,404.31,371.214,416.823,371.214z M404.25,326l14.026-23.654l11.882,25.016c2.585,5.44,2.214,11.702-0.982,16.751
	c-2.835,4.488-7.344,7.063-12.353,7.063c-7.524,0-11.401-5.4-12.724-7.714C400.964,337.962,401.014,331.43,404.25,326z"/>
<g>
</g>
<g>
</g>
<g>
</g>
<g>
</g>
<g>
</g>
<g>
</g>
<g>
</g>
<g>
</g>
<g>
</g>
<g>
</g>
<g>
</g>
<g>
</g>
<g>
</g>
<g>
</g>
<g>
</g>
</svg>
