<?xml version="1.0" encoding="iso-8859-1"?>
<!-- Generator: Adobe Illustrator 19.0.0, SVG Export Plug-In . SVG Version: 6.00 Build 0)  -->
<svg version="1.1" id="Capa_1" xmlns="http://www.w3.org/2000/svg" xmlns:xlink="http://www.w3.org/1999/xlink" x="0px" y="0px"
	 viewBox="0 0 512 512" style="enable-background:new 0 0 512 512;" xml:space="preserve">
<g>
	<path style="fill:#D9E3ED;" d="M238.659,146.674l-11.917,47.936l-18.155,72.987c-8.453,34.014-39.074,56.799-72.648,56.799
		c-1.198,0-2.395-0.03-3.593-0.1c-4.791-0.22-9.631-0.918-14.462-2.116l-0.828-0.21c-0.12-0.03-0.25-0.06-0.369-0.1
		c-4.661-1.178-9.142-2.785-13.404-4.781c-13.344-6.218-24.532-16.268-32.297-29.163c-10.31-17.137-13.334-37.257-8.503-56.659
		l2.405-9.671l27.656-111.253l71.411,17.755L238.659,146.674z"/>
	<polygon style="fill:#D9E3ED;" points="132.347,324.297 94.111,478.066 113.723,482.947 106.497,512 72.374,503.517 38.22,495.023 
		45.446,465.97 65.058,470.84 103.283,317.091 106.557,303.936 120.23,307.34 135.61,311.162 	"/>
	<path style="fill:#D9E3ED;" d="M383.446,260.352c-4.002,2.645-8.314,4.94-12.915,6.837l-0.03,0.01l-0.759,0.309
		c-4.601,1.886-9.272,3.294-13.983,4.222c-4.791,0.948-9.611,1.407-14.382,1.407c-29.462,0-57.448-17.506-69.335-46.389
		l-27.925-67.907l-19.462-47.338l70.842-29.133l68.406-28.125l39.333,95.663l8.054,19.582
		C425.095,203.063,412.619,240.999,383.446,260.352z"/>
	<polygon style="fill:#D9E3ED;" points="473.78,426.876 440.804,440.44 408.707,453.634 397.319,425.948 416.003,418.263 
		355.76,271.729 350.6,259.194 364.872,253.325 378.286,247.806 383.446,260.352 443.698,406.875 462.392,399.19 	"/>
</g>
<g>
	<rect x="195.598" style="fill:#FFAF3E;" width="29.942" height="49.903"/>
	
		<rect x="244.94" y="10.621" transform="matrix(-0.9316 -0.3635 0.3635 -0.9316 489.1114 163.1889)" style="fill:#FFAF3E;" width="29.942" height="49.903"/>
	
		<rect x="135.55" y="20.594" transform="matrix(-0.3635 -0.9316 0.9316 -0.3635 185.7112 198.0155)" style="fill:#FFAF3E;" width="49.903" height="29.942"/>
</g>
<path style="fill:#CAD4E4;" d="M238.659,146.674l-11.917,47.936l-18.155,72.987c-8.453,34.014-39.074,56.799-72.648,56.799
	c-1.198,0-2.395-0.03-3.593-0.1l-38.235,153.77l19.612,4.88L106.497,512l-34.123-8.483l44.313-181.645l3.543-14.532l43.725-179.24
	L238.659,146.674z"/>
<path style="fill:#E9336D;" d="M226.742,194.61l-18.155,72.987c-8.453,34.014-39.074,56.799-72.648,56.799
	c-5.958,0-12.017-0.719-18.055-2.216l-0.828-0.21c-0.12-0.03-0.25-0.06-0.369-0.1c-19.242-4.88-35.461-16.927-45.701-33.944
	c-10.31-17.137-13.334-37.257-8.503-56.659l2.405-9.671l79.495-13.254L226.742,194.61z"/>
<path style="fill:#B12E65;" d="M226.742,194.61l-18.155,72.987c-8.453,34.014-39.074,56.799-72.648,56.799
	c-5.958,0-12.017-0.719-18.055-2.216l-0.828-0.21c-0.12-0.03-0.25-0.06-0.369-0.1l27.696-113.528L226.742,194.61z"/>
<path style="fill:#CAD4E4;" d="M473.78,426.876l-32.976,13.564l-70.303-173.242l-5.629-13.873L295.498,82.369l68.406-28.125
	l39.333,95.663l8.054,19.582c13.803,33.574,1.327,71.51-27.846,90.863l60.252,146.524l18.693-7.685L473.78,426.876z"/>
<path style="fill:#E9336D;" d="M370.531,267.188l-0.03,0.01l-0.759,0.309c-9.282,3.823-18.903,5.629-28.365,5.629
	c-29.462,0-57.448-17.506-69.335-46.389l-27.925-67.907l80.573-4.521l78.547-4.411l8.054,19.582
	C426.991,207.664,408.707,251.489,370.531,267.188z"/>
<path style="fill:#B12E65;" d="M370.531,267.188l-0.03,0.01l-45.811-112.88l78.547-4.411l8.054,19.582
	C426.991,207.664,408.707,251.489,370.531,267.188z"/>
<g>
</g>
<g>
</g>
<g>
</g>
<g>
</g>
<g>
</g>
<g>
</g>
<g>
</g>
<g>
</g>
<g>
</g>
<g>
</g>
<g>
</g>
<g>
</g>
<g>
</g>
<g>
</g>
<g>
</g>
</svg>
