<?xml version="1.0" encoding="iso-8859-1"?>
<!-- Generator: Adobe Illustrator 19.0.0, SVG Export Plug-In . SVG Version: 6.00 Build 0)  -->
<svg version="1.1" id="Capa_1" xmlns="http://www.w3.org/2000/svg" xmlns:xlink="http://www.w3.org/1999/xlink" x="0px" y="0px"
	 viewBox="0 0 512.001 512.001" style="enable-background:new 0 0 512.001 512.001;" xml:space="preserve">
<path style="fill:#DB4C05;" d="M43.316,153.379c-6.243-7.959-9.543-17.503-9.543-27.597c0-10.349,3.611-20.442,10.169-28.422
	c2.108-2.564,4.486-4.889,7.07-6.905l6.116-4.775c0.588-0.458,1.442-0.309,1.839,0.321l19.947,31.645l-28.618,43.498L43.316,153.379
	z"/>
<path style="fill:#92B515;" d="M469.075,292.122c-3.644,0-7.232,0.953-10.42,2.76c-2.28-9.433-10.834-16.206-20.61-16.206
	c-0.877,0-1.771,0.065-2.733,0.202c-1.193-10.598-10.337-18.82-21.057-18.82c-5.475,0-10.665,2.078-14.626,5.851l-3.378,2.281
	l-278.552-0.722l-5.362-1.59c-3.956-3.754-9.133-5.82-14.593-5.82c-10.719,0-19.863,8.22-21.057,18.816
	c-0.99-0.134-1.869-0.198-2.733-0.198c-9.777,0-18.331,6.774-20.61,16.206c-3.189-1.807-6.776-2.76-10.42-2.76
	c-11.692,0-21.204,9.512-21.204,21.204c0,11.551,9.284,20.973,20.782,21.2l1.261,6.21h123.969h178.594h121.911l1.261-6.21
	c11.498-0.227,20.782-9.649,20.782-21.2C490.28,301.634,480.768,292.122,469.075,292.122z"/>
<g>
	<path style="fill:#779303;" d="M415.52,307.304c0-1.909,1.725-3.395,3.603-3.048c9.183,1.693,16.14,9.741,16.14,19.415
		s-6.957,17.721-16.14,19.415c-1.877,0.346-3.603-1.139-3.603-3.048V307.304z"/>
	<path style="fill:#779303;" d="M96.48,307.304c0-1.909-1.725-3.395-3.603-3.048c-9.183,1.693-16.14,9.741-16.14,19.415
		s6.957,17.721,16.14,19.415c1.877,0.346,3.603-1.139,3.603-3.048V307.304z"/>
</g>
<g>
	<rect x="188.251" y="142.803" style="fill:#F46C21;" width="23.79" height="70.046"/>
	<rect x="299.961" y="142.803" style="fill:#F46C21;" width="23.79" height="70.046"/>
</g>
<g>
	<path style="fill:#E2D9C5;" d="M311.855,158.692c-15.685,0-28.445-12.761-28.445-28.445s12.76-28.445,28.445-28.445
		c15.685,0,28.445,12.761,28.445,28.445S327.539,158.692,311.855,158.692z"/>
	<path style="fill:#E2D9C5;" d="M200.145,158.692c-15.685,0-28.445-12.761-28.445-28.445s12.76-28.445,28.445-28.445
		s28.445,12.761,28.445,28.445S215.83,158.692,200.145,158.692z"/>
</g>
<polygon style="fill:#DB4C05;" points="67.157,159.136 95.142,153.424 115.175,207.03 91.166,220.338 "/>
<path style="fill:#F46C21;" d="M78.264,170.575c-7.089-0.052-13.872-1.723-20.16-4.97l-7.808-4.461l45.661-72.436
	c1.309-2.077,4.125-2.568,6.06-1.057l3.597,2.809c2.584,2.016,4.962,4.34,7.07,6.905c6.557,7.98,10.169,18.073,10.169,28.422
	c0,24.52-19.949,44.613-44.47,44.79h-0.06h-0.059V170.575z"/>
<g>
	<polygon style="fill:#DB4C05;" points="397.751,204.548 418.269,149.647 446.05,156.06 421.432,218.81 	"/>
	<path style="fill:#DB4C05;" d="M433.066,117.65l19.12-30.332c0.84-1.332,2.648-1.648,3.889-0.679l4.892,3.82
		c2.584,2.016,4.962,4.34,7.07,6.905c6.557,7.98,10.169,18.073,10.169,28.422c0,10.094-3.3,19.637-9.543,27.597l-6.754,8.087
		L433.066,117.65z"/>
</g>
<g>
	<path style="fill:#F46C21;" d="M433.617,170.575c-24.521-0.177-44.47-20.27-44.47-44.79c0-10.349,3.611-20.442,10.169-28.422
		c2.108-2.564,4.486-4.889,7.07-6.905l2.722-2.126c2.403-1.876,5.901-1.266,7.527,1.314l45.273,71.823l-8.013,4.136
		c-6.289,3.247-13.071,4.918-20.16,4.97h-0.06L433.617,170.575L433.617,170.575z"/>
	<path style="fill:#F46C21;" d="M94.147,235.184c-9.288-8.283-10.107-22.58-1.825-31.869l0.931-1.046
		c4.015-4.503,9.541-7.17,15.559-7.515c0.438-0.024,0.874-0.037,1.308-0.037c5.535,0,10.863,2.034,15.003,5.726l15.814,14.101
		l-5.364,6.168c-3.039,3.493-5.756,7.305-8.075,11.326l-0.214,0.37l-0.209,0.288l-0.158,0.401l-0.244,0.448
		c-1.954,3.583-3.586,7.265-4.853,10.944l-4.048,11.761L94.147,235.184z"/>
	<path style="fill:#F46C21;" d="M391.819,243.222c-3.161-8.651-7.916-16.539-14.132-23.443l-5.563-6.179l14.751-13.155
		c4.141-3.693,9.468-5.726,15-5.726c0.436,0,0.874,0.012,1.314,0.037c6.018,0.344,11.542,3.012,15.555,7.512l0.934,1.047
		c8.283,9.291,7.465,23.587-1.824,31.87l-21.852,19.486L391.819,243.222z"/>
	<path style="fill:#F46C21;" d="M189.802,340.737c-40.209,0-72.922-32.712-72.922-72.922s32.712-72.922,72.922-72.922h134.465
		c40.209,0,72.922,32.712,72.922,72.922s-32.712,72.922-72.922,72.922H189.802z"/>
</g>
<path style="fill:#EA4E11;" d="M367.192,297.616H232.727c-40.209,0-72.922-32.712-72.922-72.922c0-8.848,1.588-17.332,4.487-25.185
	c-27.664,10.365-47.412,37.069-47.412,68.307c0,40.209,32.712,72.922,72.922,72.922h134.465c31.361,0,58.158-19.901,68.435-47.736
	C384.757,295.978,376.163,297.616,367.192,297.616z"/>
<path style="fill:#EDB72F;" d="M324.267,194.894H189.802c-27.421,0-51.344,15.219-63.795,37.648h25.227v20.838
	c0,8.163,6.642,14.805,14.805,14.805h2.644c8.163,0,14.805-6.642,14.805-14.805v-6.345c0-7.872,6.404-14.276,14.276-14.276h6.345
	c7.871,0,14.276,6.404,14.276,14.276v47.057c0,8.163,6.642,14.805,14.805,14.805s14.805-6.642,14.805-14.805v-47.057
	c0-7.872,6.404-14.276,14.276-14.276h3.701c5.831,0,10.574,4.744,10.574,10.574c0,8.163,6.642,14.805,14.805,14.805h5.288
	c8.163,0,14.805-6.642,14.805-14.805c0-6.997,5.693-12.689,12.689-12.689h2.644c7.871,0,14.276,6.404,14.276,14.276v24.85
	c0,8.163,6.642,14.805,14.805,14.805h1.057c8.163,0,14.805-6.641,14.805-14.805v-21.149h22.893
	C386.159,217.698,357.833,194.894,324.267,194.894z"/>
<path style="fill:#A6C1AD;" d="M64.017,426.588c-7.065,0-12.811-5.748-12.811-12.811v-33.734h410.636v33.734
	c0,7.064-5.747,12.811-12.811,12.811L64.017,426.588L64.017,426.588z"/>
<path style="fill:#C2D5BF;" d="M32.763,394.523c-9.207,0-17.318-5.497-20.664-14.005l-11.5-29.234
	c-1.036-2.637-0.716-5.492,0.877-7.836c1.587-2.343,4.243-3.745,7.098-3.745H503.44c2.855,0,5.511,1.403,7.104,3.755
	c1.574,2.315,1.896,5.26,0.855,7.865l-11.485,29.198c-3.346,8.506-11.457,14.003-20.664,14.003L32.763,394.523L32.763,394.523z"/>
<path style="fill:#91BC86;" d="M91.209,369.842c-9.207,0-17.318-5.497-20.664-14.005l-6.348-16.135H8.574
	c-2.855,0-5.511,1.403-7.098,3.745c-1.594,2.345-1.914,5.2-0.877,7.836L12.1,380.518c3.346,8.509,11.457,14.005,20.664,14.005
	h446.485c9.206,0,17.317-5.497,20.664-14.003l4.201-10.678H91.209z"/>
<g>
	<circle style="fill:#C6B695;" cx="192.906" cy="130.246" r="7.758"/>
	<circle style="fill:#C6B695;" cx="304.615" cy="130.246" r="7.758"/>
</g>
<g>
</g>
<g>
</g>
<g>
</g>
<g>
</g>
<g>
</g>
<g>
</g>
<g>
</g>
<g>
</g>
<g>
</g>
<g>
</g>
<g>
</g>
<g>
</g>
<g>
</g>
<g>
</g>
<g>
</g>
</svg>
