<?xml version="1.0" encoding="iso-8859-1"?>
<!-- Generator: Adobe Illustrator 19.0.0, SVG Export Plug-In . SVG Version: 6.00 Build 0)  -->
<svg version="1.1" id="Capa_1" xmlns="http://www.w3.org/2000/svg" xmlns:xlink="http://www.w3.org/1999/xlink" x="0px" y="0px"
	 viewBox="0 0 512.001 512.001" style="enable-background:new 0 0 512.001 512.001;" xml:space="preserve">
<g>
	<polyline style="fill:#FFE095;" points="117.562,225.16 117.562,304.373 171.562,304.373 171.562,225.16 	"/>
	<polyline style="fill:#FFE095;" points="340.44,225.16 340.44,304.373 394.44,304.373 394.44,225.16 	"/>
	<ellipse style="fill:#FFE095;" cx="144.561" cy="119.85" rx="94.64" ry="109.85"/>
	<path style="fill:#FFE095;" d="M144.562,189.695c-13.455,0-26.457-6.493-36.615-18.282c-11.622-13.49-18.023-31.803-18.023-51.565"
		/>
</g>
<path d="M144.562,199.695c-16.41,0-32.104-7.726-44.191-21.754c-13.185-15.305-20.447-35.936-20.447-58.093c0-5.523,4.477-10,10-10
	s10,4.477,10,10c0,17.367,5.54,33.362,15.599,45.039c8.228,9.549,18.541,14.809,29.039,14.809c5.523,0,10,4.477,10,10
	C154.562,195.218,150.085,199.695,144.562,199.695z"/>
<path style="fill:#FF6472;" d="M144.562,502L144.562,502c-27.43,0-49.667-22.237-49.667-49.667v-147.96h99.333v147.96
	C194.229,479.763,171.993,502,144.562,502z"/>
<circle style="fill:#FF80A9;" cx="144.561" cy="449" r="23"/>
<path style="fill:#05BDA5;" d="M367.44,502L367.44,502c-27.43,0-49.667-22.237-49.667-49.667v-147.96h99.333v147.96
	C417.106,479.763,394.87,502,367.44,502z"/>
<circle style="fill:#00A399;" cx="367.441" cy="449" r="23"/>
<path style="fill:#FFE095;" d="M419.44,28.063v107.992h-33.333V17.667h-37.333v118.388H315.44V28.063
	c-25.684,19.644-42.638,53.413-42.638,91.785c0,60.667,42.371,109.847,94.638,109.847s94.638-49.18,94.638-109.847
	C462.077,81.476,445.123,47.706,419.44,28.063z"/>
<path d="M144.561,344.79c-0.65,0-1.31-0.07-1.95-0.2c-0.64-0.12-1.27-0.32-1.87-0.57c-0.61-0.25-1.19-0.56-1.73-0.92
	c-0.55-0.36-1.06-0.78-1.52-1.24s-0.88-0.97-1.24-1.52c-0.36-0.54-0.67-1.12-0.92-1.73c-0.25-0.6-0.44-1.23-0.57-1.87
	c-0.13-0.64-0.2-1.3-0.2-1.95c0-0.65,0.07-1.31,0.2-1.95c0.13-0.64,0.32-1.27,0.57-1.87c0.25-0.61,0.56-1.19,0.92-1.73
	c0.36-0.55,0.78-1.06,1.24-1.52s0.97-0.88,1.52-1.24c0.54-0.36,1.12-0.67,1.73-0.92c0.6-0.25,1.23-0.45,1.87-0.57
	c1.29-0.26,2.62-0.26,3.91,0c0.63,0.12,1.26,0.32,1.87,0.57c0.6,0.25,1.18,0.559,1.72,0.92c0.55,0.36,1.06,0.78,1.52,1.24
	s0.88,0.97,1.25,1.52c0.36,0.54,0.67,1.12,0.92,1.73c0.25,0.6,0.44,1.23,0.57,1.87c0.13,0.64,0.191,1.3,0.191,1.95
	c0,0.65-0.06,1.31-0.191,1.95c-0.13,0.64-0.32,1.27-0.57,1.87c-0.25,0.61-0.56,1.19-0.92,1.73c-0.37,0.55-0.79,1.06-1.25,1.52
	s-0.97,0.88-1.52,1.24c-0.54,0.36-1.12,0.67-1.72,0.92c-0.61,0.25-1.24,0.45-1.87,0.57
	C145.871,344.72,145.211,344.79,144.561,344.79z"/>
<path d="M249.2,119.848C249.2,53.764,202.26,0,144.562,0C86.865,0,39.925,53.764,39.925,119.848
	c0,51.172,28.146,94.955,67.638,112.11v62.415H94.896c-5.523,0-10,4.477-10,10v147.961c0,32.9,26.766,59.667,59.666,59.667
	s59.667-26.766,59.667-59.667V304.373c0-5.523-4.477-10-10-10h-12.667v-62.415C221.054,214.803,249.2,171.019,249.2,119.848z
	 M59.925,119.848C59.925,64.792,97.893,20,144.562,20c46.67,0,84.638,44.792,84.638,99.848s-37.968,99.847-84.638,99.847
	C97.893,219.695,59.925,174.903,59.925,119.848z M184.229,452.333c0,21.872-17.794,39.667-39.667,39.667
	c-21.872,0-39.666-17.794-39.666-39.667v-137.96h79.333V452.333z M161.562,294.373h-34v-56.259c5.534,1.04,11.213,1.581,17,1.581
	s11.466-0.541,17-1.581V294.373z"/>
<path d="M154.562,417.549V374.21c0-5.523-4.477-10-10-10s-10,4.477-10,10v43.339c-13.323,4.246-23,16.739-23,31.451
	c0,18.196,14.804,33,33,33s33-14.804,33-33C177.562,434.288,167.885,421.795,154.562,417.549z M144.562,462c-7.168,0-13-5.832-13-13
	s5.832-13,13-13c7.169,0,13,5.832,13,13S151.731,462,144.562,462z"/>
<path d="M367.441,344.79c-0.65,0-1.31-0.07-1.96-0.2c-0.63-0.12-1.26-0.32-1.87-0.57c-0.6-0.25-1.18-0.56-1.72-0.92
	c-0.55-0.36-1.06-0.78-1.52-1.24s-0.88-0.97-1.25-1.52c-0.36-0.54-0.67-1.12-0.92-1.73c-0.25-0.6-0.44-1.23-0.57-1.87
	c-0.13-0.64-0.19-1.3-0.19-1.95c0-0.65,0.06-1.31,0.19-1.95s0.32-1.27,0.57-1.87c0.25-0.61,0.56-1.19,0.92-1.73
	c0.37-0.55,0.79-1.06,1.25-1.52s0.97-0.88,1.52-1.24c0.54-0.36,1.12-0.67,1.72-0.92c0.61-0.25,1.24-0.45,1.87-0.57
	c1.29-0.26,2.62-0.26,3.91,0c0.641,0.12,1.271,0.32,1.87,0.57c0.61,0.25,1.19,0.559,1.73,0.92c0.55,0.36,1.06,0.78,1.52,1.24
	c1.86,1.86,2.93,4.44,2.93,7.07s-1.069,5.21-2.93,7.07c-0.46,0.46-0.97,0.88-1.52,1.24c-0.54,0.36-1.12,0.67-1.73,0.92
	c-0.6,0.25-1.229,0.45-1.87,0.57C368.751,344.72,368.091,344.79,367.441,344.79z"/>
<path d="M377.44,417.549V374.21c0-5.523-4.478-10-10-10s-10,4.477-10,10v43.339c-13.323,4.246-23,16.739-23,31.451
	c0,18.196,14.804,33,33,33s33-14.804,33-33C400.44,434.288,390.763,421.795,377.44,417.549z M367.44,462c-7.168,0-13-5.832-13-13
	s5.832-13,13-13s13,5.832,13,13S374.607,462,367.44,462z"/>
<path d="M472.077,119.848c0-40.147-17.406-77.428-46.563-99.728c-3.022-2.31-7.096-2.706-10.505-1.022
	c-3.411,1.686-5.57,5.161-5.57,8.965v97.992h-13.333V17.667c0-5.523-4.478-10-10-10h-37.334c-5.522,0-10,4.477-10,10v108.388
	h-13.333V28.063c0-3.805-2.159-7.28-5.57-8.965s-7.481-1.29-10.505,1.022c-29.156,22.3-46.563,59.581-46.563,99.728
	c0,51.172,28.146,94.955,67.638,112.11v62.415h-12.667c-5.522,0-10,4.477-10,10v147.961c0,32.9,26.767,59.667,59.667,59.667
	s59.667-26.766,59.667-59.667V304.373c0-5.523-4.478-10-10-10h-12.667v-62.415C443.931,214.803,472.077,171.019,472.077,119.848z
	 M282.802,119.848c0-25.587,8.217-49.69,22.638-67.95v84.157c0,5.523,4.478,10,10,10h33.333c5.522,0,10-4.477,10-10V27.667h17.334
	v108.388c0,5.523,4.478,10,10,10h33.333c5.522,0,10-4.477,10-10V51.898c14.421,18.259,22.638,42.362,22.638,67.95
	c0,55.056-37.969,99.847-84.638,99.847C320.771,219.695,282.802,174.903,282.802,119.848z M407.106,452.333
	c0,21.872-17.795,39.667-39.667,39.667c-21.872,0-39.667-17.794-39.667-39.667v-137.96h79.334L407.106,452.333L407.106,452.333z
	 M384.44,294.373h-34v-56.259c5.534,1.04,11.213,1.581,17,1.581s11.466-0.541,17-1.581V294.373z"/>
<g>
</g>
<g>
</g>
<g>
</g>
<g>
</g>
<g>
</g>
<g>
</g>
<g>
</g>
<g>
</g>
<g>
</g>
<g>
</g>
<g>
</g>
<g>
</g>
<g>
</g>
<g>
</g>
<g>
</g>
</svg>
