<?xml version="1.0" encoding="iso-8859-1"?>
<!-- Generator: Adobe Illustrator 19.0.0, SVG Export Plug-In . SVG Version: 6.00 Build 0)  -->
<svg version="1.1" id="Capa_1" xmlns="http://www.w3.org/2000/svg" xmlns:xlink="http://www.w3.org/1999/xlink" x="0px" y="0px"
	 viewBox="0 0 512 512" style="enable-background:new 0 0 512 512;" xml:space="preserve">
<path style="fill:#D5D2BD;" d="M37.8,512c-14.26,0-25.861-11.601-25.861-25.861V25.861C11.938,11.601,23.54,0,37.8,0h257.739
	c14.26,0,25.861,11.601,25.861,25.861v460.277c0,14.26-11.601,25.861-25.861,25.861H37.8V512z"/>
<path style="fill:#C1BB99;" d="M166.67,0H37.8C23.54,0,11.938,11.601,11.938,25.861v460.277c0,14.26,11.601,25.861,25.861,25.861
	H166.67V0z"/>
<rect x="35.585" y="23.647" style="fill:#E7E4CD;" width="262.169" height="464.707"/>
<path style="fill:#F7D772;" d="M76.176,318.607c-3.491,0-6.833-1.491-9.168-4.091c-2.336-2.607-3.454-6.105-3.075-9.603
	c0.679-6.239,6.085-10.942,12.576-10.942h0.499c1.263,0,2.334-0.964,2.492-2.244c0.144-1.147-0.572-2.293-1.66-2.67l-3.039-1.05
	c-3.206-1.106-5.754-3.415-7.173-6.5c-1.418-3.089-1.507-6.529-0.255-9.69c1.849-4.67,6.396-7.688,11.585-7.688
	c1.445,0,2.872,0.24,4.239,0.714l1.72,0.594c0.234,0.081,0.479,0.122,0.724,0.122c0.873,0,1.691-0.517,2.084-1.317
	c0.462-0.939,0.188-2.137-0.638-2.784l-3.444-2.701c-5.165-4.051-6.372-11.4-2.748-16.731c2.258-3.316,5.996-5.333,10.003-5.401
	l0.202-0.001c2.733,0,5.477,0.971,7.728,2.735l2.588,2.027c0.456,0.359,0.927,0.433,1.243,0.433c0.323,0,0.948-0.082,1.495-0.635
	c0.72-0.728,0.827-1.758,0.268-2.623l-3.135-4.854c-1.843-2.855-2.422-6.249-1.631-9.555c0.795-3.308,2.855-6.072,5.804-7.785
	c1.817-1.056,3.901-1.614,6.027-1.614c4.248,0,8.34,2.25,10.678,5.873l2.19,3.39c0.508,0.789,1.269,0.873,1.572,0.873
	c0.305,0,0.61-0.075,0.902-0.224c0.83-0.421,1.237-1.306,1.015-2.205l-1.598-6.506c-0.811-3.301-0.25-6.699,1.58-9.567
	c1.825-2.863,4.676-4.804,8.024-5.462c0.759-0.148,1.524-0.221,2.285-0.221c5.728,0,10.71,3.986,12.113,9.695l1.102,4.487
	c0.204,0.83,0.881,1.364,1.727,1.364c0.094,0,0.19-0.006,0.287-0.02c0.822-0.11,1.541-1.007,1.636-2.04l0.631-6.873
	c0.589-6.381,5.86-11.191,12.261-11.191c1.215,0,2.426,0.18,3.6,0.535c5.557,1.679,9.199,7.159,8.66,13.03l-0.452,4.932
	c-0.058,0.623,0.249,1.087,0.437,1.307c0.233,0.273,0.646,0.609,1.292,0.653c0.002,0,0.004,0,0.006,0
	c0.766,0,1.512-0.568,1.864-1.349l2.873-6.362c1.173-2.594,3.15-4.713,5.57-5.972c1.767-0.919,3.743-1.404,5.715-1.404
	c1.756,0,3.461,0.368,5.069,1.094c3.011,1.351,5.306,3.784,6.472,6.856c1.162,3.062,1.059,6.391-0.288,9.373l-1.992,4.418
	c-0.395,0.873-0.027,1.917,0.836,2.38c0.269,0.144,0.562,0.217,0.873,0.217c0.525,0,1.029-0.214,1.382-0.587l4.876-5.165
	c2.317-2.454,5.582-3.861,8.958-3.861c4.012,0,7.789,1.97,10.105,5.269c3.333,4.749,2.815,11.304-1.23,15.588l-2.992,3.17
	c-0.554,0.587-0.551,1.503,0.007,2.087l0.512,0.541c0.312,0.332,0.725,0.508,1.16,0.508c0.243,0,0.472-0.056,0.68-0.163l5.853-3.06
	c1.843-0.964,3.882-1.475,5.895-1.475c0.71,0,1.424,0.064,2.119,0.189c3.79,0.686,6.978,3.026,8.752,6.423
	c1.773,3.395,1.874,7.346,0.279,10.84c-1.126,2.464-3.125,4.543-5.632,5.855l-2.488,1.301c-0.397,0.208-0.703,0.519-0.9,0.885
	l0.712,2.818c0.359,0.244,0.786,0.386,1.224,0.386c0.099,0,0.196-0.007,0.294-0.022l5.122-0.771
	c0.651-0.098,1.311-0.148,1.964-0.148c2.145,0,4.233,0.538,6.042,1.556c3.35,1.881,5.597,5.135,6.165,8.925
	c0.569,3.775-0.621,7.541-3.265,10.325c-1.866,1.967-4.436,3.282-7.237,3.703l-2.723,0.409c-0.581,0.087-0.989,0.632-0.91,1.214
	l0.006,0.044c0.122,0.774,0.798,1.353,1.584,1.353h2.09c6.778,0,12.328,5.15,12.637,11.725c0.162,3.399-1.04,6.63-3.387,9.092
	c-2.356,2.464-5.52,3.818-8.917,3.818H76.176V318.607z"/>
<path style="fill:#EDB44F;" d="M166.67,196.186c-5.839,0.566-10.49,5.16-11.041,11.13l-0.631,6.873
	c-0.095,1.033-0.813,1.93-1.636,2.04c-0.098,0.013-0.193,0.02-0.287,0.02c-0.845,0-1.523-0.535-1.727-1.364l-1.102-4.487
	c-1.403-5.708-6.386-9.695-12.113-9.695c-0.761,0-1.526,0.074-2.285,0.221c-3.349,0.658-6.199,2.599-8.024,5.462
	c-1.83,2.867-2.391,6.264-1.58,9.567l1.598,6.506c0.222,0.9-0.186,1.785-1.015,2.205c-0.292,0.149-0.596,0.224-0.902,0.224
	c-0.303,0-1.064-0.084-1.572-0.873l-2.19-3.39c-2.337-3.622-6.43-5.873-10.678-5.873c-2.126,0-4.211,0.557-6.027,1.614
	c-2.948,1.713-5.008,4.476-5.804,7.785c-0.793,3.307-0.213,6.701,1.631,9.555l3.135,4.854c0.558,0.865,0.451,1.895-0.268,2.623
	c-0.547,0.553-1.172,0.635-1.495,0.635c-0.316,0-0.787-0.075-1.243-0.433l-2.588-2.027c-2.251-1.763-4.995-2.735-7.728-2.735
	l-0.202,0.001c-4.006,0.068-7.744,2.085-10.003,5.401c-3.624,5.332-2.418,12.681,2.748,16.732l3.444,2.701
	c0.827,0.647,1.1,1.845,0.638,2.784c-0.394,0.8-1.212,1.317-2.084,1.317c-0.245,0-0.49-0.042-0.724-0.122l-1.72-0.594
	c-1.367-0.474-2.794-0.714-4.239-0.714c-5.189,0-9.736,3.019-11.585,7.688c-1.252,3.161-1.163,6.6,0.255,9.69
	c1.419,3.084,3.966,5.393,7.173,6.5l3.039,1.05c1.09,0.376,1.804,1.522,1.66,2.67c-0.158,1.28-1.23,2.244-2.492,2.244h-0.499
	c-6.49,0-11.897,4.704-12.576,10.942c-0.379,3.498,0.739,6.995,3.075,9.603c2.335,2.599,5.676,4.091,9.168,4.091h90.495v-122.42
	H166.67z"/>
<path style="fill:#EFA348;" d="M100.056,318.607v-14.678c0-36.731,29.882-66.613,66.613-66.613s66.613,29.883,66.613,66.613v14.678
	H100.056z"/>
<path style="fill:#E27F34;" d="M166.67,237.314L166.67,237.314c-36.732,0-66.614,29.883-66.614,66.613v14.678h66.614V237.314z"/>
<path style="fill:#F7D772;" d="M76.176,463.251c-3.491,0-6.833-1.491-9.168-4.091c-2.336-2.607-3.454-6.105-3.075-9.603
	c0.679-6.239,6.085-10.942,12.576-10.942h0.499c1.263,0,2.334-0.964,2.492-2.244c0.144-1.147-0.572-2.293-1.66-2.67l-3.039-1.05
	c-3.206-1.106-5.754-3.415-7.173-6.5c-1.418-3.089-1.507-6.529-0.255-9.69c1.849-4.67,6.396-7.688,11.585-7.688
	c1.445,0,2.872,0.24,4.239,0.714l1.72,0.594c0.234,0.081,0.479,0.122,0.724,0.122c0.873,0,1.691-0.517,2.084-1.317
	c0.462-0.939,0.188-2.137-0.638-2.784l-3.444-2.701c-5.165-4.051-6.372-11.4-2.748-16.731c2.258-3.316,5.996-5.333,10.003-5.401
	l0.202-0.001c2.733,0,5.477,0.971,7.728,2.735l2.588,2.027c0.456,0.359,0.927,0.433,1.243,0.433c0.323,0,0.948-0.082,1.495-0.635
	c0.72-0.728,0.827-1.758,0.268-2.623l-3.135-4.854c-1.843-2.855-2.422-6.249-1.631-9.555c0.795-3.308,2.855-6.072,5.804-7.785
	c1.817-1.056,3.901-1.614,6.027-1.614c4.248,0,8.34,2.25,10.678,5.873l2.19,3.39c0.508,0.789,1.269,0.873,1.572,0.873
	c0.305,0,0.61-0.075,0.902-0.224c0.83-0.421,1.237-1.306,1.015-2.205l-1.598-6.506c-0.811-3.301-0.25-6.699,1.58-9.567
	c1.825-2.863,4.676-4.804,8.024-5.462c0.759-0.148,1.524-0.221,2.285-0.221c5.728,0,10.71,3.986,12.113,9.695l1.102,4.487
	c0.204,0.83,0.881,1.364,1.727,1.364c0.094,0,0.19-0.006,0.287-0.02c0.822-0.11,1.541-1.007,1.636-2.04l0.631-6.873
	c0.589-6.382,5.86-11.191,12.261-11.191c1.215,0,2.426,0.18,3.6,0.535c5.557,1.679,9.199,7.159,8.66,13.03l-0.452,4.932
	c-0.058,0.623,0.249,1.087,0.437,1.307c0.233,0.273,0.646,0.609,1.292,0.653c0.002,0,0.004,0,0.006,0
	c0.766,0,1.512-0.568,1.864-1.349l2.873-6.362c1.173-2.594,3.15-4.713,5.57-5.972c1.767-0.919,3.743-1.404,5.715-1.404
	c1.756,0,3.461,0.368,5.069,1.094c3.011,1.351,5.306,3.784,6.472,6.856c1.162,3.062,1.059,6.391-0.288,9.373l-1.992,4.418
	c-0.395,0.873-0.027,1.917,0.836,2.38c0.269,0.144,0.562,0.217,0.873,0.217c0.525,0,1.029-0.214,1.382-0.587l4.876-5.165
	c2.317-2.454,5.582-3.861,8.958-3.861c4.012,0,7.789,1.97,10.105,5.269c3.333,4.749,2.815,11.304-1.23,15.588l-2.992,3.17
	c-0.554,0.587-0.551,1.503,0.007,2.087l0.512,0.541c0.312,0.332,0.725,0.508,1.16,0.508c0.243,0,0.472-0.056,0.68-0.163l5.853-3.06
	c1.843-0.964,3.882-1.475,5.895-1.475c0.71,0,1.424,0.064,2.119,0.189c3.79,0.686,6.978,3.026,8.752,6.423
	c1.773,3.395,1.874,7.346,0.279,10.84c-1.126,2.464-3.125,4.543-5.632,5.855l-2.488,1.301c-0.397,0.208-0.703,0.519-0.9,0.885
	l0.712,2.818c0.359,0.244,0.786,0.386,1.224,0.386c0.099,0,0.196-0.007,0.294-0.022l5.122-0.771
	c0.651-0.098,1.311-0.148,1.964-0.148c2.145,0,4.233,0.538,6.042,1.556c3.35,1.881,5.597,5.135,6.165,8.925
	c0.569,3.775-0.621,7.541-3.265,10.325c-1.866,1.967-4.436,3.282-7.237,3.703l-2.723,0.409c-0.581,0.087-0.989,0.632-0.91,1.214
	l0.006,0.044c0.122,0.774,0.798,1.353,1.584,1.353h2.09c6.778,0,12.328,5.15,12.637,11.725c0.162,3.399-1.04,6.63-3.387,9.092
	c-2.356,2.464-5.52,3.818-8.917,3.818H76.176V463.251z"/>
<path style="fill:#EDB44F;" d="M166.67,340.832c-5.839,0.566-10.49,5.16-11.041,11.13l-0.631,6.873
	c-0.095,1.033-0.813,1.93-1.636,2.04c-0.098,0.013-0.193,0.02-0.287,0.02c-0.845,0-1.523-0.535-1.727-1.364l-1.102-4.487
	c-1.403-5.708-6.386-9.695-12.113-9.695c-0.761,0-1.526,0.074-2.285,0.221c-3.349,0.658-6.199,2.599-8.024,5.462
	c-1.83,2.867-2.391,6.264-1.58,9.567l1.598,6.506c0.222,0.9-0.186,1.785-1.015,2.205c-0.292,0.149-0.596,0.224-0.902,0.224
	c-0.303,0-1.064-0.084-1.572-0.873l-2.19-3.39c-2.337-3.622-6.43-5.873-10.678-5.873c-2.126,0-4.211,0.557-6.027,1.614
	c-2.948,1.713-5.008,4.476-5.804,7.785c-0.793,3.307-0.213,6.701,1.631,9.555l3.135,4.854c0.558,0.865,0.451,1.895-0.268,2.623
	c-0.547,0.553-1.172,0.635-1.495,0.635c-0.316,0-0.787-0.075-1.243-0.433l-2.588-2.027c-2.251-1.763-4.995-2.735-7.728-2.735
	l-0.202,0.001c-4.006,0.068-7.744,2.085-10.003,5.401c-3.624,5.332-2.418,12.681,2.748,16.731l3.444,2.701
	c0.827,0.647,1.1,1.845,0.638,2.784c-0.394,0.8-1.212,1.317-2.084,1.317c-0.245,0-0.49-0.042-0.724-0.122l-1.72-0.594
	c-1.367-0.474-2.794-0.714-4.239-0.714c-5.189,0-9.736,3.019-11.585,7.688c-1.252,3.161-1.163,6.6,0.255,9.69
	c1.419,3.084,3.966,5.393,7.173,6.5l3.039,1.05c1.09,0.376,1.804,1.522,1.66,2.67c-0.158,1.28-1.23,2.244-2.492,2.244h-0.499
	c-6.49,0-11.897,4.704-12.576,10.942c-0.379,3.498,0.739,6.995,3.075,9.603c2.335,2.599,5.676,4.091,9.168,4.091h90.495v-122.42
	H166.67z"/>
<path style="fill:#EFA348;" d="M100.056,463.251v-14.678c0-36.731,29.882-66.613,66.613-66.613s66.613,29.883,66.613,66.613v14.678
	H100.056z"/>
<path style="fill:#F7D772;" d="M76.176,171.906c-3.491,0-6.833-1.491-9.168-4.091c-2.336-2.607-3.454-6.105-3.075-9.603
	c0.679-6.239,6.085-10.942,12.576-10.942h0.499c1.263,0,2.334-0.964,2.492-2.244c0.144-1.147-0.572-2.293-1.66-2.67l-3.039-1.05
	c-3.206-1.106-5.754-3.415-7.173-6.5c-1.418-3.089-1.507-6.529-0.255-9.69c1.849-4.67,6.396-7.688,11.585-7.688
	c1.445,0,2.872,0.24,4.239,0.714l1.72,0.594c0.234,0.081,0.479,0.122,0.724,0.122c0.873,0,1.691-0.517,2.084-1.317
	c0.462-0.939,0.188-2.137-0.638-2.784l-3.444-2.701c-5.165-4.051-6.372-11.4-2.748-16.731c2.258-3.316,5.996-5.333,10.003-5.401
	l0.202-0.001c2.733,0,5.477,0.971,7.728,2.735l2.588,2.027c0.456,0.359,0.927,0.433,1.243,0.433c0.323,0,0.948-0.082,1.495-0.635
	c0.72-0.728,0.827-1.758,0.268-2.623l-3.135-4.854c-1.843-2.855-2.422-6.249-1.631-9.555c0.795-3.308,2.855-6.072,5.804-7.785
	c1.817-1.056,3.901-1.614,6.027-1.614c4.248,0,8.34,2.25,10.678,5.873l2.19,3.39c0.508,0.789,1.269,0.873,1.572,0.873
	c0.305,0,0.61-0.075,0.902-0.224c0.83-0.42,1.237-1.306,1.015-2.205l-1.598-6.506c-0.811-3.301-0.25-6.699,1.58-9.567
	c1.825-2.863,4.676-4.804,8.024-5.462c0.759-0.148,1.524-0.221,2.285-0.221c5.728,0,10.71,3.986,12.113,9.695l1.102,4.487
	c0.204,0.83,0.881,1.364,1.727,1.364c0.094,0,0.19-0.006,0.287-0.02c0.822-0.11,1.541-1.007,1.636-2.04l0.631-6.873
	c0.589-6.381,5.86-11.191,12.261-11.191c1.215,0,2.426,0.18,3.6,0.535c5.557,1.679,9.199,7.159,8.66,13.03l-0.452,4.932
	c-0.058,0.623,0.249,1.087,0.437,1.307c0.233,0.273,0.646,0.609,1.292,0.653c0.002,0,0.004,0,0.006,0
	c0.766,0,1.512-0.568,1.864-1.349l2.873-6.362c1.173-2.594,3.15-4.713,5.57-5.972c1.767-0.919,3.743-1.404,5.715-1.404
	c1.756,0,3.461,0.368,5.069,1.094c3.011,1.351,5.306,3.784,6.472,6.856c1.162,3.062,1.059,6.391-0.288,9.373l-1.992,4.418
	c-0.395,0.873-0.027,1.917,0.836,2.38c0.269,0.144,0.562,0.217,0.873,0.217c0.525,0,1.029-0.214,1.382-0.587l4.876-5.165
	c2.317-2.454,5.582-3.861,8.958-3.861c4.012,0,7.789,1.97,10.105,5.269c3.333,4.749,2.815,11.304-1.23,15.588l-2.992,3.17
	c-0.554,0.587-0.551,1.503,0.007,2.087l0.512,0.541c0.312,0.332,0.725,0.508,1.16,0.508c0.243,0,0.472-0.056,0.68-0.163l5.853-3.06
	c1.843-0.964,3.882-1.475,5.895-1.475c0.71,0,1.424,0.064,2.119,0.189c3.79,0.686,6.978,3.026,8.752,6.423
	c1.773,3.395,1.874,7.346,0.279,10.84c-1.126,2.464-3.125,4.543-5.632,5.855l-2.488,1.301c-0.397,0.208-0.703,0.519-0.9,0.885
	l0.712,2.818c0.359,0.244,0.786,0.386,1.224,0.386c0.099,0,0.196-0.007,0.294-0.022l5.122-0.771
	c0.651-0.098,1.311-0.148,1.964-0.148c2.145,0,4.233,0.538,6.042,1.556c3.35,1.881,5.597,5.135,6.165,8.925
	c0.569,3.775-0.621,7.541-3.265,10.325c-1.866,1.967-4.436,3.282-7.237,3.703l-2.723,0.409c-0.581,0.087-0.989,0.632-0.91,1.214
	l0.006,0.044c0.122,0.774,0.798,1.353,1.584,1.353h2.09c6.778,0,12.328,5.15,12.637,11.725c0.162,3.399-1.04,6.63-3.387,9.092
	c-2.356,2.464-5.52,3.818-8.917,3.818H76.176V171.906z"/>
<path style="fill:#EDB44F;" d="M166.67,49.486c-5.839,0.566-10.49,5.16-11.041,11.13l-0.631,6.873
	c-0.095,1.033-0.813,1.93-1.636,2.04c-0.098,0.013-0.193,0.02-0.287,0.02c-0.845,0-1.523-0.535-1.727-1.364l-1.102-4.487
	c-1.403-5.708-6.386-9.695-12.113-9.695c-0.761,0-1.526,0.074-2.285,0.221c-3.349,0.658-6.199,2.599-8.024,5.462
	c-1.83,2.867-2.391,6.264-1.58,9.567l1.598,6.506c0.222,0.9-0.186,1.785-1.015,2.205c-0.292,0.149-0.596,0.224-0.902,0.224
	c-0.303,0-1.064-0.084-1.572-0.873l-2.19-3.39c-2.337-3.622-6.43-5.873-10.678-5.873c-2.126,0-4.211,0.557-6.027,1.614
	c-2.948,1.713-5.008,4.476-5.804,7.785c-0.793,3.307-0.213,6.701,1.631,9.555l3.135,4.854c0.558,0.865,0.451,1.895-0.268,2.623
	c-0.547,0.553-1.172,0.635-1.495,0.635c-0.316,0-0.787-0.075-1.243-0.433l-2.588-2.027c-2.251-1.763-4.995-2.735-7.728-2.735
	l-0.202,0.001c-4.006,0.068-7.744,2.085-10.003,5.401c-3.624,5.332-2.418,12.681,2.748,16.732l3.444,2.701
	c0.827,0.647,1.1,1.845,0.638,2.784c-0.394,0.8-1.212,1.317-2.084,1.317c-0.245,0-0.49-0.042-0.724-0.122l-1.72-0.594
	c-1.367-0.474-2.794-0.714-4.239-0.714c-5.189,0-9.736,3.019-11.585,7.688c-1.252,3.161-1.163,6.6,0.255,9.69
	c1.419,3.084,3.966,5.393,7.173,6.5l3.039,1.05c1.09,0.376,1.804,1.522,1.66,2.67c-0.158,1.28-1.23,2.244-2.492,2.244h-0.499
	c-6.49,0-11.897,4.704-12.576,10.942c-0.379,3.498,0.739,6.995,3.075,9.603c2.335,2.599,5.676,4.091,9.168,4.091h90.495V49.486
	H166.67z"/>
<path style="fill:#EFA348;" d="M100.056,171.906v-14.678c0-36.731,29.882-66.613,66.613-66.613s66.613,29.883,66.613,66.613v14.678
	L100.056,171.906L100.056,171.906z"/>
<path style="fill:#961E15;" d="M485.679,166.621H358.27c-7.943,0-14.382-6.439-14.382-14.382v-40.252
	c0-7.943,6.439-14.382,14.382-14.382h127.409c7.943,0,14.382,6.439,14.382,14.382v40.252
	C500.062,160.181,493.622,166.621,485.679,166.621z"/>
<path style="fill:#87100E;" d="M400.195,142.221c-7.943,0-14.382-6.439-14.382-14.382V97.605H358.27
	c-7.943,0-14.382,6.439-14.382,14.382v40.252c0,7.943,6.439,14.382,14.382,14.382h127.409c7.943,0,14.382-6.439,14.382-14.382
	v-10.017h-99.867V142.221z"/>
<path style="fill:#68594E;" d="M384.351,494.991c-0.788,0-1.581-0.068-2.361-0.204c-3.646-0.629-6.825-2.645-8.947-5.678
	c-2.121-3.026-2.932-6.703-2.277-10.347l80.873-450.481c0.919-5.107,5.348-8.81,10.533-8.81c0.599,0,1.205,0.051,1.801,0.152
	c5.795,1.001,9.713,6.517,8.755,12.298l-74.786,451.531c-0.605,3.651-2.599,6.843-5.617,8.987
	C389.975,494.109,387.219,494.991,384.351,494.991L384.351,494.991z"/>
<path style="fill:#5B4A3F;" d="M463.974,19.624c-0.596-0.102-1.202-0.152-1.801-0.152c-5.185,0-9.615,3.704-10.533,8.81
	l-80.873,450.481c-0.655,3.644,0.155,7.321,2.277,10.347c2.122,3.033,5.301,5.049,8.947,5.678c0.044,0.008,0.089,0.01,0.135,0.017
	l84.591-474.304C465.861,20.097,464.947,19.791,463.974,19.624z"/>
<path style="fill:#68594E;" d="M465.469,493.912c-0.741,0.265-1.511,0.47-2.291,0.606c-3.644,0.638-7.317-0.187-10.339-2.326
	c-3.019-2.132-5.022-5.319-5.636-8.971l-75.927-451.34c-0.858-5.117,2.06-10.098,6.941-11.849c0.564-0.203,1.151-0.359,1.747-0.465
	c5.793-1.014,11.342,2.856,12.393,8.622l82.013,450.273c0.663,3.641-0.137,7.319-2.254,10.355
	C470.466,491.183,468.169,492.944,465.469,493.912L465.469,493.912z"/>
<g>
	<path style="fill:#5B4A3F;" d="M407.252,424.239l-25.487-4.299c-0.144-0.025-0.287-0.035-0.43-0.05l-2.716,15.129
		c0.192,0.047,0.383,0.096,0.582,0.129l25.487,4.299c0.18,0.031,0.357,0.028,0.537,0.045l2.509-15.146
		C407.574,424.308,407.415,424.267,407.252,424.239z"/>
	<path style="fill:#5B4A3F;" d="M439.809,439.264l24.41-4.117c0.761-0.129,1.475-0.367,2.134-0.692l-2.656-14.578
		c-0.666-0.066-1.351-0.053-2.043,0.064l-24.404,4.116L439.809,439.264z"/>
</g>
<g>
	<path style="fill:#E27F34;" d="M166.67,381.959L166.67,381.959c-36.732,0-66.614,29.883-66.614,66.613v14.678h66.614V381.959z"/>
	<path style="fill:#E27F34;" d="M166.67,90.613L166.67,90.613c-36.732,0-66.614,29.883-66.614,66.613v14.678h66.614V90.613z"/>
</g>
<path style="fill:#5B4A3F;" d="M463.179,494.517c0.676-0.118,1.344-0.296,1.993-0.513l-84.529-474.52
	c-0.226,0.025-0.452,0.044-0.68,0.084c-0.595,0.106-1.183,0.262-1.747,0.465c-4.88,1.75-7.8,6.732-6.941,11.848l75.928,451.341
	c0.614,3.651,2.618,6.839,5.636,8.971C455.862,494.331,459.534,495.155,463.179,494.517z"/>
<g>
</g>
<g>
</g>
<g>
</g>
<g>
</g>
<g>
</g>
<g>
</g>
<g>
</g>
<g>
</g>
<g>
</g>
<g>
</g>
<g>
</g>
<g>
</g>
<g>
</g>
<g>
</g>
<g>
</g>
</svg>
