<?xml version="1.0" encoding="iso-8859-1"?>
<!-- Generator: Adobe Illustrator 19.0.0, SVG Export Plug-In . SVG Version: 6.00 Build 0)  -->
<svg version="1.1" id="Capa_1" xmlns="http://www.w3.org/2000/svg" xmlns:xlink="http://www.w3.org/1999/xlink" x="0px" y="0px"
	 viewBox="0 0 512 512" style="enable-background:new 0 0 512 512;" xml:space="preserve">
<g>
	<path style="fill:#F9CC8C;" d="M504.381,150.455H90.376v15.238h414.005c4.209,0,7.619-3.41,7.619-7.619
		C512,153.865,508.59,150.455,504.381,150.455z"/>
	<path style="fill:#F9CC8C;" d="M504.381,322.645H90.376v15.238h414.005c4.209,0,7.619-3.41,7.619-7.619
		S508.59,322.645,504.381,322.645z"/>
</g>
<path style="fill:#B77B41;" d="M56.381,386.137C25.292,386.137,0,360.845,0,329.756s25.292-56.381,56.381-56.381
	s56.381,25.292,56.381,56.381S87.47,386.137,56.381,386.137z"/>
<path style="fill:#B75A15;" d="M52.279,329.756c0-21.658,12.283-40.492,30.242-49.931c-7.819-4.11-16.709-6.45-26.139-6.45
	C25.292,273.376,0,298.668,0,329.756s25.292,56.381,56.381,56.381c9.43,0,18.32-2.339,26.139-6.45
	C64.562,370.248,52.279,351.415,52.279,329.756z"/>
<path style="fill:#96401E;" d="M56.381,273.376c-27.56,0-50.548,19.882-55.416,46.051h17.011c7.252,0,13.154,5.9,13.154,13.154
	c0,7.705,6.269,13.974,13.974,13.974s13.974-6.269,13.974-13.974v-2.15c0-5.927,4.822-10.749,10.75-10.749
	c5.928,0,10.749,4.822,10.749,10.749c0,8.891,7.233,16.124,16.124,16.124h13.506c1.66-5.308,2.556-10.95,2.556-16.797
	C112.762,298.668,87.47,273.376,56.381,273.376z"/>
<path style="fill:#6D3113;" d="M52.72,330.583c0-21.749,11.891-40.759,29.504-50.91c-7.748-4.014-16.531-6.297-25.843-6.297
	c-27.56,0-50.548,19.882-55.416,46.051h17.011c7.252,0,13.154,5.9,13.154,13.154c0,7.705,6.269,13.974,13.974,13.974
	c3.437,0,6.582-1.253,9.019-3.318C53.221,339.157,52.72,334.929,52.72,330.583z"/>
<g>
	<path style="fill:#B77B41;" d="M203.843,386.137c-31.089,0-56.381-25.292-56.381-56.381s25.292-56.381,56.381-56.381
		s56.381,25.292,56.381,56.381S234.932,386.137,203.843,386.137z"/>
	<path style="fill:#B77B41;" d="M340.902,386.137c-31.089,0-56.381-25.292-56.381-56.381s25.292-56.381,56.381-56.381
		s56.381,25.292,56.381,56.381S371.99,386.137,340.902,386.137z"/>
</g>
<path style="fill:#B75A15;" d="M334.562,329.756c0-22.105,12.794-41.27,31.36-50.505c-7.545-3.754-16.038-5.876-25.021-5.876
	c-31.089,0-56.381,25.292-56.381,56.381s25.292,56.381,56.381,56.381c8.983,0,17.476-2.122,25.021-5.876
	C347.355,371.026,334.562,351.862,334.562,329.756z"/>
<path style="fill:#96401E;" d="M340.902,273.376c-26.688,0-49.089,18.645-54.9,43.59h15.076c4.232,0,7.677,3.444,7.677,7.676
	c0,6.954,5.656,12.611,12.611,12.611c6.955,0,12.611-5.656,12.611-12.611v-7.882c0-5.505,4.479-9.984,9.984-9.984
	c5.505,0,9.984,4.479,9.984,9.984v52.843v14.995v13.607c0,6.954,5.656,12.611,12.611,12.611s12.611-5.656,12.611-12.611v-27.087
	v-1.515v-39.107c0-6.106,4.33-11.519,10.297-12.869l6.17-1.397C389.555,291.654,367.328,273.376,340.902,273.376z"/>
<path style="fill:#6D3113;" d="M340.902,273.376c-26.583,0-48.907,18.501-54.825,43.298h14.396c1.424,0,2.757,0.386,3.91,1.051
	c2.58,1.238,4.371,3.869,4.371,6.917c0,6.954,5.656,12.611,12.611,12.611c6.955,0,12.611-5.656,12.611-12.611v-7.882
	c0-1.87,0.526-3.617,1.425-5.114c0.88-1.629,2.177-3.003,3.763-3.953c5.122-12.323,14.401-22.491,26.068-28.778
	C357.862,275.372,349.613,273.376,340.902,273.376z"/>
<path style="fill:#B77B41;" d="M56.381,213.947C25.292,213.947,0,188.655,0,157.566s25.292-56.381,56.381-56.381
	s56.381,25.292,56.381,56.381S87.47,213.947,56.381,213.947z"/>
<path style="fill:#B75A15;" d="M52.279,157.566c0-21.658,12.283-40.492,30.242-49.931c-7.819-4.11-16.709-6.45-26.139-6.45
	C25.292,101.185,0,126.477,0,157.566s25.292,56.381,56.381,56.381c9.43,0,18.32-2.339,26.139-6.45
	C64.562,198.058,52.279,179.224,52.279,157.566z"/>
<path style="fill:#96401E;" d="M56.381,101.185c-26.916,0-49.473,18.963-55.047,44.227h13.453c4.211,0,7.635,3.426,7.635,7.635
	c0,6.916,5.627,12.543,12.543,12.543s12.543-5.626,12.543-12.543v-7.839c0-5.476,4.455-9.929,9.929-9.929s9.93,4.455,9.93,9.929
	v49.257v18.399v13.349c0,6.916,5.627,12.543,12.543,12.543c6.916,0,12.543-5.626,12.543-12.543v-25.355v-6.394v-35.595
	c0-6.363,4.552-11.794,10.824-12.916l7.949-1.419C105.327,119.712,82.984,101.185,56.381,101.185z"/>
<path style="fill:#6D3113;" d="M56.381,101.185c-26.916,0-49.473,18.963-55.047,44.227h13.453c4.211,0,7.635,3.426,7.635,7.635
	c0,6.916,5.627,12.543,12.543,12.543s12.543-5.626,12.543-12.543v-7.839c0-5.439,4.397-9.866,9.822-9.924
	c5.098-11.757,13.981-21.498,25.104-27.695C74.637,103.505,65.778,101.185,56.381,101.185z"/>
<path style="fill:#B77B41;" d="M203.843,213.947c-31.089,0-56.381-25.292-56.381-56.381s25.292-56.381,56.381-56.381
	s56.381,25.292,56.381,56.381S234.932,213.947,203.843,213.947z"/>
<path style="fill:#B75A15;" d="M199.741,157.566c0-21.658,12.283-40.492,30.242-49.931c-7.819-4.11-16.709-6.45-26.139-6.45
	c-31.089,0-56.381,25.292-56.381,56.381s25.292,56.381,56.381,56.381c9.43,0,18.32-2.339,26.139-6.45
	C212.024,198.058,199.741,179.224,199.741,157.566z"/>
<path style="fill:#96401E;" d="M203.843,101.185c-31.089,0-56.381,25.292-56.381,56.381c0,2.707,0.203,5.366,0.574,7.972h10.944
	c0.062,0.003,0.483,0.018,0.483,0.018s0.452-0.016,0.532-0.021c6.892-0.143,12.455-5.794,12.455-12.719v-7.951
	c0-5.554,4.519-10.071,10.071-10.071s10.071,4.519,10.071,10.071v43.234v24.718v14.21c0,7.016,5.707,12.722,12.722,12.722
	s12.722-5.706,12.722-12.722v-14.893v-24.037V158.72c0-7.349,5.978-13.326,13.326-13.326h27.524
	C253.305,120.139,230.753,101.185,203.843,101.185z"/>
<path style="fill:#6D3113;" d="M203.843,101.185c-31.089,0-56.381,25.292-56.381,56.381c0,2.707,0.203,5.366,0.574,7.972h10.944
	c0.062,0.003,0.483,0.018,0.483,0.018s0.452-0.016,0.532-0.021c1.053-0.021,2.07-0.187,3.047-0.45
	c5.168-1.764,8.897-6.661,8.897-12.418v-8.201c0-5.727,4.66-10.388,10.388-10.388s10.388,4.66,10.388,10.388v44.592v25.495
	c3.751,0.763,7.631,1.165,11.603,1.165c4.728,0,9.318-0.588,13.718-1.662v-1.921v-12.639
	c-11.045-10.587-17.948-25.458-17.948-41.929c0-21.489,11.726-40.277,29.107-50.343
	C221.569,103.365,212.957,101.185,203.843,101.185z"/>
<path style="fill:#B77B41;" d="M340.902,213.947c-31.089,0-56.381-25.292-56.381-56.381s25.292-56.381,56.381-56.381
	s56.381,25.292,56.381,56.381S371.99,213.947,340.902,213.947z"/>
<g>
	<path style="fill:#B75A15;" d="M199.741,329.756c0-21.658,12.283-40.492,30.242-49.931c-7.819-4.11-16.709-6.45-26.139-6.45
		c-31.089,0-56.381,25.292-56.381,56.381s25.292,56.381,56.381,56.381c9.43,0,18.32-2.339,26.139-6.45
		C212.024,370.248,199.741,351.415,199.741,329.756z"/>
	<path style="fill:#B75A15;" d="M336.801,157.566c0-21.658,12.283-40.492,30.242-49.931c-7.819-4.11-16.709-6.45-26.139-6.45
		c-31.089,0-56.381,25.292-56.381,56.381s25.292,56.381,56.381,56.381c9.43,0,18.32-2.339,26.139-6.45
		C349.082,198.058,336.801,179.224,336.801,157.566z"/>
</g>
<path style="fill:#96401E;" d="M340.902,101.185c-27.776,0-50.908,20.195-55.527,46.669h19.69c7.328,0,13.292,5.963,13.292,13.292
	c0,7.787,6.335,14.122,14.122,14.122c7.787,0,14.122-6.335,14.122-14.122v-2.172c0-5.99,4.873-10.863,10.863-10.863
	c5.99,0,10.863,4.873,10.863,10.863c0,8.984,7.309,16.294,16.294,16.294h9.802c1.848-5.571,2.863-11.518,2.863-17.702
	C397.283,126.477,371.99,101.185,340.902,101.185z"/>
<path style="fill:#6D3113;" d="M337.291,158.461c0-21.751,11.844-40.774,29.412-51.001c-7.737-4.001-16.506-6.275-25.8-6.275
	c-27.776,0-50.908,20.195-55.527,46.669h19.69c7.328,0,13.292,5.963,13.292,13.292c0,7.787,6.335,14.122,14.122,14.122
	c2.454,0,4.762-0.632,6.775-1.737C337.979,168.718,337.291,163.669,337.291,158.461z"/>
<path style="fill:#96401E;" d="M203.843,273.376c-31.089,0-56.381,25.292-56.381,56.381c0,2.544,0.186,5.043,0.514,7.498h11.402
	c0.062,0.003,0.478,0.018,0.478,0.018s0.448-0.016,0.527-0.021c6.83-0.141,12.342-5.741,12.342-12.603v-7.879
	c0-5.503,4.477-9.98,9.98-9.98s9.98,4.477,9.98,9.98v42.861v25.394v13.16c0,6.952,5.655,12.606,12.606,12.606
	c6.951,0,12.606-5.654,12.606-12.606v-13.82V359.63V330.5c0-7.282,5.924-13.205,13.204-13.205h27.717
	C253.129,292.185,230.649,273.376,203.843,273.376z"/>
<path style="fill:#6D3113;" d="M147.58,333.233c0.02,0.338,0.051,0.674,0.077,1.011c0.083,1.01,0.186,2.014,0.319,3.011h11.402
	c0.062,0.003,0.478,0.018,0.478,0.018s0.448-0.016,0.527-0.021c6.83-0.141,12.342-5.741,12.342-12.603v-7.879
	c0-5.503,4.477-9.98,9.98-9.98s9.98,4.477,9.98,9.98v42.861v25.394c3.608,0.727,7.339,1.113,11.158,1.113
	c4.853,0,9.559-0.63,14.054-1.791v-13.202c-11.155-10.304-18.156-25.039-18.156-41.388c0-21.658,12.283-40.492,30.242-49.931
	c-1.924-1.012-3.915-1.913-5.961-2.701c-0.061-0.023-0.121-0.047-0.182-0.07c-2-0.763-4.055-1.413-6.156-1.947
	c-0.14-0.036-0.281-0.068-0.422-0.104c-0.921-0.227-1.851-0.43-2.79-0.611c-0.135-0.025-0.268-0.055-0.403-0.08
	c-1.032-0.191-2.073-0.352-3.124-0.486c-0.172-0.021-0.345-0.037-0.518-0.057c-0.863-0.102-1.734-0.181-2.609-0.243
	c-0.276-0.019-0.553-0.04-0.829-0.055c-1.042-0.058-2.09-0.098-3.146-0.098c-31.089,0-56.381,25.292-56.381,56.381
	c0,0.807,0.027,1.608,0.061,2.407C147.539,332.521,147.557,332.877,147.58,333.233z"/>
<g>
</g>
<g>
</g>
<g>
</g>
<g>
</g>
<g>
</g>
<g>
</g>
<g>
</g>
<g>
</g>
<g>
</g>
<g>
</g>
<g>
</g>
<g>
</g>
<g>
</g>
<g>
</g>
<g>
</g>
</svg>
