<?xml version="1.0" encoding="iso-8859-1"?>
<!-- Generator: Adobe Illustrator 19.0.0, SVG Export Plug-In . SVG Version: 6.00 Build 0)  -->
<svg version="1.1" id="Capa_1" xmlns="http://www.w3.org/2000/svg" xmlns:xlink="http://www.w3.org/1999/xlink" x="0px" y="0px"
	 viewBox="0 0 512.001 512.001" style="enable-background:new 0 0 512.001 512.001;" xml:space="preserve">
<g>
	<path style="fill:#BFBFBF;" d="M298.408,89.471H248.48c-3.257-15.865-16.284-28.485-32.83-30.689
		c-4.241-0.567-8.149,2.419-8.714,6.665c-0.566,4.246,2.419,8.149,6.665,8.714c8.814,1.174,15.948,7.286,18.803,15.309h-23.985
		c-4.285,0-7.758,3.472-7.758,7.758s3.472,7.758,7.758,7.758h24.01c-2.724,7.745-9.421,13.684-17.897,15.167
		c-4.22,0.737-7.044,4.758-6.305,8.978c0.659,3.769,3.934,6.422,7.632,6.422c0.444,0,0.894-0.038,1.346-0.117
		c15.974-2.794,28.175-15.063,31.288-30.449h49.915c4.285,0,7.758-3.472,7.758-7.758S302.693,89.471,298.408,89.471z"/>
	<path style="fill:#BFBFBF;" d="M131.445,120.501h-21.403c-4.793,0-8.677,3.472-8.677,7.758c0,4.285,3.884,7.758,8.677,7.758h21.403
		c4.793,0,8.677-3.472,8.677-7.758S136.238,120.501,131.445,120.501z"/>
	<path style="fill:#BFBFBF;" d="M110.042,73.955h21.195c4.793,0,8.677-3.472,8.677-7.758s-3.884-7.758-8.677-7.758h-21.195
		c-4.793,0-8.677,3.472-8.677,7.758S105.249,73.955,110.042,73.955z"/>
	<path style="fill:#BFBFBF;" d="M131.445,89.471h-21.403c-4.793,0-8.677,3.472-8.677,7.758s3.884,7.758,8.677,7.758h21.403
		c4.793,0,8.677-3.472,8.677-7.758S136.238,89.471,131.445,89.471z"/>
</g>
<g>
	<polygon style="fill:#F4F1E6;" points="157.22,149.463 129.292,149.463 129.292,45.565 157.22,44.772 	"/>
	<rect x="156.186" y="44.994" style="fill:#F4F1E6;" width="32.065" height="104.469"/>
	<path style="fill:#F4F1E6;" d="M187.216,226.522v-80.467c-0.003-0.062-0.019-0.471-0.019-0.471s0.016-0.41,0.019-0.471V44.772
		l27.927,0.792v180.957H187.216z"/>
</g>
<path style="fill:#A6C1AD;" d="M304.614,115.329c-9.98,0-18.101-8.121-18.101-18.101s8.121-18.101,18.101-18.101H470.11
	c9.98,0,18.101,8.121,18.101,18.101s-8.121,18.101-18.101,18.101H304.614z"/>
<path style="fill:#E2D9C5;" d="M144.391,156.703h35.585v92.057c0,4.285,3.472,7.758,7.758,7.758h26.893
	c4.285,0,7.758-3.472,7.758-7.758v-99.815v-0.866V64.979c0-15.013-12.215-27.226-27.226-27.226h-45.878
	c-15.013,0-27.226,12.215-27.226,27.226v69.385C122.052,146.683,132.074,156.703,144.391,156.703z M164.46,53.269h15.515v87.92
	H164.46V53.269z M206.868,64.979v83.101v0.866v92.057h-11.378v-95.16c0-0.087-0.01-0.172-0.013-0.259
	c0.003-0.087,0.013-0.172,0.013-0.259V53.286C201.794,53.464,206.868,58.635,206.868,64.979z M137.567,64.979
	c0-6.345,5.075-11.515,11.378-11.694v87.902h-4.554c-3.763,0-6.824-3.061-6.824-6.824V64.979z"/>
<path style="fill:#D3EF5E;" d="M348.187,274.175c-14.354,0-25.989-11.635-25.989-25.989v-11.104c0-1.793,1.453-3.247,3.247-3.247
	h11.104c14.354,0,25.989,11.635,25.989,25.989v14.351H348.187z"/>
<g>
	<path style="fill:#92B515;" d="M368.357,271.516c-14.354,0-25.989-11.635-25.989-25.989v-12.263c0-1.153,0.935-2.087,2.087-2.087
		h12.263c2.891,0,5.702,0.486,8.341,1.39c10.12,3.465,16.662,13.315,16.642,24.011l-0.028,14.938L368.357,271.516L368.357,271.516z"
		/>
	<path style="fill:#92B515;" d="M394.991,271.516c14.354,0,25.989-11.635,25.989-25.989v-12.263c0-1.153-0.935-2.087-2.087-2.087
		H406.63c-2.891,0-5.702,0.486-8.341,1.39c-10.12,3.465-16.662,13.315-16.642,24.011l0.028,14.938L394.991,271.516L394.991,271.516z
		"/>
</g>
<g>
	<path style="fill:#F47400;" d="M139.594,263.832l7.078-16.441c5.549-12.992,18.249-21.386,32.35-21.386h63.016
		c14.8,0,28.105,9.372,33.108,23.32l6.08,17.977L139.594,263.832z"/>
	<path style="fill:#F47400;" d="M132.56,264.275H84.743c-18.781,0-34.061,15.279-34.061,34.061v16.857h114.577v-50.918H132.56
		L132.56,264.275z"/>
</g>
<g>
	<path style="fill:#FF5B00;" d="M169.118,263.832l7.078-16.441c5.549-12.992,18.249-21.386,32.35-21.386h-29.523
		c-14.102,0-26.801,8.394-32.35,21.386l-7.078,16.441l141.631,3.47l-0.247-0.729L169.118,263.832z"/>
	<path style="fill:#FF5B00;" d="M114.266,264.275H84.743c-18.781,0-34.061,15.279-34.061,34.061v16.857h29.523v-16.857
		C80.205,279.556,95.486,264.275,114.266,264.275z"/>
</g>
<path style="fill:#F47400;" d="M310.69,304.615l-2.036-5.318c-1.928-5.039-4.507-9.842-7.663-14.275l-20.229-13.075h124.616
	c13.709,0,25.924,8.72,30.397,21.697l3.781,10.97H310.69V304.615z"/>
<path style="fill:#FF5B00;" d="M435.776,293.645c-4.473-12.977-16.688-21.697-30.397-21.697h-41.673
	c13.709,0,25.924,8.72,30.397,21.697l3.781,10.97h41.673L435.776,293.645z"/>
<g>
	<path style="fill:#F4F1E6;" d="M364.714,387.363l-10.387-83.782h95.339c42.429,36.718,16.661,83.782-19.895,83.782H364.714z"/>
	<path style="fill:#F4F1E6;" d="M408.584,361.504l1.531-9.581c0.345-2.162,0.52-4.332,0.52-6.451s-0.175-4.289-0.52-6.451
		l-1.531-9.581h21.187c8.841,0,16.032,7.192,16.032,16.032c0,8.841-7.192,16.032-16.032,16.032H408.584z"/>
	<path style="fill:#F4F1E6;" d="M269.772,387.363l18.647-14.762c15.55-12.311,24.47-30.681,24.47-50.402
		c0-3.005-0.224-6.09-0.666-9.168l-1.356-9.45h78.805c42.429,36.718,16.661,83.782-19.895,83.782H269.772z"/>
	<path style="fill:#F4F1E6;" d="M301.067,361.504l7.743-16.27c0.684-1.437,1.201-2.947,1.541-4.5l2.473-11.293h64.567
		c16.238,14.053,6.376,32.065-7.615,32.065h-68.71V361.504z"/>
	<path style="fill:#F4F1E6;" d="M269.483,256.891H166.155c-24.265,0-47.107,14.005-58.196,35.68l-6.161,12.044l49.829,82.748h101.1
		l0.276-0.019c53.184-3.554,88.426-70.935,32.682-124.027C281.326,259.166,275.504,256.891,269.483,256.891z"/>
	<path style="fill:#F4F1E6;" d="M173.733,361.648l1.565-9.605c0.359-2.203,0.54-4.415,0.54-6.571c0-0.685-0.02-1.363-0.052-2.041
		l-1.51-8.677h80.303c12.717-11.005,4.994-25.111-5.963-25.111h-82.461c-1.461,0-2.912,0.259-4.312,0.77l-3.577,1.305l-3.318-1.869
		c-3.199-1.801-6.615-3.158-10.15-4.033l-21.485,0.084l18.326-14.594c6.94-5.517,15.648-8.555,24.517-8.555h101.191
		c39.963,34.573,15.694,78.897-18.73,78.897L173.733,361.648L173.733,361.648z"/>
	<path style="fill:#F4F1E6;" d="M81.195,387.363c-36.556,0-62.325-47.064-19.895-83.782h94.12c0.013,0,0.027,0.005,0.036,0.014
		c19.94,17.945,25.617,39.363,18.438,57.364l-0.081,0.203l-0.092,0.198l-0.098,0.285l-0.095,0.218
		c-6.606,15.49-21.738,25.499-38.549,25.499H81.195V387.363z"/>
	<path style="fill:#F4F1E6;" d="M81.195,361.504c-13.991,0-23.852-18.012-7.614-32.065h69.015
		c16.238,14.053,6.376,32.065-7.614,32.065H81.195z"/>
</g>
<g>
	<path style="fill:#E2D9C5;" d="M158.254,345.472c0-12.832-10.441-23.273-23.273-23.273H81.195
		c-12.832,0-23.273,10.441-23.273,23.273s10.441,23.273,23.273,23.273h53.786C147.813,368.745,158.254,358.304,158.254,345.472z
		 M73.438,345.472c0-4.278,3.48-7.758,7.758-7.758h53.786c4.278,0,7.758,3.48,7.758,7.758s-3.48,7.758-7.758,7.758H81.195
		C76.917,353.229,73.438,349.75,73.438,345.472z"/>
	<path style="fill:#E2D9C5;" d="M429.77,296.34h-53.786c-0.609,0-1.199,0.078-1.768,0.21c-1.464-0.131-2.942-0.21-4.438-0.21
		h-53.395c-10.441-27.269-36.871-46.689-67.767-46.689h-82.461c-30.104,0-57.185,18.926-67.798,46.689H81.195
		c-27.091,0-49.132,22.041-49.132,49.132s22.041,49.132,49.132,49.132h42.116c0.477,0.091,0.967,0.144,1.471,0.144h123.834
		c1.468,0,2.922-0.057,4.368-0.144h116.794c1.497,0,2.975-0.079,4.438-0.21c0.569,0.132,1.158,0.21,1.768,0.21h53.786
		c27.091,0,49.132-22.041,49.132-49.132S456.862,296.34,429.77,296.34z M418.291,337.714h11.479c4.278,0,7.758,3.48,7.758,7.758
		s-3.48,7.758-7.758,7.758h-11.479c0.402-2.528,0.619-5.118,0.619-7.758C418.91,342.832,418.694,340.242,418.291,337.714z
		 M319.477,337.714h50.302c4.278,0,7.758,3.48,7.758,7.758s-3.48,7.758-7.758,7.758h-55.6
		C316.504,348.334,318.29,343.135,319.477,337.714z M166.155,265.166h82.461c31.447,0,57.033,25.585,57.033,57.033
		c0,30.157-23.532,54.907-53.197,56.889h-6.796c-0.504,0-0.994,0.052-1.471,0.144h-73.559c2.935-3.098,5.482-6.567,7.538-10.343
		h70.451c25.745,0,46.689-20.945,46.689-46.689c0-25.745-20.947-46.689-46.691-46.689h-82.461c-15.746,0-30.211,7.884-38.833,20.831
		h-11.996C124.927,277.574,144.546,265.166,166.155,265.166z M184.051,343.03h64.565c11.485,0,20.831-9.344,20.831-20.831
		c0-11.486-9.344-20.831-20.831-20.831h-82.461c-2.437,0-4.866,0.439-7.147,1.271c-3.793-2.136-7.893-3.785-12.221-4.856
		c5.416-4.305,12.195-6.758,19.368-6.758h82.461c17.189,0,31.174,13.985,31.174,31.174c0,17.189-13.985,31.174-31.174,31.174
		h-65.147c0.418-2.573,0.644-5.211,0.644-7.901C184.113,344.653,184.091,343.84,184.051,343.03z M248.616,316.883
		c2.93,0,5.316,2.385,5.316,5.316c0,2.93-2.385,5.316-5.316,5.316h-67.917c-1.497-3.797-3.451-7.362-5.798-10.63h73.715V316.883z
		 M47.579,345.472c0-18.537,15.08-33.616,33.616-33.616h22.854c0.013,0,0.027,0,0.041,0h30.892c18.537,0,33.616,15.08,33.616,33.616
		c0,4.387-0.853,8.575-2.388,12.42c-0.109,0.236-0.206,0.478-0.291,0.725c-5.127,12.022-17.064,20.471-30.937,20.471H81.196
		C62.659,379.088,47.579,364.008,47.579,345.472z M304.209,368.745h65.569c12.832,0,23.273-10.441,23.273-23.273
		s-10.441-23.273-23.273-23.273h-48.614c0-3.513-0.265-6.963-0.75-10.343h49.364c18.537,0,33.616,15.08,33.616,33.616
		s-15.08,33.616-33.616,33.616h-76.222C297.447,376.008,301.021,372.546,304.209,368.745z M429.77,379.088h-24.21
		c2.915-3.1,5.438-6.571,7.476-10.343h16.734c12.832,0,23.273-10.441,23.273-23.273s-10.441-23.273-23.273-23.273h-16.734
		c-2.038-3.772-4.561-7.243-7.476-10.343h24.21c18.537,0,33.616,15.08,33.616,33.616S448.307,379.088,429.77,379.088z"/>
</g>
<path style="fill:#EFE5AB;" d="M64.017,474.248c-7.065,0-12.811-5.748-12.811-12.811v-33.734h410.636v33.734
	c0,7.064-5.747,12.811-12.811,12.811L64.017,474.248L64.017,474.248z"/>
<path style="fill:#FCF7C5;" d="M32.763,442.183c-9.207,0-17.318-5.497-20.664-14.005l-11.5-29.234
	c-1.036-2.637-0.716-5.492,0.877-7.836c1.587-2.343,4.243-3.745,7.098-3.745H503.44c2.855,0,5.511,1.403,7.104,3.755
	c1.574,2.315,1.896,5.26,0.855,7.865l-11.485,29.198c-3.346,8.506-11.457,14.003-20.664,14.003L32.763,442.183L32.763,442.183z"/>
<path style="fill:#F4DE9F;" d="M91.209,417.503c-9.207,0-17.318-5.497-20.664-14.005l-6.348-16.135H8.574
	c-2.855,0-5.511,1.403-7.098,3.745c-1.594,2.345-1.914,5.2-0.877,7.836L12.1,428.178c3.346,8.509,11.457,14.005,20.664,14.005
	h446.485c9.206,0,17.317-5.497,20.664-14.003l4.201-10.678H91.209z"/>
<g>
</g>
<g>
</g>
<g>
</g>
<g>
</g>
<g>
</g>
<g>
</g>
<g>
</g>
<g>
</g>
<g>
</g>
<g>
</g>
<g>
</g>
<g>
</g>
<g>
</g>
<g>
</g>
<g>
</g>
</svg>
