<?xml version="1.0" encoding="iso-8859-1"?>
<!-- Generator: Adobe Illustrator 19.0.0, SVG Export Plug-In . SVG Version: 6.00 Build 0)  -->
<svg version="1.1" id="Capa_1" xmlns="http://www.w3.org/2000/svg" xmlns:xlink="http://www.w3.org/1999/xlink" x="0px" y="0px"
	 viewBox="0 0 511.998 511.998" style="enable-background:new 0 0 511.998 511.998;" xml:space="preserve">
<path style="fill:#92B515;" d="M138.622,158.033l-8.497,0.441c-2.43,0.126-4.805,0.538-7.068,1.228
	c-5.621-7.381-14.134-11.605-23.416-11.605c-16.227,0-29.428,13.201-29.428,29.428c0,2.17,0.245,4.351,0.727,6.488
	c-8.22,5.485-13.118,14.611-13.118,24.489c0,1.186,0.075,2.4,0.225,3.615c-16.083,0.158-29.137,13.319-29.137,29.427
	c0,9.032,4.007,17.349,11.031,22.968c-11.579,4.24-19.291,15.223-19.291,27.627c0,11.689,6.918,22.273,17.541,26.921l2.124,1.475
	h76.96l79.692-1.033V158.033H138.622z"/>
<path style="fill:#86A504;" d="M59.339,292.139c0-12.404,7.712-23.386,19.291-27.627c-7.022-5.619-11.031-13.936-11.031-22.968
	c0-16.108,13.054-29.269,29.137-29.427c-0.15-1.215-0.225-2.429-0.225-3.615c0-9.877,4.896-19.004,13.118-24.489
	c-0.482-2.136-0.727-4.318-0.727-6.488c0-8.834,3.918-16.764,10.101-22.163c-5.305-4.666-12.094-7.265-19.362-7.265
	c-16.227,0-29.428,13.201-29.428,29.428c0,2.17,0.245,4.351,0.727,6.488c-8.22,5.485-13.118,14.611-13.118,24.489
	c0,1.186,0.075,2.4,0.225,3.615c-16.083,0.158-29.137,13.319-29.137,29.427c0,9.032,4.007,17.349,11.031,22.968
	c-11.579,4.24-19.291,15.223-19.291,27.627c0,11.689,6.918,22.273,17.541,26.921l2.124,1.475h38.689l-2.124-1.475
	C66.257,314.412,59.339,303.827,59.339,292.139z"/>
<path style="fill:#D3EF5E;" d="M242.888,216.503H133.299v103.772h109.589c28.61,0,51.886-23.276,51.886-51.886
	S271.499,216.503,242.888,216.503z"/>
<path style="fill:#C2D320;" d="M242.888,276.263H133.299v44.013h109.589c28.61,0,51.886-23.276,51.886-51.886
	c0-7.864-1.768-15.321-4.912-22.007C281.567,264.019,263.635,276.263,242.888,276.263z"/>
<path style="fill:#6F8200;" d="M133.299,320.276c-28.61,0-51.886-23.276-51.886-51.886s23.276-51.886,51.886-51.886
	s51.886,23.276,51.886,51.886S161.91,320.276,133.299,320.276z"/>
<path style="fill:#D1E513;" d="M133.299,299.868c-17.357,0-31.479-14.121-31.479-31.479s14.121-31.479,31.479-31.479
	s31.479,14.121,31.479,31.479S150.657,299.868,133.299,299.868z"/>
<g>
	<path style="fill:#92B515;" d="M481.95,307.627c-7.707,0-14.201-5.296-16.033-12.44c-1.832,7.144-8.326,12.44-16.032,12.44
		c-9.126,0-16.549-7.423-16.549-16.549c0-2.144,0.414-4.238,1.232-6.234h-21.544l-3.152-34.785h24.375
		c-0.604-1.745-0.911-3.555-0.911-5.39c0-9.126,7.423-16.549,16.549-16.549c7.707,0,14.2,5.296,16.032,12.44
		c1.832-7.144,8.326-12.44,16.033-12.44c9.125,0,16.548,7.423,16.548,16.549c0,2.185-0.43,4.317-1.279,6.346
		c8.346,0.89,14.78,7.972,14.78,16.436c0,8.661-6.58,15.747-15.125,16.468c1.079,2.238,1.624,4.64,1.624,7.158
		C498.498,300.203,491.075,307.627,481.95,307.627z"/>
	<path style="fill:#92B515;" d="M419.735,202.822c-9.542,0-17.555-6.67-19.619-15.595c-2.064,8.924-10.077,15.595-19.619,15.595
		c-11.102,0-20.135-9.033-20.135-20.135c0-2.668,0.527-5.27,1.566-7.744h-35.717l-7.303-42.335h42.617
		c-0.771-2.173-1.163-4.426-1.163-6.712c0-11.102,9.033-20.135,20.135-20.135c9.542,0,17.555,6.67,19.619,15.595
		c2.064-8.924,10.077-15.595,19.619-15.595c11.102,0,20.135,9.033,20.135,20.135c0,2.71-0.543,5.354-1.618,7.866
		c10.232,1.011,18.139,9.662,18.139,20.013c0,10.594-8.094,19.252-18.572,20.051c1.361,2.765,2.051,5.742,2.051,8.86
		C439.87,193.789,430.837,202.822,419.735,202.822z"/>
</g>
<path style="fill:#EFE5AB;" d="M63.906,406.237c-7.052,0-12.789-5.738-12.789-12.789v-33.676h409.927v33.676
	c0,7.051-5.737,12.789-12.789,12.789H63.906z"/>
<path style="fill:#FCF7C5;" d="M32.706,374.227c-9.191,0-17.288-5.487-20.629-13.981l-11.48-29.183
	c-1.035-2.632-0.715-5.483,0.876-7.823c1.584-2.339,4.236-3.739,7.085-3.739h494.012c2.85,0,5.501,1.4,7.092,3.748
	c1.572,2.311,1.893,5.251,0.854,7.852l-11.466,29.147c-3.34,8.492-11.438,13.979-20.629,13.979H32.706z"/>
<path style="fill:#F4DE9F;" d="M91.051,349.588c-9.191,0-17.288-5.487-20.629-13.981L64.086,319.5H8.559
	c-2.85,0-5.501,1.4-7.085,3.739c-1.591,2.341-1.91,5.191-0.876,7.823l11.481,29.183c3.34,8.494,11.438,13.981,20.629,13.981h445.715
	c9.19,0,17.287-5.487,20.629-13.979l4.193-10.659H91.051z"/>
<path style="fill:#D3EF5E;" d="M299.222,113.505H189.633v103.772h109.589c28.61,0,51.886-23.276,51.886-51.886
	S327.832,113.505,299.222,113.505z"/>
<path style="fill:#C2D320;" d="M299.222,173.265H189.633v44.013h109.589c28.61,0,51.886-23.276,51.886-51.886
	c0-7.864-1.768-15.321-4.912-22.007C337.901,161.021,319.968,173.265,299.222,173.265z"/>
<g>
	<path style="fill:#6F8200;" d="M268.981,196.627c-6.547,0-11.874-5.327-11.874-11.874c0-6.547,5.327-11.874,11.874-11.874
		c6.547,0,11.874,5.327,11.874,11.874C280.856,191.3,275.529,196.627,268.981,196.627z"/>
	<path style="fill:#6F8200;" d="M299.466,164.235c-1.654,0-3.261-0.481-4.65-1.39l-10.067-6.608
		c-1.84-1.245-3.103-3.129-3.556-5.304c-0.468-2.248-0.025-4.536,1.246-6.443l3.741-5.701c1.245-1.839,3.129-3.102,5.303-3.554
		l0.834-0.173l0.908-0.006c1.627,0,3.214,0.467,4.59,1.352l10.127,6.648c1.84,1.245,3.103,3.129,3.556,5.304
		c0.468,2.248,0.025,4.537-1.247,6.445l-3.74,5.699c-1.245,1.839-3.129,3.102-5.303,3.554l-0.834,0.173L299.466,164.235z"/>
	<path style="fill:#6F8200;" d="M189.633,217.278c-28.61,0-51.886-23.276-51.886-51.886s23.276-51.886,51.886-51.886
		s51.886,23.276,51.886,51.886S218.243,217.278,189.633,217.278z"/>
</g>
<path style="fill:#D1E513;" d="M189.633,196.87c-17.357,0-31.479-14.121-31.479-31.479s14.121-31.479,31.479-31.479
	s31.479,14.121,31.479,31.479S206.99,196.87,189.633,196.87z"/>
<path style="fill:#D3EF5E;" d="M376.8,216.503H267.211v103.772H376.8c28.61,0,51.886-23.276,51.886-51.886
	S405.411,216.503,376.8,216.503z"/>
<path style="fill:#C2D320;" d="M376.8,276.263H267.211v44.013H376.8c28.61,0,51.886-23.276,51.886-51.886
	c0-7.864-1.768-15.321-4.912-22.007C415.479,264.019,397.547,276.263,376.8,276.263z"/>
<g>
	<path style="fill:#6F8200;" d="M354.192,301.565c-1.67,0-3.284-0.485-4.675-1.405l-10.045-6.593
		c-1.839-1.245-3.102-3.129-3.554-5.303c-0.468-2.248-0.025-4.537,1.246-6.445l3.741-5.699c1.245-1.839,3.129-3.102,5.303-3.554
		l0.834-0.173l0.909-0.006c1.632,0,3.223,0.469,4.599,1.358l10.119,6.641c1.839,1.245,3.102,3.129,3.554,5.303
		c0.468,2.248,0.025,4.537-1.247,6.445l-3.739,5.698c-1.245,1.839-3.129,3.102-5.304,3.555l-0.932,0.173L354.192,301.565z"/>
	<path style="fill:#6F8200;" d="M391.856,274.069c-6.547,0-11.874-5.327-11.874-11.874c0-6.547,5.327-11.874,11.874-11.874
		s11.874,5.327,11.874,11.874C403.731,268.742,398.404,274.069,391.856,274.069z"/>
	<path style="fill:#6F8200;" d="M267.211,320.276c-28.61,0-51.886-23.276-51.886-51.886s23.276-51.886,51.886-51.886
		s51.886,23.276,51.886,51.886S295.822,320.276,267.211,320.276z"/>
</g>
<path style="fill:#D1E513;" d="M267.211,299.868c-17.357,0-31.479-14.121-31.479-31.479s14.121-31.479,31.479-31.479
	s31.479,14.121,31.479,31.479S284.569,299.868,267.211,299.868z"/>
<path style="fill:#D3EF5E;" d="M181.028,174.821v20.843c2.737,0.78,5.622,1.205,8.605,1.205c13.783,0,25.517-8.908,29.769-21.266
	l-23.233-12.763L181.028,174.821z"/>
<g>
	<path style="fill:#A8BA3A;" d="M158.155,165.392c0,14.781,10.243,27.209,24.002,30.574v-20.638l14.013-12.487l-2.745-6.006
		l-3.272-22.908c-0.173-0.002-0.345-0.013-0.519-0.013C172.276,133.913,158.155,148.034,158.155,165.392z"/>
	<path style="fill:#A8BA3A;" d="M137.713,299.552c15.275-2.153,27.066-15.304,27.066-31.163c0-5.367-1.353-10.424-3.732-14.849
		l-30.829,14.524L137.713,299.552z"/>
</g>
<path style="fill:#D3EF5E;" d="M133.299,236.911c-9.703,0-18.392,4.415-24.171,11.34l21.652,20.84l30.8-14.509
	C156.456,244.128,145.707,236.911,133.299,236.911z"/>
<path style="fill:#A8BA3A;" d="M267.211,299.868c17.357,0,31.479-14.121,31.479-31.479c0-6.858-2.212-13.206-5.95-18.383
	l-14.896,5.425l-8.043,17.232l-3.396,27.183C266.674,299.854,266.942,299.868,267.211,299.868z"/>
<path style="fill:#D3EF5E;" d="M267.211,236.911c-16.503,0-30.071,12.768-31.367,28.943l33.857,7.618l8.97-17.139l14.738-5.372
	C287.76,242.498,278.128,236.911,267.211,236.911z"/>
<g>
	<path style="fill:#A8BA3A;" d="M312.8,175.408l-11.358,4.13c-4.02,1.462-6.092,5.905-4.631,9.925
		c1.144,3.146,4.114,5.099,7.28,5.099c0.879,0,1.772-0.151,2.646-0.468l11.358-4.13c4.02-1.462,6.092-5.905,4.631-9.925
		C321.263,176.021,316.824,173.944,312.8,175.408z"/>
	<path style="fill:#A8BA3A;" d="M346.711,248.267l7.228,4.13c1.212,0.693,2.532,1.021,3.835,1.021c2.689,0,5.302-1.401,6.731-3.903
		c2.123-3.713,0.832-8.444-2.882-10.565l-7.228-4.13c-3.713-2.122-8.444-0.832-10.565,2.882
		C341.708,241.414,342.998,246.145,346.711,248.267z"/>
	<path style="fill:#A8BA3A;" d="M198.602,289.826l-6.195,4.13c-3.559,2.373-4.521,7.18-2.148,10.739
		c1.492,2.239,3.947,3.45,6.45,3.45c1.477,0,2.969-0.421,4.288-1.302l6.195-4.13c3.559-2.373,4.521-7.18,2.148-10.739
		C206.969,288.415,202.16,287.454,198.602,289.826z"/>
</g>
<g>
</g>
<g>
</g>
<g>
</g>
<g>
</g>
<g>
</g>
<g>
</g>
<g>
</g>
<g>
</g>
<g>
</g>
<g>
</g>
<g>
</g>
<g>
</g>
<g>
</g>
<g>
</g>
<g>
</g>
</svg>
