<?xml version="1.0" encoding="iso-8859-1"?>
<!-- Generator: Adobe Illustrator 19.0.0, SVG Export Plug-In . SVG Version: 6.00 Build 0)  -->
<svg version="1.1" id="Capa_1" xmlns="http://www.w3.org/2000/svg" xmlns:xlink="http://www.w3.org/1999/xlink" x="0px" y="0px"
	 viewBox="0 0 511.999 511.999" style="enable-background:new 0 0 511.999 511.999;" xml:space="preserve">
<g>
	<polygon style="fill:#D1FFC5;" points="418.135,34.143 341.338,119.473 342.02,120.497 295.771,151.984 317.36,91.997 
		392.536,8.544 	"/>
	<polygon style="fill:#D1FFC5;" points="343.983,221.699 503.466,213.337 503.466,256.002 278.534,270.082 244.402,246.36 
		375.043,153.008 375.47,153.605 469.333,110.94 486.399,153.605 	"/>
</g>
<polygon style="fill:#89D84F;" points="317.36,91.997 295.771,151.984 342.02,120.497 457.728,41.567 483.328,75.699 
	375.043,153.008 244.402,246.36 221.875,221.87 218.803,220.761 298.672,8.544 341.338,25.61 "/>
<g>
	<path style="fill:#307E45;" d="M59.918,469.328c-4.292,5.145-10.231,8.644-16.81,9.898c-1.51-9.054,1.331-18.286,7.68-24.917
		l172.624-182.607L59.918,469.328z"/>
	<path style="fill:#307E45;" d="M278.534,270.082L94.05,492.965c-5.529,6.639-13.721,10.479-22.357,10.496
		c-14.156-0.051-26.214-10.282-28.586-24.234c6.579-1.254,12.518-4.753,16.81-9.898l163.493-197.625l20.991-25.343L278.534,270.082z
		"/>
</g>
<path style="fill:#2A6E3C;" d="M221.875,221.87l22.527,24.49l-20.991,25.343L50.787,454.31c-6.349,6.63-9.19,15.863-7.68,24.916
	c-1.818,0.418-3.678,0.614-5.546,0.597c-7.697,0.026-15.078-3.046-20.479-8.533c-11.178-11.161-11.366-29.217-0.427-40.617
	l202.148-209.913L221.875,221.87z"/>
<path d="M503.013,204.804l-116.749,6.144l103.822-49.662c4.062-1.928,5.93-6.681,4.267-10.863l-17.066-42.665
	c-1.749-4.377-6.715-6.502-11.093-4.761c-0.128,0.051-0.247,0.102-0.367,0.162l-17.151,7.782l39.585-28.279
	c3.831-2.739,4.719-8.072,1.98-11.904c-0.034-0.051-0.077-0.102-0.111-0.154l-25.599-34.132c-2.739-3.652-7.867-4.505-11.639-1.928
	l-61.208,41.761l32.801-36.453c3.038-3.371,2.901-8.533-0.307-11.741L398.577,2.511c-1.69-1.613-3.934-2.509-6.263-2.5
	c-2.338,0.06-4.557,1.084-6.118,2.824l-46.01,51.121l9.173-25.454c1.562-4.326-0.589-9.113-4.855-10.82L301.838,0.616
	c-4.377-1.749-9.344,0.384-11.093,4.753c-0.017,0.051-0.043,0.102-0.06,0.162l-79.281,210.621L10.511,424.769
	c-14.378,14.899-13.952,38.629,0.947,53.007c6.835,6.596,15.923,10.351,25.42,10.504c1.843,4.761,4.659,9.096,8.269,12.714
	c7.048,7.04,16.588,10.991,26.546,10.999c0.589,0,1.178,0,1.758-0.043c10.555-0.503,20.411-5.427,27.161-13.568l182.112-220.059
	l221.279-13.789c4.505-0.282,8.004-4.019,7.995-8.533v-42.665c0-2.347-0.964-4.582-2.662-6.195
	C507.647,205.521,505.351,204.676,503.013,204.804z M392.86,20.934l13.516,13.516l-71.379,79.357l0.742,0.674l-23.039,15.692
	l12.125-33.62L392.86,20.934z M303.587,19.705l26.922,10.76l-20.59,57.12l-0.521,0.58l0.23,0.213l-20.966,58.153l-23.5,16.025
	l9.617,14.088L455.766,53.248l15.47,20.624L245.563,235.071l-16.341-17.817L303.587,19.705z M44.643,448.414
	c-5.862,6.169-9.429,14.173-10.103,22.664c-4.36-0.614-8.397-2.654-11.485-5.794c-7.833-7.91-7.953-20.624-0.265-28.68
	L219.708,232.11l13.354,14.557l-16.085,19.43L44.643,448.414z M87.462,487.504c-3.652,4.471-9.036,7.176-14.805,7.424
	c-7.722,0.469-15.018-3.592-18.679-10.41c4.813-2.33,9.079-5.657,12.501-9.77l179.476-216.867l20.053,13.883L87.462,487.504z
	 M494.932,247.99l-214,13.354l-21.725-15.052l119.574-85.407l0.222,0.486l85.723-38.962l10.786,26.93l-133.704,63.998h-0.922v0.384
	l-54.432,26.068l7.373,15.359l52.273-25.002l148.833-7.816L494.932,247.99L494.932,247.99z"/>
<g>
</g>
<g>
</g>
<g>
</g>
<g>
</g>
<g>
</g>
<g>
</g>
<g>
</g>
<g>
</g>
<g>
</g>
<g>
</g>
<g>
</g>
<g>
</g>
<g>
</g>
<g>
</g>
<g>
</g>
</svg>
