<?xml version="1.0" encoding="iso-8859-1"?>
<!-- Generator: Adobe Illustrator 19.0.0, SVG Export Plug-In . SVG Version: 6.00 Build 0)  -->
<svg version="1.1" id="Capa_1" xmlns="http://www.w3.org/2000/svg" xmlns:xlink="http://www.w3.org/1999/xlink" x="0px" y="0px"
	 viewBox="0 0 496.033 496.033" style="enable-background:new 0 0 496.033 496.033;" xml:space="preserve">
<path style="fill:#A4895A;" d="M488.033,368.017c0,66.4-43.2,120-96,120s-96-53.6-96-120"/>
<path d="M392.033,496.017c-57.6,0-104-57.6-104-128h16c0,61.6,39.2,112,88,112s88-50.4,88-112h16
	C496.033,438.417,449.633,496.017,392.033,496.017z"/>
<path style="fill:#A4895A;" d="M488.033,120.017c0-61.6-57.6-112-128-112s-128,50.4-128,112c0,52.8,41.6,96.8,97.6,108.8
	c6.4,42.4,39.2,75.2,78.4,75.2c44,0,80-40.8,80-92c0-16-4-32-11.2-46.4C484.033,151.217,488.033,136.017,488.033,120.017z"/>
<path style="fill:#BFA77A;" d="M280.033,232.017c0-79.2-53.6-144-120-144c-52.8,0-98.4,41.6-113.6,98.4
	c-25.6,36.8-39.2,80.8-38.4,125.6c0,97.6,57.6,176,128,176s128-78.4,128-176c0-2.4,0-5.6,0-8
	C274.433,281.617,280.033,256.817,280.033,232.017z"/>
<path d="M136.033,496.017c-75.2,0-136-82.4-136-184c-0.8-45.6,12.8-91.2,39.2-128.8c17.6-61.6,65.6-103.2,120.8-103.2
	c70.4,0,128,68,128,152c0,25.6-5.6,50.4-16,73.6c0,2.4,0,4,0,6.4C272.033,413.617,211.233,496.017,136.033,496.017z M160.033,96.017
	c-48,0-90.4,37.6-106.4,92.8c0,0.8-0.8,1.6-1.6,2.4c-24,35.2-36.8,77.6-36,120.8c0,92.8,53.6,168,120,168s120-75.2,120-168
	c0-2.4,0-5.6,0-8c0-1.6,0-2.4,0.8-4c10.4-20.8,15.2-44,15.2-68C272.033,156.817,221.633,96.017,160.033,96.017z"/>
<rect x="144.033" y="128.017" width="48" height="16"/>
<rect x="56.033" y="144.017" width="64" height="16"/>
<rect x="208.033" y="160.017" width="56" height="16"/>
<rect x="240.033" y="208.017" width="40" height="16"/>
<rect x="160.033" y="240.017" width="64" height="16"/>
<rect x="48.033" y="176.017" width="56" height="16"/>
<rect x="208.033" y="304.017" width="56" height="16"/>
<rect x="8.033" y="320.017" width="88" height="16"/>
<rect x="200.033" y="336.017" width="64" height="16"/>
<rect x="8.033" y="288.017" width="72" height="16"/>
<rect x="176.033" y="416.017" width="56" height="16"/>
<rect x="64.033" y="448.017" width="56" height="16"/>
<rect x="112.033" y="368.017" width="16" height="16"/>
<rect x="80.033" y="384.017" width="16" height="16"/>
<rect x="136.033" y="272.017" width="16" height="16"/>
<rect x="88.033" y="208.017" width="16" height="16"/>
<ellipse style="fill:#BFA77A;" cx="392.033" cy="368.017" rx="96" ry="32"/>
<path d="M392.033,408.017c-52,0-104-13.6-104-40s52-40,104-40s104,13.6,104,40S444.033,408.017,392.033,408.017z M392.033,344.017
	c-56.8,0-88,16-88,24s31.2,24,88,24s88-16,88-24S448.833,344.017,392.033,344.017z"/>
<rect x="344.033" y="424.017" width="16" height="16"/>
<rect x="376.033" y="440.017" width="16" height="16"/>
<rect x="424.033" y="424.017" width="16" height="16"/>
<path d="M408.033,312.017c-41.6,0-77.6-32.8-86.4-76.8c-17.6-4.8-33.6-12-48.8-22.4l9.6-12.8c14.4,10.4,30.4,17.6,48,21.6
	c3.2,0.8,5.6,3.2,6.4,6.4c4.8,39.2,36,68.8,71.2,68.8c40,0,72-36,72-80c0-15.2-4-30.4-12-43.2c-1.6-2.4-1.6-5.6,0-8
	c8-13.6,12-28.8,12-44.8c0-57.6-53.6-104-120-104c-65.6,0-118.4,44.8-120,100.8l-16-0.8c2.4-65.6,61.6-116.8,136-116.8
	c75.2,0,136,53.6,136,120c0,16.8-4,33.6-12,48c8,14.4,12,31.2,12,48C496.033,268.817,456.833,312.017,408.033,312.017z"/>
<rect x="352.033" y="32.017" width="16" height="16"/>
<rect x="384.033" y="48.017" width="16" height="16"/>
<rect x="416.033" y="64.017" width="16" height="16"/>
<rect x="432.033" y="96.017" width="16" height="16"/>
<rect x="384.033" y="104.017" width="16" height="16"/>
<rect x="360.033" y="80.017" width="16" height="16"/>
<rect x="320.033" y="64.017" width="16" height="16"/>
<rect x="400.033" y="264.017" width="16" height="16"/>
<rect x="416.033" y="232.017" width="16" height="16"/>
<rect x="320.033" y="128.017" width="32" height="16"/>
<rect x="304.033" y="160.017" width="32" height="16"/>
<g>
</g>
<g>
</g>
<g>
</g>
<g>
</g>
<g>
</g>
<g>
</g>
<g>
</g>
<g>
</g>
<g>
</g>
<g>
</g>
<g>
</g>
<g>
</g>
<g>
</g>
<g>
</g>
<g>
</g>
</svg>
