<?xml version="1.0" encoding="iso-8859-1"?>
<!-- Generator: Adobe Illustrator 19.0.0, SVG Export Plug-In . SVG Version: 6.00 Build 0)  -->
<svg version="1.1" id="Capa_1" xmlns="http://www.w3.org/2000/svg" xmlns:xlink="http://www.w3.org/1999/xlink" x="0px" y="0px"
	 viewBox="0 0 512 512" style="enable-background:new 0 0 512 512;" xml:space="preserve">
<path style="fill:#303C42;" d="M437.333,149.333V42.667C437.333,19.135,418.188,0,394.667,0H117.333
	C93.813,0,74.667,19.135,74.667,42.667v106.667C68.771,149.333,64,154.104,64,160v192c0,5.896,4.771,10.667,10.667,10.667v106.667
	c0,23.531,19.146,42.667,42.667,42.667h277.333c23.521,0,42.667-19.135,42.667-42.667V362.667c5.896,0,10.667-4.771,10.667-10.667
	V160C448,154.104,443.229,149.333,437.333,149.333z"/>
<path style="fill:#FAFAFA;" d="M96,42.667c0-11.76,9.563-21.333,21.333-21.333h277.333c11.771,0,21.333,9.573,21.333,21.333v106.667
	H96V42.667z"/>
<rect x="85.333" y="170.667" style="fill:#69B342;" width="341.333" height="170.667"/>
<rect x="85.333" y="170.667" style="opacity:0.2;fill:#FFFFFF;enable-background:new    ;" width="21.333" height="170.667"/>
<rect x="405.333" y="170.667" style="opacity:0.1;enable-background:new    ;" width="21.333" height="170.667"/>
<path style="fill:#FAFAFA;" d="M416,469.333c0,11.76-9.563,21.333-21.333,21.333H117.333c-11.771,0-21.333-9.573-21.333-21.333
	V362.667h320V469.333z"/>
<path style="fill:#FFFFFF;" d="M135.822,21.333h-18.488C105.563,21.333,96,30.906,96,42.667v106.667h21.333V42.667
	C117.333,30.906,125.621,21.333,135.822,21.333z"/>
<path style="opacity:0.1;enable-background:new    ;" d="M394.667,21.333h-18.488c10.201,0,18.488,9.573,18.488,21.333v106.667H416
	V42.667C416,30.906,406.438,21.333,394.667,21.333z"/>
<path style="opacity:0.1;enable-background:new    ;" d="M394.667,362.667v106.667c0,11.76-8.288,21.333-18.488,21.333h18.488
	c11.771,0,21.333-9.573,21.333-21.333V362.667H394.667z"/>
<path style="fill:#FFFFFF;" d="M117.333,469.333V362.667H96v106.667c0,11.76,9.563,21.333,21.333,21.333h18.488
	C125.621,490.667,117.333,481.094,117.333,469.333z"/>
<g>
	<path style="fill:#303C42;" d="M181.333,288c0,17.646,14.354,32,32,32s32-14.354,32-32v-42.667c0-17.646-14.354-32-32-32
		s-32,14.354-32,32V288z M202.667,245.333c0-5.885,4.792-10.667,10.667-10.667S224,239.448,224,245.333V288
		c0,5.885-4.792,10.667-10.667,10.667s-10.667-4.781-10.667-10.667V245.333z"/>
	<path style="fill:#303C42;" d="M277.333,320c5.896,0,10.667-4.771,10.667-10.667v-32h21.333c5.896,0,10.667-4.771,10.667-10.667
		c0-5.896-4.771-10.667-10.667-10.667H288v-21.333h32c5.896,0,10.667-4.771,10.667-10.667c0-5.896-4.771-10.667-10.667-10.667
		h-42.667c-5.896,0-10.667,4.771-10.667,10.667v85.333C266.667,315.229,271.438,320,277.333,320z"/>
	<path style="fill:#303C42;" d="M373.333,320c17.646,0,32-14.354,32-32v-64c0-5.896-4.771-10.667-10.667-10.667
		c-5.896,0-10.667,4.771-10.667,10.667v64c0,5.885-4.792,10.667-10.667,10.667s-10.667-4.781-10.667-10.667v-64
		c0-5.896-4.771-10.667-10.667-10.667c-5.896,0-10.667,4.771-10.667,10.667v64C341.333,305.646,355.688,320,373.333,320z"/>
	<path style="fill:#303C42;" d="M106.667,234.667H128v74.667c0,5.896,4.771,10.667,10.667,10.667s10.667-4.771,10.667-10.667
		v-74.667h21.333c5.896,0,10.667-4.771,10.667-10.667c0-5.896-4.771-10.667-10.667-10.667h-64C100.771,213.333,96,218.104,96,224
		C96,229.896,100.771,234.667,106.667,234.667z"/>
	<circle style="fill:#303C42;" cx="160" cy="416" r="32"/>
</g>
<circle style="fill:#D8DCDB;" cx="160" cy="416" r="10.667"/>
<g>
	<circle style="fill:#303C42;" cx="202.667" cy="458.667" r="10.667"/>
	<circle style="fill:#303C42;" cx="352" cy="74.667" r="32"/>
</g>
<circle style="fill:#D8DCDB;" cx="352" cy="74.667" r="10.667"/>
<g>
	<circle style="fill:#303C42;" cx="373.333" cy="117.333" r="10.667"/>
	<circle style="fill:#303C42;" cx="288" cy="96" r="10.667"/>
</g>
<linearGradient id="SVGID_1_" gradientUnits="userSpaceOnUse" x1="-45.6849" y1="639.6048" x2="-23.7213" y2="629.364" gradientTransform="matrix(21.3333 0 0 -21.3333 996.3334 13791.667)">
	<stop  offset="0" style="stop-color:#FFFFFF;stop-opacity:0.2"/>
	<stop  offset="1" style="stop-color:#FFFFFF;stop-opacity:0"/>
</linearGradient>
<path style="fill:url(#SVGID_1_);" d="M437.333,149.333V42.667C437.333,19.135,418.188,0,394.667,0H117.333
	C93.813,0,74.667,19.135,74.667,42.667v106.667C68.771,149.333,64,154.104,64,160v192c0,5.896,4.771,10.667,10.667,10.667v106.667
	c0,23.531,19.146,42.667,42.667,42.667h277.333c23.521,0,42.667-19.135,42.667-42.667V362.667c5.896,0,10.667-4.771,10.667-10.667
	V160C448,154.104,443.229,149.333,437.333,149.333z"/>
<g>
</g>
<g>
</g>
<g>
</g>
<g>
</g>
<g>
</g>
<g>
</g>
<g>
</g>
<g>
</g>
<g>
</g>
<g>
</g>
<g>
</g>
<g>
</g>
<g>
</g>
<g>
</g>
<g>
</g>
</svg>
